<svg width="320" height="320" viewBox="0 0 320 320" fill="none" xmlns="http://www.w3.org/2000/svg">
<path d="M185.828 109.376L130.896 141.316L114.257 291.965L205.5 260.291L185.828 109.376Z" fill="url(#paint0_linear_7257_12264)"/>
<path d="M249.015 140.783L185.828 109.376L205.5 260.291L305 291.965L249.018 140.783H249.015Z" fill="url(#paint1_linear_7257_12264)"/>
<path d="M130.896 141.319L82.9483 110.025L30 260.406L114.261 291.968L130.899 141.319H130.896Z" fill="url(#paint2_linear_7257_12264)"/>
<g opacity="0.8">
<path d="M114.583 222.329C114.919 219.794 117.511 218.73 120.39 219.955H120.394C120.995 220.212 121.573 220.547 122.103 220.948C123.789 220.76 125.059 221.36 125.407 222.651C128.023 231.957 138.374 236.178 151.979 233.544C154.545 233.043 156.331 234.19 156.321 236.304L156.22 257.775C156.207 260.314 153.403 263.37 149.936 264.602H149.933L115.998 276.248V276.252L115.993 276.25L115.988 276.252V276.248L113.944 275.514C110.543 274.285 108.079 271.237 108.414 268.701L114.583 222.329ZM76.9307 172.69C77.6742 170.158 80.056 169.095 82.2734 170.312L105.851 182.592C108.321 183.813 110.003 186.856 109.585 189.392L97.1816 264.506H97.1748C96.757 267.038 93.7565 268.102 90.4961 266.874L58.9697 254.535C55.9659 253.31 54.1461 250.265 54.8896 247.732L76.9307 172.69ZM220.328 228.776C219.854 226.238 222.157 225.17 225.49 226.398L260.33 238.76C263.916 239.988 267.499 243.051 268.299 245.593L274.171 264.253C274.97 266.795 272.48 267.858 268.631 266.627L231.173 254.246C227.58 253.018 224.292 249.959 223.815 247.42L220.328 228.776ZM203.446 244.552L173.854 255.925C170.525 257.159 167.755 256.1 167.686 253.564L167.094 231.756C167.038 229.705 168.627 227.239 170.979 225.721C182.873 217.811 191.161 205.714 192.954 194.024H192.951C193.228 192.085 194.513 190.139 196.201 188.979L203.446 244.552ZM196.205 188.977C196.527 189.059 196.863 189.171 197.208 189.315L198.656 189.925C201.594 191.15 204.308 194.206 204.703 196.744L211.915 243.219C212.31 245.757 209.809 246.821 206.352 245.593V245.586L203.449 244.549L196.205 188.977ZM203.002 136.187C202.528 133.648 204.128 132.578 206.599 133.796L232.726 146.095C235.446 147.316 238.326 150.372 239.125 152.914L262.854 228.292C263.653 230.834 261.435 231.901 257.922 230.673L223.842 218.318C220.585 217.093 217.571 214.034 217.094 211.495L203.002 136.187ZM160.461 178.123C172.99 172.097 183.663 177.221 184.788 189.572C185.917 201.923 175.421 216.813 160.855 222.822C145.744 228.828 133.83 223.695 134.738 211.36H134.742C135.65 199.026 147.386 184.146 160.461 178.123ZM152.548 144.359C154.89 143.118 156.763 144.172 156.75 146.707L156.647 168.255C156.638 170.365 155.151 172.917 153.025 174.419C141.503 182.289 131.379 194.795 127.007 206.856L127 206.859C126.373 208.537 124.908 210.221 123.161 211.387L123.16 211.396C123.157 211.396 123.153 211.395 123.149 211.395L123.147 211.396V211.395C122.605 211.328 122.037 211.174 121.463 210.923L121.439 210.913C118.646 209.688 116.672 206.642 117.008 204.106L123.177 157.731L123.18 157.734C123.519 155.199 125.618 154.135 127.892 155.354L129.264 156.084L152.548 144.359ZM189.703 125.202C192.036 126.424 194.26 129.472 194.655 132.011L201.867 178.482C202.259 181.024 200.248 182.091 197.399 180.866L195.972 180.25V180.247C195.643 180.105 195.32 179.938 194.997 179.747L187.753 124.171L189.703 125.202ZM194.997 179.747C193.283 180.254 191.736 179.677 191.075 178.186C187.226 169.243 178.783 165.037 168.692 167.135C166.722 167.54 165.317 166.408 165.261 164.35L164.665 142.463L164.662 142.466C164.593 139.927 166.34 136.864 168.541 135.623L187.752 124.171L194.997 179.747ZM87.4395 136.895C88.183 134.362 90.2919 133.295 92.1738 134.514L112.369 146.77C114.504 147.988 115.912 151.03 115.494 153.565L112.425 172.16V172.157C112.007 174.689 109.707 175.756 107.312 174.534L84.498 162.262C82.3595 161.043 81.2408 158.001 81.9844 155.469L87.4395 136.895Z" fill="url(#paint3_linear_7257_12264)"/>
</g>
<g filter="url(#filter0_f_7257_12264)" style="mix-blend-mode:multiply">
<ellipse cx="173.221" cy="159.265" rx="15" ry="3" transform="rotate(-17.0433 173.221 159.265)" fill="url(#paint4_linear_7257_12264)" fill-opacity="0.71"/>
</g>
<path d="M160.417 21C135.334 21 115 41.3379 115 66.4252C115 91.5125 160.417 163.609 160.417 163.609C160.417 163.609 205.834 91.5141 205.834 66.4252C205.834 41.3363 185.499 21 160.417 21ZM160.417 86.2881C149.449 86.2881 140.558 77.3952 140.558 66.4252C140.558 55.4552 149.449 46.5623 160.417 46.5623C171.385 46.5623 180.276 55.4552 180.276 66.4252C180.276 77.3952 171.385 86.2881 160.417 86.2881Z" fill="#006AFF"/>
<defs>
<filter id="filter0_f_7257_12264" x="154.852" y="150.015" width="36.7373" height="18.5" filterUnits="userSpaceOnUse" color-interpolation-filters="sRGB">
<feFlood flood-opacity="0" result="BackgroundImageFix"/>
<feBlend mode="normal" in="SourceGraphic" in2="BackgroundImageFix" result="shape"/>
<feGaussianBlur stdDeviation="2" result="effect1_foregroundBlur_7257_12264"/>
</filter>
<linearGradient id="paint0_linear_7257_12264" x1="209.984" y1="200.998" x2="15.1221" y2="199.93" gradientUnits="userSpaceOnUse">
<stop stop-color="#CFCECE"/>
<stop offset="1" stop-color="white"/>
</linearGradient>
<linearGradient id="paint1_linear_7257_12264" x1="321.441" y1="252.902" x2="160.874" y2="163.771" gradientUnits="userSpaceOnUse">
<stop stop-color="#CFCECE"/>
<stop offset="1" stop-color="white"/>
</linearGradient>
<linearGradient id="paint2_linear_7257_12264" x1="108.223" y1="213.988" x2="57.0849" y2="185.599" gradientUnits="userSpaceOnUse">
<stop stop-color="#DADADA"/>
<stop offset="1" stop-color="white"/>
</linearGradient>
<linearGradient id="paint3_linear_7257_12264" x1="116.639" y1="274.543" x2="124.977" y2="153.448" gradientUnits="userSpaceOnUse">
<stop stop-color="#006AFF" stop-opacity="0.15"/>
<stop offset="1" stop-color="#006AFF"/>
</linearGradient>
<linearGradient id="paint4_linear_7257_12264" x1="158.221" y1="159.265" x2="188.221" y2="159.265" gradientUnits="userSpaceOnUse">
<stop offset="0.153846" stop-color="#737373"/>
<stop offset="1" stop-color="#737373" stop-opacity="0"/>
</linearGradient>
</defs>
</svg>
