<svg width="320" height="320" viewBox="0 0 320 320" fill="none" xmlns="http://www.w3.org/2000/svg">
<path d="M185.828 109.572L130.896 141.512L114.257 292.16L205.5 260.487L185.828 109.572Z" fill="url(#paint0_linear_7257_12263)"/>
<path d="M249.015 140.979L185.828 109.572L205.499 260.487L305 292.16L249.018 140.979H249.015Z" fill="url(#paint1_linear_7257_12263)"/>
<path d="M130.896 141.515L82.9483 110.221L30 260.602L114.261 292.163L130.899 141.515H130.896Z" fill="url(#paint2_linear_7257_12263)"/>
<g opacity="0.8">
<path d="M114.583 222.525C114.919 219.99 117.511 218.926 120.39 220.151H120.394C120.995 220.407 121.573 220.743 122.103 221.144C123.789 220.956 125.059 221.555 125.407 222.847C128.023 232.153 138.374 236.374 151.979 233.74C154.545 233.239 156.331 234.386 156.321 236.5L156.22 257.971C156.207 260.51 153.403 263.566 149.936 264.797H149.933L115.998 276.444V276.448L115.993 276.446L115.988 276.448V276.444L113.944 275.709C110.543 274.481 108.079 271.432 108.414 268.897L114.583 222.525ZM76.9307 172.886C77.6742 170.354 80.056 169.29 82.2734 170.508L105.851 182.788C108.321 184.009 110.003 187.052 109.585 189.587L97.1816 264.702H97.1748C96.757 267.234 93.7565 268.298 90.4961 267.07L58.9697 254.731C55.9659 253.506 54.1461 250.46 54.8896 247.928L76.9307 172.886ZM220.328 228.972C219.854 226.434 222.157 225.366 225.49 226.594L260.33 238.956C263.916 240.184 267.499 243.247 268.299 245.789L274.171 264.449C274.97 266.991 272.48 268.054 268.631 266.823L231.173 254.442C227.58 253.214 224.292 250.154 223.815 247.616L220.328 228.972ZM203.446 244.748L173.854 256.121C170.525 257.355 167.755 256.296 167.686 253.76L167.094 231.952C167.038 229.9 168.627 227.434 170.979 225.917C182.873 218.007 191.161 205.909 192.954 194.22H192.951C193.228 192.281 194.513 190.334 196.201 189.175L203.446 244.748ZM196.205 189.172C196.527 189.255 196.863 189.366 197.208 189.511L198.656 190.121C201.594 191.346 204.308 194.401 204.703 196.94L211.915 243.415C212.31 245.953 209.809 247.017 206.352 245.789V245.782L203.449 244.745L196.205 189.172ZM203.002 136.382C202.528 133.844 204.128 132.773 206.599 133.992L232.726 146.291C235.446 147.512 238.326 150.568 239.125 153.11L262.854 228.488C263.653 231.03 261.435 232.097 257.922 230.869L223.842 218.514C220.585 217.289 217.571 214.23 217.094 211.691L203.002 136.382ZM160.461 178.319C172.99 172.293 183.663 177.417 184.788 189.768C185.917 202.119 175.421 217.009 160.855 223.018C145.744 229.024 133.83 223.891 134.738 211.556H134.742C135.65 199.221 147.386 184.341 160.461 178.319ZM152.548 144.555C154.89 143.314 156.763 144.367 156.75 146.903L156.647 168.451C156.638 170.561 155.151 173.113 153.025 174.615C141.503 182.484 131.379 194.991 127.007 207.052L127 207.055C126.373 208.733 124.908 210.417 123.161 211.583L123.16 211.592C123.157 211.592 123.153 211.591 123.149 211.59L123.147 211.592V211.59C122.605 211.524 122.037 211.37 121.463 211.119L121.439 211.109C118.646 209.884 116.672 206.838 117.008 204.302L123.177 157.927L123.18 157.93C123.519 155.395 125.618 154.331 127.892 155.549L129.264 156.28L152.548 144.555ZM189.703 125.398C192.036 126.62 194.26 129.668 194.655 132.207L201.867 178.678C202.259 181.22 200.248 182.287 197.399 181.062L195.972 180.446V180.443C195.643 180.301 195.32 180.134 194.997 179.943L187.753 124.367L189.703 125.398ZM194.997 179.943C193.283 180.45 191.736 179.873 191.075 178.381C187.226 169.438 178.783 165.233 168.692 167.331C166.722 167.735 165.317 166.603 165.261 164.545L164.665 142.659L164.662 142.662C164.593 140.123 166.34 137.06 168.541 135.819L187.752 124.367L194.997 179.943ZM87.4395 137.09C88.183 134.558 90.2919 133.491 92.1738 134.709L112.369 146.965C114.504 148.184 115.912 151.226 115.494 153.761L112.425 172.356V172.353C112.007 174.885 109.707 175.952 107.312 174.73L84.498 162.458C82.3595 161.239 81.2408 158.197 81.9844 155.665L87.4395 137.09Z" fill="url(#paint3_linear_7257_12263)"/>
</g>
<g filter="url(#filter0_f_7257_12263)" style="mix-blend-mode:multiply">
<ellipse cx="173.221" cy="159.46" rx="15" ry="3" transform="rotate(-17.0433 173.221 159.46)" fill="url(#paint4_linear_7257_12263)" fill-opacity="0.71"/>
</g>
<path d="M160.417 21C135.288 21 114.917 41.3937 114.917 66.5498C114.917 91.706 160.417 164 160.417 164C160.417 164 205.917 91.7075 205.917 66.5498C205.917 41.3921 185.545 21 160.417 21ZM183.33 79.2663L173.119 89.4886L160.418 76.7737L147.717 89.4886L137.506 79.2663L150.207 66.5514L137.506 53.8365L147.717 43.6141L160.418 56.329L173.119 43.6141L183.33 53.8365L170.629 66.5514L183.33 79.2663Z" fill="url(#paint5_linear_7257_12263)"/>
<defs>
<filter id="filter0_f_7257_12263" x="154.852" y="150.21" width="36.7373" height="18.5" filterUnits="userSpaceOnUse" color-interpolation-filters="sRGB">
<feFlood flood-opacity="0" result="BackgroundImageFix"/>
<feBlend mode="normal" in="SourceGraphic" in2="BackgroundImageFix" result="shape"/>
<feGaussianBlur stdDeviation="2" result="effect1_foregroundBlur_7257_12263"/>
</filter>
<linearGradient id="paint0_linear_7257_12263" x1="209.984" y1="201.194" x2="15.1221" y2="200.125" gradientUnits="userSpaceOnUse">
<stop stop-color="#CFCECE"/>
<stop offset="1" stop-color="white"/>
</linearGradient>
<linearGradient id="paint1_linear_7257_12263" x1="321.441" y1="253.098" x2="160.874" y2="163.966" gradientUnits="userSpaceOnUse">
<stop stop-color="#CFCECE"/>
<stop offset="1" stop-color="white"/>
</linearGradient>
<linearGradient id="paint2_linear_7257_12263" x1="108.223" y1="214.184" x2="57.0849" y2="185.795" gradientUnits="userSpaceOnUse">
<stop stop-color="#DADADA"/>
<stop offset="1" stop-color="white"/>
</linearGradient>
<linearGradient id="paint3_linear_7257_12263" x1="116.639" y1="274.738" x2="124.977" y2="153.644" gradientUnits="userSpaceOnUse">
<stop stop-color="#A0A0A0" stop-opacity="0.15"/>
<stop offset="1" stop-color="#A0A0A0"/>
</linearGradient>
<linearGradient id="paint4_linear_7257_12263" x1="158.221" y1="159.46" x2="188.221" y2="159.46" gradientUnits="userSpaceOnUse">
<stop offset="0.153846" stop-color="#737373"/>
<stop offset="1" stop-color="#737373" stop-opacity="0"/>
</linearGradient>
<linearGradient id="paint5_linear_7257_12263" x1="160.417" y1="21" x2="160.417" y2="164" gradientUnits="userSpaceOnUse">
<stop stop-color="#E0E0E0"/>
<stop offset="1" stop-color="#949497"/>
</linearGradient>
</defs>
</svg>
