<svg width="491" height="345" viewBox="0 0 491 345" fill="none" xmlns="http://www.w3.org/2000/svg">
<ellipse cx="332.06" cy="148.5" rx="148.5" ry="148.5" fill="#E5F0FF"/>
<g filter="url(#filter0_d_9136_1033)">
<path d="M334.881 57.629C335.071 51.5713 318.605 52.1575 312.093 51.5935C287.736 49.4838 286.402 48.3243 272.565 46.2148C179.759 48.2585 222.163 60.2639 140.315 89.6806C131.21 92.9548 123.592 99.3934 118.779 107.78C100.98 138.831 82.0964 169.126 56.7158 196.192C23.8051 226.319 32.595 278.413 37.3561 294.806C50.9072 327.768 113.174 278.834 129.582 277.596C138.877 277.259 154.902 277.847 163.567 274.529C204.645 253.067 211.764 258.07 247.129 258.07C253.919 258.07 278.626 250.745 278.626 250.745C294.858 250.76 311.639 249.126 311.639 244.402C311.639 212.429 239.65 226.243 219.558 224.105C197.627 224.28 190.527 200.587 181.993 180.597C174.771 163.691 176.631 144.288 186.696 128.905C195.119 116.036 203.726 103.202 215.519 88.5672C243.932 62.1098 333.277 109.086 334.881 57.6144V57.629Z" fill="white" fill-opacity="0.5"/>
<path d="M272.501 47.2168C286.194 49.3083 287.66 50.481 312.007 52.5898C313.66 52.733 315.954 52.8044 318.379 52.9219C320.83 53.0406 323.456 53.2079 325.863 53.542C328.289 53.8788 330.401 54.3732 331.871 55.1045C333.331 55.8316 333.905 56.6475 333.881 57.583C333.685 63.8691 332.155 68.5589 329.645 72.0537C327.137 75.5465 323.59 77.932 319.211 79.5039C310.393 82.6697 298.391 82.4774 285.33 81.4746C272.362 80.479 258.374 78.6863 245.92 78.8076C233.48 78.9289 222.232 80.9492 214.837 87.835L214.786 87.8838L214.741 87.9395C204.394 100.779 196.494 112.235 189.035 123.525L185.859 128.357C175.775 143.77 173.779 163.154 180.736 180.181L181.074 180.99C185.303 190.897 189.268 201.965 194.918 210.466C200.603 219.019 208.122 225.178 219.517 225.104C224.646 225.639 232.988 225.171 242.474 224.681C252.053 224.186 262.891 223.661 273.093 224.064C283.317 224.468 292.782 225.801 299.661 228.951C303.088 230.521 305.826 232.521 307.706 235.036C309.576 237.539 310.639 240.607 310.639 244.401C310.639 244.664 310.531 244.968 310.174 245.329C309.805 245.703 309.209 246.094 308.355 246.476C306.648 247.239 304.145 247.869 301.061 248.363C294.913 249.348 286.72 249.752 278.626 249.745H278.481L278.341 249.786H278.34C278.34 249.786 278.339 249.787 278.337 249.787C278.335 249.788 278.33 249.789 278.325 249.791C278.313 249.794 278.295 249.8 278.272 249.807C278.225 249.82 278.156 249.841 278.065 249.868C277.883 249.922 277.615 250 277.272 250.1C276.585 250.299 275.595 250.585 274.386 250.928C271.968 251.613 268.675 252.526 265.171 253.439C261.666 254.353 257.958 255.264 254.709 255.946C251.432 256.634 248.71 257.07 247.129 257.07C238.301 257.07 231.261 256.758 224.951 256.624C218.655 256.49 213.107 256.533 207.365 257.259C195.869 258.711 183.708 262.88 163.162 273.611C158.993 275.195 152.986 275.873 146.761 276.182C140.474 276.493 134.304 276.424 129.545 276.597L129.506 276.599C127.281 276.767 124.384 277.725 121.075 279.121C117.74 280.528 113.881 282.427 109.702 284.551C101.319 288.811 91.6204 293.989 82.0044 298.106C72.3702 302.231 62.9623 305.225 55.1792 305.197C51.3047 305.184 47.8868 304.42 45.0503 302.723C42.237 301.039 39.9222 298.393 38.3013 294.475C35.946 286.342 32.5985 269.373 33.9067 250.719C35.2179 232.025 41.1937 211.757 57.3911 196.93L57.4194 196.903L57.4448 196.876C82.9081 169.723 101.838 139.343 119.646 108.277L119.647 108.278C124.196 100.35 131.312 94.2086 139.825 90.9297L140.653 90.6221C161.163 83.2507 173.918 76.9592 182.965 71.6279C187.488 68.9632 191.075 66.5432 194.227 64.3613C197.388 62.1731 200.078 60.2496 202.856 58.5342C213.827 51.761 226.167 48.2411 272.501 47.2168Z" stroke="white" stroke-opacity="0.5" stroke-width="2"/>
</g>
<g filter="url(#filter1_d_9136_1033)">
<path d="M201.72 74.8124C201.72 72.4307 203.651 70.5 206.033 70.5L461.408 70.5C463.789 70.5 465.72 72.4307 465.72 74.8124V218.188C465.72 220.569 463.789 222.5 461.408 222.5L206.033 222.5C203.651 222.5 201.72 220.569 201.72 218.188V74.8124Z" fill="white"/>
<path d="M201.72 74.8124C201.72 72.4307 203.651 70.5 206.033 70.5L461.408 70.5C463.789 70.5 465.72 72.4307 465.72 74.8124V218.188C465.72 220.569 463.789 222.5 461.408 222.5L206.033 222.5C203.651 222.5 201.72 220.569 201.72 218.188V74.8124Z" fill="black" fill-opacity="0.01"/>
</g>
<path d="M218.971 181.846C220.22 181.846 221.233 182.859 221.233 184.106V207.746C221.233 208.994 220.22 210.007 218.971 210.007H218.61C217.361 210.007 216.349 208.994 216.349 207.746V184.106C216.349 182.859 217.361 181.846 218.61 181.846H218.971ZM228.736 181.846C229.985 181.846 230.998 182.859 230.998 184.106V187.669H231.178C232.427 187.669 233.439 188.681 233.439 189.93V192.202C233.439 193.45 232.427 194.462 231.178 194.462H230.998V207.746C230.998 208.994 229.985 210.007 228.736 210.007H228.375C227.126 210.007 226.114 208.994 226.114 207.746V184.106C226.114 182.859 227.126 181.846 228.375 181.846H228.736ZM238.504 181.846C239.753 181.846 240.766 182.859 240.766 184.106V185.013C241.491 185.389 241.987 186.146 241.987 187.02V189.292C241.987 190.165 241.491 190.923 240.766 191.299V200.55C241.491 200.926 241.987 201.683 241.987 202.557V204.829C241.987 205.702 241.491 206.46 240.766 206.836V207.746C240.766 208.994 239.753 210.007 238.504 210.007H238.143C236.894 210.007 235.882 208.994 235.882 207.746V184.106C235.882 182.859 236.894 181.846 238.143 181.846H238.504ZM248.274 181.846C249.523 181.846 250.536 182.859 250.536 184.106V187.669H251.517C252.321 187.669 252.974 188.321 252.974 189.125C252.974 189.929 252.321 190.58 251.517 190.58H250.536V192.525H251.517C252.321 192.525 252.974 193.177 252.974 193.98C252.974 194.784 252.321 195.437 251.517 195.437H250.536V207.746C250.536 208.994 249.523 210.007 248.274 210.007H247.913C246.664 210.007 245.652 208.994 245.652 207.746V184.106C245.652 182.859 246.664 181.846 247.913 181.846H248.274ZM258.039 181.846C259.287 181.846 260.3 182.859 260.3 184.106V199.324H261.287C262.091 199.324 262.743 199.975 262.743 200.779C262.743 201.583 262.091 202.235 261.287 202.235H260.3V205.152H261.287C262.091 205.152 262.742 205.804 262.743 206.607C262.743 207.411 262.091 208.063 261.287 208.063H260.278C260.123 209.161 259.18 210.007 258.039 210.007H257.678C256.537 210.007 255.592 209.161 255.438 208.063H254.017C252.768 208.063 251.755 207.051 251.755 205.803V201.584C251.755 200.335 252.768 199.324 254.017 199.324H255.417V184.106C255.417 182.859 256.429 181.846 257.678 181.846H258.039ZM267.808 181.846C269.057 181.846 270.07 182.859 270.07 184.106V207.746C270.07 208.994 269.057 210.007 267.808 210.007H267.448C266.198 210.007 265.186 208.994 265.186 207.746V191.552H265.004C263.755 191.552 262.743 190.54 262.743 189.292V187.02C262.743 185.772 263.755 184.759 265.004 184.759H265.186V184.106C265.186 182.859 266.198 181.846 267.448 181.846H267.808ZM277.573 181.846C278.822 181.846 279.834 182.859 279.834 184.106V187.919C280.563 188.295 281.061 189.054 281.061 189.93V192.202C281.061 193.077 280.563 193.837 279.834 194.212V207.746C279.834 208.994 278.822 210.007 277.573 210.007H277.212C275.963 210.007 274.951 208.994 274.951 207.746V184.106C274.951 182.859 275.963 181.846 277.212 181.846H277.573ZM287.343 181.846C288.592 181.846 289.604 182.859 289.604 184.106V207.746C289.604 208.994 288.592 210.007 287.343 210.007H286.982C285.733 210.007 284.72 208.994 284.72 207.746V184.106C284.72 182.859 285.733 181.846 286.982 181.846H287.343ZM297.112 181.846C298.361 181.846 299.374 182.859 299.374 184.106V187.688C300.066 187.801 300.594 188.402 300.594 189.125C300.594 189.849 300.066 190.45 299.374 190.562V193.517C300.066 193.629 300.594 194.23 300.594 194.953C300.594 195.677 300.066 196.278 299.374 196.39V207.746C299.374 208.994 298.361 210.007 297.112 210.007H296.75C295.502 210.007 294.49 208.994 294.49 207.746V184.106C294.49 182.859 295.502 181.846 296.75 181.846H297.112ZM306.876 181.846C308.126 181.846 309.138 182.859 309.138 184.106V199.324H310.124C310.928 199.324 311.581 199.975 311.581 200.779C311.581 201.583 310.928 202.235 310.124 202.235H309.138V205.152H310.124C310.928 205.152 311.58 205.804 311.581 206.607C311.581 207.411 310.928 208.063 310.124 208.063H309.116C308.962 209.161 308.018 210.007 306.876 210.007H306.515C305.266 210.007 304.254 208.994 304.254 207.746V184.106C304.254 182.859 305.266 181.846 306.515 181.846H306.876ZM316.646 181.846C317.895 181.846 318.907 182.859 318.907 184.106V207.746C318.907 208.994 317.895 210.007 316.646 210.007H316.285C315.036 210.007 314.023 208.994 314.023 207.746V191.552H313.846C312.597 191.552 311.585 190.54 311.584 189.292V187.02C311.584 185.772 312.597 184.759 313.846 184.759H314.023V184.106C314.023 182.859 315.036 181.846 316.285 181.846H316.646ZM326.415 181.846C327.663 181.846 328.676 182.859 328.676 184.106V207.746C328.676 208.994 327.663 210.007 326.415 210.007H326.054C324.806 210.007 323.792 208.994 323.792 207.746V184.106C323.792 182.859 324.806 181.846 326.054 181.846H326.415ZM336.466 181.846C337.715 181.846 338.728 182.859 338.728 184.106V207.746C338.728 208.994 337.715 210.007 336.466 210.007H336.105C334.856 210.007 333.844 208.994 333.844 207.746V184.106C333.844 182.859 334.856 181.846 336.105 181.846H336.466ZM346.231 181.846C347.48 181.846 348.493 182.859 348.493 184.106V187.669H348.673C349.922 187.669 350.934 188.681 350.934 189.93V192.202C350.934 193.45 349.922 194.462 348.673 194.462H348.493V207.746C348.493 208.994 347.48 210.007 346.231 210.007H345.871C344.622 210.007 343.609 208.994 343.609 207.746V184.106C343.609 182.859 344.622 181.846 345.871 181.846H346.231ZM356 181.846C357.249 181.846 358.261 182.859 358.261 184.106V185.013C358.986 185.389 359.482 186.146 359.482 187.02V189.292C359.482 190.165 358.986 190.923 358.261 191.299V200.55C358.986 200.926 359.482 201.683 359.482 202.557V204.829C359.482 205.702 358.986 206.46 358.261 206.836V207.746C358.261 208.994 357.249 210.007 356 210.007H355.638C354.389 210.007 353.377 208.994 353.377 207.746V184.106C353.377 182.859 354.389 181.846 355.638 181.846H356ZM365.769 181.846C367.018 181.846 368.031 182.859 368.031 184.106V187.669H369.012C369.817 187.669 370.469 188.321 370.469 189.125C370.469 189.929 369.816 190.58 369.012 190.58H368.031V192.525H369.012C369.816 192.525 370.469 193.177 370.469 193.98C370.469 194.784 369.817 195.437 369.012 195.437H368.031V207.746C368.031 208.994 367.018 210.007 365.769 210.007H365.408C364.159 210.007 363.147 208.994 363.147 207.746V184.106C363.147 182.859 364.159 181.846 365.408 181.846H365.769ZM375.534 181.846C376.783 181.846 377.795 182.859 377.795 184.106V199.324H378.782C379.586 199.324 380.238 199.975 380.238 200.779C380.238 201.583 379.586 202.235 378.782 202.235H377.795V205.152H378.782C379.586 205.152 380.238 205.804 380.238 206.607C380.238 207.411 379.586 208.063 378.782 208.063H377.773C377.619 209.161 376.675 210.007 375.534 210.007H375.173C374.032 210.007 373.087 209.161 372.933 208.063H371.512C370.263 208.063 369.25 207.051 369.25 205.803V201.584C369.251 200.335 370.263 199.324 371.512 199.324H372.912V184.106C372.912 182.859 373.924 181.846 375.173 181.846H375.534ZM385.303 181.846C386.552 181.846 387.565 182.859 387.565 184.106V207.746C387.565 208.994 386.552 210.007 385.303 210.007H384.943C383.693 210.007 382.681 208.994 382.681 207.746V191.552H382.5C381.251 191.552 380.238 190.54 380.238 189.292V187.02C380.238 185.772 381.251 184.759 382.5 184.759H382.681V184.106C382.681 182.859 383.693 181.846 384.943 181.846H385.303ZM395.068 181.846C396.317 181.846 397.33 182.859 397.33 184.106V187.919C398.058 188.295 398.556 189.054 398.556 189.93V192.202C398.556 193.077 398.058 193.837 397.33 194.212V207.746C397.33 208.994 396.317 210.007 395.068 210.007H394.708C393.458 210.007 392.446 208.994 392.446 207.746V184.106C392.446 182.859 393.458 181.846 394.708 181.846H395.068Z" fill="#E3E3E3"/>
<path opacity="0.6" fill-rule="evenodd" clip-rule="evenodd" d="M201.724 99.5H465.72V120.5H201.72L201.724 99.5Z" fill="#E3E3E3"/>
<path d="M329.546 134.668H217.924C217.055 134.668 216.35 135.372 216.35 136.241V140.674C216.35 141.542 217.055 142.246 217.924 142.246H329.546C330.415 142.246 331.12 141.542 331.12 140.674V136.241C331.12 135.372 330.415 134.668 329.546 134.668Z" fill="#E3E3E3"/>
<path d="M273.916 80.3555H218.612C217.363 80.3555 216.35 81.3674 216.35 82.6156V85.6738C216.35 86.922 217.363 87.9339 218.612 87.9339H273.916C275.165 87.9339 276.177 86.922 276.177 85.6738V82.6156C276.177 81.3674 275.165 80.3555 273.916 80.3555Z" fill="#E3E3E3"/>
<path d="M289.255 147.301H217.924C217.055 147.301 216.35 148.005 216.35 148.873V153.307C216.35 154.175 217.055 154.879 217.924 154.879H289.255C290.124 154.879 290.828 154.175 290.828 153.307V148.873C290.828 148.005 290.124 147.301 289.255 147.301Z" fill="#E3E3E3"/>
<path d="M274.603 159.93H217.924C217.055 159.93 216.35 160.634 216.35 161.502V165.935C216.35 166.804 217.055 167.508 217.924 167.508H274.603C275.472 167.508 276.177 166.804 276.177 165.935V161.502C276.177 160.634 275.472 159.93 274.603 159.93Z" fill="#E3E3E3"/>
<g clip-path="url(#paint0_diamond_9136_1033_clip_path)" data-figma-skip-parse="true"><g transform="matrix(0.13896 -0.068623 0.336955 0.67183 195.278 215.015)"><rect x="0" y="0" width="2041.82" height="180.909" fill="url(#paint0_diamond_9136_1033)" opacity="1" shape-rendering="crispEdges"/><rect x="0" y="0" width="2041.82" height="180.909" transform="scale(1 -1)" fill="url(#paint0_diamond_9136_1033)" opacity="1" shape-rendering="crispEdges"/><rect x="0" y="0" width="2041.82" height="180.909" transform="scale(-1 1)" fill="url(#paint0_diamond_9136_1033)" opacity="1" shape-rendering="crispEdges"/><rect x="0" y="0" width="2041.82" height="180.909" transform="scale(-1)" fill="url(#paint0_diamond_9136_1033)" opacity="1" shape-rendering="crispEdges"/></g></g><path d="M467.238 74.0166H470.238V218.769H467.238V74.0166ZM462.614 69.3926L205.862 69.3926C203.309 69.3926 201.238 71.4628 201.238 74.0166V218.769C201.238 221.322 203.309 223.393 205.862 223.393L462.614 223.393C465.168 223.393 467.238 221.322 467.238 218.769H470.238L470.229 219.161C470.031 223.059 466.905 226.185 463.007 226.383L462.614 226.393L205.862 226.393C201.783 226.393 198.452 223.189 198.248 219.161L198.238 218.769V74.0166L198.248 73.624C198.452 69.5958 201.783 66.3926 205.862 66.3926L462.614 66.3926L463.007 66.4023C466.905 66.6001 470.031 69.7259 470.229 73.624L470.238 74.0166H467.238C467.238 71.4628 465.168 69.3926 462.614 69.3926Z" data-figma-gradient-fill="{&#34;type&#34;:&#34;GRADIENT_DIAMOND&#34;,&#34;stops&#34;:[{&#34;color&#34;:{&#34;r&#34;:1.0,&#34;g&#34;:1.0,&#34;b&#34;:1.0,&#34;a&#34;:1.0},&#34;position&#34;:0.0},{&#34;color&#34;:{&#34;r&#34;:1.0,&#34;g&#34;:1.0,&#34;b&#34;:1.0,&#34;a&#34;:0.0},&#34;position&#34;:1.0},{&#34;color&#34;:{&#34;r&#34;:1.0,&#34;g&#34;:1.0,&#34;b&#34;:1.0,&#34;a&#34;:0.54000002145767212},&#34;position&#34;:1.0}],&#34;stopsVar&#34;:[],&#34;transform&#34;:{&#34;m00&#34;:277.92034912109375,&#34;m01&#34;:673.90905761718750,&#34;m02&#34;:-280.63656616210938,&#34;m10&#34;:-137.24591064453125,&#34;m11&#34;:1343.6600341796875,&#34;m12&#34;:-388.19186401367188},&#34;opacity&#34;:1.0,&#34;blendMode&#34;:&#34;NORMAL&#34;,&#34;visible&#34;:true}"/>
<path d="M467.238 74.0166H470.238V218.769H467.238V74.0166ZM462.614 69.3926L205.862 69.3926C203.309 69.3926 201.238 71.4628 201.238 74.0166V218.769C201.238 221.322 203.309 223.393 205.862 223.393L462.614 223.393C465.168 223.393 467.238 221.322 467.238 218.769H470.238L470.229 219.161C470.031 223.059 466.905 226.185 463.007 226.383L462.614 226.393L205.862 226.393C201.783 226.393 198.452 223.189 198.248 219.161L198.238 218.769V74.0166L198.248 73.624C198.452 69.5958 201.783 66.3926 205.862 66.3926L462.614 66.3926L463.007 66.4023C466.905 66.6001 470.031 69.7259 470.229 73.624L470.238 74.0166H467.238C467.238 71.4628 465.168 69.3926 462.614 69.3926Z" fill="white" fill-opacity="0.5"/>
<path d="M138.464 155.943C146.73 156.224 154.308 151.423 160.55 145.992C168.345 139.207 175.021 131.141 180.222 122.214C184.066 115.624 187.106 108.573 191.299 102.194C198.356 91.4502 203.103 80.0658 209.184 68.7404C220.9 68.4216 234.862 69.8736 249.392 65.5653C258.084 69.3809 267.514 71.5131 277.004 71.8118C283.025 71.9997 289.317 71.3815 294.464 68.2517C299.611 65.122 303.738 58.9938 302.391 53.1171C300.995 49.755 283.658 45.4639 273.972 43.0529C265.692 36.8666 256.011 36.8223 245.68 36.6052C235.35 36.388 219.208 36.3324 209.184 36.6051C199.16 36.8778 193.036 34.0589 187.469 38.1892C160.801 57.9959 154.35 87.2399 125.802 104.225C123.16 113.515 121.148 123.58 123.215 133.013C125.281 142.446 130.695 150.205 138.472 155.943L138.464 155.943Z" fill="url(#paint1_linear_9136_1033)" fill-opacity="0.7"/>
<path d="M188.065 38.9912C190.576 37.1282 193.221 36.799 196.611 36.9494C199.933 37.0968 204.173 37.742 209.212 37.6049C219.214 37.3328 235.339 37.3878 245.66 37.6047C256.064 37.8234 265.395 37.8937 273.373 43.8541L273.535 43.9748L273.73 44.0232C278.581 45.2304 285.306 46.8986 290.991 48.6823C293.837 49.5751 296.389 50.4874 298.304 51.3731C299.262 51.8167 300.032 52.2402 300.589 52.6346C301.099 52.9959 301.339 53.2699 301.434 53.4352C302.58 58.6954 298.869 64.402 293.944 67.397C289.048 70.3741 282.995 70.9983 277.035 70.8123C267.673 70.5177 258.369 68.4139 249.794 64.6497L249.459 64.5025L249.108 64.6068C234.746 68.8654 221.035 67.4174 209.157 67.7406L208.577 67.7564L208.303 68.267C202.157 79.7124 197.493 90.942 190.463 101.644C188.337 104.879 186.509 108.275 184.742 111.663C182.969 115.063 181.265 118.442 179.358 121.71L179.358 121.711C174.212 130.543 167.606 138.525 159.894 145.238C153.776 150.562 146.561 155.085 138.813 154.948C131.348 149.358 126.179 141.869 124.191 132.799C122.209 123.748 124.077 114.033 126.657 104.876C140.922 96.2875 149.703 84.6679 158.154 72.8467C166.692 60.9042 174.881 48.783 188.065 38.9912Z" stroke="url(#paint2_linear_9136_1033)" stroke-opacity="0.7" stroke-width="2"/>
<defs>
<filter id="filter0_d_9136_1033" x="-3.43323e-05" y="18.8201" width="367.495" height="325.208" filterUnits="userSpaceOnUse" color-interpolation-filters="sRGB">
<feFlood flood-opacity="0" result="BackgroundImageFix"/>
<feColorMatrix in="SourceAlpha" type="matrix" values="0 0 0 0 0 0 0 0 0 0 0 0 0 0 0 0 0 0 127 0" result="hardAlpha"/>
<feOffset dy="5.21805"/>
<feGaussianBlur stdDeviation="16.3064"/>
<feComposite in2="hardAlpha" operator="out"/>
<feColorMatrix type="matrix" values="0 0 0 0 0 0 0 0 0 0 0 0 0 0 0 0 0 0 0.07 0"/>
<feBlend mode="normal" in2="BackgroundImageFix" result="effect1_dropShadow_9136_1033"/>
<feBlend mode="normal" in="SourceGraphic" in2="effect1_dropShadow_9136_1033" result="shape"/>
</filter>
<filter id="filter1_d_9136_1033" x="177.324" y="49.3568" width="312.792" height="200.792" filterUnits="userSpaceOnUse" color-interpolation-filters="sRGB">
<feFlood flood-opacity="0" result="BackgroundImageFix"/>
<feColorMatrix in="SourceAlpha" type="matrix" values="0 0 0 0 0 0 0 0 0 0 0 0 0 0 0 0 0 0 127 0" result="hardAlpha"/>
<feOffset dy="3.2528"/>
<feGaussianBlur stdDeviation="12.198"/>
<feColorMatrix type="matrix" values="0 0 0 0 0 0 0 0 0 0 0 0 0 0 0 0 0 0 0.15 0"/>
<feBlend mode="normal" in2="BackgroundImageFix" result="effect1_dropShadow_9136_1033"/>
<feBlend mode="normal" in="SourceGraphic" in2="effect1_dropShadow_9136_1033" result="shape"/>
</filter>
<clipPath id="paint0_diamond_9136_1033_clip_path"><path d="M467.238 74.0166H470.238V218.769H467.238V74.0166ZM462.614 69.3926L205.862 69.3926C203.309 69.3926 201.238 71.4628 201.238 74.0166V218.769C201.238 221.322 203.309 223.393 205.862 223.393L462.614 223.393C465.168 223.393 467.238 221.322 467.238 218.769H470.238L470.229 219.161C470.031 223.059 466.905 226.185 463.007 226.383L462.614 226.393L205.862 226.393C201.783 226.393 198.452 223.189 198.248 219.161L198.238 218.769V74.0166L198.248 73.624C198.452 69.5958 201.783 66.3926 205.862 66.3926L462.614 66.3926L463.007 66.4023C466.905 66.6001 470.031 69.7259 470.229 73.624L470.238 74.0166H467.238C467.238 71.4628 465.168 69.3926 462.614 69.3926Z"/></clipPath><linearGradient id="paint0_diamond_9136_1033" x1="0" y1="0" x2="500" y2="500" gradientUnits="userSpaceOnUse">
<stop stop-color="white"/>
<stop offset="1" stop-color="white" stop-opacity="0"/>
<stop offset="1" stop-color="white" stop-opacity="0.54"/>
</linearGradient>
<linearGradient id="paint1_linear_9136_1033" x1="200.22" y1="61.501" x2="148.72" y2="126.001" gradientUnits="userSpaceOnUse">
<stop stop-color="white"/>
<stop offset="1" stop-color="white" stop-opacity="0"/>
</linearGradient>
<linearGradient id="paint2_linear_9136_1033" x1="196.362" y1="73.259" x2="157.324" y2="127.09" gradientUnits="userSpaceOnUse">
<stop stop-color="white"/>
<stop offset="1" stop-color="white" stop-opacity="0"/>
</linearGradient>
</defs>
</svg>
