<svg width="480" height="345" viewBox="0 0 480 345" fill="none" xmlns="http://www.w3.org/2000/svg">
<ellipse cx="321.34" cy="148.5" rx="148.5" ry="148.5" fill="#E5F0FF"/>
<g filter="url(#filter0_d_9136_998)">
<path d="M324.161 57.629C324.351 51.5713 307.885 52.1575 301.373 51.5935C277.016 49.4838 275.682 48.3243 261.845 46.2148C169.039 48.2585 211.442 60.2639 129.594 89.6806C120.49 92.9548 112.872 99.3934 108.059 107.78C90.2598 138.831 71.3762 169.126 45.9956 196.192C13.0849 226.319 21.8748 278.413 26.6359 294.806C40.187 327.768 102.454 278.834 118.861 277.596C128.157 277.259 144.181 277.847 152.847 274.529C193.924 253.067 201.044 258.07 236.409 258.07C243.199 258.07 267.906 250.745 267.906 250.745C284.138 250.76 300.919 249.126 300.919 244.402C300.919 212.429 228.93 226.243 208.838 224.105C186.907 224.28 179.806 200.587 171.273 180.597C164.051 163.691 165.911 144.288 175.975 128.905C184.399 116.036 193.006 103.202 204.799 88.5672C233.212 62.1098 322.557 109.086 324.161 57.6144V57.629Z" fill="white" fill-opacity="0.5"/>
<path d="M261.781 47.2168C275.474 49.3083 276.939 50.481 301.287 52.5898C302.94 52.733 305.234 52.8044 307.659 52.9219C310.11 53.0406 312.736 53.2079 315.143 53.542C317.568 53.8788 319.681 54.3732 321.15 55.1045C322.611 55.8316 323.184 56.6475 323.161 57.583C322.965 63.8691 321.434 68.5589 318.925 72.0537C316.417 75.5465 312.869 77.932 308.491 79.5039C299.673 82.6697 287.671 82.4774 274.609 81.4746C261.641 80.479 247.654 78.6863 235.2 78.8076C222.76 78.9289 211.512 80.9492 204.117 87.835L204.065 87.8838L204.021 87.9395C193.674 100.779 185.774 112.235 178.314 123.525L175.139 128.357C165.055 143.77 163.059 163.154 170.016 180.181L170.354 180.99C174.582 190.897 178.548 201.965 184.198 210.466C189.883 219.019 197.402 225.178 208.797 225.104C213.926 225.639 222.267 225.171 231.754 224.681C241.333 224.186 252.171 223.661 262.373 224.064C272.597 224.468 282.062 225.801 288.94 228.951C292.368 230.521 295.105 232.521 296.985 235.036C298.856 237.539 299.919 240.607 299.919 244.401C299.919 244.664 299.811 244.968 299.454 245.329C299.084 245.703 298.489 246.094 297.635 246.476C295.928 247.239 293.425 247.869 290.341 248.363C284.193 249.348 276 249.752 267.906 249.745H267.761L267.621 249.786H267.62C267.619 249.786 267.618 249.787 267.617 249.787C267.614 249.788 267.61 249.789 267.604 249.791C267.593 249.794 267.575 249.8 267.552 249.807C267.505 249.82 267.436 249.841 267.345 249.868C267.163 249.922 266.895 250 266.552 250.1C265.865 250.299 264.875 250.585 263.666 250.928C261.248 251.613 257.955 252.526 254.451 253.439C250.946 254.353 247.238 255.264 243.989 255.946C240.711 256.634 237.989 257.07 236.409 257.07C227.581 257.07 220.541 256.758 214.23 256.624C207.934 256.49 202.386 256.533 196.645 257.259C185.149 258.711 172.988 262.88 152.441 273.611C148.273 275.195 142.265 275.873 136.041 276.182C129.753 276.493 123.584 276.424 118.825 276.597L118.786 276.599C116.56 276.767 113.663 277.725 110.354 279.121C107.02 280.528 103.161 282.427 98.9814 284.551C90.5991 288.811 80.9002 293.989 71.2842 298.106C61.65 302.231 52.2421 305.225 44.459 305.197C40.5845 305.184 37.1666 304.42 34.3301 302.723C31.5167 301.039 29.202 298.393 27.5811 294.475C25.2258 286.342 21.8782 269.373 23.1865 250.719C24.4976 232.025 30.4735 211.757 46.6709 196.93L46.6992 196.903L46.7246 196.876C72.1879 169.723 91.1176 139.343 108.926 108.277L108.927 108.278C113.476 100.35 120.592 94.2086 129.104 90.9297L129.933 90.6221C150.443 83.2507 163.197 76.9592 172.245 71.6279C176.767 68.9632 180.355 66.5432 183.507 64.3613C186.668 62.1731 189.357 60.2496 192.136 58.5342C203.106 51.761 215.447 48.2411 261.781 47.2168Z" stroke="white" stroke-opacity="0.5" stroke-width="2"/>
</g>
<g filter="url(#filter1_d_9136_998)">
<path d="M191 74.8124C191 72.4307 192.931 70.5 195.312 70.5L450.688 70.5C453.069 70.5 455 72.4307 455 74.8124V218.188C455 220.569 453.069 222.5 450.688 222.5L195.312 222.5C192.931 222.5 191 220.569 191 218.188V74.8124Z" fill="white"/>
<path d="M191 74.8124C191 72.4307 192.931 70.5 195.312 70.5L450.688 70.5C453.069 70.5 455 72.4307 455 74.8124V218.188C455 220.569 453.069 222.5 450.688 222.5L195.312 222.5C192.931 222.5 191 220.569 191 218.188V74.8124Z" fill="black" fill-opacity="0.01"/>
</g>
<path opacity="0.5" fill-rule="evenodd" clip-rule="evenodd" d="M205.786 103.535C205.786 102.983 206.234 102.536 206.786 102.536L439.673 102.536C440.226 102.536 440.673 102.984 440.673 103.536V106.507C440.673 107.06 440.226 107.507 439.673 107.507L206.784 107.507C206.231 107.507 205.783 107.059 205.784 106.507L205.786 103.535Z" fill="#C9C9C9"/>
<rect opacity="0.5" x="285.783" y="128.536" width="61" height="10" rx="1" fill="#C9C9C9"/>
<rect opacity="0.5" x="285.783" y="147.536" width="61" height="10" rx="1" fill="#C9C9C9"/>
<rect opacity="0.5" x="285.783" y="166.536" width="85" height="10" rx="1" fill="#C9C9C9"/>
<rect opacity="0.5" x="285.783" y="185.536" width="27" height="9" rx="1" fill="#C9C9C9"/>
<rect opacity="0.5" x="205.783" y="80.5" width="112" height="11" rx="1" fill="#C9C9C9"/>
<rect opacity="0.5" x="417.783" y="80.5" width="23" height="11" rx="1" fill="#C9C9C9"/>
<g opacity="0.5">
<path d="M422.936 192.217V192.269C422.922 193.363 422 194.187 420.171 194.738C422.375 196.339 424.579 197.62 426.783 197.62C428.987 197.62 431.191 196.339 433.395 194.738C431.578 194.186 430.656 193.362 430.63 192.265C430.63 191.849 430.631 187.794 430.633 187.378C430.764 187.396 430.753 187.384 430.633 187.351C430.637 185.98 430.643 187.775 430.651 185.901C430.659 184.027 422.809 182.351 422.924 187.496C422.926 188.021 422.929 191.623 422.936 192.217Z" fill="url(#paint0_linear_9136_998)"/>
<path d="M422.982 190.241C426.209 189.906 429.098 191.095 429.098 191.095C429.098 191.095 428.644 194.407 422.982 193.487V190.241Z" fill="black" fill-opacity="0.1"/>
<path d="M419.677 183.277C420.079 182.554 420.626 183.024 420.849 183.35L421.248 186.494C421.247 186.768 421.088 186.948 420.661 187.016C420.127 187.102 419.725 185.654 419.584 185.113C419.442 184.572 419.175 184.181 419.677 183.277Z" fill="url(#paint1_linear_9136_998)"/>
<path d="M433.412 183.509C433.072 182.755 432.488 183.177 432.239 183.483L431.575 186.582C431.553 186.855 431.696 187.048 432.115 187.152C432.64 187.282 433.163 185.873 433.35 185.346C433.536 184.819 433.836 184.453 433.412 183.509Z" fill="url(#paint2_linear_9136_998)"/>
<path d="M441.102 198.538C442.4 200.86 443.148 206.218 443.148 206.218H410.42C410.42 206.218 411.168 200.86 412.466 198.538C413.764 196.215 421.674 194.061 421.674 194.061C422.374 195.327 424.431 196.482 426.536 196.533C428.82 196.589 431.162 195.434 431.89 194.061C431.89 194.061 439.804 196.215 441.102 198.538Z" fill="white"/>
<path d="M441.102 198.538C442.4 200.86 443.148 206.218 443.148 206.218H410.42C410.42 206.218 411.168 200.86 412.466 198.538C413.764 196.215 421.674 194.061 421.674 194.061C421.674 195.469 424.402 197.499 426.536 197.535C429.511 197.535 431.89 195.469 431.89 194.061C431.89 194.061 439.804 196.215 441.102 198.538Z" fill="#C6C6C6"/>
<path d="M432.464 183.736C432.464 188.522 429.115 192.403 426.501 192.403C423.642 192.403 420.538 188.522 420.538 183.736C420.538 179.471 420.633 174.848 426.501 174.914C432.775 174.914 432.464 179.372 432.464 183.736Z" fill="url(#paint3_linear_9136_998)"/>
</g>
<rect x="206" y="117.5" width="69" height="84" rx="5" fill="#F2F2F2"/>
<path d="M230.999 173.566V173.694C230.963 176.4 228.685 178.436 224.164 179.799C229.612 183.757 235.06 186.923 240.508 186.923C245.956 186.923 251.405 183.757 256.853 179.799C252.362 178.434 250.084 176.396 250.018 173.685C250.018 172.656 250.021 162.632 250.026 161.603C250.351 161.649 250.323 161.62 250.026 161.537C250.035 158.148 250.05 162.585 250.07 157.953C250.09 153.32 230.684 149.176 230.969 161.895C230.973 163.192 230.98 172.097 230.999 173.566Z" fill="url(#paint4_linear_9136_998)"/>
<path d="M275 189C275 191.453 275 194.205 275 196.501C275 199.262 272.761 201.5 270 201.5H211C208.239 201.5 206 199.262 206 196.501C206 194.319 206 191.693 206 189.195C209.209 183.455 227.876 178.13 227.876 178.13C229.608 181.259 234.692 184.113 239.896 184.241C245.544 184.379 251.332 181.524 253.133 178.128C253.133 178.128 271.791 183.257 275 189Z" fill="#006AFF"/>
<path d="M230.744 167.351C238.72 166.523 246.23 169.976 246.23 169.976C246.23 169.976 244.741 177.796 230.744 175.523V167.351Z" fill="#CDCDCD"/>
<path d="M224.203 150.988C225.266 149.214 226.593 150.434 227.123 151.266L227.864 159.154C227.838 159.84 227.427 160.276 226.354 160.412C225.014 160.581 224.128 156.93 223.819 155.567C223.51 154.204 222.874 153.205 224.203 150.988Z" fill="url(#paint5_linear_9136_998)"/>
<path d="M256.31 151.439C255.264 149.655 253.926 150.863 253.388 151.689L252.572 159.57C252.592 160.256 252.999 160.696 254.07 160.842C255.409 161.025 256.329 157.382 256.651 156.021C256.973 154.661 257.619 153.669 256.31 151.439Z" fill="url(#paint6_linear_9136_998)"/>
<path d="M255.254 152.826C255.254 164.233 246.996 173.48 240.55 173.48C233.501 173.48 225.846 164.233 225.846 152.826C225.846 142.662 226.657 131.802 240.55 131.802C254.443 131.802 255.254 142.427 255.254 152.826Z" fill="#FAFAFA"/>
<g clip-path="url(#paint7_diamond_9136_998_clip_path)" data-figma-skip-parse="true"><g transform="matrix(0.13896 -0.068623 0.336955 0.67183 184.558 215.015)"><rect x="0" y="0" width="2041.82" height="180.909" fill="url(#paint7_diamond_9136_998)" opacity="1" shape-rendering="crispEdges"/><rect x="0" y="0" width="2041.82" height="180.909" transform="scale(1 -1)" fill="url(#paint7_diamond_9136_998)" opacity="1" shape-rendering="crispEdges"/><rect x="0" y="0" width="2041.82" height="180.909" transform="scale(-1 1)" fill="url(#paint7_diamond_9136_998)" opacity="1" shape-rendering="crispEdges"/><rect x="0" y="0" width="2041.82" height="180.909" transform="scale(-1)" fill="url(#paint7_diamond_9136_998)" opacity="1" shape-rendering="crispEdges"/></g></g><path d="M456.518 74.0166H459.518V218.769H456.518V74.0166ZM451.894 69.3926L195.142 69.3926C192.588 69.3926 190.518 71.4628 190.518 74.0166V218.769C190.518 221.322 192.588 223.393 195.142 223.393L451.894 223.393C454.448 223.393 456.518 221.322 456.518 218.769H459.518L459.508 219.161C459.311 223.059 456.185 226.185 452.287 226.383L451.894 226.393L195.142 226.393C191.063 226.393 187.732 223.189 187.528 219.161L187.518 218.769V74.0166L187.528 73.624C187.732 69.5958 191.063 66.3926 195.142 66.3926L451.894 66.3926L452.287 66.4023C456.185 66.6001 459.311 69.7259 459.508 73.624L459.518 74.0166H456.518C456.518 71.4628 454.448 69.3926 451.894 69.3926Z" data-figma-gradient-fill="{&#34;type&#34;:&#34;GRADIENT_DIAMOND&#34;,&#34;stops&#34;:[{&#34;color&#34;:{&#34;r&#34;:1.0,&#34;g&#34;:1.0,&#34;b&#34;:1.0,&#34;a&#34;:1.0},&#34;position&#34;:0.0},{&#34;color&#34;:{&#34;r&#34;:1.0,&#34;g&#34;:1.0,&#34;b&#34;:1.0,&#34;a&#34;:0.0},&#34;position&#34;:1.0},{&#34;color&#34;:{&#34;r&#34;:1.0,&#34;g&#34;:1.0,&#34;b&#34;:1.0,&#34;a&#34;:0.54000002145767212},&#34;position&#34;:1.0}],&#34;stopsVar&#34;:[],&#34;transform&#34;:{&#34;m00&#34;:277.92034912109375,&#34;m01&#34;:673.90905761718750,&#34;m02&#34;:-291.35678100585938,&#34;m10&#34;:-137.24591064453125,&#34;m11&#34;:1343.6600341796875,&#34;m12&#34;:-388.19186401367188},&#34;opacity&#34;:1.0,&#34;blendMode&#34;:&#34;NORMAL&#34;,&#34;visible&#34;:true}"/>
<path d="M456.518 74.0166H459.518V218.769H456.518V74.0166ZM451.894 69.3926L195.142 69.3926C192.588 69.3926 190.518 71.4628 190.518 74.0166V218.769C190.518 221.322 192.588 223.393 195.142 223.393L451.894 223.393C454.448 223.393 456.518 221.322 456.518 218.769H459.518L459.508 219.161C459.311 223.059 456.185 226.185 452.287 226.383L451.894 226.393L195.142 226.393C191.063 226.393 187.732 223.189 187.528 219.161L187.518 218.769V74.0166L187.528 73.624C187.732 69.5958 191.063 66.3926 195.142 66.3926L451.894 66.3926L452.287 66.4023C456.185 66.6001 459.311 69.7259 459.508 73.624L459.518 74.0166H456.518C456.518 71.4628 454.448 69.3926 451.894 69.3926Z" fill="white" fill-opacity="0.5"/>
<path d="M127.744 155.943C136.01 156.224 143.588 151.423 149.83 145.992C157.625 139.207 164.301 131.141 169.502 122.214C173.346 115.624 176.385 108.573 180.579 102.194C187.636 91.4502 192.382 80.0658 198.464 68.7404C210.179 68.4216 224.141 69.8736 238.672 65.5653C247.364 69.3809 256.794 71.5131 266.284 71.8118C272.305 71.9997 278.597 71.3815 283.744 68.2517C288.89 65.122 293.018 58.9938 291.671 53.1171C290.275 49.755 272.938 45.4639 263.251 43.0529C254.971 36.8666 245.29 36.8223 234.96 36.6052C224.63 36.388 208.488 36.3324 198.464 36.6051C188.44 36.8778 182.315 34.0589 176.749 38.1892C150.081 57.9959 143.629 87.2399 115.082 104.225C112.44 113.515 110.428 123.58 112.494 133.013C114.561 142.446 119.975 150.205 127.751 155.943L127.744 155.943Z" fill="url(#paint8_linear_9136_998)" fill-opacity="0.7"/>
<path d="M177.344 38.9912C179.855 37.1282 182.5 36.799 185.891 36.9494C189.213 37.0968 193.452 37.742 198.491 37.6049C208.494 37.3328 224.619 37.3878 234.939 37.6047C245.344 37.8234 254.675 37.8937 262.653 43.8541L262.814 43.9748L263.01 44.0232C267.86 45.2304 274.586 46.8986 280.271 48.6823C283.117 49.5751 285.669 50.4874 287.583 51.3731C288.542 51.8167 289.312 52.2402 289.868 52.6346C290.378 52.9959 290.619 53.2699 290.714 53.4352C291.86 58.6954 288.149 64.402 283.224 67.397C278.328 70.3741 272.274 70.9983 266.315 70.8123C256.953 70.5177 247.648 68.4139 239.074 64.6497L238.739 64.5025L238.388 64.6068C224.025 68.8654 210.315 67.4174 198.437 67.7406L197.857 67.7564L197.583 68.267C191.437 79.7124 186.773 90.942 179.743 101.644C177.616 104.879 175.789 108.275 174.022 111.663C172.249 115.063 170.544 118.442 168.638 121.71L168.638 121.711C163.492 130.543 156.886 138.525 149.173 145.238C143.055 150.562 135.841 155.085 128.093 154.948C120.627 149.358 115.458 141.869 113.471 132.799C111.488 123.748 113.357 114.033 115.937 104.876C130.202 96.2875 138.983 84.6679 147.434 72.8467C155.972 60.9042 164.161 48.783 177.344 38.9912Z" stroke="url(#paint9_linear_9136_998)" stroke-opacity="0.7" stroke-width="2"/>
<defs>
<filter id="filter0_d_9136_998" x="-10.7202" y="18.8201" width="367.495" height="325.208" filterUnits="userSpaceOnUse" color-interpolation-filters="sRGB">
<feFlood flood-opacity="0" result="BackgroundImageFix"/>
<feColorMatrix in="SourceAlpha" type="matrix" values="0 0 0 0 0 0 0 0 0 0 0 0 0 0 0 0 0 0 127 0" result="hardAlpha"/>
<feOffset dy="5.21805"/>
<feGaussianBlur stdDeviation="16.3064"/>
<feComposite in2="hardAlpha" operator="out"/>
<feColorMatrix type="matrix" values="0 0 0 0 0 0 0 0 0 0 0 0 0 0 0 0 0 0 0.07 0"/>
<feBlend mode="normal" in2="BackgroundImageFix" result="effect1_dropShadow_9136_998"/>
<feBlend mode="normal" in="SourceGraphic" in2="effect1_dropShadow_9136_998" result="shape"/>
</filter>
<filter id="filter1_d_9136_998" x="166.604" y="49.3568" width="312.792" height="200.792" filterUnits="userSpaceOnUse" color-interpolation-filters="sRGB">
<feFlood flood-opacity="0" result="BackgroundImageFix"/>
<feColorMatrix in="SourceAlpha" type="matrix" values="0 0 0 0 0 0 0 0 0 0 0 0 0 0 0 0 0 0 127 0" result="hardAlpha"/>
<feOffset dy="3.2528"/>
<feGaussianBlur stdDeviation="12.198"/>
<feColorMatrix type="matrix" values="0 0 0 0 0 0 0 0 0 0 0 0 0 0 0 0 0 0 0.15 0"/>
<feBlend mode="normal" in2="BackgroundImageFix" result="effect1_dropShadow_9136_998"/>
<feBlend mode="normal" in="SourceGraphic" in2="effect1_dropShadow_9136_998" result="shape"/>
</filter>
<clipPath id="paint7_diamond_9136_998_clip_path"><path d="M456.518 74.0166H459.518V218.769H456.518V74.0166ZM451.894 69.3926L195.142 69.3926C192.588 69.3926 190.518 71.4628 190.518 74.0166V218.769C190.518 221.322 192.588 223.393 195.142 223.393L451.894 223.393C454.448 223.393 456.518 221.322 456.518 218.769H459.518L459.508 219.161C459.311 223.059 456.185 226.185 452.287 226.383L451.894 226.393L195.142 226.393C191.063 226.393 187.732 223.189 187.528 219.161L187.518 218.769V74.0166L187.528 73.624C187.732 69.5958 191.063 66.3926 195.142 66.3926L451.894 66.3926L452.287 66.4023C456.185 66.6001 459.311 69.7259 459.508 73.624L459.518 74.0166H456.518C456.518 71.4628 454.448 69.3926 451.894 69.3926Z"/></clipPath><linearGradient id="paint0_linear_9136_998" x1="426.197" y1="187.809" x2="426.197" y2="194.176" gradientUnits="userSpaceOnUse">
<stop stop-color="#D6D4D4"/>
<stop offset="1" stop-color="#E4E4E4"/>
</linearGradient>
<linearGradient id="paint1_linear_9136_998" x1="420.077" y1="184.068" x2="420.384" y2="185.993" gradientUnits="userSpaceOnUse">
<stop stop-color="#D7D7D7"/>
<stop offset="1" stop-color="#CDCDCD"/>
</linearGradient>
<linearGradient id="paint2_linear_9136_998" x1="432.947" y1="184.264" x2="432.477" y2="186.156" gradientUnits="userSpaceOnUse">
<stop stop-color="#D9D9D9"/>
<stop offset="1" stop-color="#CDCDCD"/>
</linearGradient>
<linearGradient id="paint3_linear_9136_998" x1="420.225" y1="185.881" x2="427.171" y2="185.881" gradientUnits="userSpaceOnUse">
<stop stop-color="#CECECE"/>
<stop offset="1" stop-color="#E7E7E7"/>
</linearGradient>
<linearGradient id="paint4_linear_9136_998" x1="239.059" y1="162.669" x2="239.059" y2="178.41" gradientUnits="userSpaceOnUse">
<stop stop-color="#B1B1B1"/>
<stop offset="1" stop-color="white"/>
</linearGradient>
<linearGradient id="paint5_linear_9136_998" x1="227.071" y1="154.976" x2="224.513" y2="155.449" gradientUnits="userSpaceOnUse">
<stop offset="0.171875" stop-color="#BDBDBD"/>
<stop offset="0.640625" stop-color="#E1E1E1"/>
<stop offset="1" stop-color="#DDDDDD"/>
</linearGradient>
<linearGradient id="paint6_linear_9136_998" x1="253.405" y1="155.4" x2="255.959" y2="155.898" gradientUnits="userSpaceOnUse">
<stop offset="0.0416667" stop-color="#B5B5B5"/>
<stop offset="0.362488" stop-color="#E2E2E2"/>
<stop offset="1" stop-color="white"/>
</linearGradient>
<linearGradient id="paint7_diamond_9136_998" x1="0" y1="0" x2="500" y2="500" gradientUnits="userSpaceOnUse">
<stop stop-color="white"/>
<stop offset="1" stop-color="white" stop-opacity="0"/>
<stop offset="1" stop-color="white" stop-opacity="0.54"/>
</linearGradient>
<linearGradient id="paint8_linear_9136_998" x1="189.5" y1="61.501" x2="138" y2="126.001" gradientUnits="userSpaceOnUse">
<stop stop-color="white"/>
<stop offset="1" stop-color="white" stop-opacity="0"/>
</linearGradient>
<linearGradient id="paint9_linear_9136_998" x1="185.641" y1="73.259" x2="146.604" y2="127.09" gradientUnits="userSpaceOnUse">
<stop stop-color="white"/>
<stop offset="1" stop-color="white" stop-opacity="0"/>
</linearGradient>
</defs>
</svg>
