<svg width="499" height="413" viewBox="0 0 499 413" fill="none" xmlns="http://www.w3.org/2000/svg">
<ellipse cx="348.057" cy="261.671" rx="150.931" ry="150.931" fill="#E5F0FF"/>
<g filter="url(#filter0_d_5718_2019)">
<path d="M407.828 103.57C410.154 109.61 410.369 118.515 405.484 131.131L405.452 131.214L405.435 131.302C402.863 144.605 402.369 156.39 401.931 166.902C401.781 170.438 401.646 173.816 401.431 177.077L401.431 177.079C400.6 190.017 398.65 200.789 390.599 209.584L390.598 209.584C377.899 223.478 358.907 242.076 350.996 249.628L350.989 249.634L350.934 249.687L350.864 249.721L350.859 249.724C350.392 249.95 349.637 250.225 348.949 250.292C348.632 250.322 348.257 250.301 347.915 250.155C347.831 250.114 347.741 250.065 347.662 250.012L347.317 249.783L346.911 249.865C346.316 249.985 345.584 250.007 344.775 249.946L344.759 249.946C343.441 249.869 341.855 249.537 340.234 248.869C337.268 247.643 334.182 245.25 332.39 241.014L332.039 240.183L331.176 240.447C327.081 241.703 321.315 243.208 315.875 244.057L315.873 244.057C312.847 244.536 309.905 244.807 307.398 244.723L307.396 244.723C305.214 244.654 303.264 244.308 301.894 243.495L301.565 243.299L301.19 243.373C292.81 245.022 273.674 247.922 264.973 249.203L264.947 249.206L264.874 249.221L264.814 249.196L264.786 249.185L264.758 249.175C262.453 248.388 259.875 247.153 257.594 245.496C255.326 243.847 253.324 241.757 252.217 239.265C251.182 236.908 250.96 234.212 252.016 231.215L252.244 230.612C253.328 227.965 255.403 225.096 258.776 222.04L258.281 221.493L258.134 220.286C251.713 220.561 243.554 220.521 236.155 219.698C231.541 219.181 227.204 218.374 223.743 217.123L223.742 217.122C222.046 216.512 220.814 215.884 219.864 215.122C218.953 214.391 218.265 213.503 217.683 212.309C217.039 209.067 216.611 204.699 217.531 200.994L218.022 199.013L216.156 199.839C211.164 202.045 203.439 204.489 196.121 206.367L194.663 206.735C190.088 207.864 186.565 209.287 182.654 210.892C178.746 212.496 174.428 214.29 168.197 216.211C161.246 218.354 139.745 225.169 134.669 227.243C110.298 233.381 95.7023 235.169 84.926 235.074C74.1197 234.978 67.1679 233.002 57.8078 231.513C51.287 230.476 44.569 225.776 38.8794 219.408C33.384 213.257 28.9621 205.675 26.6954 198.709L26.4829 198.037C22.0505 183.6 21.362 165.194 23.2713 147.187L23.2711 147.186C25.1754 129.186 29.7003 111.519 35.7624 98.5523C40.7999 88.7373 46.6663 84.159 54.0362 81.528C57.7592 80.1989 61.8893 79.3591 66.5482 78.6166C68.8763 78.2455 71.3228 77.9002 73.9114 77.5295C76.4965 77.1592 79.218 76.764 82.0804 76.2935C91.5935 74.7306 102.176 72.3081 112.798 69.4909C133.983 63.8707 155.267 56.7149 168.418 51.8367L168.499 51.8203L168.576 51.7909L168.604 51.7803C184.23 47.8754 222.921 37.8258 253.193 28.7326L253.212 28.7268L253.23 28.7203L253.85 28.5122C260.227 26.4133 265.474 26.0211 270.205 26.8669C275.084 27.7448 279.372 29.9283 283.755 32.8379C286.477 34.6452 289.194 36.6941 292.115 38.8941C298.5 43.7091 305.807 49.2248 315.9 54.2039L316.886 54.6843C341.255 66.413 380.769 85.3584 397.588 93.414L397.659 93.4485L397.734 93.4712C401.035 94.455 405.252 97.3901 407.605 103.017L407.828 103.57Z" fill="url(#paint0_linear_5718_2019)" fill-opacity="0.8" stroke="url(#paint1_linear_5718_2019)" stroke-width="2"/>
<path d="M288.009 108.546C293.032 114.978 340.443 128.485 362.92 129.157C360.095 148.346 363.578 172.962 362.877 180.55C355.021 189.584 332.162 212.82 331.338 230.859C331.179 234.353 331.593 237.229 332.384 239.585M332.384 239.585C335.676 249.391 345.503 250.194 347.694 249.151C347.925 250.296 349.794 249.72 350.7 249.289C358.607 241.734 377.591 223.153 390.276 209.271C406.133 191.918 398.067 166.738 405.012 131.079C414.812 105.865 404.084 95.7693 397.495 93.8735C380.73 85.8418 341.096 66.8414 316.679 55.0931C286.158 40.4077 279.82 20.092 253.354 29.1625C223.022 38.2692 184.247 48.3372 168.651 52.2329C154.293 57.5709 122.785 67.0235 97.5854 72.9835C74.6729 77.3923 61.0185 78.3424 50.5837 82.5865C41.8809 86.1262 33.8397 98.7721 27.2616 122.82C16.2618 163.033 19.9721 218.385 54.9963 230.415C78.2031 238.387 103.83 239.167 143.313 225.232C161.387 218.854 165.486 217.029 181.509 211.558C199.44 205.435 217.277 200.608 217.132 199.893M332.384 239.585C324.22 242.227 306.66 246.569 301.728 242.799C293.715 244.418 273.87 247.434 264.949 248.74C255.876 245.609 242.476 235.557 261.458 220.402C285.185 201.459 314.101 200.83 318.249 199.248C317.088 191.042 316.853 173.167 325.202 167.31C313.04 165.547 286.501 159.49 277.639 149.366" stroke="url(#paint2_linear_5718_2019)" stroke-width="2"/>
</g>
<path d="M463.428 0.973145C467.35 0.973145 470.53 4.15269 470.53 8.07485V174.772L223.552 174.772V8.07484C223.552 4.15268 226.731 0.973146 230.653 0.973146L463.428 0.973145Z" fill="url(#paint3_linear_5718_2019)"/>
<rect x="223.551" y="174.772" width="246.978" height="3.0491" fill="#E4E4E4"/>
<path d="M223.551 177.82L470.528 177.82L470.528 352.418C470.528 356.467 467.246 359.75 463.196 359.75L230.883 359.75C226.833 359.75 223.551 356.467 223.551 352.418L223.551 177.82Z" fill="white"/>
<path d="M332.609 296.668C333.162 296.668 333.609 297.116 333.609 297.668L333.609 305.825C333.609 306.377 333.162 306.825 332.609 306.825L299.961 306.825C299.409 306.825 298.961 306.377 298.961 305.825L298.961 297.668C298.961 297.116 299.409 296.668 299.961 296.668L332.609 296.668ZM398.848 277.367C399.4 277.367 399.847 277.815 399.848 278.367L399.848 286.525C399.847 287.078 399.4 287.525 398.848 287.525L299.961 287.525C299.409 287.525 298.961 287.077 298.961 286.525L298.961 278.367C298.961 277.815 299.409 277.367 299.961 277.367L398.848 277.367ZM371.334 258.067C371.886 258.068 372.334 258.515 372.334 259.067L372.334 266.209C372.334 266.761 371.886 267.209 371.334 267.209L299.961 267.209C299.409 267.209 298.961 266.761 298.961 266.209L298.961 259.067C298.961 258.515 299.409 258.068 299.961 258.067L371.334 258.067ZM371.334 237.752C371.886 237.752 372.334 238.2 372.334 238.752L372.334 246.909C372.334 247.461 371.886 247.909 371.334 247.909L299.961 247.909C299.409 247.909 298.961 247.461 298.961 246.909L298.961 238.752C298.961 238.2 299.409 237.752 299.961 237.752L371.334 237.752Z" fill="#E9E9EB"/>
<rect x="431.3" y="298.649" width="24.4574" height="10.1579" rx="1" fill="#E9E9EB"/>
<rect x="430.281" y="277.318" width="25.4764" height="10.1579" rx="1" fill="#E9E9EB"/>
<rect x="430.281" y="257.002" width="25.4764" height="10.1579" rx="1" fill="#E9E9EB"/>
<path d="M223.551 321.128L470.528 321.128L470.528 352.67C470.528 356.58 467.359 359.75 463.448 359.75L230.631 359.75C226.721 359.75 223.551 356.58 223.551 352.67L223.551 321.128Z" fill="#F4F4F5"/>
<rect x="239.855" y="197.121" width="101.906" height="15.2369" rx="1" fill="#C9C9C9" fill-opacity="0.5"/>
<rect x="436.394" y="197.121" width="19.3621" height="20.3158" rx="1" fill="#EAF0F6"/>
<rect x="235.748" y="328.243" width="218.519" height="9.1473" rx="1" fill="#C9C9C9" fill-opacity="0.5"/>
<rect x="235.748" y="343.488" width="218.519" height="9.1473" rx="1" fill="#C9C9C9" fill-opacity="0.5"/>
<g clip-path="url(#clip0_5718_2019)">
<rect x="236.439" y="237.114" width="56.7165" height="69.0462" rx="5" fill="#F2F2F2"/>
<path d="M256.987 283.199V283.304C256.958 285.529 255.085 287.201 251.368 288.322C255.847 291.576 260.325 294.178 264.803 294.178C269.281 294.178 273.76 291.576 278.238 288.322C274.547 287.2 272.674 285.525 272.62 283.296C272.62 282.451 272.623 274.211 272.627 273.365C272.894 273.403 272.871 273.379 272.627 273.311C272.634 270.525 272.646 274.172 272.663 270.365C272.679 266.557 256.728 263.151 256.962 273.606C256.965 274.672 256.972 281.991 256.987 283.199Z" fill="url(#paint4_linear_5718_2019)"/>
<path d="M293.155 295.885C293.155 297.593 293.155 299.477 293.155 301.16C293.155 303.922 290.916 306.16 288.155 306.16H241.439C238.677 306.16 236.439 303.922 236.439 301.161C236.439 299.567 236.439 297.769 236.439 296.046C239.076 291.327 254.42 286.95 254.42 286.95C255.844 289.522 260.023 291.868 264.301 291.973C268.942 292.087 273.701 289.741 275.181 286.949C275.181 286.949 290.517 291.165 293.155 295.885Z" fill="#006AFF"/>
<path d="M256.777 278.09C263.334 277.409 269.507 280.248 269.507 280.248C269.507 280.248 268.283 286.676 256.777 284.807V278.09Z" fill="#CDCDCD"/>
<path d="M251.401 264.64C252.275 263.182 253.366 264.185 253.802 264.869L254.41 271.352C254.389 271.916 254.051 272.275 253.169 272.386C252.067 272.526 251.339 269.524 251.085 268.404C250.831 267.283 250.308 266.463 251.401 264.64Z" fill="url(#paint5_linear_5718_2019)"/>
<path d="M277.792 265.012C276.932 263.546 275.832 264.538 275.39 265.217L274.719 271.695C274.735 272.26 275.07 272.621 275.951 272.741C277.051 272.891 277.808 269.896 278.072 268.778C278.337 267.66 278.868 266.845 277.792 265.012Z" fill="url(#paint6_linear_5718_2019)"/>
<path d="M276.924 266.151C276.924 275.527 270.136 283.129 264.838 283.129C259.043 283.129 252.751 275.527 252.751 266.151C252.751 257.796 253.418 248.87 264.838 248.87C276.257 248.87 276.924 257.603 276.924 266.151Z" fill="#FAFAFA"/>
</g>
<path d="M354.412 121.371C358.637 125.01 360.221 129.757 359.984 135.418C359.74 141.216 357.116 145.063 353.584 147.878C349.983 150.748 345.473 152.517 341.499 154.065C333.488 157.186 320.4 164.163 298.166 168.312C292.636 169.344 288.426 169.735 284.104 170.111C279.774 170.487 275.322 170.848 269.395 171.824C257.549 173.775 239.876 178.174 205.212 190.023L205.161 190.04L205.111 190.061C167.194 206.154 136.654 215.024 113.908 219.578C91.1148 224.141 76.2476 224.349 69.6305 223.217L69.5553 223.205L69.479 223.2C54.354 222.184 43.8281 216.943 36.7393 209.261C29.627 201.553 25.8394 191.24 24.493 179.858C21.8262 157.313 28.7954 131.027 37.6689 114.061C57.3794 109.355 72.8067 114.127 88.9587 119.592C105.272 125.112 122.327 131.342 144.766 128.493L144.814 128.487L144.863 128.478C145.529 128.349 147.113 128.22 149.521 128.103C151.885 127.989 154.938 127.891 158.462 127.808C165.508 127.642 174.405 127.536 183.381 127.465C201.338 127.325 219.555 127.333 223.874 127.311C232.698 127.267 248.819 123.899 259.297 120.234C264.303 118.483 276.574 116.341 290.595 114.912C304.579 113.487 320.073 112.794 331.469 113.868C342.876 114.944 350.107 117.664 354.412 121.371Z" fill="white" fill-opacity="0.7" stroke="#F5F5F5" stroke-width="3"/>
<g clip-path="url(#paint7_diamond_5718_2019_clip_path)" data-figma-skip-parse="true"><g transform="matrix(0.132927 -0.0841312 0.322325 0.823659 214.622 351.901)"><rect x="0" y="0" width="2041" height="180.329" fill="url(#paint7_diamond_5718_2019)" opacity="1" shape-rendering="crispEdges"/><rect x="0" y="0" width="2041" height="180.329" transform="scale(1 -1)" fill="url(#paint7_diamond_5718_2019)" opacity="1" shape-rendering="crispEdges"/><rect x="0" y="0" width="2041" height="180.329" transform="scale(-1 1)" fill="url(#paint7_diamond_5718_2019)" opacity="1" shape-rendering="crispEdges"/><rect x="0" y="0" width="2041" height="180.329" transform="scale(-1)" fill="url(#paint7_diamond_5718_2019)" opacity="1" shape-rendering="crispEdges"/></g></g><path d="M474.596 177.44H477.645V358.101H474.596V177.44ZM469.896 172.74L225.203 172.74C222.607 172.74 220.503 174.844 220.503 177.44V358.101C220.503 360.696 222.607 362.8 225.203 362.801H469.896C472.491 362.8 474.596 360.696 474.596 358.101H477.645L477.635 358.5C477.434 362.462 474.257 365.639 470.295 365.84L469.896 365.85H225.203C221.057 365.85 217.672 362.594 217.464 358.5L217.454 358.101V177.44L217.464 177.041C217.672 172.947 221.057 169.691 225.203 169.691L469.896 169.691L470.295 169.701C474.257 169.902 477.434 173.079 477.635 177.041L477.645 177.44H474.596C474.596 174.844 472.491 172.74 469.896 172.74Z" data-figma-gradient-fill="{&#34;type&#34;:&#34;GRADIENT_DIAMOND&#34;,&#34;stops&#34;:[{&#34;color&#34;:{&#34;r&#34;:1.0,&#34;g&#34;:1.0,&#34;b&#34;:1.0,&#34;a&#34;:1.0},&#34;position&#34;:0.0},{&#34;color&#34;:{&#34;r&#34;:1.0,&#34;g&#34;:1.0,&#34;b&#34;:1.0,&#34;a&#34;:0.0},&#34;position&#34;:1.0},{&#34;color&#34;:{&#34;r&#34;:1.0,&#34;g&#34;:1.0,&#34;b&#34;:1.0,&#34;a&#34;:0.54000002145767212},&#34;position&#34;:1.0}],&#34;stopsVar&#34;:[],&#34;transform&#34;:{&#34;m00&#34;:265.85391235351562,&#34;m01&#34;:644.65002441406250,&#34;m02&#34;:-240.62948608398438,&#34;m10&#34;:-168.2624511718750,&#34;m11&#34;:1647.3170166015625,&#34;m12&#34;:-387.62631225585938},&#34;opacity&#34;:1.0,&#34;blendMode&#34;:&#34;NORMAL&#34;,&#34;visible&#34;:true}"/>
<path d="M474.596 177.44H477.645V358.101H474.596V177.44ZM469.896 172.74L225.203 172.74C222.607 172.74 220.503 174.844 220.503 177.44V358.101C220.503 360.696 222.607 362.8 225.203 362.801H469.896C472.491 362.8 474.596 360.696 474.596 358.101H477.645L477.635 358.5C477.434 362.462 474.257 365.639 470.295 365.84L469.896 365.85H225.203C221.057 365.85 217.672 362.594 217.464 358.5L217.454 358.101V177.44L217.464 177.041C217.672 172.947 221.057 169.691 225.203 169.691L469.896 169.691L470.295 169.701C474.257 169.902 477.434 173.079 477.635 177.041L477.645 177.44H474.596C474.596 174.844 472.491 172.74 469.896 172.74Z" fill="white" fill-opacity="0.5"/>
<defs>
<filter id="filter0_d_5718_2019" x="1.16428" y="19.8502" width="428.856" height="265.054" filterUnits="userSpaceOnUse" color-interpolation-filters="sRGB">
<feFlood flood-opacity="0" result="BackgroundImageFix"/>
<feColorMatrix in="SourceAlpha" type="matrix" values="0 0 0 0 0 0 0 0 0 0 0 0 0 0 0 0 0 0 127 0" result="hardAlpha"/>
<feOffset dy="14"/>
<feGaussianBlur stdDeviation="9.8"/>
<feComposite in2="hardAlpha" operator="out"/>
<feColorMatrix type="matrix" values="0 0 0 0 0 0 0 0 0 0 0 0 0 0 0 0 0 0 0.05 0"/>
<feBlend mode="normal" in2="BackgroundImageFix" result="effect1_dropShadow_5718_2019"/>
<feBlend mode="normal" in="SourceGraphic" in2="effect1_dropShadow_5718_2019" result="shape"/>
</filter>
<clipPath id="paint7_diamond_5718_2019_clip_path"><path d="M474.596 177.44H477.645V358.101H474.596V177.44ZM469.896 172.74L225.203 172.74C222.607 172.74 220.503 174.844 220.503 177.44V358.101C220.503 360.696 222.607 362.8 225.203 362.801H469.896C472.491 362.8 474.596 360.696 474.596 358.101H477.645L477.635 358.5C477.434 362.462 474.257 365.639 470.295 365.84L469.896 365.85H225.203C221.057 365.85 217.672 362.594 217.464 358.5L217.454 358.101V177.44L217.464 177.041C217.672 172.947 221.057 169.691 225.203 169.691L469.896 169.691L470.295 169.701C474.257 169.902 477.434 173.079 477.635 177.041L477.645 177.44H474.596C474.596 174.844 472.491 172.74 469.896 172.74Z"/></clipPath><linearGradient id="paint0_linear_5718_2019" x1="423.368" y1="173.865" x2="9.25977" y2="121.993" gradientUnits="userSpaceOnUse">
<stop stop-color="white"/>
<stop offset="1" stop-color="white" stop-opacity="0.5"/>
</linearGradient>
<linearGradient id="paint1_linear_5718_2019" x1="422.067" y1="167.426" x2="7.38058" y2="112.691" gradientUnits="userSpaceOnUse">
<stop stop-color="white"/>
<stop offset="1" stop-color="white" stop-opacity="0.5"/>
</linearGradient>
<linearGradient id="paint2_linear_5718_2019" x1="410.433" y1="117.207" x2="25.9337" y2="194.889" gradientUnits="userSpaceOnUse">
<stop stop-color="white" stop-opacity="0.5"/>
<stop offset="1" stop-color="white"/>
</linearGradient>
<linearGradient id="paint3_linear_5718_2019" x1="346.72" y1="113.779" x2="346.72" y2="174.673" gradientUnits="userSpaceOnUse">
<stop stop-color="white"/>
<stop offset="1" stop-color="white"/>
</linearGradient>
<linearGradient id="paint4_linear_5718_2019" x1="263.612" y1="274.241" x2="263.612" y2="287.18" gradientUnits="userSpaceOnUse">
<stop stop-color="#B1B1B1"/>
<stop offset="1" stop-color="white"/>
</linearGradient>
<linearGradient id="paint5_linear_5718_2019" x1="253.759" y1="267.919" x2="251.655" y2="268.307" gradientUnits="userSpaceOnUse">
<stop offset="0.171875" stop-color="#BDBDBD"/>
<stop offset="0.640625" stop-color="#E1E1E1"/>
<stop offset="1" stop-color="#DDDDDD"/>
</linearGradient>
<linearGradient id="paint6_linear_5718_2019" x1="275.404" y1="268.268" x2="277.503" y2="268.677" gradientUnits="userSpaceOnUse">
<stop offset="0.0416667" stop-color="#B5B5B5"/>
<stop offset="0.362488" stop-color="#E2E2E2"/>
<stop offset="1" stop-color="white"/>
</linearGradient>
<linearGradient id="paint7_diamond_5718_2019" x1="0" y1="0" x2="500" y2="500" gradientUnits="userSpaceOnUse">
<stop stop-color="white"/>
<stop offset="1" stop-color="white" stop-opacity="0"/>
<stop offset="1" stop-color="white" stop-opacity="0.54"/>
</linearGradient>
<clipPath id="clip0_5718_2019">
<rect x="236.439" y="237.114" width="56.7165" height="69.0462" rx="3.72845" fill="white"/>
</clipPath>
</defs>
</svg>
