<svg width="16" height="16" viewBox="0 0 16 16" fill="none" xmlns="http://www.w3.org/2000/svg">
<path fill-rule="evenodd" clip-rule="evenodd" d="M10.152 6.3251C9.978 6.32278 9.78716 6.32219 9.56897 6.32219H6.43175C6.21298 6.32219 6.02214 6.32278 5.84817 6.3251V5.38719C5.86795 4.21654 6.80121 3.28851 7.973 3.27338H7.99977C9.17449 3.27338 10.1374 4.22061 10.152 5.39184V6.3251ZM12.399 7.47538C12.1966 7.05762 11.8574 6.72017 11.4466 6.52642C11.3174 6.46358 11.1795 6.42169 11.0248 6.39143V5.3866C11.0038 3.71965 9.6278 2.36397 7.962 2.40063C6.31538 2.42157 5.00335 3.72721 4.97542 5.37962V6.39143C4.82181 6.42111 4.6845 6.46242 4.5565 6.52467C4.14339 6.71959 3.80418 7.05704 3.59996 7.47713C3.40039 7.89779 3.40039 8.38421 3.40039 9.35354V10.5929C3.40039 11.5674 3.40039 12.0567 3.60054 12.4693C3.80011 12.8894 4.13001 13.2198 4.55708 13.4276C4.97425 13.6242 5.46125 13.6242 6.43175 13.6242H9.56903C10.5395 13.6242 11.0259 13.6242 11.4466 13.4258C11.865 13.2222 12.2029 12.8824 12.3985 12.4716C12.6004 12.0567 12.6004 11.5674 12.6004 10.5929V9.35354C12.6004 8.38421 12.6003 7.89779 12.399 7.47538Z" fill="white"/>
</svg>
