<svg width="32" height="32" viewBox="0 0 32 32" fill="none" xmlns="http://www.w3.org/2000/svg">
<g clip-path="url(#clip0_30442_21361)">
<path fill-rule="evenodd" clip-rule="evenodd" d="M15.9997 3.33325C9.01434 3.33325 3.33301 9.01592 3.33301 15.9999C3.33301 22.9839 9.01434 28.6666 15.9997 28.6666C22.9837 28.6666 28.6663 22.9839 28.6663 15.9999C28.6663 9.01592 22.9837 3.33325 15.9997 3.33325Z" fill="white"/>
<path fill-rule="evenodd" clip-rule="evenodd" d="M18.2787 17.06L18.0907 17.1653C17.2267 17.648 16.9213 17.896 16.928 18.32C16.9347 18.872 16.4933 19.3253 15.9413 19.3333H15.928C15.3813 19.3333 14.9347 18.8946 14.928 18.3466C14.9053 16.656 16.288 15.8826 17.1133 15.4213L17.3013 15.3146C18.06 14.8973 18.4387 14.3186 18.4387 13.5906C18.4387 12.3866 17.4587 11.408 16.2547 11.408C15.0293 11.408 14.0693 12.3666 14.0693 13.5906C14.0693 14.1426 13.6213 14.5906 13.0693 14.5906C12.5173 14.5906 12.0693 14.1426 12.0693 13.5906C12.0693 11.284 13.9467 9.40796 16.2547 9.40796C18.5613 9.40796 20.4387 11.284 20.4387 13.5906C20.4387 15.0613 19.6707 16.2933 18.2787 17.06ZM15.9293 22.6133C15.3773 22.6133 14.9293 22.1853 14.9293 21.6333V21.5933C14.9293 21.0413 15.3773 20.5933 15.9293 20.5933C16.4813 20.5933 16.9293 21.0413 16.9293 21.5933C16.9293 22.1453 16.4813 22.6133 15.9293 22.6133Z" fill="#262831"/>
</g>
<defs>
<clipPath id="clip0_30442_21361">
<rect width="32" height="32" fill="white"/>
</clipPath>
</defs>
</svg>
