<svg width="90" height="90" viewBox="0 0 90 90" fill="none" xmlns="http://www.w3.org/2000/svg">
<path d="M16 0.5H74C82.5604 0.5 89.5 7.43959 89.5 16V74C89.5 82.5604 82.5604 89.5 74 89.5H16C7.43959 89.5 0.5 82.5604 0.5 74V16C0.5 7.43959 7.43959 0.5 16 0.5Z" fill="#14151A"/>
<path d="M16 0.5H74C82.5604 0.5 89.5 7.43959 89.5 16V74C89.5 82.5604 82.5604 89.5 74 89.5H16C7.43959 89.5 0.5 82.5604 0.5 74V16C0.5 7.43959 7.43959 0.5 16 0.5Z" stroke="#EBECEF"/>
<path d="M45.0583 62.076C42.5943 62.076 40.4343 61.644 38.5783 60.78C36.7223 59.884 35.2823 58.572 34.2583 56.844C33.2343 55.084 32.7543 52.908 32.8183 50.316H40.1623C39.9383 51.852 40.2903 53.132 41.2183 54.156C42.1463 55.148 43.4263 55.644 45.0583 55.644C46.4343 55.644 47.6023 55.276 48.5623 54.54C49.5543 53.804 50.0503 52.524 50.0503 50.7C50.0503 49.164 49.5543 47.996 48.5623 47.196C47.6023 46.364 46.4503 45.948 45.1063 45.948C44.4023 45.948 43.7463 46.044 43.1383 46.236C42.5623 46.428 42.0503 46.652 41.6023 46.908L37.5703 42.204L46.9303 34.428H33.5863V27.9H56.2423V34.284L48.9943 40.284C50.7223 40.604 52.1303 41.132 53.2183 41.868C54.3063 42.604 55.1383 43.468 55.7143 44.46C56.3223 45.452 56.7383 46.492 56.9623 47.58C57.1863 48.636 57.2983 49.66 57.2983 50.652C57.2983 53.052 56.7703 55.116 55.7143 56.844C54.6903 58.54 53.2503 59.836 51.3943 60.732C49.5703 61.628 47.4583 62.076 45.0583 62.076Z" fill="white"/>
</svg>
