<svg width="332" height="121" viewBox="0 0 332 121" fill="none" xmlns="http://www.w3.org/2000/svg">
<path fill-rule="evenodd" clip-rule="evenodd" d="M60.744 10.5977C63.6724 10.5977 66.4619 11.1414 69.103 12.2195L69.3254 12.3117V18.0896L68.8343 17.8869C66.1653 16.7626 63.7373 16.2097 61.5503 16.2097C58.8257 16.2097 56.8147 16.8824 55.4988 18.2094C54.1828 19.5364 53.5156 21.6743 53.5156 24.6416C53.5156 27.7563 54.1643 30.0048 55.4524 31.4055C56.7313 32.797 58.8072 33.4974 61.7078 33.4974C64.0802 33.4974 66.4619 32.926 68.8713 31.7741L69.381 31.5346V37.3217L69.1679 37.4138C66.5638 38.5749 63.7744 39.1463 60.7996 39.1463C57.1298 39.1463 54.0253 38.1418 51.5139 36.1237L51.1432 35.8104L50.8559 35.5524C48.4464 33.3039 47.251 29.7929 47.251 25.0563C47.251 19.9971 48.5206 16.3111 51.0783 14.0165C53.6175 11.7403 56.8518 10.5977 60.744 10.5977Z" fill="black"/>
<path fill-rule="evenodd" clip-rule="evenodd" d="M9.93351 11.3438L9.98911 38.6115H3.61328V11.3438H9.93351Z" fill="black"/>
<path fill-rule="evenodd" clip-rule="evenodd" d="M30.1454 10.5986C33.9635 10.5986 36.7992 11.4003 38.6527 13.0314C40.5154 14.6717 41.4421 17.1966 41.4421 20.5878V38.6127H35.1312V21.3343C35.1312 17.8141 33.1758 16.0908 29.126 16.0908C27.4301 16.0908 25.8084 16.3304 24.2422 16.8096L23.6584 17.0031V38.6127H17.3381V13.5014L17.5327 13.4C19.1638 12.5706 21.1377 11.8979 23.4638 11.3726L24.2329 11.2068C26.281 10.7921 28.2456 10.5894 30.1361 10.5894" fill="black"/>
<path fill-rule="evenodd" clip-rule="evenodd" d="M96.8968 14.2567C94.6541 11.7778 91.3179 10.543 86.916 10.543C78.1678 10.543 73.7473 15.3717 73.7473 24.9002C73.7473 29.3972 74.7574 32.8898 76.7962 35.3595L77.065 35.6728C79.2891 38.1701 82.5975 39.4141 86.9716 39.4141C91.3457 39.4141 94.478 38.1517 96.7948 35.6267C99.1024 33.111 100.252 29.5262 100.252 24.9002C100.252 20.2742 99.1394 16.7264 96.906 14.2567M86.916 33.968C84.4973 33.968 82.7643 33.2031 81.68 31.6918C80.568 30.1437 80.0119 27.8859 80.0119 24.9002C80.0119 21.9145 80.5587 19.666 81.6337 18.1547C82.6809 16.6803 84.4324 15.9339 86.9253 15.9339C89.4181 15.9339 91.1511 16.6619 92.2539 18.1086C93.3752 19.5831 93.9405 21.8408 93.9405 24.9002C93.9405 31.0007 91.6145 33.968 86.9253 33.968" fill="black"/>
<path fill-rule="evenodd" clip-rule="evenodd" d="M123.836 0V11.8323C122.937 11.4453 121.955 11.1412 120.871 10.92C119.592 10.6712 118.452 10.5422 117.461 10.5422C113.235 10.5422 110.019 11.7862 107.85 14.2835C105.691 16.7716 104.616 20.1997 104.616 24.5769C104.616 30.0323 105.877 33.875 108.416 36.1051C110.946 38.3075 114.161 39.4133 118.054 39.4133C119.972 39.4133 121.835 39.183 123.642 38.713C125.467 38.243 126.996 37.4966 128.21 36.4829C129.462 35.4416 130.101 34.1423 130.101 32.6217V0H123.836ZM123.836 32.078V32.1886C123.762 32.5941 123.308 32.9719 122.391 33.2852C121.316 33.6631 119.972 33.8474 118.369 33.8474C115.626 33.8474 113.744 33.0549 112.679 31.4698C111.585 29.848 111.029 27.581 111.029 24.669C111.029 18.8543 113.411 16.0252 118.258 16.0252C119.221 16.0252 120.213 16.1542 121.242 16.4122C122.029 16.6058 122.761 16.873 123.438 17.214L123.836 17.4259V32.078Z" fill="black"/>
<path fill-rule="evenodd" clip-rule="evenodd" d="M161.071 25.5453C161.024 20.9469 160.051 17.3346 158.151 14.7082C156.14 11.9345 152.98 10.543 148.708 10.543C144.658 10.543 141.498 11.7962 139.256 14.3028C137.022 16.8093 135.91 20.394 135.91 25.0477C135.91 29.7013 137.087 33.1386 139.45 35.6451C141.813 38.1517 145.066 39.4049 149.19 39.4049C152.841 39.4049 156.066 38.7967 158.893 37.5619L159.106 37.4697V31.4246L158.578 31.7195C157.456 32.3461 156.168 32.8621 154.704 33.2584C153.249 33.6639 151.711 33.8574 150.098 33.8574C147.652 33.8574 145.798 33.2031 144.501 31.913C143.259 30.6781 142.527 28.8904 142.314 26.5221H161.08V25.5453H161.071ZM142.434 21.6657L142.508 21.251C142.861 19.3711 143.472 18.0257 144.353 17.2148C145.344 16.284 146.734 15.8233 148.541 15.8233C150.45 15.8233 151.868 16.3117 152.832 17.2885C153.675 18.1455 154.25 19.4633 154.546 21.251L154.611 21.6749H142.444L142.434 21.6657Z" fill="black"/>
<path d="M10.146 1.86084H3.45508V7.62033H10.146V1.86084Z" fill="black"/>
<path d="M28.724 120.138C22.6467 120.138 17.458 118.791 13.158 116.096C8.858 113.344 5.59 109.617 3.354 104.916C1.118 100.215 0 94.9114 0 89.006C0 83.158 1.08933 77.8834 3.268 73.182C5.504 68.4807 8.772 64.754 13.072 62.002C17.372 59.25 22.5893 57.874 28.724 57.874C35.604 57.874 41.194 59.5367 45.494 62.862C49.8513 66.13 52.632 70.7167 53.836 76.622H45.838C44.9207 72.8954 43.0287 69.914 40.162 67.678C37.3527 65.3847 33.54 64.238 28.724 64.238C23.9653 64.238 20.0093 65.356 16.856 67.592C13.7027 69.7707 11.3233 72.7234 9.718 76.45C8.17 80.1767 7.396 84.362 7.396 89.006C7.396 93.7647 8.19867 98.0074 9.804 101.734C11.4667 105.461 13.8747 108.413 17.028 110.592C20.1813 112.713 24.08 113.774 28.724 113.774C33.54 113.774 37.3527 112.685 40.162 110.506C43.0287 108.27 44.9207 105.317 45.838 101.648H53.836C52.632 107.439 49.8513 111.968 45.494 115.236C41.194 118.504 35.604 120.138 28.724 120.138Z" fill="url(#paint0_linear_696_2425)"/>
<path d="M80.0425 120.138C76.1438 120.138 72.5605 119.278 69.2925 117.558C66.0245 115.781 63.4158 113.229 61.4665 109.904C59.5172 106.521 58.5425 102.451 58.5425 97.692C58.5425 93.1627 59.4885 89.2354 61.3805 85.91C63.3298 82.5847 65.9385 80.0047 69.2065 78.17C72.5318 76.3354 76.2585 75.418 80.3865 75.418C84.3425 75.418 87.9545 76.278 91.2225 77.998C94.5478 79.718 97.2138 82.2407 99.2205 85.566C101.227 88.8914 102.23 92.9334 102.23 97.692C102.23 102.049 101.284 105.919 99.3925 109.302C97.5005 112.685 94.8631 115.351 91.4805 117.3C88.1552 119.192 84.3425 120.138 80.0425 120.138ZM80.0425 113.86C82.8518 113.86 85.3745 113.201 87.6105 111.882C89.8465 110.506 91.6238 108.614 92.9425 106.206C94.2612 103.798 94.9205 100.96 94.9205 97.692C94.9205 94.596 94.3472 91.844 93.2005 89.436C92.0538 87.028 90.3912 85.136 88.2125 83.76C86.0338 82.384 83.3965 81.696 80.3005 81.696C77.1472 81.696 74.4811 82.4127 72.3025 83.846C70.1811 85.2794 68.5758 87.2 67.4865 89.608C66.3972 92.016 65.8525 94.7107 65.8525 97.692C65.8525 101.476 66.5405 104.572 67.9165 106.98C69.2925 109.331 71.0698 111.079 73.2485 112.226C75.4272 113.315 77.6918 113.86 80.0425 113.86Z" fill="url(#paint1_linear_696_2425)"/>
<path d="M108.811 119.106V76.45H115.347L115.949 84.62C117.267 81.8107 119.274 79.5747 121.969 77.912C124.664 76.2494 127.989 75.418 131.945 75.418V82.986H129.967C125.265 82.986 121.768 84.2474 119.475 86.77C117.181 89.2927 116.035 92.9047 116.035 97.606V119.106H108.811Z" fill="url(#paint2_linear_696_2425)"/>
<path d="M154.195 120.138C150.239 120.138 146.656 119.221 143.445 117.386C140.292 115.551 137.798 112.971 135.963 109.646C134.129 106.263 133.211 102.307 133.211 97.778C133.211 93.306 134.071 89.4074 135.791 86.082C137.569 82.6994 140.034 80.0907 143.187 78.256C146.398 76.364 150.125 75.418 154.367 75.418C158.381 75.418 161.878 76.3067 164.859 78.084C167.841 79.8614 170.163 82.2694 171.825 85.308C173.545 88.2894 174.405 91.6434 174.405 95.37C174.405 96.1727 174.405 96.8034 174.405 97.262C174.405 97.7207 174.377 98.4374 174.319 99.412H140.349C140.521 102.221 141.181 104.744 142.327 106.98C143.531 109.159 145.137 110.879 147.143 112.14C149.207 113.401 151.558 114.032 154.195 114.032C157.177 114.032 159.671 113.344 161.677 111.968C163.684 110.592 165.146 108.729 166.063 106.378H173.201C172.456 109.015 171.223 111.366 169.503 113.43C167.783 115.494 165.633 117.128 163.053 118.332C160.531 119.536 157.578 120.138 154.195 120.138ZM140.435 93.822H167.267C167.095 89.9807 165.777 86.9707 163.311 84.792C160.846 82.6134 157.807 81.524 154.195 81.524C150.755 81.524 147.688 82.5847 144.993 84.706C142.356 86.77 140.837 89.8087 140.435 93.822Z" fill="url(#paint3_linear_696_2425)"/>
<path d="M200.29 119.106V58.906H207.514V113.344H235.55V119.106H200.29Z" fill="url(#paint4_linear_696_2425)"/>
<path d="M255.794 120.138C252.87 120.138 250.204 119.651 247.796 118.676C245.388 117.701 243.467 116.239 242.034 114.29C240.658 112.283 239.97 109.847 239.97 106.98C239.97 103.655 240.83 101.017 242.55 99.068C244.27 97.0614 246.534 95.628 249.344 94.768C252.21 93.8507 255.278 93.392 258.546 93.392H270.07C270.07 90.4107 269.554 88.06 268.522 86.34C267.547 84.62 266.257 83.3874 264.652 82.642C263.046 81.8967 261.269 81.524 259.32 81.524C256.51 81.524 254.074 82.212 252.01 83.588C250.003 84.9067 248.742 86.9707 248.226 89.78H240.83C241.116 86.684 242.148 84.0754 243.926 81.954C245.703 79.8327 247.939 78.2274 250.634 77.138C253.386 75.9914 256.281 75.418 259.32 75.418C263.62 75.418 267.088 76.2207 269.726 77.826C272.363 79.374 274.284 81.4667 275.488 84.104C276.692 86.7414 277.294 89.6654 277.294 92.876V105.948C277.294 108.069 277.552 109.675 278.068 110.764C278.584 111.853 279.902 112.513 282.024 112.742V119.106C280.132 119.106 278.412 118.877 276.864 118.418C275.316 117.902 273.997 117.099 272.908 116.01C271.876 114.863 271.13 113.373 270.672 111.538C269.238 113.946 267.26 115.981 264.738 117.644C262.272 119.307 259.291 120.138 255.794 120.138ZM256.912 114.032C259.778 114.032 262.186 113.315 264.136 111.882C266.085 110.391 267.547 108.499 268.522 106.206C269.554 103.913 270.07 101.533 270.07 99.068V98.982H259.148C257.141 98.982 255.249 99.2114 253.472 99.67C251.694 100.071 250.261 100.845 249.172 101.992C248.082 103.081 247.538 104.629 247.538 106.636C247.538 109.216 248.455 111.108 250.29 112.312C252.124 113.459 254.332 114.032 256.912 114.032Z" fill="url(#paint5_linear_696_2425)"/>
<path d="M310.084 120.138C306.587 120.138 303.462 119.421 300.71 117.988C298.016 116.555 295.952 114.548 294.518 111.968L293.83 119.106H287.294V58.906H294.518V83.502C295.894 81.438 297.844 79.5747 300.366 77.912C302.946 76.2494 306.214 75.418 310.17 75.418C314.47 75.418 318.197 76.3927 321.35 78.342C324.504 80.2914 326.94 82.9574 328.66 86.34C330.38 89.7227 331.24 93.564 331.24 97.864C331.24 102.107 330.38 105.919 328.66 109.302C326.94 112.685 324.475 115.351 321.264 117.3C318.111 119.192 314.384 120.138 310.084 120.138ZM309.31 113.86C312.234 113.86 314.786 113.201 316.964 111.882C319.143 110.506 320.834 108.614 322.038 106.206C323.3 103.741 323.93 100.931 323.93 97.778C323.93 94.7394 323.328 92.016 322.124 89.608C320.978 87.1427 319.315 85.222 317.136 83.846C314.958 82.4127 312.349 81.696 309.31 81.696C306.444 81.696 303.892 82.384 301.656 83.76C299.478 85.0787 297.758 86.942 296.496 89.35C295.292 91.758 294.69 94.5674 294.69 97.778C294.69 100.759 295.292 103.483 296.496 105.948C297.7 108.356 299.392 110.277 301.57 111.71C303.749 113.143 306.329 113.86 309.31 113.86Z" fill="url(#paint6_linear_696_2425)"/>
<defs>
<linearGradient id="paint0_linear_696_2425" x1="-4.04199" y1="90.106" x2="335.958" y2="90.106" gradientUnits="userSpaceOnUse">
<stop/>
<stop offset="1" stop-color="#006AFF"/>
</linearGradient>
<linearGradient id="paint1_linear_696_2425" x1="-4.04199" y1="90.106" x2="335.958" y2="90.106" gradientUnits="userSpaceOnUse">
<stop/>
<stop offset="1" stop-color="#006AFF"/>
</linearGradient>
<linearGradient id="paint2_linear_696_2425" x1="-4.04199" y1="90.106" x2="335.958" y2="90.106" gradientUnits="userSpaceOnUse">
<stop/>
<stop offset="1" stop-color="#006AFF"/>
</linearGradient>
<linearGradient id="paint3_linear_696_2425" x1="-4.04199" y1="90.106" x2="335.958" y2="90.106" gradientUnits="userSpaceOnUse">
<stop/>
<stop offset="1" stop-color="#006AFF"/>
</linearGradient>
<linearGradient id="paint4_linear_696_2425" x1="-4.04199" y1="90.106" x2="335.958" y2="90.106" gradientUnits="userSpaceOnUse">
<stop/>
<stop offset="1" stop-color="#006AFF"/>
</linearGradient>
<linearGradient id="paint5_linear_696_2425" x1="-4.04199" y1="90.106" x2="335.958" y2="90.106" gradientUnits="userSpaceOnUse">
<stop/>
<stop offset="1" stop-color="#006AFF"/>
</linearGradient>
<linearGradient id="paint6_linear_696_2425" x1="-4.04199" y1="90.106" x2="335.958" y2="90.106" gradientUnits="userSpaceOnUse">
<stop/>
<stop offset="1" stop-color="#006AFF"/>
</linearGradient>
</defs>
</svg>
