<svg width="62" height="37" viewBox="0 0 62 37" fill="none" xmlns="http://www.w3.org/2000/svg">
<rect x="3.68023" y="2.68023" width="55.6395" height="31.6395" rx="2.31977" stroke="#CBCBCB" stroke-width="0.639535"/>
<path d="M8 31C8 31.2761 7.77614 31.5 7.5 31.5C7.22386 31.5 7 31.2761 7 31L7 26C7 25.7239 7.22386 25.5 7.5 25.5C7.77614 25.5 8 25.7239 8 26L8 31ZM11 27C11 27.2761 10.7761 27.5 10.5 27.5L10 27.5L10 31C10 31.2761 9.77614 31.5 9.5 31.5C9.22386 31.5 9 31.2761 9 31L9 26C9 25.7239 9.22386 25.5 9.5 25.5C9.77614 25.5 10 25.7239 10 26L10 26.5L10.5 26.5C10.7761 26.5 11 26.7239 11 27ZM12 31C12 31.2761 11.7761 31.5 11.5 31.5C11.2239 31.5 11 31.2761 11 31L11 26C11 25.7239 11.2239 25.5 11.5 25.5C11.7761 25.5 12 25.7239 12 26L12 31ZM14 31C14 31.2761 13.7761 31.5 13.5 31.5C13.2239 31.5 13 31.2761 13 31L13 26C13 25.7239 13.2239 25.5 13.5 25.5C13.7761 25.5 14 25.7239 14 26L14 31ZM15 27C15 27.2761 14.7761 27.5 14.5 27.5C14.2239 27.5 14 27.2761 14 27C14 26.7239 14.2239 26.5 14.5 26.5C14.7761 26.5 15 26.7239 15 27ZM15 28C15 28.2761 14.7761 28.5 14.5 28.5C14.2239 28.5 14 28.2761 14 28C14 27.7239 14.2239 27.5 14.5 27.5C14.7761 27.5 15 27.7239 15 28ZM16 31C16 31.2761 15.7761 31.5 15.5 31.5C15.2239 31.5 15 31.2761 15 31L15 26C15 25.7239 15.2239 25.5 15.5 25.5C15.7761 25.5 16 25.7239 16 26L16 31ZM17 30C17 30.2761 16.7761 30.5 16.5 30.5C16.2239 30.5 16 30.2761 16 30C16 29.7239 16.2239 29.5 16.5 29.5C16.7761 29.5 17 29.7239 17 30ZM17 31C17 31.2761 16.7761 31.5 16.5 31.5C16.2239 31.5 16 31.2761 16 31C16 30.7239 16.2239 30.5 16.5 30.5C16.7761 30.5 17 30.7239 17 31ZM18 31C18 31.2761 17.7761 31.5 17.5 31.5C17.2239 31.5 17 31.2761 17 31L17 26C17 25.7239 17.2239 25.5 17.5 25.5C17.7761 25.5 18 25.7239 18 26L18 31ZM21 31C21 31.2761 20.7761 31.5 20.5 31.5C20.2239 31.5 20 31.2761 20 31L20 26C20 25.7239 20.2239 25.5 20.5 25.5C20.7761 25.5 21 25.7239 21 26L21 31ZM23 31C23 31.2761 22.7761 31.5 22.5 31.5C22.2239 31.5 22 31.2761 22 31L22 26C22 25.7239 22.2239 25.5 22.5 25.5C22.7761 25.5 23 25.7239 23 26L23 31ZM25 31C25 31.2761 24.7761 31.5 24.5 31.5C24.2239 31.5 24 31.2761 24 31L24 26C24 25.7239 24.2239 25.5 24.5 25.5C24.7761 25.5 25 25.7239 25 26L25 31ZM27 31C27 31.2761 26.7761 31.5 26.5 31.5C26.2239 31.5 26 31.2761 26 31L26 26C26 25.7239 26.2239 25.5 26.5 25.5C26.7761 25.5 27 25.7239 27 26L27 31ZM28 27C28 27.2761 27.7761 27.5 27.5 27.5C27.2239 27.5 27 27.2761 27 27C27 26.7239 27.2239 26.5 27.5 26.5C27.7761 26.5 28 26.7239 28 27ZM29 31C29 31.2761 28.7761 31.5 28.5 31.5C28.2239 31.5 28 31.2761 28 31L28 26C28 25.7239 28.2239 25.5 28.5 25.5C28.7761 25.5 29 25.7239 29 26L29 31ZM31 31C31 31.2761 30.7761 31.5 30.5 31.5C30.2239 31.5 30 31.2761 30 31L30 26C30 25.7239 30.2239 25.5 30.5 25.5C30.7761 25.5 31 25.7239 31 26L31 31Z" fill="#90939D"/>
<path fill-rule="evenodd" clip-rule="evenodd" d="M4.00075 9.5L59 9.5V13.5L4 13.5L4.00075 9.5Z" fill="#90939D"/>
<rect x="7" y="15.5" width="24" height="2" rx="1" fill="#E9E9EB"/>
<rect x="7" y="5.5" width="13" height="2" rx="1" fill="#E9E9EB"/>
<rect x="7" y="18.5" width="16" height="2" rx="1" fill="#E9E9EB"/>
<rect x="7" y="21.5" width="13" height="2" rx="1" fill="#E9E9EB"/>
</svg>
