<svg width="62" height="37" viewBox="0 0 62 37" fill="none" xmlns="http://www.w3.org/2000/svg">
<rect x="2.68023" y="2.68023" width="55.6395" height="31.6395" rx="2.31977" stroke="#CBCBCB" stroke-width="0.639535"/>
<path d="M3 4.53733C3 3.68829 3.68829 3 4.53733 3L56.4627 3C57.3117 3 58 3.68829 58 4.53733V32.4627C58 33.3117 57.3117 34 56.4627 34H4.53733C3.68829 34 3 33.3117 3 32.4627L3 4.53733Z" fill="white"/>
<path fill-rule="evenodd" clip-rule="evenodd" d="M6.19891 9.95898L54.8029 9.95898V11.2243L6.19824 11.2243L6.19891 9.95898Z" fill="#E9E9EB"/>
<rect x="22.8252" y="15.6533" width="12.7907" height="1.89796" fill="#E9E9EB"/>
<rect x="22.8252" y="19.4492" width="12.7907" height="1.89796" fill="#E9E9EB"/>
<rect x="22.8252" y="23.2451" width="17.2674" height="1.89796" fill="#E9E9EB"/>
<rect x="22.8252" y="27.041" width="5.75581" height="1.89796" fill="#E9E9EB"/>
<rect x="6.19824" y="5.53076" width="23.0233" height="2.53061" fill="#20263D" fill-opacity="0.3"/>
<rect x="50.3252" y="5.53076" width="4.47674" height="2.53061" fill="#DBB107" fill-opacity="0.5"/>
<g clip-path="url(#clip0_12619_26850)">
<g clip-path="url(#clip1_12619_26850)">
<rect x="6.198" y="13.1226" width="14.7093" height="17.2674" fill="#007AFF" fill-opacity="0.7"/>
<path d="M20.5076 28.9079C21.1672 30.1299 21.5469 32.9481 21.5469 32.9481H4.91895C4.91895 32.9481 5.29875 30.1296 5.95819 28.9079C6.61762 27.6863 10.6365 26.5532 10.6365 26.5532C10.9924 27.219 12.0373 27.8264 13.1069 27.8535C14.2676 27.883 15.4573 27.2755 15.8273 26.5527C15.8273 26.5527 19.848 27.6859 20.5076 28.9079Z" fill="white"/>
<path d="M11.3142 25.6725C11.307 26.2447 10.6747 26.5394 10.0352 27.1835C11.1479 28.0203 12.4367 28.4716 13.5495 28.4716C14.8444 28.4716 15.9573 28.0203 17.07 27.1835C16.4305 26.5394 15.8044 26.2457 15.791 25.6725C15.791 25.4549 15.7917 23.3355 15.7927 23.118C15.7927 19.4551 11.1805 17.2757 11.3082 23.1778C11.3105 24.0094 11.3142 24.841 11.3142 25.6725Z" fill="url(#paint0_linear_12619_26850)"/>
<path d="M11.3142 23.3715C12.9612 23.1882 14.5119 24.5945 14.5119 24.5945C14.5119 24.5945 14.2045 26.3242 11.3142 25.8215V23.3715Z" fill="#CDCDCD"/>
<path d="M20.5076 28.9079C21.1672 30.1299 21.5469 32.9481 21.5469 32.9481H4.91895C4.91895 32.9481 5.29875 30.1296 5.95819 28.9079C6.61762 27.6863 10.6748 26.5527 10.6748 26.5527C10.6748 27.2933 12.4685 28.4523 13.5527 28.4713C15.0643 28.4713 16.4306 27.2937 16.4306 26.5527C16.4306 26.5527 19.848 27.6859 20.5076 28.9079Z" fill="#979797"/>
<path d="M17.5444 20.775C17.6359 20.4338 17.4334 20.0831 17.0922 19.9917C16.751 19.9003 16.4004 20.1028 16.309 20.4439L15.9779 21.6794C15.8865 22.0206 16.089 22.3713 16.4301 22.4627C16.7713 22.5541 17.122 22.3516 17.2134 22.0105L17.5444 20.775Z" fill="url(#paint1_linear_12619_26850)"/>
<path d="M9.56103 20.775C9.46962 20.4338 9.67208 20.0831 10.0133 19.9917C10.3544 19.9003 10.7051 20.1028 10.7965 20.4439L11.1276 21.6794C11.219 22.0206 11.0165 22.3713 10.6753 22.4627C10.3342 22.5541 9.9835 22.3516 9.89208 22.0105L9.56103 20.775Z" fill="url(#paint2_linear_12619_26850)"/>
<path d="M17.07 20.2026C17.07 23.0032 15.0945 25.2736 13.5526 25.2736C11.8662 25.2736 10.0352 23.0032 10.0352 20.2026C10.0352 17.7073 10.2292 15.041 13.5526 15.041C16.876 15.041 17.07 17.6496 17.07 20.2026Z" fill="url(#paint3_linear_12619_26850)"/>
</g>
</g>
<g clip-path="url(#clip2_12619_26850)">
<path d="M54.9223 28.8383C55.252 29.4427 55.4419 30.8366 55.4419 30.8366H47.1279C47.1279 30.8366 47.3178 29.4425 47.6476 28.8383C47.9773 28.234 49.9867 27.6736 49.9867 27.6736C50.1647 28.0029 50.6871 28.3033 51.2219 28.3167C51.8022 28.3313 52.3971 28.0308 52.5821 27.6733C52.5821 27.6733 54.5925 28.2338 54.9223 28.8383Z" fill="white"/>
<path d="M50.3626 27.5538C50.3588 27.8369 50.024 27.9827 49.6855 28.3012C50.2746 28.7151 51.0699 28.9383 51.659 28.9383C52.3445 28.9383 52.9337 28.7151 53.5228 28.3012C53.1842 27.9827 52.8527 27.8374 52.8456 27.5539C52.8456 27.4463 52.846 26.398 52.8465 26.2904C52.8465 24.4786 50.2918 23.4007 50.3594 26.32C50.3607 26.7312 50.3626 27.1426 50.3626 27.5538Z" fill="url(#paint4_linear_12619_26850)"/>
<path d="M50.3252 25.7876C51.3134 25.6516 52.2438 26.6951 52.2438 26.6951C52.2438 26.6951 52.0594 27.9783 50.3252 27.6054V25.7876Z" fill="#F1F1F1"/>
<path d="M55.4419 28.9386C55.7603 29.5222 56.0814 30.8366 56.0814 30.8366H47.1279C47.1279 30.8366 47.4491 29.5221 47.7675 28.9386C48.0858 28.3552 50.3256 27.6733 50.3256 27.6733C50.3256 28.027 51.0813 28.2969 51.6047 28.306C52.3344 28.306 52.8837 28.0272 52.8837 27.6733C52.8837 27.6733 55.1235 28.3551 55.4419 28.9386Z" fill="#E1E1E1"/>
<path d="M53.5228 24.5671C53.5228 25.9674 52.4452 27.1026 51.6042 27.1026C50.6843 27.1026 49.6855 25.9674 49.6855 24.5671C49.6855 23.3195 49.7914 21.9863 51.6042 21.9863C53.4169 21.9863 53.5228 23.2906 53.5228 24.5671Z" fill="url(#paint5_linear_12619_26850)"/>
</g>
<defs>
<linearGradient id="paint0_linear_12619_26850" x1="13.2535" y1="23.3433" x2="13.2535" y2="26.6715" gradientUnits="userSpaceOnUse">
<stop stop-color="#B1B1B1"/>
<stop offset="1" stop-color="white"/>
</linearGradient>
<linearGradient id="paint1_linear_12619_26850" x1="16.452" y1="21.425" x2="17.4097" y2="21.4635" gradientUnits="userSpaceOnUse">
<stop offset="0.0416667" stop-color="#B5B5B5"/>
<stop offset="1" stop-color="white"/>
</linearGradient>
<linearGradient id="paint2_linear_12619_26850" x1="10.6535" y1="21.425" x2="9.69574" y2="21.4635" gradientUnits="userSpaceOnUse">
<stop offset="0.0416667" stop-color="#B5B5B5"/>
<stop offset="1" stop-color="white"/>
</linearGradient>
<linearGradient id="paint3_linear_12619_26850" x1="10.4675" y1="20.1095" x2="15.4361" y2="20.1278" gradientUnits="userSpaceOnUse">
<stop stop-color="#E0E0E0"/>
<stop offset="1" stop-color="white"/>
</linearGradient>
<linearGradient id="paint4_linear_12619_26850" x1="51.4457" y1="26.363" x2="51.4457" y2="28.0092" gradientUnits="userSpaceOnUse">
<stop stop-color="#EDEDED"/>
<stop offset="1" stop-color="white"/>
</linearGradient>
<linearGradient id="paint5_linear_12619_26850" x1="49.9214" y1="24.5206" x2="52.6315" y2="24.5314" gradientUnits="userSpaceOnUse">
<stop stop-color="#E0E0E0"/>
<stop offset="1" stop-color="white"/>
</linearGradient>
<clipPath id="clip0_12619_26850">
<rect x="6.19824" y="13.1226" width="14.0698" height="17.0816" rx="0.639535" fill="white"/>
</clipPath>
<clipPath id="clip1_12619_26850">
<rect width="18.5465" height="18.5465" fill="white" transform="translate(4.2793 13.1226)"/>
</clipPath>
<clipPath id="clip2_12619_26850">
<rect width="8.95349" height="8.85714" fill="white" transform="translate(47.1279 21.3467)"/>
</clipPath>
</defs>
</svg>
