<svg width="260" height="138" viewBox="0 0 260 138" fill="none" xmlns="http://www.w3.org/2000/svg">
<g clip-path="url(#clip0_30429_20729)">
<path d="M211.541 48.8368C211.541 47.5823 212.667 46.6602 213.827 46.9768C222.443 49.3273 230.875 52.3539 238.672 56.6142C243.381 59.226 247.873 62.3243 251.522 66.2791C253.336 68.2547 254.919 70.4558 256.067 72.8771C257.216 75.2922 257.906 77.9317 257.99 80.6036C258.08 83.2751 257.56 85.9695 256.553 88.4772C255.549 90.9906 254.083 93.3183 252.363 95.4309C248.901 99.6631 244.511 103.076 239.869 105.998C230.513 111.808 220.084 115.794 209.466 118.95C198.817 122.075 187.872 124.286 176.819 125.841C167.317 127.173 162.23 128.006 153.636 128.398C151.762 128.483 150.211 126.905 150.211 124.944V118.365C150.211 116.412 151.749 114.843 153.617 114.867C161.504 114.968 165.962 114.663 174.849 113.898C185.287 112.995 195.652 111.467 205.681 109.109C215.673 106.735 225.448 103.556 233.881 98.9735C238.066 96.6803 241.896 94.0115 244.793 90.9116C247.693 87.8216 249.545 84.2911 249.705 80.6047C249.9 76.9219 248.355 73.1596 245.634 69.7955C242.924 66.4183 239.196 63.4345 235.079 60.8306C228.409 56.6474 220.788 53.3663 212.834 50.6855C212.066 50.4265 211.541 49.6811 211.541 48.8368Z" fill="white"/>
<path d="M210.917 48.8369C210.917 47.2154 212.393 45.9391 213.991 46.375C222.366 48.6599 230.588 51.5864 238.232 55.668L238.971 56.0674L238.974 56.0693C243.419 58.5348 247.7 61.4448 251.274 65.1123L251.98 65.8564L251.981 65.8574C253.828 67.8687 255.45 70.1206 256.63 72.6094L256.846 73.0781C257.899 75.4352 258.532 77.9906 258.613 80.583L258.623 81.1016C258.637 83.6951 258.104 86.2904 257.132 88.71L257.131 88.709C256.099 91.2922 254.598 93.6736 252.847 95.8242L252.846 95.8262C249.325 100.129 244.875 103.584 240.201 106.526L240.198 106.528C230.776 112.379 220.289 116.384 209.644 119.548H209.642C198.959 122.682 187.982 124.9 176.905 126.458C167.413 127.789 162.293 128.628 153.664 129.021C151.402 129.123 149.588 127.225 149.588 124.943V118.365C149.588 116.086 151.388 114.216 153.625 114.244C161.481 114.345 165.917 114.041 174.795 113.277L176.747 113.101C186.499 112.182 196.168 110.705 205.537 108.502L207.402 108.049C216.71 105.734 225.74 102.687 233.583 98.4258C237.734 96.151 241.502 93.5201 244.337 90.4863L244.338 90.4854C247.172 87.4651 248.93 84.0686 249.082 80.5771L249.083 80.5723C249.267 77.0881 247.806 73.472 245.149 70.1875L245.148 70.1855C242.497 66.8815 238.83 63.9407 234.746 61.3574V61.3564C228.132 57.208 220.558 53.9471 212.635 51.2764C211.602 50.9281 210.917 49.9368 210.917 48.8369Z" stroke="#888888" stroke-opacity="0.24" stroke-width="1.24697"/>
<path d="M48.3534 48.7991C48.3534 47.5623 47.2451 46.6522 46.1001 46.961C37.4945 49.2819 29.0721 52.2708 21.2845 56.48C16.5856 59.0577 12.104 62.1156 8.4635 66.0188C6.65363 67.9685 5.07415 70.1408 3.92909 72.5305C2.78215 74.9141 2.09348 77.5191 2.00998 80.1561C1.92021 82.7927 2.43879 85.4519 3.44385 87.9268C4.44515 90.4074 5.90782 92.7047 7.62415 94.7898C11.0788 98.9666 15.4582 102.335 20.0899 105.219C29.4248 110.953 39.8295 114.887 50.4238 118.002C61.0482 121.085 71.9689 123.268 82.9964 124.803C92.6011 126.135 102.329 126.961 112.04 127.341C113.841 127.411 115.276 128.952 115.276 130.838V133.012C115.276 135.932 118.507 137.555 120.687 135.73L135.736 123.127C137.401 121.733 137.401 119.085 135.736 117.691L120.687 105.088C118.507 103.263 115.276 104.886 115.276 107.806V110.504C115.276 112.397 113.83 113.946 112.02 113.968C102.969 114.08 93.9497 113.781 84.9619 113.016C74.5478 112.124 64.2059 110.616 54.1998 108.289C44.2308 105.946 34.4777 102.808 26.0643 98.286C21.889 96.0228 18.0678 93.3889 15.1775 90.3294C12.2841 87.2798 10.4359 83.7954 10.2759 80.1572C10.0819 76.5225 11.623 72.8094 14.3375 69.4892C17.0413 66.1561 20.7615 63.2113 24.869 60.6414C31.5255 56.5114 39.1329 53.2725 47.0711 50.6262C47.8326 50.3723 48.3534 49.6349 48.3534 48.7991Z" fill="white"/>
<path d="M45.9375 46.3594C47.5199 45.9326 48.9764 47.1956 48.9766 48.7988C48.9766 49.8909 48.2958 50.8752 47.2686 51.2178C39.3599 53.8542 31.8008 57.0733 25.1992 61.1689L25.2002 61.1699C21.1252 63.7195 17.466 66.6216 14.8213 69.8818L14.8203 69.8838C12.2534 73.0235 10.807 76.4677 10.8857 79.8018L10.8984 80.124V80.1299C11.0404 83.3559 12.5894 86.5006 15.1123 89.3369L15.6299 89.9004L15.6309 89.9014C18.4591 92.8951 22.2176 95.4921 26.3594 97.7373L27.1455 98.1533C35.3121 102.418 44.712 105.418 54.3428 107.682H54.3418C64.3135 110.001 74.625 111.505 85.0146 112.395C93.981 113.158 102.98 113.456 112.013 113.345C113.452 113.327 114.653 112.086 114.653 110.504V107.806C114.654 104.413 118.458 102.409 121.087 104.61L136.137 117.213C138.099 118.856 138.099 121.962 136.137 123.605L121.087 136.208C118.458 138.409 114.653 136.405 114.653 133.012V130.838C114.653 129.266 113.462 128.021 112.016 127.964C102.286 127.583 92.5376 126.755 82.9111 125.42H82.9102C71.8589 123.882 60.9082 121.694 50.25 118.601L50.248 118.6C39.6267 115.477 29.1641 111.524 19.7637 105.75L19.7607 105.748C15.0972 102.844 10.6565 99.4348 7.14355 95.1875L7.14258 95.1855C5.39497 93.0624 3.89501 90.7113 2.86523 88.1602V88.1592C1.83082 85.6112 1.29373 82.8656 1.38672 80.1348C1.47345 77.4035 2.18637 74.7137 3.36719 72.2598C4.54479 69.8025 6.16417 67.5798 8.00684 65.5947L8.00781 65.5938C11.7098 61.6246 16.2531 58.529 20.9844 55.9336L20.9883 55.9316C28.8314 51.6924 37.3025 48.6882 45.9375 46.3594Z" stroke="#888888" stroke-opacity="0.24" stroke-width="1.24697"/>
<g clip-path="url(#clip1_30429_20729)">
<rect x="54.1435" y="1.30074" width="150.54" height="89.9649" rx="4.83411" fill="white" stroke="#E2E2E2" stroke-width="1.60149"/>
<path fill-rule="evenodd" clip-rule="evenodd" d="M61.9909 20.9353C61.9912 20.4348 62.3986 20.0293 62.901 20.0293H194.375C194.878 20.0293 195.285 20.4352 195.285 20.9359V21.8697C195.285 22.3704 194.878 22.7763 194.375 22.7763H62.9004C62.3975 22.7763 61.9899 22.3701 61.9902 21.8691L61.9909 20.9353Z" fill="#D7D7D7"/>
<path d="M122.917 69.2677C123.419 69.2678 123.825 69.6741 123.825 70.1752V73.3144C123.825 73.8154 123.419 74.2217 122.917 74.2218H109.633C109.132 74.2218 108.726 73.8155 108.726 73.3144V70.1752C108.726 69.6741 109.132 69.2677 109.633 69.2677H122.917Z" fill="#DEDEDE"/>
<path d="M154.489 58.0294C154.99 58.0295 155.396 58.4354 155.396 58.9364V62.0761C155.396 62.577 154.99 62.983 154.489 62.983H109.633C109.132 62.983 108.726 62.577 108.726 62.0761V58.9364C108.726 58.4354 109.132 58.0294 109.633 58.0294H154.489Z" fill="#DEDEDE"/>
<path d="M141.448 46.7938C141.949 46.7938 142.356 47.2002 142.356 47.7012V50.8404C142.356 51.3415 141.949 51.7478 141.448 51.7478H109.633C109.132 51.7478 108.726 51.3415 108.726 50.8404V47.7012C108.726 47.2001 109.132 46.7938 109.633 46.7938H141.448Z" fill="#DEDEDE"/>
<path d="M141.449 35.5559C141.95 35.556 142.356 35.9623 142.357 36.4633V39.6026C142.357 40.1036 141.95 40.5099 141.449 40.51H109.634C109.132 40.51 108.726 40.1036 108.726 39.6026V36.4633C108.726 35.9623 109.132 35.5559 109.634 35.5559H141.449Z" fill="#DEDEDE"/>
<path d="M193.307 6.75072C193.808 6.75082 194.214 7.15671 194.214 7.65768V12.7397C194.214 13.2407 193.808 13.647 193.307 13.6471H182.485C181.984 13.6471 181.577 13.2408 181.577 12.7397V7.65768C181.578 7.15665 181.984 6.75072 182.485 6.75072H193.307Z" fill="#DEDEDE"/>
<path d="M125.522 6.60352C126.024 6.60352 126.43 7.00985 126.43 7.51092V12.5688C126.43 13.0698 126.024 13.4762 125.522 13.4762H62.7028C62.2015 13.4762 61.7949 13.0698 61.7949 12.5688V7.51092C61.7949 7.00985 62.2015 6.60352 62.7028 6.60352H125.522Z" fill="#DEDEDE"/>
<path d="M97.5677 30.4316H64.3467C62.8387 30.4316 61.6162 31.6493 61.6162 33.1514V73.9479C61.6162 75.45 62.8387 76.6676 64.3467 76.6676H97.5677C99.0757 76.6676 100.298 75.45 100.298 73.9479V33.1514C100.298 31.6493 99.0757 30.4316 97.5677 30.4316Z" fill="#ACACAC"/>
<path d="M76.3082 61.3028V61.3733C76.2887 62.8659 75.0271 63.9885 72.5234 64.7407C75.5402 66.9236 78.5572 68.6703 81.574 68.6703C84.5908 68.6703 87.6077 66.9236 90.6245 64.7407C88.1379 63.9875 86.8763 62.8636 86.8398 61.3683C86.8398 60.8006 86.8417 55.2718 86.8444 54.7045C87.0242 54.7297 87.0089 54.7137 86.8444 54.6684C86.8493 52.7986 86.8574 55.2457 86.8685 52.691C86.8798 50.1363 76.134 47.8503 76.2918 54.8657C76.2939 55.5808 76.2982 60.4925 76.3082 61.3028Z" fill="#EEEEEE"/>
<path d="M88.3867 63.8203C88.3867 63.8203 97.3312 66.2459 100.298 69.0653V73.9472C100.298 75.4492 99.0757 76.6673 97.5678 76.6673H64.3467C62.8387 76.6673 61.6162 75.4492 61.6162 73.9472V70.2671C61.6756 70.1486 61.7354 70.0341 61.7967 69.925C63.5736 66.7587 74.4013 63.8217 74.4013 63.8217C74.4013 65.7409 78.1362 68.5092 81.0571 68.5587C85.1298 68.5587 88.3867 65.7409 88.3867 63.8203Z" fill="#757575"/>
<path d="M76.166 57.8755C80.5828 57.4185 84.7413 59.3236 84.7413 59.3236C84.7413 59.3236 83.917 63.6368 76.166 62.3833V57.8755Z" fill="#CDCDCD"/>
<path d="M72.5442 48.8503C73.1331 47.8719 73.8677 48.5449 74.1613 49.0037L74.5716 53.3544C74.5572 53.7331 74.3295 53.9734 73.7355 54.0481C72.993 54.1419 72.5026 52.1279 72.3315 51.3757C72.1605 50.6239 71.808 50.0736 72.5442 48.8503Z" fill="#E0E0E0"/>
<path d="M90.3231 49.1008C89.7435 48.117 89.0025 48.7827 88.7045 49.2387L88.2529 53.5853C88.2637 53.9639 88.4891 54.2066 89.0824 54.2872C89.8239 54.3874 90.3335 52.3785 90.5117 51.6281C90.6899 50.8777 91.0475 50.3306 90.3231 49.1008Z" fill="#E0E0E0"/>
<path d="M89.7372 49.8635C89.7372 56.1551 85.1643 61.2558 81.5951 61.2558C77.6915 61.2558 73.4531 56.1551 73.4531 49.8635C73.4531 44.2574 73.9022 38.2676 81.5951 38.2676C89.2881 38.2676 89.7372 44.1278 89.7372 49.8635Z" fill="white"/>
</g>
</g>
<defs>
<clipPath id="clip0_30429_20729">
<rect width="260" height="138" fill="white"/>
</clipPath>
<clipPath id="clip1_30429_20729">
<rect width="152.141" height="91.5664" fill="white" transform="translate(53.3428 0.5)"/>
</clipPath>
</defs>
</svg>
