<svg width="118" height="86" viewBox="0 0 118 86" fill="none" xmlns="http://www.w3.org/2000/svg">
<g clip-path="url(#clip0_5718_2263)">
<rect x="21.5" y="21.5" width="75" height="43" rx="2" fill="white"/>
<rect x="28" y="28" width="75" height="43" rx="5" fill="#C9C9C9" fill-opacity="0.15"/>
<path d="M20 23C20 21.3431 21.3431 20 23 20H94.9996C96.6564 20 97.9996 21.3431 97.9996 23V63C97.9996 64.6569 96.6564 66 94.9996 66H23C21.3432 66 20 64.6569 20 63V23Z" fill="#C9C9C9" fill-opacity="0.8"/>
<path d="M21 23C21 21.8954 21.8954 21 23 21L95 21C96.1046 21 97 21.8954 97 23V63C97 64.1046 96.1046 65 95 65H23C21.8954 65 21 64.1046 21 63L21 23Z" fill="white"/>
<path fill-rule="evenodd" clip-rule="evenodd" d="M25.0005 31.9995C25.0007 31.4474 25.4484 31 26.0005 31L91 31C91.5523 31 92 31.4477 92 32C92 32.5523 91.5523 33 91 33L26.0005 33C25.448 33 25.0002 32.552 25.0005 31.9995Z" fill="#C9C9C9" fill-opacity="0.5"/>
<path d="M57 58H49V55H57V58ZM73 52H49V49H73V52ZM67 46H49V43H67V46ZM67 40H49V37H67V40Z" fill="#C9C9C9" fill-opacity="0.5"/>
<rect x="25.1162" y="24.4214" width="31" height="4" rx="1" fill="#C9C9C9" fill-opacity="0.5"/>
<rect x="86.1162" y="24.4214" width="6" height="4" fill="#EAF0F6"/>
<rect x="25.5" y="35.5" width="21" height="24" rx="2" fill="#006AFF"/>
<path d="M32.668 52.4194C32.6578 53.1963 31.3094 53.4449 30.4033 54.3192C31.9798 55.4552 34.2583 56.2194 35.8349 56.2194C37.6695 56.2194 39.7901 55.4552 41.3667 54.3192C40.4606 53.4449 39.0295 53.1976 39.0105 52.4194C39.0105 52.1241 39.0115 49.2469 39.0129 48.9516C39.0129 43.9789 32.4785 41.0204 32.6594 49.0328C32.6628 50.1617 32.668 51.2906 32.668 52.4194Z" fill="url(#paint0_linear_5718_2263)"/>
<path d="M39.9863 53.3223C39.9863 53.3223 44.9027 54.9121 45.8516 56.626C46.0634 57.0088 46.2527 57.5039 46.4229 58.041C46.1866 58.8822 45.4167 59.5 44.5 59.5H27.5C26.3955 59.5 25.5001 58.6045 25.5 57.5V55.9795C27.2627 54.5326 31.707 53.3223 31.707 53.3223C31.707 54.3609 34.2871 55.987 35.8467 56.0137C38.0212 56.0137 39.9863 54.3615 39.9863 53.3223Z" fill="#CECECE"/>
<path d="M32.6689 49.2958C35.0023 49.047 37.1992 50.9562 37.1992 50.9562C37.1992 50.9562 36.7637 53.3043 32.6689 52.6219V49.2958Z" fill="#CDCDCD"/>
<path d="M41.4589 45.2935C41.5836 44.8283 41.3075 44.3501 40.8422 44.2254L40.7507 44.2009C40.3228 44.0863 39.877 44.3105 39.7141 44.7224L39.0175 46.4827C38.8101 47.0069 39.1471 47.5872 39.7052 47.6669L40.0163 47.7113C40.4531 47.7737 40.8677 47.4999 40.9819 47.0737L41.4589 45.2935Z" fill="url(#paint1_linear_5718_2263)"/>
<path d="M30.5411 45.2935C30.4165 44.8283 30.6926 44.3501 31.1578 44.2255C31.623 44.1008 32.1012 44.3769 32.2259 44.8421L32.6773 46.5269C32.802 46.9921 32.5259 47.4703 32.0607 47.595C31.5954 47.7196 31.1172 47.4435 30.9926 46.9783L30.5411 45.2935Z" fill="url(#paint2_linear_5718_2263)"/>
<path d="M40.7961 45.0854C40.7961 48.9044 38.1022 52.0004 35.9996 52.0004C33.6999 52.0004 31.2031 48.9044 31.2031 45.0854C31.2031 41.6827 31.4677 38.0469 35.9996 38.0469C40.5316 38.0469 40.7961 41.6041 40.7961 45.0854Z" fill="url(#paint3_linear_5718_2263)"/>
<path d="M85.805 55.3744C85.7998 55.7657 85.3448 55.9672 84.8847 56.4076C85.6853 56.9798 86.7662 57.2884 87.5668 57.2884C88.4985 57.2884 89.2993 56.9798 90.0999 56.4076C89.6398 55.9672 89.1893 55.7663 89.1796 55.3744C89.1796 55.2256 89.1801 53.7764 89.1808 53.6276C89.1808 51.1229 85.7087 49.6327 85.8006 53.6686C85.8023 54.2371 85.805 54.8058 85.805 55.3744Z" fill="url(#paint4_linear_5718_2263)"/>
<path d="M85.7537 52.9329C87.0967 52.7449 88.3612 54.1874 88.3612 54.1874C88.3612 54.1874 88.1105 55.9615 85.7537 55.4459V52.9329Z" fill="#F1F1F1"/>
<path d="M92.7073 57.2883C93.14 58.0951 93.1941 58.804 93.1941 58.804H81.7324C81.7324 58.804 81.8444 58.0949 82.277 57.2883C82.7097 56.4818 85.7538 55.5391 85.7538 55.5391C85.7538 56.028 86.7809 56.4011 87.4922 56.4137C88.484 56.4137 89.2305 56.0283 89.2305 55.5391C89.2305 55.5391 92.2745 56.4815 92.7073 57.2883Z" fill="#E1E1E1"/>
<path d="M90.3959 51.3405C90.3959 53.2501 88.9265 54.798 87.7796 54.798C86.5252 54.798 85.1633 53.2501 85.1633 51.3405C85.1633 49.6392 85.3076 47.8213 87.7796 47.8213C90.2516 47.8213 90.3959 49.5999 90.3959 51.3405Z" fill="url(#paint5_linear_5718_2263)"/>
</g>
<defs>
<linearGradient id="paint0_linear_5718_2263" x1="35.4155" y1="49.2574" x2="35.4155" y2="53.7757" gradientUnits="userSpaceOnUse">
<stop stop-color="#B1B1B1"/>
<stop offset="1" stop-color="white"/>
</linearGradient>
<linearGradient id="paint1_linear_5718_2263" x1="39.4828" y1="46.8213" x2="40.7888" y2="46.8737" gradientUnits="userSpaceOnUse">
<stop offset="0.0416667" stop-color="#B5B5B5"/>
<stop offset="1" stop-color="white"/>
</linearGradient>
<linearGradient id="paint2_linear_5718_2263" x1="31.5758" y1="46.8211" x2="30.2698" y2="46.8735" gradientUnits="userSpaceOnUse">
<stop offset="0.0416667" stop-color="#B5B5B5"/>
<stop offset="1" stop-color="white"/>
</linearGradient>
<linearGradient id="paint3_linear_5718_2263" x1="31.322" y1="45.028" x2="38.0973" y2="45.0529" gradientUnits="userSpaceOnUse">
<stop stop-color="#E0E0E0"/>
<stop offset="1" stop-color="white"/>
</linearGradient>
<linearGradient id="paint4_linear_5718_2263" x1="87.277" y1="53.7281" x2="87.277" y2="56.0039" gradientUnits="userSpaceOnUse">
<stop stop-color="#EDEDED"/>
<stop offset="1" stop-color="white"/>
</linearGradient>
<linearGradient id="paint5_linear_5718_2263" x1="85.4849" y1="51.2771" x2="89.1805" y2="51.2919" gradientUnits="userSpaceOnUse">
<stop stop-color="#E0E0E0"/>
<stop offset="1" stop-color="white"/>
</linearGradient>
<clipPath id="clip0_5718_2263">
<rect width="118" height="86" fill="white"/>
</clipPath>
</defs>
</svg>
