<svg width="64" height="64" viewBox="0 0 64 64" fill="none" xmlns="http://www.w3.org/2000/svg">
<path d="M56 32C56 45.2548 45.2548 56 32 56C18.7452 56 8 45.2548 8 32C8 18.7452 18.7452 8 32 8C45.2548 8 56 18.7452 56 32ZM15.4836 32C15.4836 41.1218 22.8782 48.5164 32 48.5164C41.1218 48.5164 48.5164 41.1218 48.5164 32C48.5164 22.8782 41.1218 15.4836 32 15.4836C22.8782 15.4836 15.4836 22.8782 15.4836 32Z" fill="#E5F0FF"/>
<path d="M52.2582 32C54.3247 32 56.0298 30.3148 55.7089 28.2733C55.4151 26.4041 54.9006 24.5718 54.1731 22.8156C52.967 19.9038 51.1992 17.258 48.9706 15.0294C46.742 12.8008 44.0962 11.033 41.1844 9.82689C39.4282 9.09944 37.5959 8.58492 35.7267 8.2911C33.6852 7.97021 32 9.67526 32 11.7418C32 13.8083 33.6962 15.4415 35.7099 15.9057C36.5997 16.1108 37.473 16.3898 38.3205 16.7408C40.3244 17.5709 42.1452 18.7875 43.6789 20.3211C45.2125 21.8548 46.4291 23.6756 47.2592 25.6794C47.6102 26.527 47.8892 27.4003 48.0943 28.2901C48.5585 30.3038 50.1917 32 52.2582 32Z" fill="#006AFF"/>
</svg>
