<svg width="118" height="86" viewBox="0 0 118 86" fill="none" xmlns="http://www.w3.org/2000/svg">
<rect x="29.5381" y="11" width="67" height="75" rx="5" fill="#C9C9C9" fill-opacity="0.15"/>
<rect x="26.8977" y="5.66185" width="64.3575" height="74.3225" rx="4.21024" stroke="#C9C9C9" stroke-opacity="0.8" stroke-width="1.24563"/>
<path d="M27.4343 42.2944L90.6311 42.2944V76.3408C90.6311 77.9977 89.2879 79.3408 87.6311 79.3408L30.4343 79.3408C28.7775 79.3408 27.4343 77.9977 27.4343 76.3408L27.4343 42.2944Z" fill="white"/>
<path d="M86.5642 66.9595C86.7275 66.9597 86.8601 67.0921 86.8601 67.2554V68.6177C86.86 68.781 86.7275 68.9134 86.5642 68.9136H80.7107C80.5473 68.9135 80.4149 68.781 80.4148 68.6177V67.2554C80.4148 67.092 80.5473 66.9595 80.7107 66.9595H86.5642ZM55.6033 66.4106C55.7667 66.4107 55.8991 66.5431 55.8992 66.7065V68.1147C55.8991 68.2781 55.7667 68.4106 55.6033 68.4106H47.1951C47.0317 68.4106 46.8992 68.2781 46.8992 68.1147L46.8992 66.7065C46.8992 66.5431 47.0317 66.4107 47.1951 66.4106H55.6033ZM86.5642 62.7729C86.7275 62.7731 86.8601 62.9055 86.8601 63.0688V64.4312C86.86 64.5944 86.7275 64.7269 86.5642 64.7271H80.7107C80.5473 64.727 80.4149 64.5945 80.4148 64.4312V63.0688C80.4148 62.9055 80.5473 62.773 80.7107 62.7729L86.5642 62.7729ZM72.6033 62.4106C72.7667 62.4107 72.8991 62.5431 72.8992 62.7065V64.1147C72.8991 64.2781 72.7667 64.4106 72.6033 64.4106H47.1951C47.0317 64.4106 46.8992 64.2781 46.8992 64.1147V62.7065C46.8992 62.5431 47.0317 62.4107 47.1951 62.4106L72.6033 62.4106ZM86.5642 58.5854C86.7275 58.5856 86.8601 58.718 86.8601 58.8813V60.2437C86.86 60.4069 86.7275 60.5394 86.5642 60.5396L80.7107 60.5396C80.5473 60.5395 80.4149 60.407 80.4148 60.2437V58.8813C80.4148 58.718 80.5473 58.5855 80.7107 58.5854L86.5642 58.5854ZM65.6033 58.4106C65.7667 58.4107 65.8991 58.5431 65.8992 58.7065V60.1147C65.8991 60.2781 65.7667 60.4106 65.6033 60.4106L47.1951 60.4106C47.0317 60.4106 46.8992 60.2781 46.8992 60.1147V58.7065C46.8992 58.5431 47.0317 58.4107 47.1951 58.4106L65.6033 58.4106ZM65.6033 54.4106C65.7667 54.4107 65.8991 54.5431 65.8992 54.7065V56.1147C65.8991 56.2781 65.7667 56.4106 65.6033 56.4106L47.1951 56.4106C47.0317 56.4106 46.8992 56.2781 46.8992 56.1147V54.7065C46.8992 54.5431 47.0317 54.4107 47.1951 54.4106L65.6033 54.4106Z" fill="#E9E9EB"/>
<path d="M27.4343 71.7153L90.6311 71.7153L90.6311 76.3425C90.6311 77.9994 89.2879 79.3425 87.6311 79.3425L30.4343 79.3425C28.7775 79.3425 27.4343 77.9994 27.4343 76.3425L27.4343 71.7153Z" fill="#F4F4F5"/>
<rect x="31.8992" y="46.4106" width="26" height="3" rx="0.295996" fill="#C9C9C9" fill-opacity="0.5"/>
<rect x="81.8992" y="46.4106" width="5" height="4" rx="0.295996" fill="#EAF0F6"/>
<path d="M86.6033 76.4106C86.7667 76.4107 86.8991 76.5431 86.8992 76.7065V78.1147C86.8991 78.2781 86.7667 78.4106 86.6033 78.4106L31.1951 78.4106C31.0317 78.4106 30.8992 78.2781 30.8992 78.1147V76.7065C30.8992 76.5431 31.0317 76.4107 31.1951 76.4106L86.6033 76.4106ZM86.6033 73.4106C86.7667 73.4107 86.8991 73.5431 86.8992 73.7065V75.1147C86.8991 75.2781 86.7667 75.4106 86.6033 75.4106L31.1951 75.4106C31.0317 75.4106 30.8992 75.2781 30.8992 75.1147V73.7065C30.8992 73.5431 31.0317 73.4107 31.1951 73.4106L86.6033 73.4106Z" fill="#C9C9C9" fill-opacity="0.5"/>
<g clip-path="url(#clip0_5718_2292)">
<g clip-path="url(#clip1_5718_2292)">
<rect x="31.2175" y="52.8071" width="14.1292" height="16.9552" fill="#006AFF"/>
<path d="M45.6017 67.2888C46.2508 68.4503 46.6245 71.1289 46.6245 71.1289L30.2605 71.1289C30.2605 71.1289 30.6343 68.45 31.2832 67.2888C31.9322 66.1277 35.8873 65.0507 35.8873 65.0507C36.2376 65.6836 37.2659 66.2609 38.3185 66.2867C39.4607 66.3147 40.6316 65.7373 40.9957 65.0503C40.9957 65.0503 44.9526 66.1274 45.6017 67.2888Z" fill="white"/>
<path d="M36.5209 64.1276L36.5209 64.1535C36.5137 64.7009 36.0529 65.1125 35.1384 65.3884C36.2404 66.1889 37.3424 66.8293 38.4443 66.8293C39.5462 66.8293 40.6482 66.1889 41.7501 65.3884C40.8419 65.1122 40.381 64.7 40.3677 64.1516C40.3677 63.9435 40.3684 61.9161 40.3694 61.7079C40.4351 61.7172 40.4295 61.7113 40.3694 61.6946C40.3712 61.009 40.3741 61.9065 40.3782 60.9696C40.3823 60.0327 36.4572 59.1945 36.5149 61.7671C36.5156 62.0294 36.5172 63.8305 36.5209 64.1276Z" fill="url(#paint0_linear_5718_2292)"/>
<path d="M36.4685 62.8712C38.0818 62.7036 39.6008 63.4021 39.6008 63.4021C39.6008 63.4021 39.2997 64.9838 36.4685 64.5241L36.4685 62.8712Z" fill="#CDCDCD"/>
<path d="M45.6017 67.2888C46.2508 68.4503 46.6245 71.1289 46.6245 71.1289L30.2605 71.1289C30.2605 71.1289 30.6343 68.45 31.2832 67.2888C31.9322 66.1277 35.8873 65.0507 35.8873 65.0507C35.8873 65.7546 37.2516 66.7696 38.3185 66.7877C39.8061 66.7877 40.9957 65.7546 40.9957 65.0503C40.9957 65.0503 44.9526 66.1274 45.6017 67.2888Z" fill="#CECECE"/>
<path d="M35.1459 59.5594C35.3611 59.2006 35.6294 59.4474 35.7366 59.6156L35.8865 61.211C35.8812 61.3499 35.7981 61.438 35.5811 61.4655C35.3099 61.4998 35.1308 60.7612 35.0683 60.4855C35.0058 60.2098 34.8771 60.008 35.1459 59.5594Z" fill="url(#paint1_linear_5718_2292)"/>
<path d="M41.6385 59.653C41.4268 59.2922 41.1562 59.5364 41.0473 59.7036L40.8824 61.2975C40.8863 61.4364 40.9687 61.5254 41.1854 61.5549C41.4562 61.5917 41.6423 60.8549 41.7074 60.5798C41.7725 60.3047 41.9031 60.104 41.6385 59.653Z" fill="url(#paint2_linear_5718_2292)"/>
<path d="M41.4251 59.9315C41.4251 62.2388 39.7548 64.1092 38.4511 64.1092C37.0252 64.1092 35.4771 62.2388 35.4771 59.9315C35.4771 57.8758 35.6411 55.6792 38.4511 55.6792C41.261 55.6792 41.4251 57.8283 41.4251 59.9315Z" fill="url(#paint3_linear_5718_2292)"/>
</g>
</g>
<mask id="path-19-inside-1_5718_2292" fill="white">
<path d="M87.6289 6.28467C89.2858 6.28467 90.6289 7.62781 90.6289 9.28467L90.6289 42.8231L27.517 42.8231L27.517 9.28467C27.517 7.62781 28.8602 6.28467 30.517 6.28467L87.6289 6.28467Z"/>
</mask>
<path d="M87.6289 6.28467C89.2858 6.28467 90.6289 7.62781 90.6289 9.28467L90.6289 42.8231L27.517 42.8231L27.517 9.28467C27.517 7.62781 28.8602 6.28467 30.517 6.28467L87.6289 6.28467Z" fill="#F4F4F5"/>
<path d="M90.6289 6.28467L90.6289 42.8231L90.6289 6.28467ZM27.517 42.8231L27.517 6.28467L27.517 42.8231ZM27.517 6.28467L90.6289 6.28467L27.517 6.28467ZM90.6289 44.0357L27.517 44.0357V41.6106L90.6289 41.6106V44.0357Z" fill="#C9C9C9" fill-opacity="0.8" mask="url(#path-19-inside-1_5718_2292)"/>
<defs>
<linearGradient id="paint0_linear_5718_2292" x1="38.1511" y1="61.9235" x2="38.1511" y2="65.1073" gradientUnits="userSpaceOnUse">
<stop stop-color="#B1B1B1"/>
<stop offset="1" stop-color="white"/>
</linearGradient>
<linearGradient id="paint1_linear_5718_2292" x1="35.7261" y1="60.3661" x2="35.2086" y2="60.4618" gradientUnits="userSpaceOnUse">
<stop offset="0.171875" stop-color="#BDBDBD"/>
<stop offset="0.640625" stop-color="#E1E1E1"/>
<stop offset="1" stop-color="#DDDDDD"/>
</linearGradient>
<linearGradient id="paint2_linear_5718_2292" x1="41.0508" y1="60.4541" x2="41.5674" y2="60.5547" gradientUnits="userSpaceOnUse">
<stop offset="0.0416667" stop-color="#B5B5B5"/>
<stop offset="0.362488" stop-color="#E2E2E2"/>
<stop offset="1" stop-color="white"/>
</linearGradient>
<linearGradient id="paint3_linear_5718_2292" x1="35.8426" y1="59.8548" x2="40.0436" y2="59.8707" gradientUnits="userSpaceOnUse">
<stop stop-color="#E0E0E0"/>
<stop offset="1" stop-color="white"/>
</linearGradient>
<clipPath id="clip0_5718_2292">
<rect x="31.2625" y="52.7876" width="14.0499" height="17.0253" rx="2" fill="white"/>
</clipPath>
<clipPath id="clip1_5718_2292">
<rect width="18.0004" height="18.0005" fill="white" transform="translate(29.4441 52.7876)"/>
</clipPath>
</defs>
</svg>
