<svg width="390" height="54" viewBox="0 0 390 54" fill="none" xmlns="http://www.w3.org/2000/svg">
<path d="M37.2414 38.2637C34.7292 38.2637 33.2204 36.1323 33.2204 32.7192V32.7046C33.2204 29.2915 34.7292 27.1675 37.2414 27.1675C39.7536 27.1675 41.277 29.2915 41.277 32.7046V32.7192C41.277 36.1323 39.7536 38.2637 37.2414 38.2637ZM37.2414 36.7329C38.589 36.7329 39.3727 35.2241 39.3727 32.7192V32.7046C39.3727 30.1997 38.589 28.7056 37.2414 28.7056C35.8937 28.7056 35.1247 30.1997 35.1247 32.7046V32.7192C35.1247 35.2241 35.8937 36.7329 37.2414 36.7329ZM46.9224 27.1675C49.1783 27.1675 51.1412 28.7715 51.1412 32.5801V32.5947C51.1412 36.1543 49.5372 38.2637 46.8785 38.2637C44.9376 38.2637 43.4874 37.1138 43.1505 35.4951L43.1358 35.4146H44.9962L45.0181 35.4878C45.2965 36.2275 45.9483 36.7109 46.8785 36.7109C48.5557 36.7109 49.2662 35.0703 49.3468 33.0488C49.3468 32.9683 49.3541 32.8877 49.3541 32.8071H49.2076C48.8194 33.6421 47.8966 34.3818 46.4464 34.3818C44.4176 34.3818 42.9967 32.9023 42.9967 30.8955V30.8809C42.9967 28.7349 44.63 27.1675 46.9224 27.1675ZM46.9151 32.9316C48.109 32.9316 49.0245 32.0674 49.0245 30.8735V30.8589C49.0245 29.6504 48.109 28.7056 46.9371 28.7056C45.7725 28.7056 44.8424 29.6357 44.8424 30.8149V30.8296C44.8424 32.0527 45.7139 32.9316 46.9151 32.9316ZM54.2964 31.1519C53.6299 31.1519 53.1318 30.6392 53.1318 29.9946C53.1318 29.3428 53.6299 28.8374 54.2964 28.8374C54.9702 28.8374 55.4609 29.3428 55.4609 29.9946C55.4609 30.6392 54.9702 31.1519 54.2964 31.1519ZM54.2964 36.5864C53.6299 36.5864 53.1318 36.0811 53.1318 35.4292C53.1318 34.7773 53.6299 34.272 54.2964 34.272C54.9702 34.272 55.4609 34.7773 55.4609 35.4292C55.4609 36.0811 54.9702 36.5864 54.2964 36.5864ZM62.5785 38V35.9712H57.4076V34.4258C58.7773 32.0454 60.2787 29.6138 61.7143 27.4312H64.3876V34.4111H65.8085V35.9712H64.3876V38H62.5785ZM59.1654 34.4551H62.6078V28.9399H62.498C61.414 30.5952 60.1908 32.5508 59.1654 34.3452V34.4551ZM70.0184 38V29.2915H69.8939L67.2645 31.1519V29.3721L70.0257 27.4312H71.908V38H70.0184Z" fill="#FF0000" style="mix-blend-mode:saturation"/>
<path d="M37.2414 38.2637C34.7292 38.2637 33.2204 36.1323 33.2204 32.7192V32.7046C33.2204 29.2915 34.7292 27.1675 37.2414 27.1675C39.7536 27.1675 41.277 29.2915 41.277 32.7046V32.7192C41.277 36.1323 39.7536 38.2637 37.2414 38.2637ZM37.2414 36.7329C38.589 36.7329 39.3727 35.2241 39.3727 32.7192V32.7046C39.3727 30.1997 38.589 28.7056 37.2414 28.7056C35.8937 28.7056 35.1247 30.1997 35.1247 32.7046V32.7192C35.1247 35.2241 35.8937 36.7329 37.2414 36.7329ZM46.9224 27.1675C49.1783 27.1675 51.1412 28.7715 51.1412 32.5801V32.5947C51.1412 36.1543 49.5372 38.2637 46.8785 38.2637C44.9376 38.2637 43.4874 37.1138 43.1505 35.4951L43.1358 35.4146H44.9962L45.0181 35.4878C45.2965 36.2275 45.9483 36.7109 46.8785 36.7109C48.5557 36.7109 49.2662 35.0703 49.3468 33.0488C49.3468 32.9683 49.3541 32.8877 49.3541 32.8071H49.2076C48.8194 33.6421 47.8966 34.3818 46.4464 34.3818C44.4176 34.3818 42.9967 32.9023 42.9967 30.8955V30.8809C42.9967 28.7349 44.63 27.1675 46.9224 27.1675ZM46.9151 32.9316C48.109 32.9316 49.0245 32.0674 49.0245 30.8735V30.8589C49.0245 29.6504 48.109 28.7056 46.9371 28.7056C45.7725 28.7056 44.8424 29.6357 44.8424 30.8149V30.8296C44.8424 32.0527 45.7139 32.9316 46.9151 32.9316ZM54.2964 31.1519C53.6299 31.1519 53.1318 30.6392 53.1318 29.9946C53.1318 29.3428 53.6299 28.8374 54.2964 28.8374C54.9702 28.8374 55.4609 29.3428 55.4609 29.9946C55.4609 30.6392 54.9702 31.1519 54.2964 31.1519ZM54.2964 36.5864C53.6299 36.5864 53.1318 36.0811 53.1318 35.4292C53.1318 34.7773 53.6299 34.272 54.2964 34.272C54.9702 34.272 55.4609 34.7773 55.4609 35.4292C55.4609 36.0811 54.9702 36.5864 54.2964 36.5864ZM62.5785 38V35.9712H57.4076V34.4258C58.7773 32.0454 60.2787 29.6138 61.7143 27.4312H64.3876V34.4111H65.8085V35.9712H64.3876V38H62.5785ZM59.1654 34.4551H62.6078V28.9399H62.498C61.414 30.5952 60.1908 32.5508 59.1654 34.3452V34.4551ZM70.0184 38V29.2915H69.8939L67.2645 31.1519V29.3721L70.0257 27.4312H71.908V38H70.0184Z" fill="white" style="mix-blend-mode:difference"/>
<path d="M37.2414 38.2637C34.7292 38.2637 33.2204 36.1323 33.2204 32.7192V32.7046C33.2204 29.2915 34.7292 27.1675 37.2414 27.1675C39.7536 27.1675 41.277 29.2915 41.277 32.7046V32.7192C41.277 36.1323 39.7536 38.2637 37.2414 38.2637ZM37.2414 36.7329C38.589 36.7329 39.3727 35.2241 39.3727 32.7192V32.7046C39.3727 30.1997 38.589 28.7056 37.2414 28.7056C35.8937 28.7056 35.1247 30.1997 35.1247 32.7046V32.7192C35.1247 35.2241 35.8937 36.7329 37.2414 36.7329ZM46.9224 27.1675C49.1783 27.1675 51.1412 28.7715 51.1412 32.5801V32.5947C51.1412 36.1543 49.5372 38.2637 46.8785 38.2637C44.9376 38.2637 43.4874 37.1138 43.1505 35.4951L43.1358 35.4146H44.9962L45.0181 35.4878C45.2965 36.2275 45.9483 36.7109 46.8785 36.7109C48.5557 36.7109 49.2662 35.0703 49.3468 33.0488C49.3468 32.9683 49.3541 32.8877 49.3541 32.8071H49.2076C48.8194 33.6421 47.8966 34.3818 46.4464 34.3818C44.4176 34.3818 42.9967 32.9023 42.9967 30.8955V30.8809C42.9967 28.7349 44.63 27.1675 46.9224 27.1675ZM46.9151 32.9316C48.109 32.9316 49.0245 32.0674 49.0245 30.8735V30.8589C49.0245 29.6504 48.109 28.7056 46.9371 28.7056C45.7725 28.7056 44.8424 29.6357 44.8424 30.8149V30.8296C44.8424 32.0527 45.7139 32.9316 46.9151 32.9316ZM54.2964 31.1519C53.6299 31.1519 53.1318 30.6392 53.1318 29.9946C53.1318 29.3428 53.6299 28.8374 54.2964 28.8374C54.9702 28.8374 55.4609 29.3428 55.4609 29.9946C55.4609 30.6392 54.9702 31.1519 54.2964 31.1519ZM54.2964 36.5864C53.6299 36.5864 53.1318 36.0811 53.1318 35.4292C53.1318 34.7773 53.6299 34.272 54.2964 34.272C54.9702 34.272 55.4609 34.7773 55.4609 35.4292C55.4609 36.0811 54.9702 36.5864 54.2964 36.5864ZM62.5785 38V35.9712H57.4076V34.4258C58.7773 32.0454 60.2787 29.6138 61.7143 27.4312H64.3876V34.4111H65.8085V35.9712H64.3876V38H62.5785ZM59.1654 34.4551H62.6078V28.9399H62.498C61.414 30.5952 60.1908 32.5508 59.1654 34.3452V34.4551ZM70.0184 38V29.2915H69.8939L67.2645 31.1519V29.3721L70.0257 27.4312H71.908V38H70.0184Z" fill="white" style="mix-blend-mode:saturation"/>
<path d="M37.2414 38.2637C34.7292 38.2637 33.2204 36.1323 33.2204 32.7192V32.7046C33.2204 29.2915 34.7292 27.1675 37.2414 27.1675C39.7536 27.1675 41.277 29.2915 41.277 32.7046V32.7192C41.277 36.1323 39.7536 38.2637 37.2414 38.2637ZM37.2414 36.7329C38.589 36.7329 39.3727 35.2241 39.3727 32.7192V32.7046C39.3727 30.1997 38.589 28.7056 37.2414 28.7056C35.8937 28.7056 35.1247 30.1997 35.1247 32.7046V32.7192C35.1247 35.2241 35.8937 36.7329 37.2414 36.7329ZM46.9224 27.1675C49.1783 27.1675 51.1412 28.7715 51.1412 32.5801V32.5947C51.1412 36.1543 49.5372 38.2637 46.8785 38.2637C44.9376 38.2637 43.4874 37.1138 43.1505 35.4951L43.1358 35.4146H44.9962L45.0181 35.4878C45.2965 36.2275 45.9483 36.7109 46.8785 36.7109C48.5557 36.7109 49.2662 35.0703 49.3468 33.0488C49.3468 32.9683 49.3541 32.8877 49.3541 32.8071H49.2076C48.8194 33.6421 47.8966 34.3818 46.4464 34.3818C44.4176 34.3818 42.9967 32.9023 42.9967 30.8955V30.8809C42.9967 28.7349 44.63 27.1675 46.9224 27.1675ZM46.9151 32.9316C48.109 32.9316 49.0245 32.0674 49.0245 30.8735V30.8589C49.0245 29.6504 48.109 28.7056 46.9371 28.7056C45.7725 28.7056 44.8424 29.6357 44.8424 30.8149V30.8296C44.8424 32.0527 45.7139 32.9316 46.9151 32.9316ZM54.2964 31.1519C53.6299 31.1519 53.1318 30.6392 53.1318 29.9946C53.1318 29.3428 53.6299 28.8374 54.2964 28.8374C54.9702 28.8374 55.4609 29.3428 55.4609 29.9946C55.4609 30.6392 54.9702 31.1519 54.2964 31.1519ZM54.2964 36.5864C53.6299 36.5864 53.1318 36.0811 53.1318 35.4292C53.1318 34.7773 53.6299 34.272 54.2964 34.272C54.9702 34.272 55.4609 34.7773 55.4609 35.4292C55.4609 36.0811 54.9702 36.5864 54.2964 36.5864ZM62.5785 38V35.9712H57.4076V34.4258C58.7773 32.0454 60.2787 29.6138 61.7143 27.4312H64.3876V34.4111H65.8085V35.9712H64.3876V38H62.5785ZM59.1654 34.4551H62.6078V28.9399H62.498C61.414 30.5952 60.1908 32.5508 59.1654 34.3452V34.4551ZM70.0184 38V29.2915H69.8939L67.2645 31.1519V29.3721L70.0257 27.4312H71.908V38H70.0184Z" fill="white" style="mix-blend-mode:overlay"/>
<path d="M37.2414 38.2637C34.7292 38.2637 33.2204 36.1323 33.2204 32.7192V32.7046C33.2204 29.2915 34.7292 27.1675 37.2414 27.1675C39.7536 27.1675 41.277 29.2915 41.277 32.7046V32.7192C41.277 36.1323 39.7536 38.2637 37.2414 38.2637ZM37.2414 36.7329C38.589 36.7329 39.3727 35.2241 39.3727 32.7192V32.7046C39.3727 30.1997 38.589 28.7056 37.2414 28.7056C35.8937 28.7056 35.1247 30.1997 35.1247 32.7046V32.7192C35.1247 35.2241 35.8937 36.7329 37.2414 36.7329ZM46.9224 27.1675C49.1783 27.1675 51.1412 28.7715 51.1412 32.5801V32.5947C51.1412 36.1543 49.5372 38.2637 46.8785 38.2637C44.9376 38.2637 43.4874 37.1138 43.1505 35.4951L43.1358 35.4146H44.9962L45.0181 35.4878C45.2965 36.2275 45.9483 36.7109 46.8785 36.7109C48.5557 36.7109 49.2662 35.0703 49.3468 33.0488C49.3468 32.9683 49.3541 32.8877 49.3541 32.8071H49.2076C48.8194 33.6421 47.8966 34.3818 46.4464 34.3818C44.4176 34.3818 42.9967 32.9023 42.9967 30.8955V30.8809C42.9967 28.7349 44.63 27.1675 46.9224 27.1675ZM46.9151 32.9316C48.109 32.9316 49.0245 32.0674 49.0245 30.8735V30.8589C49.0245 29.6504 48.109 28.7056 46.9371 28.7056C45.7725 28.7056 44.8424 29.6357 44.8424 30.8149V30.8296C44.8424 32.0527 45.7139 32.9316 46.9151 32.9316ZM54.2964 31.1519C53.6299 31.1519 53.1318 30.6392 53.1318 29.9946C53.1318 29.3428 53.6299 28.8374 54.2964 28.8374C54.9702 28.8374 55.4609 29.3428 55.4609 29.9946C55.4609 30.6392 54.9702 31.1519 54.2964 31.1519ZM54.2964 36.5864C53.6299 36.5864 53.1318 36.0811 53.1318 35.4292C53.1318 34.7773 53.6299 34.272 54.2964 34.272C54.9702 34.272 55.4609 34.7773 55.4609 35.4292C55.4609 36.0811 54.9702 36.5864 54.2964 36.5864ZM62.5785 38V35.9712H57.4076V34.4258C58.7773 32.0454 60.2787 29.6138 61.7143 27.4312H64.3876V34.4111H65.8085V35.9712H64.3876V38H62.5785ZM59.1654 34.4551H62.6078V28.9399H62.498C61.414 30.5952 60.1908 32.5508 59.1654 34.3452V34.4551ZM70.0184 38V29.2915H69.8939L67.2645 31.1519V29.3721L70.0257 27.4312H71.908V38H70.0184Z" fill="black" style="mix-blend-mode:overlay"/>
<path d="M37.2414 38.2637C34.7292 38.2637 33.2204 36.1323 33.2204 32.7192V32.7046C33.2204 29.2915 34.7292 27.1675 37.2414 27.1675C39.7536 27.1675 41.277 29.2915 41.277 32.7046V32.7192C41.277 36.1323 39.7536 38.2637 37.2414 38.2637ZM37.2414 36.7329C38.589 36.7329 39.3727 35.2241 39.3727 32.7192V32.7046C39.3727 30.1997 38.589 28.7056 37.2414 28.7056C35.8937 28.7056 35.1247 30.1997 35.1247 32.7046V32.7192C35.1247 35.2241 35.8937 36.7329 37.2414 36.7329ZM46.9224 27.1675C49.1783 27.1675 51.1412 28.7715 51.1412 32.5801V32.5947C51.1412 36.1543 49.5372 38.2637 46.8785 38.2637C44.9376 38.2637 43.4874 37.1138 43.1505 35.4951L43.1358 35.4146H44.9962L45.0181 35.4878C45.2965 36.2275 45.9483 36.7109 46.8785 36.7109C48.5557 36.7109 49.2662 35.0703 49.3468 33.0488C49.3468 32.9683 49.3541 32.8877 49.3541 32.8071H49.2076C48.8194 33.6421 47.8966 34.3818 46.4464 34.3818C44.4176 34.3818 42.9967 32.9023 42.9967 30.8955V30.8809C42.9967 28.7349 44.63 27.1675 46.9224 27.1675ZM46.9151 32.9316C48.109 32.9316 49.0245 32.0674 49.0245 30.8735V30.8589C49.0245 29.6504 48.109 28.7056 46.9371 28.7056C45.7725 28.7056 44.8424 29.6357 44.8424 30.8149V30.8296C44.8424 32.0527 45.7139 32.9316 46.9151 32.9316ZM54.2964 31.1519C53.6299 31.1519 53.1318 30.6392 53.1318 29.9946C53.1318 29.3428 53.6299 28.8374 54.2964 28.8374C54.9702 28.8374 55.4609 29.3428 55.4609 29.9946C55.4609 30.6392 54.9702 31.1519 54.2964 31.1519ZM54.2964 36.5864C53.6299 36.5864 53.1318 36.0811 53.1318 35.4292C53.1318 34.7773 53.6299 34.272 54.2964 34.272C54.9702 34.272 55.4609 34.7773 55.4609 35.4292C55.4609 36.0811 54.9702 36.5864 54.2964 36.5864ZM62.5785 38V35.9712H57.4076V34.4258C58.7773 32.0454 60.2787 29.6138 61.7143 27.4312H64.3876V34.4111H65.8085V35.9712H64.3876V38H62.5785ZM59.1654 34.4551H62.6078V28.9399H62.498C61.414 30.5952 60.1908 32.5508 59.1654 34.3452V34.4551ZM70.0184 38V29.2915H69.8939L67.2645 31.1519V29.3721L70.0257 27.4312H71.908V38H70.0184Z" fill="black" style="mix-blend-mode:overlay"/>
<path d="M37.2414 38.2637C34.7292 38.2637 33.2204 36.1323 33.2204 32.7192V32.7046C33.2204 29.2915 34.7292 27.1675 37.2414 27.1675C39.7536 27.1675 41.277 29.2915 41.277 32.7046V32.7192C41.277 36.1323 39.7536 38.2637 37.2414 38.2637ZM37.2414 36.7329C38.589 36.7329 39.3727 35.2241 39.3727 32.7192V32.7046C39.3727 30.1997 38.589 28.7056 37.2414 28.7056C35.8937 28.7056 35.1247 30.1997 35.1247 32.7046V32.7192C35.1247 35.2241 35.8937 36.7329 37.2414 36.7329ZM46.9224 27.1675C49.1783 27.1675 51.1412 28.7715 51.1412 32.5801V32.5947C51.1412 36.1543 49.5372 38.2637 46.8785 38.2637C44.9376 38.2637 43.4874 37.1138 43.1505 35.4951L43.1358 35.4146H44.9962L45.0181 35.4878C45.2965 36.2275 45.9483 36.7109 46.8785 36.7109C48.5557 36.7109 49.2662 35.0703 49.3468 33.0488C49.3468 32.9683 49.3541 32.8877 49.3541 32.8071H49.2076C48.8194 33.6421 47.8966 34.3818 46.4464 34.3818C44.4176 34.3818 42.9967 32.9023 42.9967 30.8955V30.8809C42.9967 28.7349 44.63 27.1675 46.9224 27.1675ZM46.9151 32.9316C48.109 32.9316 49.0245 32.0674 49.0245 30.8735V30.8589C49.0245 29.6504 48.109 28.7056 46.9371 28.7056C45.7725 28.7056 44.8424 29.6357 44.8424 30.8149V30.8296C44.8424 32.0527 45.7139 32.9316 46.9151 32.9316ZM54.2964 31.1519C53.6299 31.1519 53.1318 30.6392 53.1318 29.9946C53.1318 29.3428 53.6299 28.8374 54.2964 28.8374C54.9702 28.8374 55.4609 29.3428 55.4609 29.9946C55.4609 30.6392 54.9702 31.1519 54.2964 31.1519ZM54.2964 36.5864C53.6299 36.5864 53.1318 36.0811 53.1318 35.4292C53.1318 34.7773 53.6299 34.272 54.2964 34.272C54.9702 34.272 55.4609 34.7773 55.4609 35.4292C55.4609 36.0811 54.9702 36.5864 54.2964 36.5864ZM62.5785 38V35.9712H57.4076V34.4258C58.7773 32.0454 60.2787 29.6138 61.7143 27.4312H64.3876V34.4111H65.8085V35.9712H64.3876V38H62.5785ZM59.1654 34.4551H62.6078V28.9399H62.498C61.414 30.5952 60.1908 32.5508 59.1654 34.3452V34.4551ZM70.0184 38V29.2915H69.8939L67.2645 31.1519V29.3721L70.0257 27.4312H71.908V38H70.0184Z" fill="black" style="mix-blend-mode:overlay"/>
<path d="M37.2414 38.2637C34.7292 38.2637 33.2204 36.1323 33.2204 32.7192V32.7046C33.2204 29.2915 34.7292 27.1675 37.2414 27.1675C39.7536 27.1675 41.277 29.2915 41.277 32.7046V32.7192C41.277 36.1323 39.7536 38.2637 37.2414 38.2637ZM37.2414 36.7329C38.589 36.7329 39.3727 35.2241 39.3727 32.7192V32.7046C39.3727 30.1997 38.589 28.7056 37.2414 28.7056C35.8937 28.7056 35.1247 30.1997 35.1247 32.7046V32.7192C35.1247 35.2241 35.8937 36.7329 37.2414 36.7329ZM46.9224 27.1675C49.1783 27.1675 51.1412 28.7715 51.1412 32.5801V32.5947C51.1412 36.1543 49.5372 38.2637 46.8785 38.2637C44.9376 38.2637 43.4874 37.1138 43.1505 35.4951L43.1358 35.4146H44.9962L45.0181 35.4878C45.2965 36.2275 45.9483 36.7109 46.8785 36.7109C48.5557 36.7109 49.2662 35.0703 49.3468 33.0488C49.3468 32.9683 49.3541 32.8877 49.3541 32.8071H49.2076C48.8194 33.6421 47.8966 34.3818 46.4464 34.3818C44.4176 34.3818 42.9967 32.9023 42.9967 30.8955V30.8809C42.9967 28.7349 44.63 27.1675 46.9224 27.1675ZM46.9151 32.9316C48.109 32.9316 49.0245 32.0674 49.0245 30.8735V30.8589C49.0245 29.6504 48.109 28.7056 46.9371 28.7056C45.7725 28.7056 44.8424 29.6357 44.8424 30.8149V30.8296C44.8424 32.0527 45.7139 32.9316 46.9151 32.9316ZM54.2964 31.1519C53.6299 31.1519 53.1318 30.6392 53.1318 29.9946C53.1318 29.3428 53.6299 28.8374 54.2964 28.8374C54.9702 28.8374 55.4609 29.3428 55.4609 29.9946C55.4609 30.6392 54.9702 31.1519 54.2964 31.1519ZM54.2964 36.5864C53.6299 36.5864 53.1318 36.0811 53.1318 35.4292C53.1318 34.7773 53.6299 34.272 54.2964 34.272C54.9702 34.272 55.4609 34.7773 55.4609 35.4292C55.4609 36.0811 54.9702 36.5864 54.2964 36.5864ZM62.5785 38V35.9712H57.4076V34.4258C58.7773 32.0454 60.2787 29.6138 61.7143 27.4312H64.3876V34.4111H65.8085V35.9712H64.3876V38H62.5785ZM59.1654 34.4551H62.6078V28.9399H62.498C61.414 30.5952 60.1908 32.5508 59.1654 34.3452V34.4551ZM70.0184 38V29.2915H69.8939L67.2645 31.1519V29.3721L70.0257 27.4312H71.908V38H70.0184Z" fill="black" style="mix-blend-mode:overlay"/>
<path d="M37.2414 38.2637C34.7292 38.2637 33.2204 36.1323 33.2204 32.7192V32.7046C33.2204 29.2915 34.7292 27.1675 37.2414 27.1675C39.7536 27.1675 41.277 29.2915 41.277 32.7046V32.7192C41.277 36.1323 39.7536 38.2637 37.2414 38.2637ZM37.2414 36.7329C38.589 36.7329 39.3727 35.2241 39.3727 32.7192V32.7046C39.3727 30.1997 38.589 28.7056 37.2414 28.7056C35.8937 28.7056 35.1247 30.1997 35.1247 32.7046V32.7192C35.1247 35.2241 35.8937 36.7329 37.2414 36.7329ZM46.9224 27.1675C49.1783 27.1675 51.1412 28.7715 51.1412 32.5801V32.5947C51.1412 36.1543 49.5372 38.2637 46.8785 38.2637C44.9376 38.2637 43.4874 37.1138 43.1505 35.4951L43.1358 35.4146H44.9962L45.0181 35.4878C45.2965 36.2275 45.9483 36.7109 46.8785 36.7109C48.5557 36.7109 49.2662 35.0703 49.3468 33.0488C49.3468 32.9683 49.3541 32.8877 49.3541 32.8071H49.2076C48.8194 33.6421 47.8966 34.3818 46.4464 34.3818C44.4176 34.3818 42.9967 32.9023 42.9967 30.8955V30.8809C42.9967 28.7349 44.63 27.1675 46.9224 27.1675ZM46.9151 32.9316C48.109 32.9316 49.0245 32.0674 49.0245 30.8735V30.8589C49.0245 29.6504 48.109 28.7056 46.9371 28.7056C45.7725 28.7056 44.8424 29.6357 44.8424 30.8149V30.8296C44.8424 32.0527 45.7139 32.9316 46.9151 32.9316ZM54.2964 31.1519C53.6299 31.1519 53.1318 30.6392 53.1318 29.9946C53.1318 29.3428 53.6299 28.8374 54.2964 28.8374C54.9702 28.8374 55.4609 29.3428 55.4609 29.9946C55.4609 30.6392 54.9702 31.1519 54.2964 31.1519ZM54.2964 36.5864C53.6299 36.5864 53.1318 36.0811 53.1318 35.4292C53.1318 34.7773 53.6299 34.272 54.2964 34.272C54.9702 34.272 55.4609 34.7773 55.4609 35.4292C55.4609 36.0811 54.9702 36.5864 54.2964 36.5864ZM62.5785 38V35.9712H57.4076V34.4258C58.7773 32.0454 60.2787 29.6138 61.7143 27.4312H64.3876V34.4111H65.8085V35.9712H64.3876V38H62.5785ZM59.1654 34.4551H62.6078V28.9399H62.498C61.414 30.5952 60.1908 32.5508 59.1654 34.3452V34.4551ZM70.0184 38V29.2915H69.8939L67.2645 31.1519V29.3721L70.0257 27.4312H71.908V38H70.0184Z" fill="black" style="mix-blend-mode:overlay"/>
<path d="M37.2414 38.2637C34.7292 38.2637 33.2204 36.1323 33.2204 32.7192V32.7046C33.2204 29.2915 34.7292 27.1675 37.2414 27.1675C39.7536 27.1675 41.277 29.2915 41.277 32.7046V32.7192C41.277 36.1323 39.7536 38.2637 37.2414 38.2637ZM37.2414 36.7329C38.589 36.7329 39.3727 35.2241 39.3727 32.7192V32.7046C39.3727 30.1997 38.589 28.7056 37.2414 28.7056C35.8937 28.7056 35.1247 30.1997 35.1247 32.7046V32.7192C35.1247 35.2241 35.8937 36.7329 37.2414 36.7329ZM46.9224 27.1675C49.1783 27.1675 51.1412 28.7715 51.1412 32.5801V32.5947C51.1412 36.1543 49.5372 38.2637 46.8785 38.2637C44.9376 38.2637 43.4874 37.1138 43.1505 35.4951L43.1358 35.4146H44.9962L45.0181 35.4878C45.2965 36.2275 45.9483 36.7109 46.8785 36.7109C48.5557 36.7109 49.2662 35.0703 49.3468 33.0488C49.3468 32.9683 49.3541 32.8877 49.3541 32.8071H49.2076C48.8194 33.6421 47.8966 34.3818 46.4464 34.3818C44.4176 34.3818 42.9967 32.9023 42.9967 30.8955V30.8809C42.9967 28.7349 44.63 27.1675 46.9224 27.1675ZM46.9151 32.9316C48.109 32.9316 49.0245 32.0674 49.0245 30.8735V30.8589C49.0245 29.6504 48.109 28.7056 46.9371 28.7056C45.7725 28.7056 44.8424 29.6357 44.8424 30.8149V30.8296C44.8424 32.0527 45.7139 32.9316 46.9151 32.9316ZM54.2964 31.1519C53.6299 31.1519 53.1318 30.6392 53.1318 29.9946C53.1318 29.3428 53.6299 28.8374 54.2964 28.8374C54.9702 28.8374 55.4609 29.3428 55.4609 29.9946C55.4609 30.6392 54.9702 31.1519 54.2964 31.1519ZM54.2964 36.5864C53.6299 36.5864 53.1318 36.0811 53.1318 35.4292C53.1318 34.7773 53.6299 34.272 54.2964 34.272C54.9702 34.272 55.4609 34.7773 55.4609 35.4292C55.4609 36.0811 54.9702 36.5864 54.2964 36.5864ZM62.5785 38V35.9712H57.4076V34.4258C58.7773 32.0454 60.2787 29.6138 61.7143 27.4312H64.3876V34.4111H65.8085V35.9712H64.3876V38H62.5785ZM59.1654 34.4551H62.6078V28.9399H62.498C61.414 30.5952 60.1908 32.5508 59.1654 34.3452V34.4551ZM70.0184 38V29.2915H69.8939L67.2645 31.1519V29.3721L70.0257 27.4312H71.908V38H70.0184Z" fill="black" style="mix-blend-mode:overlay"/>
<path d="M37.2414 38.2637C34.7292 38.2637 33.2204 36.1323 33.2204 32.7192V32.7046C33.2204 29.2915 34.7292 27.1675 37.2414 27.1675C39.7536 27.1675 41.277 29.2915 41.277 32.7046V32.7192C41.277 36.1323 39.7536 38.2637 37.2414 38.2637ZM37.2414 36.7329C38.589 36.7329 39.3727 35.2241 39.3727 32.7192V32.7046C39.3727 30.1997 38.589 28.7056 37.2414 28.7056C35.8937 28.7056 35.1247 30.1997 35.1247 32.7046V32.7192C35.1247 35.2241 35.8937 36.7329 37.2414 36.7329ZM46.9224 27.1675C49.1783 27.1675 51.1412 28.7715 51.1412 32.5801V32.5947C51.1412 36.1543 49.5372 38.2637 46.8785 38.2637C44.9376 38.2637 43.4874 37.1138 43.1505 35.4951L43.1358 35.4146H44.9962L45.0181 35.4878C45.2965 36.2275 45.9483 36.7109 46.8785 36.7109C48.5557 36.7109 49.2662 35.0703 49.3468 33.0488C49.3468 32.9683 49.3541 32.8877 49.3541 32.8071H49.2076C48.8194 33.6421 47.8966 34.3818 46.4464 34.3818C44.4176 34.3818 42.9967 32.9023 42.9967 30.8955V30.8809C42.9967 28.7349 44.63 27.1675 46.9224 27.1675ZM46.9151 32.9316C48.109 32.9316 49.0245 32.0674 49.0245 30.8735V30.8589C49.0245 29.6504 48.109 28.7056 46.9371 28.7056C45.7725 28.7056 44.8424 29.6357 44.8424 30.8149V30.8296C44.8424 32.0527 45.7139 32.9316 46.9151 32.9316ZM54.2964 31.1519C53.6299 31.1519 53.1318 30.6392 53.1318 29.9946C53.1318 29.3428 53.6299 28.8374 54.2964 28.8374C54.9702 28.8374 55.4609 29.3428 55.4609 29.9946C55.4609 30.6392 54.9702 31.1519 54.2964 31.1519ZM54.2964 36.5864C53.6299 36.5864 53.1318 36.0811 53.1318 35.4292C53.1318 34.7773 53.6299 34.272 54.2964 34.272C54.9702 34.272 55.4609 34.7773 55.4609 35.4292C55.4609 36.0811 54.9702 36.5864 54.2964 36.5864ZM62.5785 38V35.9712H57.4076V34.4258C58.7773 32.0454 60.2787 29.6138 61.7143 27.4312H64.3876V34.4111H65.8085V35.9712H64.3876V38H62.5785ZM59.1654 34.4551H62.6078V28.9399H62.498C61.414 30.5952 60.1908 32.5508 59.1654 34.3452V34.4551ZM70.0184 38V29.2915H69.8939L67.2645 31.1519V29.3721L70.0257 27.4312H71.908V38H70.0184Z" fill="black" style="mix-blend-mode:overlay"/>
<path d="M308.5 33.5H309.5C310.052 33.5 310.5 33.9477 310.5 34.5V36.5C310.5 37.0523 310.052 37.5 309.5 37.5H308.5C307.948 37.5 307.5 37.0523 307.5 36.5V34.5C307.5 33.9477 307.948 33.5 308.5 33.5Z" fill="#FF0000" style="mix-blend-mode:saturation"/>
<path d="M308.5 33.5H309.5C310.052 33.5 310.5 33.9477 310.5 34.5V36.5C310.5 37.0523 310.052 37.5 309.5 37.5H308.5C307.948 37.5 307.5 37.0523 307.5 36.5V34.5C307.5 33.9477 307.948 33.5 308.5 33.5Z" fill="white" style="mix-blend-mode:difference"/>
<path d="M308.5 33.5H309.5C310.052 33.5 310.5 33.9477 310.5 34.5V36.5C310.5 37.0523 310.052 37.5 309.5 37.5H308.5C307.948 37.5 307.5 37.0523 307.5 36.5V34.5C307.5 33.9477 307.948 33.5 308.5 33.5Z" fill="white" style="mix-blend-mode:saturation"/>
<path d="M308.5 33.5H309.5C310.052 33.5 310.5 33.9477 310.5 34.5V36.5C310.5 37.0523 310.052 37.5 309.5 37.5H308.5C307.948 37.5 307.5 37.0523 307.5 36.5V34.5C307.5 33.9477 307.948 33.5 308.5 33.5Z" fill="white" style="mix-blend-mode:overlay"/>
<path d="M308.5 33.5H309.5C310.052 33.5 310.5 33.9477 310.5 34.5V36.5C310.5 37.0523 310.052 37.5 309.5 37.5H308.5C307.948 37.5 307.5 37.0523 307.5 36.5V34.5C307.5 33.9477 307.948 33.5 308.5 33.5Z" fill="black" style="mix-blend-mode:overlay"/>
<path d="M308.5 33.5H309.5C310.052 33.5 310.5 33.9477 310.5 34.5V36.5C310.5 37.0523 310.052 37.5 309.5 37.5H308.5C307.948 37.5 307.5 37.0523 307.5 36.5V34.5C307.5 33.9477 307.948 33.5 308.5 33.5Z" fill="black" style="mix-blend-mode:overlay"/>
<path d="M308.5 33.5H309.5C310.052 33.5 310.5 33.9477 310.5 34.5V36.5C310.5 37.0523 310.052 37.5 309.5 37.5H308.5C307.948 37.5 307.5 37.0523 307.5 36.5V34.5C307.5 33.9477 307.948 33.5 308.5 33.5Z" fill="black" style="mix-blend-mode:overlay"/>
<path d="M308.5 33.5H309.5C310.052 33.5 310.5 33.9477 310.5 34.5V36.5C310.5 37.0523 310.052 37.5 309.5 37.5H308.5C307.948 37.5 307.5 37.0523 307.5 36.5V34.5C307.5 33.9477 307.948 33.5 308.5 33.5Z" fill="black" style="mix-blend-mode:overlay"/>
<path d="M308.5 33.5H309.5C310.052 33.5 310.5 33.9477 310.5 34.5V36.5C310.5 37.0523 310.052 37.5 309.5 37.5H308.5C307.948 37.5 307.5 37.0523 307.5 36.5V34.5C307.5 33.9477 307.948 33.5 308.5 33.5Z" fill="black" style="mix-blend-mode:overlay"/>
<path d="M308.5 33.5H309.5C310.052 33.5 310.5 33.9477 310.5 34.5V36.5C310.5 37.0523 310.052 37.5 309.5 37.5H308.5C307.948 37.5 307.5 37.0523 307.5 36.5V34.5C307.5 33.9477 307.948 33.5 308.5 33.5Z" fill="black" style="mix-blend-mode:overlay"/>
<path d="M308.5 33.5H309.5C310.052 33.5 310.5 33.9477 310.5 34.5V36.5C310.5 37.0523 310.052 37.5 309.5 37.5H308.5C307.948 37.5 307.5 37.0523 307.5 36.5V34.5C307.5 33.9477 307.948 33.5 308.5 33.5Z" fill="black" style="mix-blend-mode:overlay"/>
<path d="M313 31.5H314C314.552 31.5 315 31.9477 315 32.5V36.5C315 37.0523 314.552 37.5 314 37.5H313C312.448 37.5 312 37.0523 312 36.5V32.5C312 31.9477 312.448 31.5 313 31.5Z" fill="#FF0000" style="mix-blend-mode:saturation"/>
<path d="M313 31.5H314C314.552 31.5 315 31.9477 315 32.5V36.5C315 37.0523 314.552 37.5 314 37.5H313C312.448 37.5 312 37.0523 312 36.5V32.5C312 31.9477 312.448 31.5 313 31.5Z" fill="white" style="mix-blend-mode:difference"/>
<path d="M313 31.5H314C314.552 31.5 315 31.9477 315 32.5V36.5C315 37.0523 314.552 37.5 314 37.5H313C312.448 37.5 312 37.0523 312 36.5V32.5C312 31.9477 312.448 31.5 313 31.5Z" fill="white" style="mix-blend-mode:saturation"/>
<path d="M313 31.5H314C314.552 31.5 315 31.9477 315 32.5V36.5C315 37.0523 314.552 37.5 314 37.5H313C312.448 37.5 312 37.0523 312 36.5V32.5C312 31.9477 312.448 31.5 313 31.5Z" fill="white" style="mix-blend-mode:overlay"/>
<path d="M313 31.5H314C314.552 31.5 315 31.9477 315 32.5V36.5C315 37.0523 314.552 37.5 314 37.5H313C312.448 37.5 312 37.0523 312 36.5V32.5C312 31.9477 312.448 31.5 313 31.5Z" fill="black" style="mix-blend-mode:overlay"/>
<path d="M313 31.5H314C314.552 31.5 315 31.9477 315 32.5V36.5C315 37.0523 314.552 37.5 314 37.5H313C312.448 37.5 312 37.0523 312 36.5V32.5C312 31.9477 312.448 31.5 313 31.5Z" fill="black" style="mix-blend-mode:overlay"/>
<path d="M313 31.5H314C314.552 31.5 315 31.9477 315 32.5V36.5C315 37.0523 314.552 37.5 314 37.5H313C312.448 37.5 312 37.0523 312 36.5V32.5C312 31.9477 312.448 31.5 313 31.5Z" fill="black" style="mix-blend-mode:overlay"/>
<path d="M313 31.5H314C314.552 31.5 315 31.9477 315 32.5V36.5C315 37.0523 314.552 37.5 314 37.5H313C312.448 37.5 312 37.0523 312 36.5V32.5C312 31.9477 312.448 31.5 313 31.5Z" fill="black" style="mix-blend-mode:overlay"/>
<path d="M313 31.5H314C314.552 31.5 315 31.9477 315 32.5V36.5C315 37.0523 314.552 37.5 314 37.5H313C312.448 37.5 312 37.0523 312 36.5V32.5C312 31.9477 312.448 31.5 313 31.5Z" fill="black" style="mix-blend-mode:overlay"/>
<path d="M313 31.5H314C314.552 31.5 315 31.9477 315 32.5V36.5C315 37.0523 314.552 37.5 314 37.5H313C312.448 37.5 312 37.0523 312 36.5V32.5C312 31.9477 312.448 31.5 313 31.5Z" fill="black" style="mix-blend-mode:overlay"/>
<path d="M313 31.5H314C314.552 31.5 315 31.9477 315 32.5V36.5C315 37.0523 314.552 37.5 314 37.5H313C312.448 37.5 312 37.0523 312 36.5V32.5C312 31.9477 312.448 31.5 313 31.5Z" fill="black" style="mix-blend-mode:overlay"/>
<path d="M317.5 29.5H318.5C319.052 29.5 319.5 29.9298 319.5 30.46V36.54C319.5 37.0702 319.052 37.5 318.5 37.5H317.5C316.948 37.5 316.5 37.0702 316.5 36.54V30.46C316.5 29.9298 316.948 29.5 317.5 29.5Z" fill="#FF0000" style="mix-blend-mode:saturation"/>
<path d="M317.5 29.5H318.5C319.052 29.5 319.5 29.9298 319.5 30.46V36.54C319.5 37.0702 319.052 37.5 318.5 37.5H317.5C316.948 37.5 316.5 37.0702 316.5 36.54V30.46C316.5 29.9298 316.948 29.5 317.5 29.5Z" fill="white" style="mix-blend-mode:difference"/>
<path d="M317.5 29.5H318.5C319.052 29.5 319.5 29.9298 319.5 30.46V36.54C319.5 37.0702 319.052 37.5 318.5 37.5H317.5C316.948 37.5 316.5 37.0702 316.5 36.54V30.46C316.5 29.9298 316.948 29.5 317.5 29.5Z" fill="white" style="mix-blend-mode:saturation"/>
<path d="M317.5 29.5H318.5C319.052 29.5 319.5 29.9298 319.5 30.46V36.54C319.5 37.0702 319.052 37.5 318.5 37.5H317.5C316.948 37.5 316.5 37.0702 316.5 36.54V30.46C316.5 29.9298 316.948 29.5 317.5 29.5Z" fill="white" style="mix-blend-mode:overlay"/>
<path d="M317.5 29.5H318.5C319.052 29.5 319.5 29.9298 319.5 30.46V36.54C319.5 37.0702 319.052 37.5 318.5 37.5H317.5C316.948 37.5 316.5 37.0702 316.5 36.54V30.46C316.5 29.9298 316.948 29.5 317.5 29.5Z" fill="black" style="mix-blend-mode:overlay"/>
<path d="M317.5 29.5H318.5C319.052 29.5 319.5 29.9298 319.5 30.46V36.54C319.5 37.0702 319.052 37.5 318.5 37.5H317.5C316.948 37.5 316.5 37.0702 316.5 36.54V30.46C316.5 29.9298 316.948 29.5 317.5 29.5Z" fill="black" style="mix-blend-mode:overlay"/>
<path d="M317.5 29.5H318.5C319.052 29.5 319.5 29.9298 319.5 30.46V36.54C319.5 37.0702 319.052 37.5 318.5 37.5H317.5C316.948 37.5 316.5 37.0702 316.5 36.54V30.46C316.5 29.9298 316.948 29.5 317.5 29.5Z" fill="black" style="mix-blend-mode:overlay"/>
<path d="M317.5 29.5H318.5C319.052 29.5 319.5 29.9298 319.5 30.46V36.54C319.5 37.0702 319.052 37.5 318.5 37.5H317.5C316.948 37.5 316.5 37.0702 316.5 36.54V30.46C316.5 29.9298 316.948 29.5 317.5 29.5Z" fill="black" style="mix-blend-mode:overlay"/>
<path d="M317.5 29.5H318.5C319.052 29.5 319.5 29.9298 319.5 30.46V36.54C319.5 37.0702 319.052 37.5 318.5 37.5H317.5C316.948 37.5 316.5 37.0702 316.5 36.54V30.46C316.5 29.9298 316.948 29.5 317.5 29.5Z" fill="black" style="mix-blend-mode:overlay"/>
<path d="M317.5 29.5H318.5C319.052 29.5 319.5 29.9298 319.5 30.46V36.54C319.5 37.0702 319.052 37.5 318.5 37.5H317.5C316.948 37.5 316.5 37.0702 316.5 36.54V30.46C316.5 29.9298 316.948 29.5 317.5 29.5Z" fill="black" style="mix-blend-mode:overlay"/>
<path d="M317.5 29.5H318.5C319.052 29.5 319.5 29.9298 319.5 30.46V36.54C319.5 37.0702 319.052 37.5 318.5 37.5H317.5C316.948 37.5 316.5 37.0702 316.5 36.54V30.46C316.5 29.9298 316.948 29.5 317.5 29.5Z" fill="black" style="mix-blend-mode:overlay"/>
<path d="M322 26.5H323C323.552 26.5 324 26.9617 324 27.5312V36.4688C324 37.0383 323.552 37.5 323 37.5H322C321.448 37.5 321 37.0383 321 36.4688V27.5312C321 26.9617 321.448 26.5 322 26.5V26.5Z" fill="#5F5F5F" fill-opacity="0.6"/>
<path fill-rule="evenodd" clip-rule="evenodd" d="M334.33 34.9267C335.583 33.8444 337.418 33.8444 338.671 34.9267C338.734 34.9849 338.771 35.0675 338.772 35.1542C338.774 35.2408 338.74 35.324 338.68 35.3847L336.718 37.4072C336.66 37.4664 336.582 37.4999 336.5 37.4999C336.418 37.4998 336.34 37.4665 336.282 37.4072L334.32 35.3847C334.26 35.324 334.227 35.2407 334.229 35.1542C334.23 35.0675 334.267 34.9849 334.33 34.9267ZM331.712 32.2294C334.411 29.665 338.592 29.665 341.291 32.2294C341.352 32.2894 341.387 32.3717 341.388 32.4579C341.389 32.5445 341.355 32.628 341.295 32.6894L340.161 33.8603C340.044 33.9795 339.855 33.9814 339.735 33.8652C338.849 33.0456 337.696 32.5917 336.5 32.5917C335.305 32.5923 334.153 33.0462 333.268 33.8652C333.148 33.9815 332.959 33.9796 332.842 33.8603L331.708 32.6894C331.648 32.6282 331.616 32.5452 331.616 32.4589C331.617 32.3725 331.651 32.2895 331.712 32.2294ZM329.095 29.539C333.235 25.487 339.765 25.487 343.905 29.539C343.965 29.5992 344 29.6817 344 29.7675C344 29.8533 343.967 29.9361 343.908 29.997L342.772 31.1669C342.655 31.2868 342.466 31.288 342.348 31.1699C340.77 29.6383 338.676 28.7842 336.5 28.7841C334.324 28.7842 332.231 29.6385 330.653 31.1699C330.535 31.2882 330.344 31.2871 330.228 31.1669L329.092 29.997C329.033 29.9361 329 29.8532 329 29.7675C329.001 29.6817 329.035 29.5991 329.095 29.539Z" fill="#FF0000" style="mix-blend-mode:saturation"/>
<path fill-rule="evenodd" clip-rule="evenodd" d="M334.33 34.9267C335.583 33.8444 337.418 33.8444 338.671 34.9267C338.734 34.9849 338.771 35.0675 338.772 35.1542C338.774 35.2408 338.74 35.324 338.68 35.3847L336.718 37.4072C336.66 37.4664 336.582 37.4999 336.5 37.4999C336.418 37.4998 336.34 37.4665 336.282 37.4072L334.32 35.3847C334.26 35.324 334.227 35.2407 334.229 35.1542C334.23 35.0675 334.267 34.9849 334.33 34.9267ZM331.712 32.2294C334.411 29.665 338.592 29.665 341.291 32.2294C341.352 32.2894 341.387 32.3717 341.388 32.4579C341.389 32.5445 341.355 32.628 341.295 32.6894L340.161 33.8603C340.044 33.9795 339.855 33.9814 339.735 33.8652C338.849 33.0456 337.696 32.5917 336.5 32.5917C335.305 32.5923 334.153 33.0462 333.268 33.8652C333.148 33.9815 332.959 33.9796 332.842 33.8603L331.708 32.6894C331.648 32.6282 331.616 32.5452 331.616 32.4589C331.617 32.3725 331.651 32.2895 331.712 32.2294ZM329.095 29.539C333.235 25.487 339.765 25.487 343.905 29.539C343.965 29.5992 344 29.6817 344 29.7675C344 29.8533 343.967 29.9361 343.908 29.997L342.772 31.1669C342.655 31.2868 342.466 31.288 342.348 31.1699C340.77 29.6383 338.676 28.7842 336.5 28.7841C334.324 28.7842 332.231 29.6385 330.653 31.1699C330.535 31.2882 330.344 31.2871 330.228 31.1669L329.092 29.997C329.033 29.9361 329 29.8532 329 29.7675C329.001 29.6817 329.035 29.5991 329.095 29.539Z" fill="white" style="mix-blend-mode:difference"/>
<path fill-rule="evenodd" clip-rule="evenodd" d="M334.33 34.9267C335.583 33.8444 337.418 33.8444 338.671 34.9267C338.734 34.9849 338.771 35.0675 338.772 35.1542C338.774 35.2408 338.74 35.324 338.68 35.3847L336.718 37.4072C336.66 37.4664 336.582 37.4999 336.5 37.4999C336.418 37.4998 336.34 37.4665 336.282 37.4072L334.32 35.3847C334.26 35.324 334.227 35.2407 334.229 35.1542C334.23 35.0675 334.267 34.9849 334.33 34.9267ZM331.712 32.2294C334.411 29.665 338.592 29.665 341.291 32.2294C341.352 32.2894 341.387 32.3717 341.388 32.4579C341.389 32.5445 341.355 32.628 341.295 32.6894L340.161 33.8603C340.044 33.9795 339.855 33.9814 339.735 33.8652C338.849 33.0456 337.696 32.5917 336.5 32.5917C335.305 32.5923 334.153 33.0462 333.268 33.8652C333.148 33.9815 332.959 33.9796 332.842 33.8603L331.708 32.6894C331.648 32.6282 331.616 32.5452 331.616 32.4589C331.617 32.3725 331.651 32.2895 331.712 32.2294ZM329.095 29.539C333.235 25.487 339.765 25.487 343.905 29.539C343.965 29.5992 344 29.6817 344 29.7675C344 29.8533 343.967 29.9361 343.908 29.997L342.772 31.1669C342.655 31.2868 342.466 31.288 342.348 31.1699C340.77 29.6383 338.676 28.7842 336.5 28.7841C334.324 28.7842 332.231 29.6385 330.653 31.1699C330.535 31.2882 330.344 31.2871 330.228 31.1669L329.092 29.997C329.033 29.9361 329 29.8532 329 29.7675C329.001 29.6817 329.035 29.5991 329.095 29.539Z" fill="white" style="mix-blend-mode:saturation"/>
<path fill-rule="evenodd" clip-rule="evenodd" d="M334.33 34.9267C335.583 33.8444 337.418 33.8444 338.671 34.9267C338.734 34.9849 338.771 35.0675 338.772 35.1542C338.774 35.2408 338.74 35.324 338.68 35.3847L336.718 37.4072C336.66 37.4664 336.582 37.4999 336.5 37.4999C336.418 37.4998 336.34 37.4665 336.282 37.4072L334.32 35.3847C334.26 35.324 334.227 35.2407 334.229 35.1542C334.23 35.0675 334.267 34.9849 334.33 34.9267ZM331.712 32.2294C334.411 29.665 338.592 29.665 341.291 32.2294C341.352 32.2894 341.387 32.3717 341.388 32.4579C341.389 32.5445 341.355 32.628 341.295 32.6894L340.161 33.8603C340.044 33.9795 339.855 33.9814 339.735 33.8652C338.849 33.0456 337.696 32.5917 336.5 32.5917C335.305 32.5923 334.153 33.0462 333.268 33.8652C333.148 33.9815 332.959 33.9796 332.842 33.8603L331.708 32.6894C331.648 32.6282 331.616 32.5452 331.616 32.4589C331.617 32.3725 331.651 32.2895 331.712 32.2294ZM329.095 29.539C333.235 25.487 339.765 25.487 343.905 29.539C343.965 29.5992 344 29.6817 344 29.7675C344 29.8533 343.967 29.9361 343.908 29.997L342.772 31.1669C342.655 31.2868 342.466 31.288 342.348 31.1699C340.77 29.6383 338.676 28.7842 336.5 28.7841C334.324 28.7842 332.231 29.6385 330.653 31.1699C330.535 31.2882 330.344 31.2871 330.228 31.1669L329.092 29.997C329.033 29.9361 329 29.8532 329 29.7675C329.001 29.6817 329.035 29.5991 329.095 29.539Z" fill="white" style="mix-blend-mode:overlay"/>
<path fill-rule="evenodd" clip-rule="evenodd" d="M334.33 34.9267C335.583 33.8444 337.418 33.8444 338.671 34.9267C338.734 34.9849 338.771 35.0675 338.772 35.1542C338.774 35.2408 338.74 35.324 338.68 35.3847L336.718 37.4072C336.66 37.4664 336.582 37.4999 336.5 37.4999C336.418 37.4998 336.34 37.4665 336.282 37.4072L334.32 35.3847C334.26 35.324 334.227 35.2407 334.229 35.1542C334.23 35.0675 334.267 34.9849 334.33 34.9267ZM331.712 32.2294C334.411 29.665 338.592 29.665 341.291 32.2294C341.352 32.2894 341.387 32.3717 341.388 32.4579C341.389 32.5445 341.355 32.628 341.295 32.6894L340.161 33.8603C340.044 33.9795 339.855 33.9814 339.735 33.8652C338.849 33.0456 337.696 32.5917 336.5 32.5917C335.305 32.5923 334.153 33.0462 333.268 33.8652C333.148 33.9815 332.959 33.9796 332.842 33.8603L331.708 32.6894C331.648 32.6282 331.616 32.5452 331.616 32.4589C331.617 32.3725 331.651 32.2895 331.712 32.2294ZM329.095 29.539C333.235 25.487 339.765 25.487 343.905 29.539C343.965 29.5992 344 29.6817 344 29.7675C344 29.8533 343.967 29.9361 343.908 29.997L342.772 31.1669C342.655 31.2868 342.466 31.288 342.348 31.1699C340.77 29.6383 338.676 28.7842 336.5 28.7841C334.324 28.7842 332.231 29.6385 330.653 31.1699C330.535 31.2882 330.344 31.2871 330.228 31.1669L329.092 29.997C329.033 29.9361 329 29.8532 329 29.7675C329.001 29.6817 329.035 29.5991 329.095 29.539Z" fill="black" style="mix-blend-mode:overlay"/>
<path fill-rule="evenodd" clip-rule="evenodd" d="M334.33 34.9267C335.583 33.8444 337.418 33.8444 338.671 34.9267C338.734 34.9849 338.771 35.0675 338.772 35.1542C338.774 35.2408 338.74 35.324 338.68 35.3847L336.718 37.4072C336.66 37.4664 336.582 37.4999 336.5 37.4999C336.418 37.4998 336.34 37.4665 336.282 37.4072L334.32 35.3847C334.26 35.324 334.227 35.2407 334.229 35.1542C334.23 35.0675 334.267 34.9849 334.33 34.9267ZM331.712 32.2294C334.411 29.665 338.592 29.665 341.291 32.2294C341.352 32.2894 341.387 32.3717 341.388 32.4579C341.389 32.5445 341.355 32.628 341.295 32.6894L340.161 33.8603C340.044 33.9795 339.855 33.9814 339.735 33.8652C338.849 33.0456 337.696 32.5917 336.5 32.5917C335.305 32.5923 334.153 33.0462 333.268 33.8652C333.148 33.9815 332.959 33.9796 332.842 33.8603L331.708 32.6894C331.648 32.6282 331.616 32.5452 331.616 32.4589C331.617 32.3725 331.651 32.2895 331.712 32.2294ZM329.095 29.539C333.235 25.487 339.765 25.487 343.905 29.539C343.965 29.5992 344 29.6817 344 29.7675C344 29.8533 343.967 29.9361 343.908 29.997L342.772 31.1669C342.655 31.2868 342.466 31.288 342.348 31.1699C340.77 29.6383 338.676 28.7842 336.5 28.7841C334.324 28.7842 332.231 29.6385 330.653 31.1699C330.535 31.2882 330.344 31.2871 330.228 31.1669L329.092 29.997C329.033 29.9361 329 29.8532 329 29.7675C329.001 29.6817 329.035 29.5991 329.095 29.539Z" fill="black" style="mix-blend-mode:overlay"/>
<path fill-rule="evenodd" clip-rule="evenodd" d="M334.33 34.9267C335.583 33.8444 337.418 33.8444 338.671 34.9267C338.734 34.9849 338.771 35.0675 338.772 35.1542C338.774 35.2408 338.74 35.324 338.68 35.3847L336.718 37.4072C336.66 37.4664 336.582 37.4999 336.5 37.4999C336.418 37.4998 336.34 37.4665 336.282 37.4072L334.32 35.3847C334.26 35.324 334.227 35.2407 334.229 35.1542C334.23 35.0675 334.267 34.9849 334.33 34.9267ZM331.712 32.2294C334.411 29.665 338.592 29.665 341.291 32.2294C341.352 32.2894 341.387 32.3717 341.388 32.4579C341.389 32.5445 341.355 32.628 341.295 32.6894L340.161 33.8603C340.044 33.9795 339.855 33.9814 339.735 33.8652C338.849 33.0456 337.696 32.5917 336.5 32.5917C335.305 32.5923 334.153 33.0462 333.268 33.8652C333.148 33.9815 332.959 33.9796 332.842 33.8603L331.708 32.6894C331.648 32.6282 331.616 32.5452 331.616 32.4589C331.617 32.3725 331.651 32.2895 331.712 32.2294ZM329.095 29.539C333.235 25.487 339.765 25.487 343.905 29.539C343.965 29.5992 344 29.6817 344 29.7675C344 29.8533 343.967 29.9361 343.908 29.997L342.772 31.1669C342.655 31.2868 342.466 31.288 342.348 31.1699C340.77 29.6383 338.676 28.7842 336.5 28.7841C334.324 28.7842 332.231 29.6385 330.653 31.1699C330.535 31.2882 330.344 31.2871 330.228 31.1669L329.092 29.997C329.033 29.9361 329 29.8532 329 29.7675C329.001 29.6817 329.035 29.5991 329.095 29.539Z" fill="black" style="mix-blend-mode:overlay"/>
<path fill-rule="evenodd" clip-rule="evenodd" d="M334.33 34.9267C335.583 33.8444 337.418 33.8444 338.671 34.9267C338.734 34.9849 338.771 35.0675 338.772 35.1542C338.774 35.2408 338.74 35.324 338.68 35.3847L336.718 37.4072C336.66 37.4664 336.582 37.4999 336.5 37.4999C336.418 37.4998 336.34 37.4665 336.282 37.4072L334.32 35.3847C334.26 35.324 334.227 35.2407 334.229 35.1542C334.23 35.0675 334.267 34.9849 334.33 34.9267ZM331.712 32.2294C334.411 29.665 338.592 29.665 341.291 32.2294C341.352 32.2894 341.387 32.3717 341.388 32.4579C341.389 32.5445 341.355 32.628 341.295 32.6894L340.161 33.8603C340.044 33.9795 339.855 33.9814 339.735 33.8652C338.849 33.0456 337.696 32.5917 336.5 32.5917C335.305 32.5923 334.153 33.0462 333.268 33.8652C333.148 33.9815 332.959 33.9796 332.842 33.8603L331.708 32.6894C331.648 32.6282 331.616 32.5452 331.616 32.4589C331.617 32.3725 331.651 32.2895 331.712 32.2294ZM329.095 29.539C333.235 25.487 339.765 25.487 343.905 29.539C343.965 29.5992 344 29.6817 344 29.7675C344 29.8533 343.967 29.9361 343.908 29.997L342.772 31.1669C342.655 31.2868 342.466 31.288 342.348 31.1699C340.77 29.6383 338.676 28.7842 336.5 28.7841C334.324 28.7842 332.231 29.6385 330.653 31.1699C330.535 31.2882 330.344 31.2871 330.228 31.1669L329.092 29.997C329.033 29.9361 329 29.8532 329 29.7675C329.001 29.6817 329.035 29.5991 329.095 29.539Z" fill="black" style="mix-blend-mode:overlay"/>
<path fill-rule="evenodd" clip-rule="evenodd" d="M334.33 34.9267C335.583 33.8444 337.418 33.8444 338.671 34.9267C338.734 34.9849 338.771 35.0675 338.772 35.1542C338.774 35.2408 338.74 35.324 338.68 35.3847L336.718 37.4072C336.66 37.4664 336.582 37.4999 336.5 37.4999C336.418 37.4998 336.34 37.4665 336.282 37.4072L334.32 35.3847C334.26 35.324 334.227 35.2407 334.229 35.1542C334.23 35.0675 334.267 34.9849 334.33 34.9267ZM331.712 32.2294C334.411 29.665 338.592 29.665 341.291 32.2294C341.352 32.2894 341.387 32.3717 341.388 32.4579C341.389 32.5445 341.355 32.628 341.295 32.6894L340.161 33.8603C340.044 33.9795 339.855 33.9814 339.735 33.8652C338.849 33.0456 337.696 32.5917 336.5 32.5917C335.305 32.5923 334.153 33.0462 333.268 33.8652C333.148 33.9815 332.959 33.9796 332.842 33.8603L331.708 32.6894C331.648 32.6282 331.616 32.5452 331.616 32.4589C331.617 32.3725 331.651 32.2895 331.712 32.2294ZM329.095 29.539C333.235 25.487 339.765 25.487 343.905 29.539C343.965 29.5992 344 29.6817 344 29.7675C344 29.8533 343.967 29.9361 343.908 29.997L342.772 31.1669C342.655 31.2868 342.466 31.288 342.348 31.1699C340.77 29.6383 338.676 28.7842 336.5 28.7841C334.324 28.7842 332.231 29.6385 330.653 31.1699C330.535 31.2882 330.344 31.2871 330.228 31.1669L329.092 29.997C329.033 29.9361 329 29.8532 329 29.7675C329.001 29.6817 329.035 29.5991 329.095 29.539Z" fill="black" style="mix-blend-mode:overlay"/>
<path fill-rule="evenodd" clip-rule="evenodd" d="M334.33 34.9267C335.583 33.8444 337.418 33.8444 338.671 34.9267C338.734 34.9849 338.771 35.0675 338.772 35.1542C338.774 35.2408 338.74 35.324 338.68 35.3847L336.718 37.4072C336.66 37.4664 336.582 37.4999 336.5 37.4999C336.418 37.4998 336.34 37.4665 336.282 37.4072L334.32 35.3847C334.26 35.324 334.227 35.2407 334.229 35.1542C334.23 35.0675 334.267 34.9849 334.33 34.9267ZM331.712 32.2294C334.411 29.665 338.592 29.665 341.291 32.2294C341.352 32.2894 341.387 32.3717 341.388 32.4579C341.389 32.5445 341.355 32.628 341.295 32.6894L340.161 33.8603C340.044 33.9795 339.855 33.9814 339.735 33.8652C338.849 33.0456 337.696 32.5917 336.5 32.5917C335.305 32.5923 334.153 33.0462 333.268 33.8652C333.148 33.9815 332.959 33.9796 332.842 33.8603L331.708 32.6894C331.648 32.6282 331.616 32.5452 331.616 32.4589C331.617 32.3725 331.651 32.2895 331.712 32.2294ZM329.095 29.539C333.235 25.487 339.765 25.487 343.905 29.539C343.965 29.5992 344 29.6817 344 29.7675C344 29.8533 343.967 29.9361 343.908 29.997L342.772 31.1669C342.655 31.2868 342.466 31.288 342.348 31.1699C340.77 29.6383 338.676 28.7842 336.5 28.7841C334.324 28.7842 332.231 29.6385 330.653 31.1699C330.535 31.2882 330.344 31.2871 330.228 31.1669L329.092 29.997C329.033 29.9361 329 29.8532 329 29.7675C329.001 29.6817 329.035 29.5991 329.095 29.539Z" fill="black" style="mix-blend-mode:overlay"/>
<path fill-rule="evenodd" clip-rule="evenodd" d="M334.33 34.9267C335.583 33.8444 337.418 33.8444 338.671 34.9267C338.734 34.9849 338.771 35.0675 338.772 35.1542C338.774 35.2408 338.74 35.324 338.68 35.3847L336.718 37.4072C336.66 37.4664 336.582 37.4999 336.5 37.4999C336.418 37.4998 336.34 37.4665 336.282 37.4072L334.32 35.3847C334.26 35.324 334.227 35.2407 334.229 35.1542C334.23 35.0675 334.267 34.9849 334.33 34.9267ZM331.712 32.2294C334.411 29.665 338.592 29.665 341.291 32.2294C341.352 32.2894 341.387 32.3717 341.388 32.4579C341.389 32.5445 341.355 32.628 341.295 32.6894L340.161 33.8603C340.044 33.9795 339.855 33.9814 339.735 33.8652C338.849 33.0456 337.696 32.5917 336.5 32.5917C335.305 32.5923 334.153 33.0462 333.268 33.8652C333.148 33.9815 332.959 33.9796 332.842 33.8603L331.708 32.6894C331.648 32.6282 331.616 32.5452 331.616 32.4589C331.617 32.3725 331.651 32.2895 331.712 32.2294ZM329.095 29.539C333.235 25.487 339.765 25.487 343.905 29.539C343.965 29.5992 344 29.6817 344 29.7675C344 29.8533 343.967 29.9361 343.908 29.997L342.772 31.1669C342.655 31.2868 342.466 31.288 342.348 31.1699C340.77 29.6383 338.676 28.7842 336.5 28.7841C334.324 28.7842 332.231 29.6385 330.653 31.1699C330.535 31.2882 330.344 31.2871 330.228 31.1669L329.092 29.997C329.033 29.9361 329 29.8532 329 29.7675C329.001 29.6817 329.035 29.5991 329.095 29.539Z" fill="black" style="mix-blend-mode:overlay"/>
<rect x="349.5" y="26.5" width="22" height="11" rx="2.5" stroke="#5F5F5F" stroke-opacity="0.6"/>
<path d="M372.635 29.8823V34.1176C373.462 33.7589 373.999 32.9245 373.999 32C373.999 31.0755 373.462 30.241 372.635 29.8823Z" fill="#5F5F5F" fill-opacity="0.6"/>
<rect x="351" y="28" width="19" height="8" rx="1.38667" fill="#FF0000" style="mix-blend-mode:saturation"/>
<rect x="351" y="28" width="19" height="8" rx="1.38667" fill="white" style="mix-blend-mode:difference"/>
<rect x="351" y="28" width="19" height="8" rx="1.38667" fill="white" style="mix-blend-mode:saturation"/>
<rect x="351" y="28" width="19" height="8" rx="1.38667" fill="white" style="mix-blend-mode:overlay"/>
<rect x="351" y="28" width="19" height="8" rx="1.38667" fill="black" style="mix-blend-mode:overlay"/>
<rect x="351" y="28" width="19" height="8" rx="1.38667" fill="black" style="mix-blend-mode:overlay"/>
<rect x="351" y="28" width="19" height="8" rx="1.38667" fill="black" style="mix-blend-mode:overlay"/>
<rect x="351" y="28" width="19" height="8" rx="1.38667" fill="black" style="mix-blend-mode:overlay"/>
<rect x="351" y="28" width="19" height="8" rx="1.38667" fill="black" style="mix-blend-mode:overlay"/>
<rect x="351" y="28" width="19" height="8" rx="1.38667" fill="black" style="mix-blend-mode:overlay"/>
<rect x="351" y="28" width="19" height="8" rx="1.38667" fill="black" style="mix-blend-mode:overlay"/>
</svg>
