<svg width="321" height="196" viewBox="0 0 321 196" fill="none" xmlns="http://www.w3.org/2000/svg">
<mask id="mask0_6971_2731" style="mask-type:alpha" maskUnits="userSpaceOnUse" x="1" y="0" width="320" height="196">
<rect x="1" width="320" height="196" rx="24.948" fill="#686868"/>
<rect x="1" width="320" height="196" rx="24.948" fill="url(#paint0_linear_6971_2731)" fill-opacity="0.25"/>
</mask>
<g mask="url(#mask0_6971_2731)">
<rect x="1" width="320" height="196" rx="24.948" fill="#686868"/>
<rect x="1" width="320" height="196" rx="24.948" fill="url(#paint1_linear_6971_2731)" fill-opacity="0.25"/>
<rect x="1" width="320" height="196" rx="24.948" fill="url(#paint2_linear_6971_2731)" fill-opacity="0.3"/>
<mask id="path-4-inside-1_6971_2731" fill="white">
<path d="M44.76 168.136C40.9629 168.136 37.8848 165.058 37.8848 161.261L37.8848 31.7425C37.8848 27.9454 40.9629 24.8672 44.76 24.8672H277.24C281.037 24.8672 284.115 27.9453 284.115 31.7425V161.261C284.115 165.058 281.037 168.136 277.24 168.136H44.76Z"/>
</mask>
<g clip-path="url(#paint3_diamond_6971_2731_clip_path)" data-figma-skip-parse="true" mask="url(#path-4-inside-1_6971_2731)"><g transform="matrix(0.125795 -0.0614472 0.305031 0.601578 35.2051 157.949)"><rect x="0" y="0" width="2044.64" height="181.512" fill="url(#paint3_diamond_6971_2731)" opacity="1" shape-rendering="crispEdges"/><rect x="0" y="0" width="2044.64" height="181.512" transform="scale(1 -1)" fill="url(#paint3_diamond_6971_2731)" opacity="1" shape-rendering="crispEdges"/><rect x="0" y="0" width="2044.64" height="181.512" transform="scale(-1 1)" fill="url(#paint3_diamond_6971_2731)" opacity="1" shape-rendering="crispEdges"/><rect x="0" y="0" width="2044.64" height="181.512" transform="scale(-1)" fill="url(#paint3_diamond_6971_2731)" opacity="1" shape-rendering="crispEdges"/></g></g><path d="M37.8848 161.261H40.8848L40.8848 31.7425H37.8848H34.8848L34.8848 161.261H37.8848ZM44.76 24.8672V27.8672H277.24V24.8672V21.8672H44.76V24.8672ZM284.115 31.7425H281.115V161.261H284.115H287.115V31.7425L284.115 31.7425ZM277.24 168.136V165.136H44.76V168.136V171.136H277.24V168.136ZM284.115 161.261H281.115C281.115 163.401 279.38 165.136 277.24 165.136V168.136V171.136C282.694 171.136 287.115 166.715 287.115 161.261H284.115ZM277.24 24.8672V27.8672C279.38 27.8672 281.115 29.6022 281.115 31.7425H284.115L287.115 31.7425C287.115 26.2885 282.694 21.8672 277.24 21.8672V24.8672ZM37.8848 31.7425H40.8848C40.8848 29.6022 42.6198 27.8672 44.76 27.8672V24.8672V21.8672C39.3061 21.8672 34.8848 26.2885 34.8848 31.7425H37.8848ZM37.8848 161.261H34.8848C34.8848 166.715 39.3061 171.136 44.76 171.136V168.136V165.136C42.6198 165.136 40.8848 163.401 40.8848 161.261H37.8848Z" data-figma-gradient-fill="{&#34;type&#34;:&#34;GRADIENT_DIAMOND&#34;,&#34;stops&#34;:[{&#34;color&#34;:{&#34;r&#34;:1.0,&#34;g&#34;:1.0,&#34;b&#34;:1.0,&#34;a&#34;:1.0},&#34;position&#34;:0.0},{&#34;color&#34;:{&#34;r&#34;:1.0,&#34;g&#34;:1.0,&#34;b&#34;:1.0,&#34;a&#34;:0.0},&#34;position&#34;:1.0},{&#34;color&#34;:{&#34;r&#34;:1.0,&#34;g&#34;:1.0,&#34;b&#34;:1.0,&#34;a&#34;:0.54000002145767212},&#34;position&#34;:1.0}],&#34;stopsVar&#34;:[],&#34;transform&#34;:{&#34;m00&#34;:251.58995056152344,&#34;m01&#34;:610.06237792968750,&#34;m02&#34;:-395.621093750,&#34;m10&#34;:-122.89430999755859,&#34;m11&#34;:1203.1555175781250,&#34;m12&#34;:-382.18206787109375},&#34;opacity&#34;:1.0,&#34;blendMode&#34;:&#34;NORMAL&#34;,&#34;visible&#34;:true}" mask="url(#path-4-inside-1_6971_2731)"/>
<path d="M37.8848 161.261H40.8848L40.8848 31.7425H37.8848H34.8848L34.8848 161.261H37.8848ZM44.76 24.8672V27.8672H277.24V24.8672V21.8672H44.76V24.8672ZM284.115 31.7425H281.115V161.261H284.115H287.115V31.7425L284.115 31.7425ZM277.24 168.136V165.136H44.76V168.136V171.136H277.24V168.136ZM284.115 161.261H281.115C281.115 163.401 279.38 165.136 277.24 165.136V168.136V171.136C282.694 171.136 287.115 166.715 287.115 161.261H284.115ZM277.24 24.8672V27.8672C279.38 27.8672 281.115 29.6022 281.115 31.7425H284.115L287.115 31.7425C287.115 26.2885 282.694 21.8672 277.24 21.8672V24.8672ZM37.8848 31.7425H40.8848C40.8848 29.6022 42.6198 27.8672 44.76 27.8672V24.8672V21.8672C39.3061 21.8672 34.8848 26.2885 34.8848 31.7425H37.8848ZM37.8848 161.261H34.8848C34.8848 166.715 39.3061 171.136 44.76 171.136V168.136V165.136C42.6198 165.136 40.8848 163.401 40.8848 161.261H37.8848Z" fill="white" fill-opacity="0.35" mask="url(#path-4-inside-1_6971_2731)"/>
<mask id="mask1_6971_2731" style="mask-type:alpha" maskUnits="userSpaceOnUse" x="37" y="24" width="248" height="145">
<rect x="37.8848" y="168.136" width="143.269" height="246.23" rx="10.9131" transform="rotate(-90 37.8848 168.136)" fill="#D9D9D9"/>
</mask>
<g mask="url(#mask1_6971_2731)">
<g filter="url(#filter0_f_6971_2731)">
<rect width="487.269" height="102.828" transform="matrix(0.82308 -0.567925 0.582295 0.812977 -186.967 46.8984)" fill="url(#paint4_linear_6971_2731)" fill-opacity="0.5"/>
</g>
</g>
</g>
<defs>
<clipPath id="paint3_diamond_6971_2731_clip_path"><path d="M37.8848 161.261H40.8848L40.8848 31.7425H37.8848H34.8848L34.8848 161.261H37.8848ZM44.76 24.8672V27.8672H277.24V24.8672V21.8672H44.76V24.8672ZM284.115 31.7425H281.115V161.261H284.115H287.115V31.7425L284.115 31.7425ZM277.24 168.136V165.136H44.76V168.136V171.136H277.24V168.136ZM284.115 161.261H281.115C281.115 163.401 279.38 165.136 277.24 165.136V168.136V171.136C282.694 171.136 287.115 166.715 287.115 161.261H284.115ZM277.24 24.8672V27.8672C279.38 27.8672 281.115 29.6022 281.115 31.7425H284.115L287.115 31.7425C287.115 26.2885 282.694 21.8672 277.24 21.8672V24.8672ZM37.8848 31.7425H40.8848C40.8848 29.6022 42.6198 27.8672 44.76 27.8672V24.8672V21.8672C39.3061 21.8672 34.8848 26.2885 34.8848 31.7425H37.8848ZM37.8848 161.261H34.8848C34.8848 166.715 39.3061 171.136 44.76 171.136V168.136V165.136C42.6198 165.136 40.8848 163.401 40.8848 161.261H37.8848Z" mask="url(#path-4-inside-1_6971_2731)"/></clipPath><filter id="filter0_f_6971_2731" x="-216.967" y="-259.833" width="520.938" height="420.329" filterUnits="userSpaceOnUse" color-interpolation-filters="sRGB">
<feFlood flood-opacity="0" result="BackgroundImageFix"/>
<feBlend mode="normal" in="SourceGraphic" in2="BackgroundImageFix" result="shape"/>
<feGaussianBlur stdDeviation="15" result="effect1_foregroundBlur_6971_2731"/>
</filter>
<linearGradient id="paint0_linear_6971_2731" x1="161" y1="0" x2="161" y2="131.704" gradientUnits="userSpaceOnUse">
<stop stop-color="white"/>
<stop offset="0.611797" stop-color="white" stop-opacity="0.24"/>
<stop offset="1" stop-color="white" stop-opacity="0"/>
</linearGradient>
<linearGradient id="paint1_linear_6971_2731" x1="161" y1="0" x2="161" y2="131.704" gradientUnits="userSpaceOnUse">
<stop stop-color="white"/>
<stop offset="0.611797" stop-color="white" stop-opacity="0.24"/>
<stop offset="1" stop-color="white" stop-opacity="0"/>
</linearGradient>
<linearGradient id="paint2_linear_6971_2731" x1="302.867" y1="190.815" x2="280.493" y2="137.467" gradientUnits="userSpaceOnUse">
<stop stop-color="#686868"/>
<stop offset="1" stop-color="#686868" stop-opacity="0"/>
</linearGradient>
<linearGradient id="paint3_diamond_6971_2731" x1="0" y1="0" x2="500" y2="500" gradientUnits="userSpaceOnUse">
<stop stop-color="white"/>
<stop offset="1" stop-color="white" stop-opacity="0"/>
<stop offset="1" stop-color="white" stop-opacity="0.54"/>
</linearGradient>
<linearGradient id="paint4_linear_6971_2731" x1="243.634" y1="0" x2="243.634" y2="102.828" gradientUnits="userSpaceOnUse">
<stop stop-color="white" stop-opacity="0"/>
<stop offset="0.385417" stop-color="white"/>
<stop offset="0.567708" stop-color="white"/>
<stop offset="1" stop-color="white" stop-opacity="0"/>
</linearGradient>
</defs>
</svg>
