<svg width="320" height="196" viewBox="0 0 320 196" fill="none" xmlns="http://www.w3.org/2000/svg">
<mask id="mask0_6971_2917" style="mask-type:alpha" maskUnits="userSpaceOnUse" x="0" y="0" width="320" height="196">
<rect width="320" height="196" rx="24.948" fill="#686868"/>
<rect width="320" height="196" rx="24.948" fill="url(#paint0_linear_6971_2917)" fill-opacity="0.25"/>
</mask>
<g mask="url(#mask0_6971_2917)">
<rect width="320" height="196" rx="24.948" fill="#686868"/>
<rect width="320" height="196" rx="24.948" fill="url(#paint1_linear_6971_2917)" fill-opacity="0.25"/>
<g clip-path="url(#clip0_6971_2917)">
<rect x="35.6776" y="25.6725" width="246.242" height="142.672" rx="8.70246" stroke="#CBCBCB" stroke-width="2.27021"/>
<g filter="url(#filter0_d_6971_2917)">
<path d="M36.8135 33.7125C36.8135 29.8991 39.9049 26.8076 43.7184 26.8076L273.88 26.8076C277.694 26.8076 280.785 29.8991 280.785 33.7125V160.304C280.785 164.118 277.694 167.209 273.88 167.209L43.7184 167.209C39.9049 167.209 36.8135 164.118 36.8135 160.304L36.8135 33.7125Z" fill="white"/>
</g>
<path fill-rule="evenodd" clip-rule="evenodd" d="M50.6255 56.7285L268.126 56.7285V61.3318L50.6226 61.3318L50.6255 56.7285Z" fill="#E9E9EB"/>
<rect x="124.275" y="80.8965" width="56.3897" height="9.20665" rx="1.17592" fill="#E9E9EB"/>
<rect x="124.275" y="98.1592" width="56.3897" height="9.20665" rx="1.17592" fill="#E9E9EB"/>
<rect x="124.275" y="115.419" width="78.2551" height="9.20665" rx="1.17592" fill="#E9E9EB"/>
<rect x="124.275" y="132.684" width="25.3178" height="8.05582" rx="1.17592" fill="#E9E9EB"/>
<rect x="50.434" y="36.646" width="103.673" height="10.5943" rx="1.17592" fill="#20263D" fill-opacity="0.3"/>
<rect x="246.429" y="36.646" width="21.1886" height="10.5943" rx="1.17592" fill="#DBB107" fill-opacity="0.5"/>
<g clip-path="url(#clip1_6971_2917)">
<g clip-path="url(#clip2_6971_2917)">
<rect x="50.2358" y="70.7837" width="64.6857" height="77.6228" fill="#92C2D7"/>
<path d="M116.09 137.088C119.062 142.405 120.773 154.668 120.773 154.668H45.856C45.856 154.668 47.5672 142.404 50.5383 137.088C53.5093 131.772 71.6161 126.841 71.6161 126.841C73.2199 129.739 77.9277 132.382 82.7467 132.5C87.976 132.628 93.3362 129.984 95.0034 126.839C95.0034 126.839 113.119 131.77 116.09 137.088Z" fill="white"/>
<path d="M74.5087 122.614V122.732C74.4761 125.239 72.3664 127.123 68.1797 128.386C73.2245 132.051 78.2696 134.983 83.3144 134.983C88.3592 134.983 93.4043 132.051 98.4491 128.386C94.2908 127.122 92.1811 125.234 92.1201 122.724C92.1201 121.771 92.1234 112.489 92.1278 111.537C92.4285 111.579 92.4029 111.552 92.1278 111.476C92.136 108.337 92.1495 112.446 92.1682 108.156C92.1869 103.867 74.2174 100.03 74.4812 111.807C74.4848 113.008 74.492 121.254 74.5087 122.614Z" fill="url(#paint2_linear_6971_2917)"/>
<path d="M74.2706 116.86C81.6566 116.092 88.6107 119.29 88.6107 119.29C88.6107 119.29 87.2321 126.532 74.2706 124.427V116.86Z" fill="#CDCDCD"/>
<path d="M116.09 137.088C119.062 142.405 120.773 154.668 120.773 154.668H45.856C45.856 154.668 47.5672 142.404 50.5383 137.088C53.5093 131.772 71.6161 126.841 71.6161 126.841C71.6161 130.064 77.8622 134.71 82.7467 134.793C89.5573 134.793 95.0034 130.064 95.0034 126.839C95.0034 126.839 113.119 131.77 116.09 137.088Z" fill="#979797"/>
<path d="M68.2149 101.707C69.1997 100.064 70.4281 101.194 70.9192 101.964L71.6052 109.268C71.5812 109.904 71.2003 110.308 70.2071 110.433C68.9655 110.59 68.1454 107.209 67.8593 105.947C67.5732 104.685 66.9839 103.761 68.2149 101.707Z" fill="url(#paint3_linear_6971_2917)"/>
<path d="M97.9461 102.127C96.9769 100.475 95.7379 101.593 95.2395 102.358L94.4844 109.655C94.5024 110.291 94.8794 110.698 95.8714 110.834C97.1114 111.002 97.9636 107.629 98.2616 106.37C98.5595 105.11 99.1576 104.192 97.9461 102.127Z" fill="url(#paint4_linear_6971_2917)"/>
<path d="M96.9675 103.409C96.9675 113.972 89.3205 122.535 83.3521 122.535C76.8241 122.535 69.7366 113.972 69.7366 103.409C69.7366 93.9981 70.4876 83.9419 83.3521 83.9419C96.2165 83.9419 96.9675 93.7805 96.9675 103.409Z" fill="url(#paint5_linear_6971_2917)"/>
</g>
</g>
<g clip-path="url(#clip3_6971_2917)">
<path d="M251.064 139.896V139.943C251.051 140.946 250.207 141.7 248.532 142.205C250.55 143.671 252.568 144.844 254.586 144.844C256.604 144.844 258.622 143.671 260.64 142.205C258.977 141.699 258.133 140.944 258.108 139.94C258.108 139.559 258.11 135.846 258.111 135.465C258.232 135.482 258.221 135.471 258.111 135.441C258.115 134.185 258.12 135.829 258.128 134.113C258.135 132.397 250.947 130.862 251.053 135.573C251.054 136.054 251.057 139.352 251.064 139.896Z" fill="url(#paint6_linear_6971_2917)"/>
<path d="M251.104 138.088C254.059 137.781 256.704 138.87 256.704 138.87C256.704 138.87 256.289 141.902 251.104 141.061V138.088Z" fill="black" fill-opacity="0.1"/>
<path d="M248.192 131.853C248.564 131.183 249.07 131.619 249.277 131.92L249.647 134.832C249.645 135.086 249.498 135.252 249.103 135.316C248.609 135.395 248.236 134.054 248.105 133.553C247.975 133.052 247.727 132.69 248.192 131.853Z" fill="url(#paint7_linear_6971_2917)"/>
<path d="M260.909 132.068C260.595 131.369 260.054 131.76 259.823 132.043L259.208 134.912C259.188 135.166 259.32 135.344 259.709 135.441C260.194 135.561 260.679 134.257 260.852 133.769C261.024 133.281 261.302 132.941 260.909 132.068Z" fill="url(#paint8_linear_6971_2917)"/>
<path d="M267.696 145.684C268.884 147.811 269.568 152.717 269.568 152.717H239.602C239.602 152.717 240.286 147.811 241.475 145.684C242.663 143.558 249.906 141.586 249.906 141.586C250.547 142.745 252.431 143.802 254.358 143.849C256.45 143.9 258.594 142.843 259.261 141.585C259.261 141.585 266.507 143.557 267.696 145.684Z" fill="white"/>
<path d="M267.696 145.684C268.884 147.811 269.568 152.717 269.568 152.717H239.602C239.602 152.717 240.286 147.811 241.475 145.684C242.663 143.558 249.906 141.586 249.906 141.586C249.906 142.875 252.404 144.733 254.358 144.767C257.082 144.767 259.261 142.875 259.261 141.585C259.261 141.585 266.507 143.557 267.696 145.684Z" fill="#C6C6C6"/>
<path d="M260.032 132.278C260.032 136.71 256.931 140.303 254.51 140.303C251.863 140.303 248.989 136.71 248.989 132.278C248.989 128.329 249.077 124.049 254.51 124.109C260.32 124.109 260.032 128.237 260.032 132.278Z" fill="url(#paint9_linear_6971_2917)"/>
</g>
<path d="M158.793 14.8735C158.968 9.30695 143.807 9.84555 137.812 9.32727C115.385 7.38863 114.157 6.3232 101.417 4.38477C15.9677 6.2627 55.0099 17.2947 -20.3498 44.3263C-28.7328 47.335 -35.7468 53.2515 -40.1778 60.9585C-56.5662 89.491 -73.9527 117.33 -97.3214 142.201C-127.623 169.885 -119.53 217.756 -115.146 232.82C-102.67 263.109 -45.3388 218.143 -30.2318 217.005C-21.6734 216.695 -6.91916 217.236 1.05923 214.187C38.8807 194.465 45.4361 199.062 77.9971 199.062C84.249 199.062 106.997 192.331 106.997 192.331C121.942 192.345 137.393 190.844 137.393 186.502C137.393 157.122 71.1113 169.816 52.6119 167.851C32.4198 168.012 25.8817 146.24 18.0247 127.871C11.3749 112.336 13.088 94.5055 22.3545 80.3705C30.1104 68.5442 38.0348 56.7516 48.893 43.3032C75.0537 18.9909 157.316 62.1584 158.793 14.86V14.8735Z" fill="white" fill-opacity="0.5"/>
<path d="M158.793 14.8735C158.968 9.30695 143.807 9.84555 137.812 9.32727C115.385 7.38863 114.157 6.3232 101.417 4.38477C15.9677 6.2627 55.0099 17.2947 -20.3498 44.3263C-28.7328 47.335 -35.7468 53.2515 -40.1778 60.9585C-56.5662 89.491 -73.9527 117.33 -97.3214 142.201C-127.623 169.885 -119.53 217.756 -115.146 232.82C-102.67 263.109 -45.3388 218.143 -30.2318 217.005C-21.6734 216.695 -6.91916 217.236 1.05923 214.187C38.8807 194.465 45.4361 199.062 77.9971 199.062C84.249 199.062 106.997 192.331 106.997 192.331C121.942 192.345 137.393 190.844 137.393 186.502C137.393 157.122 71.1113 169.816 52.6119 167.851C32.4198 168.012 25.8817 146.24 18.0247 127.871C11.3749 112.336 13.088 94.5055 22.3545 80.3705C30.1104 68.5442 38.0348 56.7516 48.893 43.3032C75.0537 18.9909 157.316 62.1584 158.793 14.86V14.8735Z" fill="url(#paint10_linear_6971_2917)" fill-opacity="0.2"/>
<path d="M101.368 5.14453C113.999 7.0694 115.327 8.14595 137.746 10.084C139.264 10.2152 141.369 10.2795 143.607 10.3877C145.865 10.4968 148.288 10.6509 150.512 10.959C152.75 11.2691 154.717 11.727 156.094 12.4111C157.464 13.0919 158.058 13.886 158.034 14.8359C157.853 20.6359 156.437 24.9785 154.104 28.2217C151.771 31.4633 148.476 33.6721 144.421 35.125C136.265 38.0475 125.181 37.8656 113.157 36.9443C101.205 36.0285 88.3437 34.3828 76.8867 34.4941C65.44 34.6055 55.1375 36.4633 48.376 42.7471L48.3369 42.7842L48.3027 42.8262C38.7808 54.6196 31.5105 65.1419 24.6436 75.5146L21.7197 79.9541C12.4634 94.0736 10.6313 111.832 17.0166 127.429L17.3271 128.17C21.2269 137.287 24.8688 147.435 30.0605 155.23C35.2774 163.064 42.1565 168.677 52.5742 168.609C57.2787 169.102 64.9495 168.672 73.7021 168.221C82.5213 167.766 92.5083 167.284 101.91 167.654C111.328 168.026 120.068 169.252 126.432 172.16C129.604 173.61 132.15 175.462 133.901 177.801C135.645 180.13 136.634 182.983 136.634 186.502C136.634 186.795 136.51 187.112 136.16 187.466C135.8 187.829 135.233 188.198 134.437 188.554C132.845 189.264 130.524 189.845 127.68 190.3C122.007 191.207 114.454 191.579 106.998 191.572H106.888L106.782 191.604H106.781L106.778 191.604C106.776 191.605 106.771 191.607 106.766 191.608C106.755 191.612 106.738 191.616 106.717 191.622C106.674 191.635 106.61 191.654 106.526 191.679C106.359 191.728 106.112 191.8 105.796 191.892C105.163 192.075 104.252 192.337 103.139 192.652C100.912 193.282 97.8779 194.122 94.6504 194.962C91.4216 195.802 88.0047 196.64 85.0098 197.268C81.9928 197.9 79.471 198.303 77.9971 198.303C69.8665 198.303 63.3788 198.017 57.5732 197.894C51.7787 197.771 46.6806 197.811 41.4062 198.476C30.8477 199.807 19.669 203.629 0.751953 213.49C-3.11265 214.958 -8.67093 215.581 -14.4062 215.865C-20.1893 216.151 -25.8957 216.088 -30.2588 216.246L-30.2744 216.247L-30.2891 216.248C-32.3098 216.4 -34.956 217.271 -38.001 218.554C-41.0655 219.844 -44.6137 221.586 -48.4619 223.538C-56.1756 227.45 -65.1134 232.213 -73.9736 235.999C-82.8474 239.791 -91.535 242.554 -98.7363 242.528C-102.324 242.516 -105.502 241.81 -108.146 240.231C-110.773 238.662 -112.927 236.197 -114.432 232.56C-116.604 225.073 -119.69 209.461 -118.483 192.296C-117.275 175.095 -111.764 156.425 -96.8096 142.762L-96.7881 142.742L-96.7686 142.721C-73.3372 117.783 -55.9146 89.881 -39.5195 61.3369C-35.1774 53.7845 -28.3052 47.9883 -20.0938 45.041C-1.21754 38.2701 10.5167 32.4926 18.8369 27.5996C22.9959 25.1537 26.2955 22.9327 29.1963 20.9287C32.1041 18.9199 34.5856 17.1485 37.1484 15.5693C47.2915 9.31934 58.696 6.08538 101.368 5.14453Z" stroke="white" stroke-opacity="0.5" stroke-width="1.51812"/>
<path d="M124.822 25.512C124.566 25.512 124.302 25.411 124.107 25.2158C109.115 13.1604 102.236 5.0833 102.235 1.8325C102.357 1.28729 102.896 1.61711 103.443 1.745C110.679 3.36716 125.294 6.15349 130.022 8.78529C131.687 9.71416 133.083 10.9123 133.394 13.1604C133.859 16.5192 128.666 22.7725 126.211 25.2226C126.016 25.4178 125.078 25.5187 124.822 25.5187V25.512Z" fill="black" fill-opacity="0.1"/>
<path d="M-22.7252 108.24C-15.1146 108.498 -8.13738 104.087 -2.39033 99.0958C4.78683 92.861 10.9334 85.4489 15.7225 77.2454C19.2613 71.1902 22.06 64.7107 25.9212 58.8488C32.4189 48.9761 36.7889 38.5148 42.3883 28.1077C53.175 27.8148 66.0301 29.149 79.4088 25.19C87.4116 28.6963 96.094 30.6556 104.832 30.93C110.375 31.1027 116.169 30.5346 120.908 27.6587C125.646 24.7827 129.446 19.1514 128.206 13.7511C126.921 10.6617 110.959 6.71844 102.04 4.50301C94.4163 -1.18171 85.5029 -1.2224 75.9913 -1.42196C66.4798 -1.62151 55.6835 -3.90725 46.4541 -3.6566C37.2246 -3.40603 27.5199 -3.76182 22.3947 0.0336388C-2.15951 18.2344 -8.09928 45.1073 -34.3839 60.7155C-36.8161 69.2522 -38.6689 78.5004 -36.7661 87.1686C-34.8634 95.8367 -29.8788 102.967 -22.7185 108.24L-22.7252 108.24Z" fill="url(#paint11_linear_6971_2917)" fill-opacity="0.5"/>
<path d="M19.6415 44.5759L38.9976 24.5233L44.3909 24.3768C44.3909 24.3768 42.6494 33.1063 36.56 46.4732C30.4122 56.0669 24.0099 68.6977 19.2105 78.2549C14.411 87.812 2.88135 110.346 2.88135 110.346C2.88135 110.346 4.1907 96.5064 7.67849 88.3316C11.1663 80.1567 19.6415 44.5759 19.6415 44.5759Z" fill="url(#paint12_linear_6971_2917)"/>
<path d="M-22.0522 105.218C-14.4416 105.475 -7.46434 101.064 -1.71729 96.0734C5.45987 89.8385 11.6064 82.4264 16.3955 74.223C19.9344 68.1678 22.733 61.6883 26.5942 55.8263C33.092 45.9537 37.462 35.4924 43.0613 25.0853C53.8481 24.7923 66.7032 26.1266 80.0819 22.1676C88.0846 25.6738 96.7671 27.6331 105.505 27.9076C111.049 28.0802 116.842 27.5121 121.581 24.6362C126.319 21.7603 130.119 16.1289 128.879 10.7287C127.594 7.63923 111.632 3.696 102.713 1.48057C95.0894 -4.20415 86.1759 -4.24484 76.6644 -4.44439C67.1528 -4.64395 52.2907 -4.69509 43.0613 -4.44443C33.8319 -4.19386 28.193 -6.78425 23.0678 -2.98879C-1.48646 15.2119 -7.42624 42.0848 -33.7109 57.693C-36.143 66.2298 -37.9959 75.478 -36.0931 84.1461C-34.1903 92.8142 -29.2058 99.9442 -22.0454 105.217L-22.0522 105.218Z" fill="url(#paint13_linear_6971_2917)" fill-opacity="0.5"/>
<path d="M23.5191 -2.37949C25.8751 -4.12423 28.3555 -4.42682 31.4915 -4.28804C34.5761 -4.15148 38.4467 -3.55969 43.0816 -3.68547C52.2949 -3.9357 67.1448 -3.88503 76.6487 -3.68564C86.2166 -3.4849 94.8647 -3.42456 102.259 2.08899L102.382 2.18042L102.53 2.21742C106.995 3.32643 113.192 4.86033 118.432 6.50115C121.054 7.32226 123.413 8.16256 125.185 8.98085C126.072 9.39046 126.789 9.78458 127.313 10.1549C127.812 10.5073 128.056 10.7864 128.153 10.9713C129.24 15.9019 125.758 21.2133 121.187 23.9875C116.638 26.748 111.025 27.3203 105.528 27.1491C96.8872 26.8777 88.3003 24.9394 80.3866 21.4722L80.1325 21.3609L79.8659 21.4394C66.6144 25.3607 53.9503 24.0306 43.0403 24.3269L42.601 24.3389L42.3928 24.7255C36.9209 34.8957 32.7079 44.9208 26.5613 54.4847L25.9602 55.4085C24.0071 58.3737 22.3272 61.4882 20.701 64.6006C19.2737 67.3325 17.8918 70.0552 16.3911 72.7079L15.74 73.8403C10.9929 81.9719 4.8993 89.3192 -2.21535 95.4998C-7.86882 100.409 -14.5701 104.611 -21.7879 104.462C-28.7117 99.3015 -33.5099 92.3753 -35.3521 83.983C-37.191 75.605 -35.4463 66.6213 -33.0602 58.1847C-19.9265 50.3078 -11.8464 39.6426 -4.05538 28.7663C3.80205 17.7974 11.357 6.63727 23.5201 -2.37854L23.5191 -2.37949Z" stroke="url(#paint14_linear_6971_2917)" stroke-opacity="0.5" stroke-width="1.51812"/>
</g>
<rect width="320" height="196" rx="24.948" fill="url(#paint15_linear_6971_2917)" fill-opacity="0.3"/>
<mask id="path-36-inside-1_6971_2917" fill="white">
<path d="M43.76 168.136C39.9629 168.136 36.8848 165.058 36.8848 161.261L36.8848 31.7425C36.8848 27.9454 39.9629 24.8672 43.76 24.8672H276.24C280.037 24.8672 283.115 27.9453 283.115 31.7425V161.261C283.115 165.058 280.037 168.136 276.24 168.136H43.76Z"/>
</mask>
<g clip-path="url(#paint16_diamond_6971_2917_clip_path)" data-figma-skip-parse="true" mask="url(#path-36-inside-1_6971_2917)"><g transform="matrix(0.125795 -0.0614472 0.305031 0.601578 34.2051 157.949)"><rect x="0" y="0" width="2044.64" height="181.512" fill="url(#paint16_diamond_6971_2917)" opacity="1" shape-rendering="crispEdges"/><rect x="0" y="0" width="2044.64" height="181.512" transform="scale(1 -1)" fill="url(#paint16_diamond_6971_2917)" opacity="1" shape-rendering="crispEdges"/><rect x="0" y="0" width="2044.64" height="181.512" transform="scale(-1 1)" fill="url(#paint16_diamond_6971_2917)" opacity="1" shape-rendering="crispEdges"/><rect x="0" y="0" width="2044.64" height="181.512" transform="scale(-1)" fill="url(#paint16_diamond_6971_2917)" opacity="1" shape-rendering="crispEdges"/></g></g><path d="M36.8848 161.261H39.8848L39.8848 31.7425H36.8848H33.8848L33.8848 161.261H36.8848ZM43.76 24.8672V27.8672H276.24V24.8672V21.8672H43.76V24.8672ZM283.115 31.7425H280.115V161.261H283.115H286.115V31.7425L283.115 31.7425ZM276.24 168.136V165.136H43.76V168.136V171.136H276.24V168.136ZM283.115 161.261H280.115C280.115 163.401 278.38 165.136 276.24 165.136V168.136V171.136C281.694 171.136 286.115 166.715 286.115 161.261H283.115ZM276.24 24.8672V27.8672C278.38 27.8672 280.115 29.6022 280.115 31.7425H283.115L286.115 31.7425C286.115 26.2885 281.694 21.8672 276.24 21.8672V24.8672ZM36.8848 31.7425H39.8848C39.8848 29.6022 41.6198 27.8672 43.76 27.8672V24.8672V21.8672C38.3061 21.8672 33.8848 26.2885 33.8848 31.7425H36.8848ZM36.8848 161.261H33.8848C33.8848 166.715 38.3061 171.136 43.76 171.136V168.136V165.136C41.6198 165.136 39.8848 163.401 39.8848 161.261H36.8848Z" data-figma-gradient-fill="{&#34;type&#34;:&#34;GRADIENT_DIAMOND&#34;,&#34;stops&#34;:[{&#34;color&#34;:{&#34;r&#34;:1.0,&#34;g&#34;:1.0,&#34;b&#34;:1.0,&#34;a&#34;:1.0},&#34;position&#34;:0.0},{&#34;color&#34;:{&#34;r&#34;:1.0,&#34;g&#34;:1.0,&#34;b&#34;:1.0,&#34;a&#34;:0.0},&#34;position&#34;:1.0},{&#34;color&#34;:{&#34;r&#34;:1.0,&#34;g&#34;:1.0,&#34;b&#34;:1.0,&#34;a&#34;:0.54000002145767212},&#34;position&#34;:1.0}],&#34;stopsVar&#34;:[],&#34;transform&#34;:{&#34;m00&#34;:251.58995056152344,&#34;m01&#34;:610.06237792968750,&#34;m02&#34;:-396.621093750,&#34;m10&#34;:-122.89430999755859,&#34;m11&#34;:1203.1555175781250,&#34;m12&#34;:-382.18206787109375},&#34;opacity&#34;:1.0,&#34;blendMode&#34;:&#34;NORMAL&#34;,&#34;visible&#34;:true}" mask="url(#path-36-inside-1_6971_2917)"/>
<path d="M36.8848 161.261H39.8848L39.8848 31.7425H36.8848H33.8848L33.8848 161.261H36.8848ZM43.76 24.8672V27.8672H276.24V24.8672V21.8672H43.76V24.8672ZM283.115 31.7425H280.115V161.261H283.115H286.115V31.7425L283.115 31.7425ZM276.24 168.136V165.136H43.76V168.136V171.136H276.24V168.136ZM283.115 161.261H280.115C280.115 163.401 278.38 165.136 276.24 165.136V168.136V171.136C281.694 171.136 286.115 166.715 286.115 161.261H283.115ZM276.24 24.8672V27.8672C278.38 27.8672 280.115 29.6022 280.115 31.7425H283.115L286.115 31.7425C286.115 26.2885 281.694 21.8672 276.24 21.8672V24.8672ZM36.8848 31.7425H39.8848C39.8848 29.6022 41.6198 27.8672 43.76 27.8672V24.8672V21.8672C38.3061 21.8672 33.8848 26.2885 33.8848 31.7425H36.8848ZM36.8848 161.261H33.8848C33.8848 166.715 38.3061 171.136 43.76 171.136V168.136V165.136C41.6198 165.136 39.8848 163.401 39.8848 161.261H36.8848Z" fill="white" fill-opacity="0.35" mask="url(#path-36-inside-1_6971_2917)"/>
<mask id="mask1_6971_2917" style="mask-type:alpha" maskUnits="userSpaceOnUse" x="36" y="24" width="248" height="145">
<rect x="36.8848" y="168.136" width="143.269" height="246.23" rx="10.9131" transform="rotate(-90 36.8848 168.136)" fill="#D9D9D9"/>
</mask>
<g mask="url(#mask1_6971_2917)">
<g filter="url(#filter1_f_6971_2917)">
<rect width="487.269" height="102.828" transform="matrix(0.82308 -0.567925 0.582295 0.812977 -187.967 46.8979)" fill="url(#paint17_linear_6971_2917)" fill-opacity="0.5"/>
</g>
</g>
</g>
<defs>
<filter id="filter0_d_6971_2917" x="14.2233" y="7.22947" width="289.152" height="185.582" filterUnits="userSpaceOnUse" color-interpolation-filters="sRGB">
<feFlood flood-opacity="0" result="BackgroundImageFix"/>
<feColorMatrix in="SourceAlpha" type="matrix" values="0 0 0 0 0 0 0 0 0 0 0 0 0 0 0 0 0 0 127 0" result="hardAlpha"/>
<feOffset dy="3.01202"/>
<feGaussianBlur stdDeviation="11.2951"/>
<feColorMatrix type="matrix" values="0 0 0 0 0 0 0 0 0 0 0 0 0 0 0 0 0 0 0.15 0"/>
<feBlend mode="normal" in2="BackgroundImageFix" result="effect1_dropShadow_6971_2917"/>
<feBlend mode="normal" in="SourceGraphic" in2="effect1_dropShadow_6971_2917" result="shape"/>
</filter>
<clipPath id="paint16_diamond_6971_2917_clip_path"><path d="M36.8848 161.261H39.8848L39.8848 31.7425H36.8848H33.8848L33.8848 161.261H36.8848ZM43.76 24.8672V27.8672H276.24V24.8672V21.8672H43.76V24.8672ZM283.115 31.7425H280.115V161.261H283.115H286.115V31.7425L283.115 31.7425ZM276.24 168.136V165.136H43.76V168.136V171.136H276.24V168.136ZM283.115 161.261H280.115C280.115 163.401 278.38 165.136 276.24 165.136V168.136V171.136C281.694 171.136 286.115 166.715 286.115 161.261H283.115ZM276.24 24.8672V27.8672C278.38 27.8672 280.115 29.6022 280.115 31.7425H283.115L286.115 31.7425C286.115 26.2885 281.694 21.8672 276.24 21.8672V24.8672ZM36.8848 31.7425H39.8848C39.8848 29.6022 41.6198 27.8672 43.76 27.8672V24.8672V21.8672C38.3061 21.8672 33.8848 26.2885 33.8848 31.7425H36.8848ZM36.8848 161.261H33.8848C33.8848 166.715 38.3061 171.136 43.76 171.136V168.136V165.136C41.6198 165.136 39.8848 163.401 39.8848 161.261H36.8848Z" mask="url(#path-36-inside-1_6971_2917)"/></clipPath><filter id="filter1_f_6971_2917" x="-217.967" y="-259.834" width="520.938" height="420.329" filterUnits="userSpaceOnUse" color-interpolation-filters="sRGB">
<feFlood flood-opacity="0" result="BackgroundImageFix"/>
<feBlend mode="normal" in="SourceGraphic" in2="BackgroundImageFix" result="shape"/>
<feGaussianBlur stdDeviation="15" result="effect1_foregroundBlur_6971_2917"/>
</filter>
<linearGradient id="paint0_linear_6971_2917" x1="160" y1="0" x2="160" y2="131.704" gradientUnits="userSpaceOnUse">
<stop stop-color="white"/>
<stop offset="0.611797" stop-color="white" stop-opacity="0.24"/>
<stop offset="1" stop-color="white" stop-opacity="0"/>
</linearGradient>
<linearGradient id="paint1_linear_6971_2917" x1="160" y1="0" x2="160" y2="131.704" gradientUnits="userSpaceOnUse">
<stop stop-color="white"/>
<stop offset="0.611797" stop-color="white" stop-opacity="0.24"/>
<stop offset="1" stop-color="white" stop-opacity="0"/>
</linearGradient>
<linearGradient id="paint2_linear_6971_2917" x1="81.9721" y1="112.523" x2="81.9721" y2="127.099" gradientUnits="userSpaceOnUse">
<stop stop-color="#B1B1B1"/>
<stop offset="1" stop-color="white"/>
</linearGradient>
<linearGradient id="paint3_linear_6971_2917" x1="70.8709" y1="105.4" x2="68.5015" y2="105.838" gradientUnits="userSpaceOnUse">
<stop offset="0.171875" stop-color="#BDBDBD"/>
<stop offset="0.640625" stop-color="#E1E1E1"/>
<stop offset="1" stop-color="#DDDDDD"/>
</linearGradient>
<linearGradient id="paint4_linear_6971_2917" x1="95.2553" y1="105.794" x2="97.6204" y2="106.255" gradientUnits="userSpaceOnUse">
<stop offset="0.0416667" stop-color="#B5B5B5"/>
<stop offset="0.362488" stop-color="#E2E2E2"/>
<stop offset="1" stop-color="white"/>
</linearGradient>
<linearGradient id="paint5_linear_6971_2917" x1="71.4102" y1="103.058" x2="90.6428" y2="103.131" gradientUnits="userSpaceOnUse">
<stop stop-color="#E0E0E0"/>
<stop offset="1" stop-color="white"/>
</linearGradient>
<linearGradient id="paint6_linear_6971_2917" x1="254.049" y1="135.86" x2="254.049" y2="141.69" gradientUnits="userSpaceOnUse">
<stop stop-color="#D6D4D4"/>
<stop offset="1" stop-color="#E4E4E4"/>
</linearGradient>
<linearGradient id="paint7_linear_6971_2917" x1="248.562" y1="132.585" x2="248.847" y2="134.368" gradientUnits="userSpaceOnUse">
<stop stop-color="#D7D7D7"/>
<stop offset="1" stop-color="#CDCDCD"/>
</linearGradient>
<linearGradient id="paint8_linear_6971_2917" x1="260.479" y1="132.766" x2="260.044" y2="134.518" gradientUnits="userSpaceOnUse">
<stop stop-color="#D9D9D9"/>
<stop offset="1" stop-color="#CDCDCD"/>
</linearGradient>
<linearGradient id="paint9_linear_6971_2917" x1="248.699" y1="134.264" x2="255.131" y2="134.264" gradientUnits="userSpaceOnUse">
<stop stop-color="#CECECE"/>
<stop offset="1" stop-color="#E7E7E7"/>
</linearGradient>
<linearGradient id="paint10_linear_6971_2917" x1="-93.2277" y1="243.589" x2="-10.1577" y2="123.625" gradientUnits="userSpaceOnUse">
<stop/>
<stop offset="1" stop-opacity="0"/>
</linearGradient>
<linearGradient id="paint11_linear_6971_2917" x1="37.9516" y1="26.5844" x2="2.23821" y2="66.6909" gradientUnits="userSpaceOnUse">
<stop stop-color="#DCDCDC"/>
<stop offset="1" stop-color="#DCDCDC" stop-opacity="0"/>
</linearGradient>
<linearGradient id="paint12_linear_6971_2917" x1="29.5998" y1="47.782" x2="8.22784" y2="101.505" gradientUnits="userSpaceOnUse">
<stop stop-color="#D9D9D9"/>
<stop offset="1" stop-color="#D9D9D9" stop-opacity="0"/>
</linearGradient>
<linearGradient id="paint13_linear_6971_2917" x1="13.4006" y1="46.2259" x2="-11.877" y2="86.6741" gradientUnits="userSpaceOnUse">
<stop stop-color="white"/>
<stop offset="1" stop-color="white" stop-opacity="0"/>
</linearGradient>
<linearGradient id="paint14_linear_6971_2917" x1="31.2554" y1="29.2374" x2="-4.59489" y2="78.7704" gradientUnits="userSpaceOnUse">
<stop stop-color="white"/>
<stop offset="1" stop-color="white" stop-opacity="0"/>
</linearGradient>
<linearGradient id="paint15_linear_6971_2917" x1="301.867" y1="190.815" x2="279.493" y2="137.467" gradientUnits="userSpaceOnUse">
<stop stop-color="#686868"/>
<stop offset="1" stop-color="#686868" stop-opacity="0"/>
</linearGradient>
<linearGradient id="paint16_diamond_6971_2917" x1="0" y1="0" x2="500" y2="500" gradientUnits="userSpaceOnUse">
<stop stop-color="white"/>
<stop offset="1" stop-color="white" stop-opacity="0"/>
<stop offset="1" stop-color="white" stop-opacity="0.54"/>
</linearGradient>
<linearGradient id="paint17_linear_6971_2917" x1="243.634" y1="0" x2="243.634" y2="102.828" gradientUnits="userSpaceOnUse">
<stop stop-color="white" stop-opacity="0"/>
<stop offset="0.385417" stop-color="white"/>
<stop offset="0.567708" stop-color="white"/>
<stop offset="1" stop-color="white" stop-opacity="0"/>
</linearGradient>
<clipPath id="clip0_6971_2917">
<rect width="422.879" height="270.292" fill="white" transform="translate(-129.595 -11.9438)"/>
</clipPath>
<clipPath id="clip1_6971_2917">
<rect x="50.434" y="70.6992" width="64.3225" height="77.9437" rx="3.45246" fill="white"/>
</clipPath>
<clipPath id="clip2_6971_2917">
<rect width="82.4085" height="82.4084" fill="white" transform="translate(42.1096 70.6987)"/>
</clipPath>
<clipPath id="clip3_6971_2917">
<rect width="32.9634" height="32.9635" fill="white" transform="translate(238.104 119.13)"/>
</clipPath>
</defs>
</svg>
