<svg width="321" height="196" viewBox="0 0 321 196" fill="none" xmlns="http://www.w3.org/2000/svg">
<mask id="mask0_6971_2685" style="mask-type:alpha" maskUnits="userSpaceOnUse" x="1" y="0" width="320" height="196">
<rect x="1" width="320" height="196" rx="24.948" fill="#686868"/>
<rect x="1" width="320" height="196" rx="24.948" fill="url(#paint0_linear_6971_2685)" fill-opacity="0.25"/>
</mask>
<g mask="url(#mask0_6971_2685)">
<rect x="1" width="320" height="196" rx="24.948" fill="#686868"/>
<rect x="1" width="320" height="196" rx="24.948" fill="url(#paint1_linear_6971_2685)" fill-opacity="0.25"/>
<g clip-path="url(#clip0_6971_2685)">
<rect x="37.2683" y="24.8029" width="246.242" height="142.672" rx="8.70246" stroke="#CBCBCB" stroke-width="2.27021"/>
<g filter="url(#filter0_d_6971_2685)">
<path d="M38.4042 32.8429C38.4042 29.0294 41.4956 25.938 45.3091 25.938L275.471 25.938C279.284 25.938 282.376 29.0294 282.376 32.8429V159.434C282.376 163.248 279.284 166.339 275.471 166.339L45.3091 166.339C41.4956 166.339 38.4042 163.248 38.4042 159.434L38.4042 32.8429Z" fill="white"/>
</g>
<path fill-rule="evenodd" clip-rule="evenodd" d="M52.2161 55.8589L269.716 55.8589V60.4622L52.2131 60.4622L52.2161 55.8589Z" fill="#E9E9EB"/>
<rect x="125.866" y="80.0269" width="56.3897" height="9.20665" rx="1.17592" fill="#E9E9EB"/>
<rect x="125.866" y="97.2896" width="56.3897" height="9.20665" rx="1.17592" fill="#E9E9EB"/>
<rect x="125.866" y="114.55" width="78.2551" height="9.20665" rx="1.17592" fill="#E9E9EB"/>
<rect x="125.866" y="131.814" width="25.3178" height="8.05582" rx="1.17592" fill="#E9E9EB"/>
<rect x="52.0247" y="35.7764" width="103.673" height="10.5943" rx="1.17592" fill="#20263D" fill-opacity="0.3"/>
<rect x="248.02" y="35.7764" width="21.1886" height="10.5943" rx="1.17592" fill="#DBB107" fill-opacity="0.5"/>
<g clip-path="url(#clip1_6971_2685)">
<g clip-path="url(#clip2_6971_2685)">
<rect x="51.8265" y="69.9141" width="64.6857" height="77.6228" fill="#92C2D7"/>
<path d="M117.681 136.218C120.653 141.535 122.363 153.798 122.363 153.798H47.4467C47.4467 153.798 49.1579 141.534 52.129 136.218C55.1 130.902 73.2068 125.972 73.2068 125.972C74.8106 128.869 79.5184 131.512 84.3374 131.63C89.5667 131.758 94.9269 129.115 96.5941 125.97C96.5941 125.97 114.709 130.901 117.681 136.218Z" fill="white"/>
<path d="M76.0994 121.744V121.863C76.0668 124.369 73.9571 126.254 69.7704 127.516C74.8152 131.181 79.8603 134.113 84.9051 134.113C89.9499 134.113 94.995 131.181 100.04 127.516C95.8815 126.252 93.7718 124.365 93.7107 121.854C93.7107 120.902 93.7141 111.62 93.7185 110.667C94.0192 110.709 93.9936 110.682 93.7185 110.606C93.7267 107.467 93.7402 111.576 93.7589 107.287C93.7776 102.997 75.8081 99.1601 76.0719 110.938C76.0755 112.138 76.0827 120.384 76.0994 121.744Z" fill="url(#paint2_linear_6971_2685)"/>
<path d="M75.8613 115.99C83.2473 115.223 90.2014 118.421 90.2014 118.421C90.2014 118.421 88.8228 125.662 75.8613 123.557V115.99Z" fill="#CDCDCD"/>
<path d="M117.681 136.218C120.653 141.535 122.363 153.798 122.363 153.798H47.4467C47.4467 153.798 49.1579 141.534 52.129 136.218C55.1 130.902 73.2068 125.972 73.2068 125.972C73.2068 129.194 79.4529 133.841 84.3374 133.924C91.148 133.924 96.5941 129.194 96.5941 125.97C96.5941 125.97 114.709 130.901 117.681 136.218Z" fill="#979797"/>
<path d="M69.8056 100.838C70.7904 99.1948 72.0188 100.325 72.5099 101.095L73.1959 108.399C73.1719 109.034 72.791 109.438 71.7978 109.564C70.5562 109.721 69.7361 106.34 69.45 105.077C69.1639 103.815 68.5746 102.891 69.8056 100.838Z" fill="url(#paint3_linear_6971_2685)"/>
<path d="M99.5368 101.257C98.5676 99.605 97.3286 100.723 96.8302 101.488L96.0751 108.786C96.0931 109.421 96.4701 109.829 97.4621 109.964C98.7021 110.133 99.5543 106.759 99.8523 105.5C100.15 104.24 100.748 103.322 99.5368 101.257Z" fill="url(#paint4_linear_6971_2685)"/>
<path d="M98.5582 102.54C98.5582 113.103 90.9112 121.666 84.9428 121.666C78.4148 121.666 71.3273 113.103 71.3273 102.54C71.3273 93.1285 72.0783 83.0723 84.9428 83.0723C97.8072 83.0723 98.5582 92.9109 98.5582 102.54Z" fill="url(#paint5_linear_6971_2685)"/>
</g>
</g>
<g clip-path="url(#clip3_6971_2685)">
<path d="M252.654 139.026V139.074C252.641 140.076 251.797 140.83 250.123 141.335C252.141 142.801 254.159 143.974 256.177 143.974C258.195 143.974 260.213 142.801 262.231 141.335C260.567 140.83 259.723 140.075 259.699 139.07C259.699 138.689 259.7 134.977 259.702 134.595C259.822 134.612 259.812 134.602 259.702 134.571C259.705 133.316 259.711 134.959 259.718 133.243C259.726 131.528 252.538 129.993 252.643 134.704C252.645 135.184 252.648 138.482 252.654 139.026Z" fill="url(#paint6_linear_6971_2685)"/>
<path d="M252.695 137.219C255.649 136.912 258.295 138 258.295 138C258.295 138 257.88 141.033 252.695 140.191V137.219Z" fill="black" fill-opacity="0.1"/>
<path d="M249.783 130.983C250.155 130.314 250.661 130.749 250.867 131.051L251.237 133.962C251.236 134.216 251.089 134.383 250.694 134.446C250.199 134.525 249.827 133.184 249.696 132.683C249.565 132.182 249.318 131.821 249.783 130.983Z" fill="url(#paint7_linear_6971_2685)"/>
<path d="M262.5 131.198C262.185 130.499 261.645 130.891 261.413 131.174L260.798 134.043C260.778 134.296 260.911 134.475 261.299 134.571C261.785 134.692 262.269 133.387 262.442 132.899C262.615 132.411 262.892 132.072 262.5 131.198Z" fill="url(#paint8_linear_6971_2685)"/>
<path d="M269.286 144.815C270.475 146.942 271.159 151.847 271.159 151.847H241.193C241.193 151.847 241.877 146.941 243.065 144.815C244.254 142.688 251.497 140.716 251.497 140.716C252.138 141.875 254.021 142.932 255.949 142.979C258.041 143.031 260.185 141.973 260.851 140.715C260.851 140.715 268.098 142.688 269.286 144.815Z" fill="white"/>
<path d="M269.286 144.815C270.475 146.942 271.159 151.847 271.159 151.847H241.193C241.193 151.847 241.877 146.941 243.065 144.815C244.254 142.688 251.497 140.716 251.497 140.716C251.497 142.005 253.995 143.864 255.949 143.897C258.673 143.897 260.851 142.005 260.851 140.715C260.851 140.715 268.098 142.688 269.286 144.815Z" fill="#C6C6C6"/>
<path d="M261.623 131.408C261.623 135.84 258.522 139.434 256.101 139.434C253.454 139.434 250.579 135.84 250.579 131.408C250.579 127.459 250.668 123.179 256.101 123.239C261.911 123.239 261.623 127.368 261.623 131.408Z" fill="url(#paint9_linear_6971_2685)"/>
</g>
<path d="M160.383 14.0038C160.559 8.43732 145.398 8.97592 139.402 8.45764C116.976 6.519 115.747 5.45357 103.007 3.51514C17.5584 5.39307 56.6006 16.4251 -18.7591 43.4566C-27.1421 46.4654 -34.1561 52.3819 -38.5871 60.0888C-54.9755 88.6213 -72.362 116.461 -95.7307 141.331C-126.032 169.016 -117.939 216.886 -113.556 231.95C-101.079 262.24 -43.7481 217.273 -28.6411 216.135C-20.0827 215.826 -5.32846 216.366 2.64993 213.317C40.4714 193.595 47.0268 198.192 79.5878 198.192C85.8397 198.192 108.588 191.462 108.588 191.462C123.533 191.475 138.984 189.974 138.984 185.633C138.984 156.252 72.702 168.947 54.2026 166.981C34.0105 167.143 27.4724 145.37 19.6154 127.001C12.9656 111.466 14.6787 93.6359 23.9452 79.5009C31.701 67.6746 39.6255 55.882 50.4837 42.4335C76.6444 18.1213 158.906 61.2888 160.383 13.9904V14.0038Z" fill="white" fill-opacity="0.5"/>
<path d="M160.383 14.0038C160.559 8.43732 145.398 8.97592 139.402 8.45764C116.976 6.519 115.747 5.45357 103.007 3.51514C17.5584 5.39307 56.6006 16.4251 -18.7591 43.4566C-27.1421 46.4654 -34.1561 52.3819 -38.5871 60.0888C-54.9755 88.6213 -72.362 116.461 -95.7307 141.331C-126.032 169.016 -117.939 216.886 -113.556 231.95C-101.079 262.24 -43.7481 217.273 -28.6411 216.135C-20.0827 215.826 -5.32846 216.366 2.64993 213.317C40.4714 193.595 47.0268 198.192 79.5878 198.192C85.8397 198.192 108.588 191.462 108.588 191.462C123.533 191.475 138.984 189.974 138.984 185.633C138.984 156.252 72.702 168.947 54.2026 166.981C34.0105 167.143 27.4724 145.37 19.6154 127.001C12.9656 111.466 14.6787 93.6359 23.9452 79.5009C31.701 67.6746 39.6255 55.882 50.4837 42.4335C76.6444 18.1213 158.906 61.2888 160.383 13.9904V14.0038Z" fill="url(#paint10_linear_6971_2685)" fill-opacity="0.2"/>
<path d="M102.959 4.2749C115.59 6.19978 116.917 7.27632 139.337 9.21436C140.855 9.34557 142.96 9.40983 145.198 9.51807C147.455 9.62722 149.879 9.7813 152.102 10.0894C154.341 10.3995 156.307 10.8574 157.684 11.5415C159.055 12.2222 159.649 13.0163 159.625 13.9663C159.444 19.7663 158.028 24.1089 155.694 27.3521C153.362 30.5937 150.066 32.8025 146.012 34.2554C137.855 37.1779 126.771 36.996 114.748 36.0747C102.796 35.1589 89.9344 33.5131 78.4774 33.6245C67.0307 33.7358 56.7282 35.5937 49.9667 41.8774L49.9276 41.9146L49.8934 41.9565C40.3715 53.75 33.1012 64.2723 26.2343 74.645L23.3104 79.0845C14.0541 93.2039 12.222 110.962 18.6073 126.559L18.9178 127.3C22.8176 136.418 26.4595 146.565 31.6512 154.361C36.8681 162.194 43.7472 167.807 54.1649 167.74C58.8694 168.232 66.5402 167.802 75.2928 167.351C84.112 166.896 94.099 166.414 103.501 166.785C112.919 167.156 121.659 168.382 128.022 171.291C131.195 172.741 133.741 174.592 135.492 176.931C137.236 179.26 138.224 182.113 138.224 185.632C138.224 185.926 138.101 186.242 137.751 186.596C137.391 186.96 136.823 187.329 136.027 187.684C134.436 188.395 132.114 188.975 129.27 189.43C123.597 190.337 116.045 190.709 108.589 190.703H108.478L108.373 190.734H108.372L108.369 190.735C108.366 190.736 108.362 190.737 108.356 190.739C108.346 190.742 108.329 190.746 108.307 190.752C108.265 190.765 108.201 190.785 108.117 190.809C107.95 190.858 107.703 190.93 107.387 191.022C106.754 191.206 105.843 191.468 104.729 191.783C102.502 192.413 99.4686 193.253 96.2411 194.092C93.0123 194.932 89.5954 195.77 86.6005 196.398C83.5835 197.03 81.0617 197.433 79.5878 197.433C71.4572 197.433 64.9695 197.147 59.1639 197.024C53.3694 196.901 48.2713 196.941 42.9969 197.606C32.4384 198.937 21.2597 202.76 2.34265 212.621C-1.52195 214.088 -7.08023 214.712 -12.8156 214.996C-18.5986 215.282 -24.305 215.219 -28.6681 215.376L-28.6837 215.377L-28.6984 215.378C-30.7191 215.531 -33.3653 216.402 -36.4103 217.684C-39.4748 218.975 -43.023 220.717 -46.8712 222.668C-54.5849 226.581 -63.5227 231.343 -72.3829 235.129C-81.2567 238.921 -89.9443 241.684 -97.1456 241.659C-100.733 241.646 -103.912 240.94 -106.555 239.362C-109.182 237.793 -111.337 235.327 -112.841 231.69C-115.013 224.203 -118.099 208.591 -116.893 191.426C-115.684 174.225 -110.174 155.555 -95.2189 141.892L-95.1974 141.873L-95.1779 141.851C-71.7465 116.913 -54.3239 89.0113 -37.9288 60.4673C-33.5867 52.9148 -26.7145 47.1186 -18.5031 44.1714C0.37316 37.4005 12.1074 31.623 20.4276 26.73C24.5866 24.2841 27.8862 22.0631 30.787 20.0591C33.6947 18.0503 36.1763 16.2789 38.7391 14.6997C48.8822 8.44971 60.2867 5.21576 102.959 4.2749Z" stroke="white" stroke-opacity="0.5" stroke-width="1.51812"/>
<path d="M126.412 24.6424C126.156 24.6424 125.893 24.5414 125.698 24.3462C110.705 12.2908 103.826 4.21367 103.826 0.962867C103.948 0.417659 104.487 0.747478 105.033 0.875366C112.27 2.49753 126.885 5.28386 131.612 7.91566C133.278 8.84453 134.674 10.0427 134.984 12.2908C135.45 15.6495 130.257 21.9029 127.802 24.3529C127.606 24.5481 126.669 24.6491 126.412 24.6491V24.6424Z" fill="black" fill-opacity="0.1"/>
<path d="M-21.1344 107.37C-13.5238 107.628 -6.54656 103.217 -0.799513 98.2262C6.37765 91.9914 12.5242 84.5793 17.3133 76.3758C20.8521 70.3206 23.6508 63.8411 27.512 57.9791C34.0097 48.1065 38.3797 37.6452 43.9791 27.2381C54.7658 26.9451 67.6209 28.2794 80.9996 24.3204C89.0024 27.8267 97.6848 29.786 106.423 30.0604C111.966 30.233 117.76 29.665 122.498 26.789C127.237 23.9131 131.037 18.2817 129.797 12.8815C128.512 9.79205 112.55 5.84881 103.631 3.63338C96.0072 -2.05134 87.0937 -2.09203 77.5821 -2.29159C68.0706 -2.49114 57.2743 -4.77688 48.0449 -4.52623C38.8155 -4.27566 29.1108 -4.63144 23.9856 -0.83599C-0.568688 17.3648 -6.50846 44.2376 -32.7931 59.8459C-35.2253 68.3826 -37.0781 77.6308 -35.1753 86.2989C-33.2725 94.9671 -28.288 102.097 -21.1276 107.37L-21.1344 107.37Z" fill="url(#paint11_linear_6971_2685)" fill-opacity="0.5"/>
<path d="M21.2322 43.7063L40.5883 23.6536L45.9816 23.5072C45.9816 23.5072 44.2401 32.2366 38.1507 45.6035C32.0029 55.1973 25.6006 67.8281 20.8012 77.3852C16.0017 86.9424 4.47205 109.476 4.47205 109.476C4.47205 109.476 5.78139 95.6368 9.26919 87.4619C12.757 79.2871 21.2322 43.7063 21.2322 43.7063Z" fill="url(#paint12_linear_6971_2685)"/>
<path d="M-20.461 104.348C-12.8504 104.606 -5.87315 100.195 -0.126101 95.2042C7.05106 88.9694 13.1976 81.5573 17.9867 73.3538C21.5256 67.2986 24.3242 60.8191 28.1854 54.9572C34.6832 45.0845 39.0531 34.6232 44.6525 24.2161C55.4392 23.9232 68.2944 25.2575 81.6731 21.2985C89.6758 24.8047 98.3582 26.764 107.096 27.0384C112.64 27.2111 118.433 26.643 123.172 23.7671C127.911 20.8911 131.711 15.2598 130.47 9.85956C129.185 6.77009 113.223 2.82686 104.304 0.61143C96.6806 -5.07329 87.7671 -5.11398 78.2555 -5.31353C68.744 -5.51309 53.8819 -5.56423 44.6525 -5.31357C35.4231 -5.063 29.7842 -7.65339 24.659 -3.85794C0.104725 14.3428 -5.83505 41.2157 -32.1197 56.8239C-34.5519 65.3606 -36.4047 74.6088 -34.5019 83.277C-32.5991 91.9451 -27.6146 99.0751 -20.4542 104.348L-20.461 104.348Z" fill="url(#paint13_linear_6971_2685)" fill-opacity="0.5"/>
<path d="M25.1102 -3.24863C27.4663 -4.99337 29.9467 -5.29596 33.0827 -5.15718C36.1673 -5.02062 40.0379 -4.42883 44.6727 -4.55462C53.8861 -4.80484 68.736 -4.75417 78.2399 -4.55478C87.8078 -4.35404 96.4559 -4.29371 103.85 1.21985L103.973 1.31128L104.121 1.34827C108.586 2.45729 114.783 3.99119 120.023 5.63201C122.646 6.45312 125.004 7.29342 126.776 8.11171C127.663 8.52132 128.381 8.91544 128.904 9.2858C129.403 9.63816 129.648 9.91725 129.744 10.1022C130.831 15.0328 127.349 20.3441 122.778 23.1183C118.23 25.8789 112.616 26.4512 107.119 26.28C98.4784 26.0085 89.8915 24.0703 81.9777 20.603L81.7236 20.4917L81.4571 20.5703C68.2056 24.4915 55.5415 23.1615 44.6315 23.4578L44.1922 23.4697L43.9839 23.8564C38.5121 34.0265 34.2991 44.0517 28.1524 53.6155L27.5514 54.5394C25.5983 57.5045 23.9184 60.619 22.2922 63.7315C20.8648 66.4633 19.483 69.1861 17.9823 71.8388L17.3312 72.9711C12.5841 81.1027 6.49049 88.4501 -0.624162 94.6306C-6.27764 99.5401 -12.979 103.742 -20.1967 103.593C-27.1205 98.4324 -31.9187 91.5061 -33.7609 83.1139C-35.5999 74.7359 -33.8552 65.7522 -31.4691 57.3156C-18.3353 49.4386 -10.2552 38.7735 -2.46419 27.8972C5.39324 16.9282 12.9482 5.76813 25.1112 -3.24768L25.1102 -3.24863Z" stroke="url(#paint14_linear_6971_2685)" stroke-opacity="0.5" stroke-width="1.51812"/>
</g>
<rect x="1" width="320" height="196" rx="24.948" fill="url(#paint15_linear_6971_2685)" fill-opacity="0.3"/>
<mask id="path-36-inside-1_6971_2685" fill="white">
<path d="M44.76 168.136C40.9629 168.136 37.8848 165.058 37.8848 161.261L37.8848 31.7425C37.8848 27.9454 40.9629 24.8672 44.76 24.8672H277.24C281.037 24.8672 284.115 27.9453 284.115 31.7425V161.261C284.115 165.058 281.037 168.136 277.24 168.136H44.76Z"/>
</mask>
<g clip-path="url(#paint16_diamond_6971_2685_clip_path)" data-figma-skip-parse="true" mask="url(#path-36-inside-1_6971_2685)"><g transform="matrix(0.125795 -0.0614472 0.305031 0.601578 35.2051 157.949)"><rect x="0" y="0" width="2044.64" height="181.512" fill="url(#paint16_diamond_6971_2685)" opacity="1" shape-rendering="crispEdges"/><rect x="0" y="0" width="2044.64" height="181.512" transform="scale(1 -1)" fill="url(#paint16_diamond_6971_2685)" opacity="1" shape-rendering="crispEdges"/><rect x="0" y="0" width="2044.64" height="181.512" transform="scale(-1 1)" fill="url(#paint16_diamond_6971_2685)" opacity="1" shape-rendering="crispEdges"/><rect x="0" y="0" width="2044.64" height="181.512" transform="scale(-1)" fill="url(#paint16_diamond_6971_2685)" opacity="1" shape-rendering="crispEdges"/></g></g><path d="M37.8848 161.261H40.8848L40.8848 31.7425H37.8848H34.8848L34.8848 161.261H37.8848ZM44.76 24.8672V27.8672H277.24V24.8672V21.8672H44.76V24.8672ZM284.115 31.7425H281.115V161.261H284.115H287.115V31.7425L284.115 31.7425ZM277.24 168.136V165.136H44.76V168.136V171.136H277.24V168.136ZM284.115 161.261H281.115C281.115 163.401 279.38 165.136 277.24 165.136V168.136V171.136C282.694 171.136 287.115 166.715 287.115 161.261H284.115ZM277.24 24.8672V27.8672C279.38 27.8672 281.115 29.6022 281.115 31.7425H284.115L287.115 31.7425C287.115 26.2885 282.694 21.8672 277.24 21.8672V24.8672ZM37.8848 31.7425H40.8848C40.8848 29.6022 42.6198 27.8672 44.76 27.8672V24.8672V21.8672C39.3061 21.8672 34.8848 26.2885 34.8848 31.7425H37.8848ZM37.8848 161.261H34.8848C34.8848 166.715 39.3061 171.136 44.76 171.136V168.136V165.136C42.6198 165.136 40.8848 163.401 40.8848 161.261H37.8848Z" data-figma-gradient-fill="{&#34;type&#34;:&#34;GRADIENT_DIAMOND&#34;,&#34;stops&#34;:[{&#34;color&#34;:{&#34;r&#34;:1.0,&#34;g&#34;:1.0,&#34;b&#34;:1.0,&#34;a&#34;:1.0},&#34;position&#34;:0.0},{&#34;color&#34;:{&#34;r&#34;:1.0,&#34;g&#34;:1.0,&#34;b&#34;:1.0,&#34;a&#34;:0.0},&#34;position&#34;:1.0},{&#34;color&#34;:{&#34;r&#34;:1.0,&#34;g&#34;:1.0,&#34;b&#34;:1.0,&#34;a&#34;:0.54000002145767212},&#34;position&#34;:1.0}],&#34;stopsVar&#34;:[],&#34;transform&#34;:{&#34;m00&#34;:251.58995056152344,&#34;m01&#34;:610.06237792968750,&#34;m02&#34;:-395.621093750,&#34;m10&#34;:-122.89430999755859,&#34;m11&#34;:1203.1555175781250,&#34;m12&#34;:-382.18206787109375},&#34;opacity&#34;:1.0,&#34;blendMode&#34;:&#34;NORMAL&#34;,&#34;visible&#34;:true}" mask="url(#path-36-inside-1_6971_2685)"/>
<path d="M37.8848 161.261H40.8848L40.8848 31.7425H37.8848H34.8848L34.8848 161.261H37.8848ZM44.76 24.8672V27.8672H277.24V24.8672V21.8672H44.76V24.8672ZM284.115 31.7425H281.115V161.261H284.115H287.115V31.7425L284.115 31.7425ZM277.24 168.136V165.136H44.76V168.136V171.136H277.24V168.136ZM284.115 161.261H281.115C281.115 163.401 279.38 165.136 277.24 165.136V168.136V171.136C282.694 171.136 287.115 166.715 287.115 161.261H284.115ZM277.24 24.8672V27.8672C279.38 27.8672 281.115 29.6022 281.115 31.7425H284.115L287.115 31.7425C287.115 26.2885 282.694 21.8672 277.24 21.8672V24.8672ZM37.8848 31.7425H40.8848C40.8848 29.6022 42.6198 27.8672 44.76 27.8672V24.8672V21.8672C39.3061 21.8672 34.8848 26.2885 34.8848 31.7425H37.8848ZM37.8848 161.261H34.8848C34.8848 166.715 39.3061 171.136 44.76 171.136V168.136V165.136C42.6198 165.136 40.8848 163.401 40.8848 161.261H37.8848Z" fill="white" fill-opacity="0.35" mask="url(#path-36-inside-1_6971_2685)"/>
<mask id="mask1_6971_2685" style="mask-type:alpha" maskUnits="userSpaceOnUse" x="37" y="24" width="248" height="145">
<rect x="37.8848" y="168.136" width="143.269" height="246.23" rx="10.9131" transform="rotate(-90 37.8848 168.136)" fill="#D9D9D9"/>
</mask>
<g mask="url(#mask1_6971_2685)">
<g filter="url(#filter1_f_6971_2685)">
<rect width="487.269" height="102.828" transform="matrix(0.82308 -0.567925 0.582295 0.812977 -186.966 46.8984)" fill="url(#paint17_linear_6971_2685)" fill-opacity="0.5"/>
</g>
</g>
</g>
<defs>
<filter id="filter0_d_6971_2685" x="15.814" y="6.35984" width="289.152" height="185.582" filterUnits="userSpaceOnUse" color-interpolation-filters="sRGB">
<feFlood flood-opacity="0" result="BackgroundImageFix"/>
<feColorMatrix in="SourceAlpha" type="matrix" values="0 0 0 0 0 0 0 0 0 0 0 0 0 0 0 0 0 0 127 0" result="hardAlpha"/>
<feOffset dy="3.01202"/>
<feGaussianBlur stdDeviation="11.2951"/>
<feColorMatrix type="matrix" values="0 0 0 0 0 0 0 0 0 0 0 0 0 0 0 0 0 0 0.15 0"/>
<feBlend mode="normal" in2="BackgroundImageFix" result="effect1_dropShadow_6971_2685"/>
<feBlend mode="normal" in="SourceGraphic" in2="effect1_dropShadow_6971_2685" result="shape"/>
</filter>
<clipPath id="paint16_diamond_6971_2685_clip_path"><path d="M37.8848 161.261H40.8848L40.8848 31.7425H37.8848H34.8848L34.8848 161.261H37.8848ZM44.76 24.8672V27.8672H277.24V24.8672V21.8672H44.76V24.8672ZM284.115 31.7425H281.115V161.261H284.115H287.115V31.7425L284.115 31.7425ZM277.24 168.136V165.136H44.76V168.136V171.136H277.24V168.136ZM284.115 161.261H281.115C281.115 163.401 279.38 165.136 277.24 165.136V168.136V171.136C282.694 171.136 287.115 166.715 287.115 161.261H284.115ZM277.24 24.8672V27.8672C279.38 27.8672 281.115 29.6022 281.115 31.7425H284.115L287.115 31.7425C287.115 26.2885 282.694 21.8672 277.24 21.8672V24.8672ZM37.8848 31.7425H40.8848C40.8848 29.6022 42.6198 27.8672 44.76 27.8672V24.8672V21.8672C39.3061 21.8672 34.8848 26.2885 34.8848 31.7425H37.8848ZM37.8848 161.261H34.8848C34.8848 166.715 39.3061 171.136 44.76 171.136V168.136V165.136C42.6198 165.136 40.8848 163.401 40.8848 161.261H37.8848Z" mask="url(#path-36-inside-1_6971_2685)"/></clipPath><filter id="filter1_f_6971_2685" x="-216.966" y="-259.833" width="520.938" height="420.329" filterUnits="userSpaceOnUse" color-interpolation-filters="sRGB">
<feFlood flood-opacity="0" result="BackgroundImageFix"/>
<feBlend mode="normal" in="SourceGraphic" in2="BackgroundImageFix" result="shape"/>
<feGaussianBlur stdDeviation="15" result="effect1_foregroundBlur_6971_2685"/>
</filter>
<linearGradient id="paint0_linear_6971_2685" x1="161" y1="0" x2="161" y2="131.704" gradientUnits="userSpaceOnUse">
<stop stop-color="white"/>
<stop offset="0.611797" stop-color="white" stop-opacity="0.24"/>
<stop offset="1" stop-color="white" stop-opacity="0"/>
</linearGradient>
<linearGradient id="paint1_linear_6971_2685" x1="161" y1="0" x2="161" y2="131.704" gradientUnits="userSpaceOnUse">
<stop stop-color="white"/>
<stop offset="0.611797" stop-color="white" stop-opacity="0.24"/>
<stop offset="1" stop-color="white" stop-opacity="0"/>
</linearGradient>
<linearGradient id="paint2_linear_6971_2685" x1="83.5628" y1="111.654" x2="83.5628" y2="126.23" gradientUnits="userSpaceOnUse">
<stop stop-color="#B1B1B1"/>
<stop offset="1" stop-color="white"/>
</linearGradient>
<linearGradient id="paint3_linear_6971_2685" x1="72.4615" y1="104.531" x2="70.0922" y2="104.969" gradientUnits="userSpaceOnUse">
<stop offset="0.171875" stop-color="#BDBDBD"/>
<stop offset="0.640625" stop-color="#E1E1E1"/>
<stop offset="1" stop-color="#DDDDDD"/>
</linearGradient>
<linearGradient id="paint4_linear_6971_2685" x1="96.846" y1="104.925" x2="99.2111" y2="105.385" gradientUnits="userSpaceOnUse">
<stop offset="0.0416667" stop-color="#B5B5B5"/>
<stop offset="0.362488" stop-color="#E2E2E2"/>
<stop offset="1" stop-color="white"/>
</linearGradient>
<linearGradient id="paint5_linear_6971_2685" x1="73.0009" y1="102.189" x2="92.2335" y2="102.261" gradientUnits="userSpaceOnUse">
<stop stop-color="#E0E0E0"/>
<stop offset="1" stop-color="white"/>
</linearGradient>
<linearGradient id="paint6_linear_6971_2685" x1="255.64" y1="134.99" x2="255.64" y2="140.821" gradientUnits="userSpaceOnUse">
<stop stop-color="#D6D4D4"/>
<stop offset="1" stop-color="#E4E4E4"/>
</linearGradient>
<linearGradient id="paint7_linear_6971_2685" x1="250.152" y1="131.716" x2="250.438" y2="133.498" gradientUnits="userSpaceOnUse">
<stop stop-color="#D7D7D7"/>
<stop offset="1" stop-color="#CDCDCD"/>
</linearGradient>
<linearGradient id="paint8_linear_6971_2685" x1="262.069" y1="131.897" x2="261.634" y2="133.648" gradientUnits="userSpaceOnUse">
<stop stop-color="#D9D9D9"/>
<stop offset="1" stop-color="#CDCDCD"/>
</linearGradient>
<linearGradient id="paint9_linear_6971_2685" x1="250.289" y1="133.395" x2="256.722" y2="133.395" gradientUnits="userSpaceOnUse">
<stop stop-color="#CECECE"/>
<stop offset="1" stop-color="#E7E7E7"/>
</linearGradient>
<linearGradient id="paint10_linear_6971_2685" x1="-91.637" y1="242.72" x2="-8.56699" y2="122.756" gradientUnits="userSpaceOnUse">
<stop/>
<stop offset="1" stop-opacity="0"/>
</linearGradient>
<linearGradient id="paint11_linear_6971_2685" x1="39.5425" y1="25.7148" x2="3.82903" y2="65.8213" gradientUnits="userSpaceOnUse">
<stop stop-color="#DCDCDC"/>
<stop offset="1" stop-color="#DCDCDC" stop-opacity="0"/>
</linearGradient>
<linearGradient id="paint12_linear_6971_2685" x1="31.1905" y1="46.9124" x2="9.81854" y2="100.635" gradientUnits="userSpaceOnUse">
<stop stop-color="#D9D9D9"/>
<stop offset="1" stop-color="#D9D9D9" stop-opacity="0"/>
</linearGradient>
<linearGradient id="paint13_linear_6971_2685" x1="14.9918" y1="45.3567" x2="-10.2858" y2="85.805" gradientUnits="userSpaceOnUse">
<stop stop-color="white"/>
<stop offset="1" stop-color="white" stop-opacity="0"/>
</linearGradient>
<linearGradient id="paint14_linear_6971_2685" x1="32.8466" y1="28.3683" x2="-3.00371" y2="77.9013" gradientUnits="userSpaceOnUse">
<stop stop-color="white"/>
<stop offset="1" stop-color="white" stop-opacity="0"/>
</linearGradient>
<linearGradient id="paint15_linear_6971_2685" x1="302.867" y1="190.815" x2="280.493" y2="137.467" gradientUnits="userSpaceOnUse">
<stop stop-color="#686868"/>
<stop offset="1" stop-color="#686868" stop-opacity="0"/>
</linearGradient>
<linearGradient id="paint16_diamond_6971_2685" x1="0" y1="0" x2="500" y2="500" gradientUnits="userSpaceOnUse">
<stop stop-color="white"/>
<stop offset="1" stop-color="white" stop-opacity="0"/>
<stop offset="1" stop-color="white" stop-opacity="0.54"/>
</linearGradient>
<linearGradient id="paint17_linear_6971_2685" x1="243.634" y1="0" x2="243.634" y2="102.828" gradientUnits="userSpaceOnUse">
<stop stop-color="white" stop-opacity="0"/>
<stop offset="0.385417" stop-color="white"/>
<stop offset="0.567708" stop-color="white"/>
<stop offset="1" stop-color="white" stop-opacity="0"/>
</linearGradient>
<clipPath id="clip0_6971_2685">
<rect width="422.879" height="270.292" fill="white" transform="translate(-128.004 -12.8135)"/>
</clipPath>
<clipPath id="clip1_6971_2685">
<rect x="52.0247" y="69.8296" width="64.3225" height="77.9437" rx="3.45246" fill="white"/>
</clipPath>
<clipPath id="clip2_6971_2685">
<rect width="82.4085" height="82.4084" fill="white" transform="translate(43.7003 69.8291)"/>
</clipPath>
<clipPath id="clip3_6971_2685">
<rect width="32.9634" height="32.9635" fill="white" transform="translate(239.694 118.26)"/>
</clipPath>
</defs>
</svg>
