<svg width="320" height="196" viewBox="0 0 320 196" fill="none" xmlns="http://www.w3.org/2000/svg">
<mask id="mask0_6971_2824" style="mask-type:alpha" maskUnits="userSpaceOnUse" x="0" y="0" width="320" height="196">
<rect width="320" height="196" rx="24.948" fill="#686868"/>
<rect width="320" height="196" rx="24.948" fill="url(#paint0_linear_6971_2824)" fill-opacity="0.25"/>
</mask>
<g mask="url(#mask0_6971_2824)">
<rect width="320" height="196" rx="24.948" fill="#686868"/>
<rect width="320" height="196" rx="24.948" fill="url(#paint1_linear_6971_2824)" fill-opacity="0.25"/>
<g filter="url(#filter0_f_6971_2824)">
<g clip-path="url(#clip0_6971_2824)">
<rect x="57.4087" y="36.1768" width="209.306" height="121.271" rx="7.39709" stroke="#CBCBCB" stroke-width="1.92968"/>
<g filter="url(#filter1_d_6971_2824)">
<path d="M58.3739 43.0108C58.3739 39.7693 61.0016 37.1416 64.2431 37.1416L259.881 37.1416C263.122 37.1416 265.75 39.7693 265.75 43.0108V150.614C265.75 153.855 263.122 156.483 259.881 156.483H64.2431C61.0016 156.483 58.3739 153.855 58.3739 150.614L58.3739 43.0108Z" fill="white"/>
</g>
<path fill-rule="evenodd" clip-rule="evenodd" d="M70.1141 62.5742L254.989 62.5742V66.487L70.1116 66.487L70.1141 62.5742Z" fill="#E9E9EB"/>
<rect x="132.717" y="83.1172" width="47.9313" height="7.82565" rx="0.999528" fill="#E9E9EB"/>
<rect x="132.717" y="97.7905" width="47.9313" height="7.82565" rx="0.999528" fill="#E9E9EB"/>
<rect x="132.717" y="112.461" width="66.5168" height="7.82565" rx="0.999528" fill="#E9E9EB"/>
<rect x="132.717" y="127.136" width="21.5202" height="6.84745" rx="0.999528" fill="#E9E9EB"/>
<rect x="69.9514" y="45.5044" width="88.1219" height="9.00515" rx="0.999528" fill="#20263D" fill-opacity="0.3"/>
<rect x="236.547" y="45.5044" width="18.0103" height="9.00515" rx="0.999528" fill="#DBB107" fill-opacity="0.5"/>
<g clip-path="url(#clip1_6971_2824)">
<g clip-path="url(#clip2_6971_2824)">
<rect x="69.7836" y="74.521" width="54.9829" height="65.9794" fill="#92C2D7"/>
<path d="M125.76 130.88C128.286 135.399 129.74 145.823 129.74 145.823H66.0603C66.0603 145.823 67.5148 135.398 70.0403 130.88C72.5657 126.361 87.9565 122.17 87.9565 122.17C89.3197 124.633 93.3213 126.879 97.4175 126.98C101.862 127.089 106.419 124.842 107.836 122.168C107.836 122.168 123.234 126.36 125.76 130.88Z" fill="white"/>
<path d="M90.4152 118.577V118.677C90.3875 120.808 88.5942 122.409 85.0355 123.483C89.3236 126.598 93.6119 129.09 97.9 129.09C102.188 129.09 106.476 126.598 110.765 123.483C107.23 122.408 105.437 120.804 105.385 118.67C105.385 117.86 105.388 109.971 105.391 109.161C105.647 109.197 105.625 109.174 105.391 109.109C105.398 106.441 105.41 109.933 105.426 106.288C105.442 102.642 90.1676 99.38 90.3918 109.391C90.3949 110.412 90.401 117.421 90.4152 118.577Z" fill="url(#paint2_linear_6971_2824)"/>
<path d="M90.2131 113.686C96.4912 113.033 102.402 115.752 102.402 115.752C102.402 115.752 101.23 121.907 90.2131 120.118V113.686Z" fill="#CDCDCD"/>
<path d="M125.76 130.88C128.286 135.399 129.74 145.823 129.74 145.823H66.0603C66.0603 145.823 67.5148 135.398 70.0403 130.88C72.5657 126.361 87.9565 122.17 87.9565 122.17C87.9565 124.909 93.2656 128.859 97.4175 128.929C103.206 128.929 107.836 124.909 107.836 122.168C107.836 122.168 123.234 126.36 125.76 130.88Z" fill="#979797"/>
<path d="M85.0654 100.806C85.9025 99.4099 86.9467 100.37 87.3641 101.025L87.9472 107.233C87.9268 107.773 87.6031 108.117 86.7588 108.223C85.7035 108.357 85.0063 105.483 84.7632 104.41C84.52 103.337 84.0191 102.552 85.0654 100.806Z" fill="url(#paint3_linear_6971_2824)"/>
<path d="M110.337 101.163C109.514 99.7584 108.46 100.709 108.037 101.359L107.395 107.562C107.41 108.102 107.731 108.449 108.574 108.563C109.628 108.707 110.352 105.84 110.605 104.769C110.859 103.699 111.367 102.918 110.337 101.163Z" fill="url(#paint4_linear_6971_2824)"/>
<path d="M109.505 102.253C109.505 111.232 103.005 118.51 97.9321 118.51C92.3833 118.51 86.3589 111.232 86.3589 102.253C86.3589 94.2534 86.9972 85.7056 97.9321 85.7056C108.867 85.7056 109.505 94.0684 109.505 102.253Z" fill="url(#paint5_linear_6971_2824)"/>
</g>
</g>
<g clip-path="url(#clip3_6971_2824)">
<path d="M240.487 133.267V133.307C240.475 134.159 239.758 134.8 238.335 135.229C240.05 136.475 241.765 137.472 243.481 137.472C245.196 137.472 246.911 136.475 248.626 135.229C247.213 134.8 246.495 134.158 246.474 133.304C246.474 132.98 246.476 129.824 246.477 129.501C246.579 129.515 246.571 129.506 246.477 129.48C246.48 128.413 246.484 129.81 246.491 128.351C246.497 126.893 240.388 125.588 240.477 129.593C240.478 130.001 240.481 132.804 240.487 133.267Z" fill="url(#paint6_linear_6971_2824)"/>
<path d="M240.521 131.73C243.032 131.469 245.281 132.394 245.281 132.394C245.281 132.394 244.928 134.972 240.521 134.257V131.73Z" fill="black" fill-opacity="0.1"/>
<path d="M238.046 126.431C238.362 125.861 238.792 126.232 238.968 126.488L239.282 128.962C239.281 129.179 239.156 129.32 238.82 129.374C238.4 129.441 238.083 128.301 237.972 127.875C237.861 127.45 237.65 127.142 238.046 126.431Z" fill="url(#paint7_linear_6971_2824)"/>
<path d="M248.855 126.613C248.588 126.019 248.128 126.352 247.932 126.592L247.409 129.031C247.392 129.247 247.504 129.398 247.835 129.48C248.248 129.583 248.659 128.474 248.806 128.059C248.953 127.644 249.189 127.356 248.855 126.613Z" fill="url(#paint8_linear_6971_2824)"/>
<path d="M254.624 138.187C255.634 139.995 256.216 144.164 256.216 144.164H230.744C230.744 144.164 231.326 139.994 232.336 138.187C233.346 136.38 239.502 134.703 239.502 134.703C240.048 135.688 241.648 136.587 243.287 136.627C245.065 136.671 246.887 135.772 247.454 134.703C247.454 134.703 253.613 136.379 254.624 138.187Z" fill="white"/>
<path d="M254.624 138.187C255.634 139.995 256.216 144.164 256.216 144.164H230.744C230.744 144.164 231.326 139.994 232.336 138.187C233.346 136.38 239.502 134.703 239.502 134.703C239.502 135.799 241.626 137.379 243.287 137.407C245.602 137.407 247.454 135.799 247.454 134.703C247.454 134.703 253.613 136.379 254.624 138.187Z" fill="#C6C6C6"/>
<path d="M248.11 126.792C248.11 130.559 245.474 133.613 243.416 133.613C241.166 133.613 238.723 130.559 238.723 126.792C238.723 123.435 238.798 119.797 243.416 119.848C248.354 119.848 248.11 123.357 248.11 126.792Z" fill="url(#paint9_linear_6971_2824)"/>
</g>
<path d="M161.207 26.1478C161.356 21.4163 148.469 21.8741 143.373 21.4335C124.31 19.7857 123.266 18.8801 112.437 17.2324C39.8052 18.8287 72.9911 28.2059 8.93534 51.1827C1.80975 53.7401 -4.15215 58.7691 -7.91844 65.3201C-21.8486 89.5727 -36.6272 113.236 -56.4906 134.376C-82.247 157.908 -75.3679 198.598 -71.6418 211.402C-61.0365 237.148 -12.3053 198.927 0.535637 197.96C7.81027 197.696 20.3514 198.156 27.133 195.564C59.2813 178.801 64.8533 182.708 92.5302 182.708C97.8443 182.708 117.18 176.987 117.18 176.987C129.884 176.998 143.017 175.723 143.017 172.032C143.017 147.059 86.6773 157.849 70.9528 156.179C53.7895 156.316 48.2321 137.809 41.5537 122.196C35.9014 108.991 37.3575 93.8351 45.234 81.8203C51.8265 71.768 58.5623 61.7442 67.7917 50.313C90.0284 29.6477 159.951 66.34 161.207 26.1364V26.1478Z" fill="white" fill-opacity="0.5"/>
<path d="M161.207 26.1478C161.356 21.4163 148.469 21.8741 143.373 21.4335C124.31 19.7857 123.266 18.8801 112.437 17.2324C39.8052 18.8287 72.9911 28.2059 8.93534 51.1827C1.80975 53.7401 -4.15215 58.7691 -7.91844 65.3201C-21.8486 89.5727 -36.6272 113.236 -56.4906 134.376C-82.247 157.908 -75.3679 198.598 -71.6418 211.402C-61.0365 237.148 -12.3053 198.927 0.535637 197.96C7.81027 197.696 20.3514 198.156 27.133 195.564C59.2813 178.801 64.8533 182.708 92.5302 182.708C97.8443 182.708 117.18 176.987 117.18 176.987C129.884 176.998 143.017 175.723 143.017 172.032C143.017 147.059 86.6773 157.849 70.9528 156.179C53.7895 156.316 48.2321 137.809 41.5537 122.196C35.9014 108.991 37.3575 93.8351 45.234 81.8203C51.8265 71.768 58.5623 61.7442 67.7917 50.313C90.0284 29.6477 159.951 66.34 161.207 26.1364V26.1478Z" fill="url(#paint10_linear_6971_2824)" fill-opacity="0.2"/>
<path d="M112.398 17.8789C123.132 19.5148 124.262 20.429 143.317 22.0762C144.607 22.1877 146.397 22.243 148.299 22.335C150.218 22.4277 152.278 22.5584 154.168 22.8203C156.071 23.0839 157.742 23.4732 158.913 24.0547C160.077 24.6334 160.583 25.3086 160.562 26.1162C160.408 31.0461 159.204 34.7365 157.22 37.4932C155.238 40.2485 152.437 42.1264 148.991 43.3613C142.058 45.8454 132.636 45.6913 122.417 44.9082C112.257 44.1297 101.325 42.7315 91.5864 42.8262C81.8567 42.9208 73.0994 44.4996 67.3521 49.8408L67.3188 49.8721L67.2896 49.9082C58.0398 61.3645 51.2904 71.4097 44.6948 81.4668C36.7021 93.6587 35.2216 109.042 40.9604 122.449C44.2753 130.199 47.3716 138.825 51.7847 145.451C56.2176 152.108 62.0621 156.877 70.9126 156.822C74.9106 157.242 81.4346 156.877 88.8794 156.493C96.3756 156.107 104.864 155.697 112.856 156.012C120.862 156.327 128.291 157.369 133.7 159.841C136.396 161.073 138.561 162.648 140.049 164.636C141.532 166.615 142.372 169.041 142.372 172.032C142.372 172.282 142.267 172.551 141.969 172.852C141.663 173.161 141.18 173.473 140.503 173.775C139.151 174.379 137.178 174.874 134.76 175.261C129.938 176.032 123.518 176.347 117.181 176.342H117.087L116.998 176.368H116.997C116.996 176.368 116.995 176.369 116.994 176.369C116.991 176.37 116.988 176.371 116.984 176.372C116.975 176.375 116.96 176.379 116.942 176.385C116.905 176.395 116.851 176.411 116.781 176.432C116.638 176.473 116.428 176.535 116.16 176.613C115.622 176.769 114.846 176.992 113.9 177.26C112.007 177.795 109.429 178.509 106.686 179.223C103.942 179.937 101.037 180.649 98.4917 181.183C95.9271 181.72 93.7827 182.062 92.5298 182.062C85.6191 182.062 80.105 181.82 75.1704 181.715C70.2448 181.61 65.9106 181.645 61.4272 182.21C52.4535 183.342 42.9529 186.59 26.8765 194.97C23.5915 196.219 18.865 196.749 13.9878 196.99C9.07204 197.233 4.22087 197.18 0.512207 197.314L0.486816 197.316C-1.23078 197.446 -3.47968 198.186 -6.06787 199.276C-8.67267 200.373 -11.6886 201.854 -14.9595 203.513C-21.5161 206.838 -29.1138 210.886 -36.645 214.104C-44.1878 217.328 -51.5727 219.676 -57.6938 219.654C-60.7432 219.643 -63.4443 219.044 -65.6909 217.702C-67.9223 216.369 -69.7533 214.277 -71.0317 211.189C-72.8784 204.829 -75.5047 191.553 -74.479 176.957C-73.4515 162.336 -68.7669 146.466 -56.0552 134.853L-56.0376 134.836L-56.02 134.818C-37.348 114.946 -23.1656 92.8586 -9.98291 70.1836L-7.35889 65.6416C-3.6681 59.2221 2.17319 54.2952 9.15283 51.79C25.1977 46.0348 35.1724 41.1239 42.2446 36.9648C45.7796 34.886 48.5837 32.9982 51.0493 31.2949C53.521 29.5874 55.6306 28.0816 57.8091 26.7393C66.4308 21.4267 76.125 18.6786 112.398 17.8789Z" stroke="white" stroke-opacity="0.5" stroke-width="1.2904"/>
<path d="M132.331 35.1904C132.113 35.1904 131.89 35.1046 131.724 34.9387C118.98 24.6916 113.133 17.826 113.133 15.0628C113.236 14.5994 113.695 14.8797 114.159 14.9884C120.31 16.3673 132.732 18.7357 136.751 20.9727C138.167 21.7622 139.354 22.7806 139.617 24.6916C140.013 27.5465 135.599 32.8618 133.512 34.9444C133.346 35.1103 132.549 35.1961 132.331 35.1961V35.1904Z" fill="black" fill-opacity="0.1"/>
<path d="M6.91629 105.509C13.3853 105.729 19.3159 101.979 24.2009 97.7368C30.3015 92.4372 35.5261 86.1369 39.5968 79.1639C42.6049 74.017 44.9837 68.5094 48.2657 63.5268C53.7888 55.135 57.5033 46.2429 62.2628 37.3969C71.4315 37.1479 82.3584 38.282 93.7303 34.9169C100.533 37.8972 107.913 39.5626 115.34 39.7959C120.052 39.9426 124.976 39.4597 129.004 37.0152C133.032 34.5706 136.262 29.784 135.208 25.1938C134.116 22.5677 120.548 19.216 112.967 17.3329C106.487 12.5009 98.9102 12.4663 90.8254 12.2967C82.7406 12.127 73.5637 10.1842 65.7187 10.3972C57.8737 10.6102 49.6247 10.3078 45.2683 13.5339C24.3971 29.0046 19.3483 51.8465 -2.99361 65.1135C-5.06097 72.3697 -6.63587 80.2307 -5.01851 87.5986C-3.40115 94.9665 0.83573 101.027 6.92202 105.509L6.91629 105.509Z" fill="url(#paint11_linear_6971_2824)" fill-opacity="0.5"/>
<path d="M42.9279 51.3945L59.3805 34.3497L63.9649 34.2252C63.9649 34.2252 62.4846 41.6453 57.3086 53.0071C52.083 61.1619 46.641 71.898 42.5615 80.0216C38.4819 88.1452 28.6817 107.299 28.6817 107.299C28.6817 107.299 29.7947 95.5354 32.7593 88.5868C35.7239 81.6382 42.9279 51.3945 42.9279 51.3945Z" fill="url(#paint12_linear_6971_2824)"/>
<path d="M7.48794 102.941C13.9569 103.161 19.8876 99.4109 24.7726 95.1689C30.8732 89.8693 36.0977 83.569 40.1685 76.596C43.1765 71.4491 45.5554 65.9415 48.8374 60.9589C54.3605 52.5671 58.075 43.675 62.8344 34.829C72.0032 34.58 82.93 35.7141 94.3019 32.3489C101.104 35.3293 108.484 36.9947 115.911 37.2279C120.624 37.3747 125.548 36.8918 129.576 34.4473C133.604 32.0027 136.834 27.2161 135.78 22.6259C134.687 19.9998 121.119 16.6481 113.538 14.765C107.058 9.93297 99.4818 9.89838 91.397 9.72876C83.3122 9.55914 70.6794 9.51567 62.8344 9.72873C54.9894 9.94171 50.1963 7.73988 45.8399 10.966C24.9688 26.4367 19.92 49.2786 -2.42196 62.5456C-4.48932 69.8018 -6.06422 77.6628 -4.44686 85.0307C-2.8295 92.3986 1.40738 98.4591 7.49367 102.941L7.48794 102.941Z" fill="url(#paint13_linear_6971_2824)" fill-opacity="0.5"/>
<path d="M46.2238 11.4842C48.2265 10.0011 50.3347 9.74413 53.0004 9.86214C55.6224 9.97822 58.9123 10.4811 62.852 10.3742C70.6833 10.1615 83.3048 10.2045 91.3831 10.374C99.516 10.5446 106.868 10.5952 113.153 15.2819L113.257 15.3601L113.383 15.3909C117.177 16.3336 122.446 17.6374 126.9 19.0321C129.129 19.7301 131.133 20.4452 132.639 21.1408C133.393 21.489 134.004 21.823 134.449 22.1379C134.874 22.4379 135.082 22.6754 135.164 22.8326C136.087 27.0234 133.127 31.538 129.241 33.8959C125.375 36.2423 120.604 36.7289 115.932 36.5834C108.587 36.3527 101.288 34.7048 94.5609 31.7575L94.3444 31.6638L94.1186 31.7305C82.8548 35.0636 72.0899 33.9319 62.8164 34.1837L62.4435 34.1938L62.2659 34.523C57.4647 43.4465 53.8043 52.239 48.2987 60.6042C46.6386 63.1245 45.2105 65.7714 43.8283 68.4169C42.6151 70.7389 41.4407 73.0533 40.1652 75.308L39.6111 76.2706C35.576 83.1825 30.3969 89.4285 24.3494 94.682C19.5441 98.8548 13.8478 102.425 7.71295 102.299C1.82782 97.912 -2.25065 92.0256 -3.81653 84.8922C-5.37968 77.7711 -3.89762 70.1351 -1.86951 62.9641C9.2946 56.2687 16.1627 47.2025 22.7852 37.9574C29.4639 28.634 35.8854 19.1476 46.2238 11.4842Z" stroke="url(#paint14_linear_6971_2824)" stroke-opacity="0.5" stroke-width="1.2904"/>
</g>
</g>
<rect width="320" height="196" rx="24.948" fill="url(#paint15_linear_6971_2824)" fill-opacity="0.3"/>
<mask id="path-36-inside-1_6971_2824" fill="white">
<path d="M43.76 168.136C39.9629 168.136 36.8848 165.058 36.8848 161.261L36.8848 31.7425C36.8848 27.9454 39.9629 24.8672 43.76 24.8672H276.24C280.037 24.8672 283.115 27.9453 283.115 31.7425V161.261C283.115 165.058 280.037 168.136 276.24 168.136H43.76Z"/>
</mask>
<g clip-path="url(#paint16_diamond_6971_2824_clip_path)" data-figma-skip-parse="true" mask="url(#path-36-inside-1_6971_2824)"><g transform="matrix(0.125795 -0.0614472 0.305031 0.601578 34.2051 157.949)"><rect x="0" y="0" width="2044.64" height="181.512" fill="url(#paint16_diamond_6971_2824)" opacity="1" shape-rendering="crispEdges"/><rect x="0" y="0" width="2044.64" height="181.512" transform="scale(1 -1)" fill="url(#paint16_diamond_6971_2824)" opacity="1" shape-rendering="crispEdges"/><rect x="0" y="0" width="2044.64" height="181.512" transform="scale(-1 1)" fill="url(#paint16_diamond_6971_2824)" opacity="1" shape-rendering="crispEdges"/><rect x="0" y="0" width="2044.64" height="181.512" transform="scale(-1)" fill="url(#paint16_diamond_6971_2824)" opacity="1" shape-rendering="crispEdges"/></g></g><path d="M36.8848 161.261H39.8848L39.8848 31.7425H36.8848H33.8848L33.8848 161.261H36.8848ZM43.76 24.8672V27.8672H276.24V24.8672V21.8672H43.76V24.8672ZM283.115 31.7425H280.115V161.261H283.115H286.115V31.7425L283.115 31.7425ZM276.24 168.136V165.136H43.76V168.136V171.136H276.24V168.136ZM283.115 161.261H280.115C280.115 163.401 278.38 165.136 276.24 165.136V168.136V171.136C281.694 171.136 286.115 166.715 286.115 161.261H283.115ZM276.24 24.8672V27.8672C278.38 27.8672 280.115 29.6022 280.115 31.7425H283.115L286.115 31.7425C286.115 26.2885 281.694 21.8672 276.24 21.8672V24.8672ZM36.8848 31.7425H39.8848C39.8848 29.6022 41.6198 27.8672 43.76 27.8672V24.8672V21.8672C38.3061 21.8672 33.8848 26.2885 33.8848 31.7425H36.8848ZM36.8848 161.261H33.8848C33.8848 166.715 38.3061 171.136 43.76 171.136V168.136V165.136C41.6198 165.136 39.8848 163.401 39.8848 161.261H36.8848Z" data-figma-gradient-fill="{&#34;type&#34;:&#34;GRADIENT_DIAMOND&#34;,&#34;stops&#34;:[{&#34;color&#34;:{&#34;r&#34;:1.0,&#34;g&#34;:1.0,&#34;b&#34;:1.0,&#34;a&#34;:1.0},&#34;position&#34;:0.0},{&#34;color&#34;:{&#34;r&#34;:1.0,&#34;g&#34;:1.0,&#34;b&#34;:1.0,&#34;a&#34;:0.0},&#34;position&#34;:1.0},{&#34;color&#34;:{&#34;r&#34;:1.0,&#34;g&#34;:1.0,&#34;b&#34;:1.0,&#34;a&#34;:0.54000002145767212},&#34;position&#34;:1.0}],&#34;stopsVar&#34;:[],&#34;transform&#34;:{&#34;m00&#34;:251.58995056152344,&#34;m01&#34;:610.06237792968750,&#34;m02&#34;:-396.621093750,&#34;m10&#34;:-122.89430999755859,&#34;m11&#34;:1203.1555175781250,&#34;m12&#34;:-382.18206787109375},&#34;opacity&#34;:1.0,&#34;blendMode&#34;:&#34;NORMAL&#34;,&#34;visible&#34;:true}" mask="url(#path-36-inside-1_6971_2824)"/>
<path d="M36.8848 161.261H39.8848L39.8848 31.7425H36.8848H33.8848L33.8848 161.261H36.8848ZM43.76 24.8672V27.8672H276.24V24.8672V21.8672H43.76V24.8672ZM283.115 31.7425H280.115V161.261H283.115H286.115V31.7425L283.115 31.7425ZM276.24 168.136V165.136H43.76V168.136V171.136H276.24V168.136ZM283.115 161.261H280.115C280.115 163.401 278.38 165.136 276.24 165.136V168.136V171.136C281.694 171.136 286.115 166.715 286.115 161.261H283.115ZM276.24 24.8672V27.8672C278.38 27.8672 280.115 29.6022 280.115 31.7425H283.115L286.115 31.7425C286.115 26.2885 281.694 21.8672 276.24 21.8672V24.8672ZM36.8848 31.7425H39.8848C39.8848 29.6022 41.6198 27.8672 43.76 27.8672V24.8672V21.8672C38.3061 21.8672 33.8848 26.2885 33.8848 31.7425H36.8848ZM36.8848 161.261H33.8848C33.8848 166.715 38.3061 171.136 43.76 171.136V168.136V165.136C41.6198 165.136 39.8848 163.401 39.8848 161.261H36.8848Z" fill="white" fill-opacity="0.35" mask="url(#path-36-inside-1_6971_2824)"/>
<mask id="mask1_6971_2824" style="mask-type:alpha" maskUnits="userSpaceOnUse" x="36" y="24" width="248" height="145">
<rect x="36.8848" y="168.136" width="143.269" height="246.23" rx="10.9131" transform="rotate(-90 36.8848 168.136)" fill="#D9D9D9"/>
</mask>
<g mask="url(#mask1_6971_2824)">
<g filter="url(#filter2_f_6971_2824)">
<rect width="487.269" height="102.828" transform="matrix(0.82308 -0.567925 0.582295 0.812977 -187.966 46.8984)" fill="url(#paint17_linear_6971_2824)" fill-opacity="0.5"/>
</g>
</g>
</g>
<defs>
<filter id="filter0_f_6971_2824" x="-85.6229" y="1.65254" width="362.848" height="233.149" filterUnits="userSpaceOnUse" color-interpolation-filters="sRGB">
<feFlood flood-opacity="0" result="BackgroundImageFix"/>
<feBlend mode="normal" in="SourceGraphic" in2="BackgroundImageFix" result="shape"/>
<feGaussianBlur stdDeviation="0.85" result="effect1_foregroundBlur_6971_2824"/>
</filter>
<filter id="filter1_d_6971_2824" x="39.1722" y="20.5002" width="245.779" height="157.745" filterUnits="userSpaceOnUse" color-interpolation-filters="sRGB">
<feFlood flood-opacity="0" result="BackgroundImageFix"/>
<feColorMatrix in="SourceAlpha" type="matrix" values="0 0 0 0 0 0 0 0 0 0 0 0 0 0 0 0 0 0 127 0" result="hardAlpha"/>
<feOffset dy="2.56022"/>
<feGaussianBlur stdDeviation="9.60083"/>
<feColorMatrix type="matrix" values="0 0 0 0 0 0 0 0 0 0 0 0 0 0 0 0 0 0 0.15 0"/>
<feBlend mode="normal" in2="BackgroundImageFix" result="effect1_dropShadow_6971_2824"/>
<feBlend mode="normal" in="SourceGraphic" in2="effect1_dropShadow_6971_2824" result="shape"/>
</filter>
<clipPath id="paint16_diamond_6971_2824_clip_path"><path d="M36.8848 161.261H39.8848L39.8848 31.7425H36.8848H33.8848L33.8848 161.261H36.8848ZM43.76 24.8672V27.8672H276.24V24.8672V21.8672H43.76V24.8672ZM283.115 31.7425H280.115V161.261H283.115H286.115V31.7425L283.115 31.7425ZM276.24 168.136V165.136H43.76V168.136V171.136H276.24V168.136ZM283.115 161.261H280.115C280.115 163.401 278.38 165.136 276.24 165.136V168.136V171.136C281.694 171.136 286.115 166.715 286.115 161.261H283.115ZM276.24 24.8672V27.8672C278.38 27.8672 280.115 29.6022 280.115 31.7425H283.115L286.115 31.7425C286.115 26.2885 281.694 21.8672 276.24 21.8672V24.8672ZM36.8848 31.7425H39.8848C39.8848 29.6022 41.6198 27.8672 43.76 27.8672V24.8672V21.8672C38.3061 21.8672 33.8848 26.2885 33.8848 31.7425H36.8848ZM36.8848 161.261H33.8848C33.8848 166.715 38.3061 171.136 43.76 171.136V168.136V165.136C41.6198 165.136 39.8848 163.401 39.8848 161.261H36.8848Z" mask="url(#path-36-inside-1_6971_2824)"/></clipPath><filter id="filter2_f_6971_2824" x="-217.966" y="-259.833" width="520.938" height="420.329" filterUnits="userSpaceOnUse" color-interpolation-filters="sRGB">
<feFlood flood-opacity="0" result="BackgroundImageFix"/>
<feBlend mode="normal" in="SourceGraphic" in2="BackgroundImageFix" result="shape"/>
<feGaussianBlur stdDeviation="15" result="effect1_foregroundBlur_6971_2824"/>
</filter>
<linearGradient id="paint0_linear_6971_2824" x1="160" y1="0" x2="160" y2="131.704" gradientUnits="userSpaceOnUse">
<stop stop-color="white"/>
<stop offset="0.611797" stop-color="white" stop-opacity="0.24"/>
<stop offset="1" stop-color="white" stop-opacity="0"/>
</linearGradient>
<linearGradient id="paint1_linear_6971_2824" x1="160" y1="0" x2="160" y2="131.704" gradientUnits="userSpaceOnUse">
<stop stop-color="white"/>
<stop offset="0.611797" stop-color="white" stop-opacity="0.24"/>
<stop offset="1" stop-color="white" stop-opacity="0"/>
</linearGradient>
<linearGradient id="paint2_linear_6971_2824" x1="96.7591" y1="110" x2="96.7591" y2="122.389" gradientUnits="userSpaceOnUse">
<stop stop-color="#B1B1B1"/>
<stop offset="1" stop-color="white"/>
</linearGradient>
<linearGradient id="paint3_linear_6971_2824" x1="87.323" y1="103.945" x2="85.309" y2="104.318" gradientUnits="userSpaceOnUse">
<stop offset="0.171875" stop-color="#BDBDBD"/>
<stop offset="0.640625" stop-color="#E1E1E1"/>
<stop offset="1" stop-color="#DDDDDD"/>
</linearGradient>
<linearGradient id="paint4_linear_6971_2824" x1="108.05" y1="104.28" x2="110.061" y2="104.672" gradientUnits="userSpaceOnUse">
<stop offset="0.0416667" stop-color="#B5B5B5"/>
<stop offset="0.362488" stop-color="#E2E2E2"/>
<stop offset="1" stop-color="white"/>
</linearGradient>
<linearGradient id="paint5_linear_6971_2824" x1="87.7815" y1="101.955" x2="104.129" y2="102.016" gradientUnits="userSpaceOnUse">
<stop stop-color="#E0E0E0"/>
<stop offset="1" stop-color="white"/>
</linearGradient>
<linearGradient id="paint6_linear_6971_2824" x1="243.024" y1="129.836" x2="243.024" y2="134.792" gradientUnits="userSpaceOnUse">
<stop stop-color="#D6D4D4"/>
<stop offset="1" stop-color="#E4E4E4"/>
</linearGradient>
<linearGradient id="paint7_linear_6971_2824" x1="238.36" y1="127.053" x2="238.602" y2="128.568" gradientUnits="userSpaceOnUse">
<stop stop-color="#D7D7D7"/>
<stop offset="1" stop-color="#CDCDCD"/>
</linearGradient>
<linearGradient id="paint8_linear_6971_2824" x1="248.489" y1="127.207" x2="248.12" y2="128.696" gradientUnits="userSpaceOnUse">
<stop stop-color="#D9D9D9"/>
<stop offset="1" stop-color="#CDCDCD"/>
</linearGradient>
<linearGradient id="paint9_linear_6971_2824" x1="238.476" y1="128.48" x2="243.944" y2="128.48" gradientUnits="userSpaceOnUse">
<stop stop-color="#CECECE"/>
<stop offset="1" stop-color="#E7E7E7"/>
</linearGradient>
<linearGradient id="paint10_linear_6971_2824" x1="-53.0109" y1="220.556" x2="17.5986" y2="118.587" gradientUnits="userSpaceOnUse">
<stop/>
<stop offset="1" stop-opacity="0"/>
</linearGradient>
<linearGradient id="paint11_linear_6971_2824" x1="58.4916" y1="36.1021" x2="28.1352" y2="70.1926" gradientUnits="userSpaceOnUse">
<stop stop-color="#DCDCDC"/>
<stop offset="1" stop-color="#DCDCDC" stop-opacity="0"/>
</linearGradient>
<linearGradient id="paint12_linear_6971_2824" x1="51.3924" y1="54.1197" x2="33.2263" y2="99.7842" gradientUnits="userSpaceOnUse">
<stop stop-color="#D9D9D9"/>
<stop offset="1" stop-color="#D9D9D9" stop-opacity="0"/>
</linearGradient>
<linearGradient id="paint13_linear_6971_2824" x1="37.6228" y1="52.7985" x2="16.1368" y2="87.1795" gradientUnits="userSpaceOnUse">
<stop stop-color="white"/>
<stop offset="1" stop-color="white" stop-opacity="0"/>
</linearGradient>
<linearGradient id="paint14_linear_6971_2824" x1="52.7994" y1="38.3583" x2="22.3266" y2="80.4614" gradientUnits="userSpaceOnUse">
<stop stop-color="white"/>
<stop offset="1" stop-color="white" stop-opacity="0"/>
</linearGradient>
<linearGradient id="paint15_linear_6971_2824" x1="301.867" y1="190.815" x2="279.493" y2="137.467" gradientUnits="userSpaceOnUse">
<stop stop-color="#686868"/>
<stop offset="1" stop-color="#686868" stop-opacity="0"/>
</linearGradient>
<linearGradient id="paint16_diamond_6971_2824" x1="0" y1="0" x2="500" y2="500" gradientUnits="userSpaceOnUse">
<stop stop-color="white"/>
<stop offset="1" stop-color="white" stop-opacity="0"/>
<stop offset="1" stop-color="white" stop-opacity="0.54"/>
</linearGradient>
<linearGradient id="paint17_linear_6971_2824" x1="243.634" y1="0" x2="243.634" y2="102.828" gradientUnits="userSpaceOnUse">
<stop stop-color="white" stop-opacity="0"/>
<stop offset="0.385417" stop-color="white"/>
<stop offset="0.567708" stop-color="white"/>
<stop offset="1" stop-color="white" stop-opacity="0"/>
</linearGradient>
<clipPath id="clip0_6971_2824">
<rect width="359.448" height="229.749" fill="white" transform="translate(-83.9229 3.35254)"/>
</clipPath>
<clipPath id="clip1_6971_2824">
<rect x="69.9514" y="74.4492" width="54.6742" height="66.2522" rx="2.93459" fill="white"/>
</clipPath>
<clipPath id="clip2_6971_2824">
<rect width="70.0473" height="70.0471" fill="white" transform="translate(62.876 74.4487)"/>
</clipPath>
<clipPath id="clip3_6971_2824">
<rect width="28.0189" height="28.019" fill="white" transform="translate(229.47 115.616)"/>
</clipPath>
</defs>
</svg>
