<svg width="320" height="196" viewBox="0 0 320 196" fill="none" xmlns="http://www.w3.org/2000/svg">
<mask id="mask0_6971_2964" style="mask-type:alpha" maskUnits="userSpaceOnUse" x="0" y="0" width="320" height="196">
<rect width="320" height="196" rx="24.948" fill="#686868"/>
<rect width="320" height="196" rx="24.948" fill="url(#paint0_linear_6971_2964)" fill-opacity="0.25"/>
</mask>
<g mask="url(#mask0_6971_2964)">
<rect width="320" height="196" rx="24.948" fill="#686868"/>
<rect width="320" height="196" rx="24.948" fill="url(#paint1_linear_6971_2964)" fill-opacity="0.25"/>
<g clip-path="url(#clip0_6971_2964)">
<g filter="url(#filter0_d_6971_2964)">
<rect x="-0.851099" y="-1.00284" width="218.785" height="126.776" rx="7.85397" transform="matrix(0.999984 -0.00668147 -0.169183 0.985604 59.5883 37.9975)" stroke="#CBCBCB" stroke-width="2.04886"/>
<g filter="url(#filter1_d_6971_2964)">
<path d="M58.704 44.1596C59.2863 40.7674 62.5483 37.9989 65.9899 37.9759L270.259 36.6111C273.701 36.5881 276.019 39.3193 275.436 42.7114L256.443 153.36C255.861 156.752 252.599 159.52 249.157 159.543L44.8881 160.908C41.4465 160.931 39.1286 158.2 39.7108 154.808L58.704 44.1596Z" fill="white"/>
</g>
<path fill-rule="evenodd" clip-rule="evenodd" d="M67.5314 64.1338L260.748 62.8428L260.056 66.8733L66.8369 68.1643L67.5314 64.1338Z" fill="#E9E9EB"/>
<rect width="50.0946" height="8.17886" rx="1.06126" transform="matrix(0.999984 -0.00668147 -0.169183 0.985604 129.326 84.8574)" fill="#E9E9EB"/>
<rect width="50.0946" height="8.17886" rx="1.06126" transform="matrix(0.999984 -0.00668147 -0.169183 0.985604 126.731 99.9722)" fill="#E9E9EB"/>
<rect width="69.5191" height="8.17886" rx="1.06126" transform="matrix(0.999984 -0.00668147 -0.169183 0.985604 124.137 115.084)" fill="#E9E9EB"/>
<rect width="22.4915" height="7.1565" rx="1.06126" transform="matrix(0.999984 -0.00668147 -0.169183 0.985604 121.542 130.201)" fill="#E9E9EB"/>
<rect width="92.0993" height="9.4116" rx="1.06126" transform="matrix(0.999984 -0.00668147 -0.169183 0.985604 70.3794 46.5508)" fill="#20263D" fill-opacity="0.3"/>
<rect width="18.8232" height="9.4116" rx="1.06126" transform="matrix(0.999984 -0.00668147 -0.169183 0.985604 244.492 45.3877)" fill="#DBB107" fill-opacity="0.5"/>
<g clip-path="url(#clip1_6971_2964)">
<g clip-path="url(#clip2_6971_2964)">
<rect width="58.3789" height="70.0546" transform="matrix(0.999984 -0.00668147 -0.169183 0.985604 65.2227 75.5542)" fill="#92C2D7"/>
<path d="M114.532 134.135C116.402 138.847 116.073 149.745 116.073 149.745L48.4617 150.196C48.4617 150.196 51.8787 139.277 55.3717 134.53C58.8648 129.784 75.9587 125.289 75.9587 125.289C76.9637 127.856 80.8089 130.179 85.14 130.255C89.8397 130.337 95.0809 127.954 97.0657 125.146C97.0657 125.146 112.662 129.423 114.532 134.135Z" fill="white"/>
<path d="M79.2148 121.511L79.1967 121.616C78.7846 123.846 76.5929 125.535 72.6216 126.683C76.6149 129.913 80.7204 132.49 85.2733 132.46C89.8261 132.429 94.8269 129.791 99.9393 126.501C96.3796 125.401 94.7638 123.735 95.092 121.502C95.2375 120.655 96.6577 112.399 96.8071 111.551C97.0721 111.587 97.0531 111.563 96.8164 111.497C97.3031 108.705 96.6879 112.36 97.3597 108.544C98.0315 104.729 82.4003 101.424 80.84 111.898C80.6599 112.967 79.4073 120.301 79.2148 121.511Z" fill="url(#paint2_linear_6971_2964)"/>
<path d="M79.8786 116.394C86.6614 115.667 92.4492 118.47 92.4492 118.47C92.4492 118.47 90.0994 124.919 78.7231 123.125L79.8786 116.394Z" fill="#CDCDCD"/>
<path d="M114.532 134.135C116.402 138.847 116.073 149.745 116.073 149.745L48.4617 150.196C48.4617 150.196 51.8787 139.277 55.3717 134.53C58.8648 129.784 75.9587 125.289 75.9587 125.289C75.4667 128.155 80.3942 132.251 84.7898 132.295C90.9362 132.254 96.5734 128.014 97.0657 125.146C97.0657 125.146 112.662 129.423 114.532 134.135Z" fill="#979797"/>
<path d="M76.7266 102.952C77.8662 101.485 78.8024 102.483 79.128 103.165L78.6319 109.658C78.5131 110.223 78.1078 110.585 77.1922 110.702C76.0477 110.85 75.8238 107.847 75.7584 106.726C75.6929 105.605 75.3022 104.786 76.7266 102.952Z" fill="url(#paint3_linear_6971_2964)"/>
<path d="M103.495 103.146C102.872 101.683 101.584 102.685 101.017 103.368L99.2212 109.864C99.1404 110.429 99.4184 110.789 100.293 110.904C101.386 111.046 102.671 108.041 103.132 106.918C103.593 105.796 104.273 104.976 103.495 103.146Z" fill="url(#paint4_linear_6971_2964)"/>
<path d="M102.416 104.293C100.803 113.689 92.5942 121.352 87.2078 121.388C81.3164 121.427 76.2275 113.853 77.8403 104.457C79.2773 96.0857 81.4905 87.1361 93.1005 87.0585C104.711 86.9809 103.886 95.728 102.416 104.293Z" fill="url(#paint5_linear_6971_2964)"/>
</g>
</g>
<g clip-path="url(#clip3_6971_2964)">
<path d="M233.091 135.763L233.084 135.805C232.922 136.682 232.059 137.347 230.495 137.8C232.067 139.071 233.684 140.086 235.476 140.074C237.269 140.062 239.238 139.023 241.251 137.728C239.849 137.295 239.213 136.639 239.342 135.76C239.4 135.426 239.959 132.175 240.018 131.842C240.122 131.856 240.114 131.846 240.021 131.82C240.213 130.721 239.971 132.16 240.235 130.658C240.5 129.155 234.345 127.854 233.731 131.978C233.66 132.399 233.167 135.287 233.091 135.763Z" fill="url(#paint6_linear_6971_2964)"/>
<path d="M233.399 134.18C236.069 133.893 238.256 134.831 238.256 134.831C238.256 134.831 237.431 137.488 232.952 136.782L233.399 134.18Z" fill="black" fill-opacity="0.1"/>
<path d="M231.861 128.914C232.299 128.316 232.689 128.701 232.829 128.968L232.718 131.555C232.678 131.781 232.52 131.93 232.154 131.989C231.696 132.062 231.565 130.871 231.523 130.427C231.481 129.982 231.313 129.661 231.861 128.914Z" fill="url(#paint7_linear_6971_2964)"/>
<path d="M243.305 129.029C243.128 128.409 242.58 128.76 242.328 129.013L241.335 131.569C241.278 131.795 241.37 131.953 241.707 132.036C242.127 132.141 242.763 130.977 242.993 130.542C243.224 130.107 243.526 129.803 243.305 129.029Z" fill="url(#paint8_linear_6971_2964)"/>
<path d="M246.996 140.733C247.732 142.588 247.603 146.879 247.603 146.879L220.982 147.057C220.982 147.057 222.328 142.757 223.703 140.888C225.078 139.019 231.809 137.25 231.809 137.25C232.204 138.261 233.718 139.175 235.424 139.205C237.274 139.237 239.338 138.299 240.119 137.193C240.119 137.193 246.26 138.877 246.996 140.733Z" fill="white"/>
<path d="M246.996 140.733C247.732 142.588 247.603 146.879 247.603 146.879L220.982 147.057C220.982 147.057 222.328 142.757 223.703 140.888C225.078 139.019 231.809 137.25 231.809 137.25C231.615 138.378 233.555 139.991 235.286 140.008C237.706 139.992 239.925 138.323 240.119 137.193C240.119 137.193 246.26 138.877 246.996 140.733Z" fill="#C6C6C6"/>
<path d="M242.482 129.221C241.805 133.163 238.457 136.378 236.273 136.393C233.884 136.409 231.838 133.23 232.515 129.287C233.118 125.775 233.851 121.967 238.745 121.988C243.988 121.953 243.099 125.627 242.482 129.221Z" fill="url(#paint9_linear_6971_2964)"/>
</g>
<path d="M58.6486 44.4828C59.2616 40.9122 62.6952 37.998 66.318 37.9737L269.931 36.6133C273.554 36.5891 275.994 39.4641 275.381 43.0347L256.499 153.036C255.886 156.607 252.452 159.521 248.829 159.545L45.2162 160.906C41.5935 160.93 39.1535 158.055 39.7664 154.484L58.6486 44.4828Z" fill="url(#paint10_linear_6971_2964)"/>
</g>
<path d="M165.711 27.4264C166.059 22.3712 151.946 22.3456 146.389 21.6706C125.602 19.1457 124.496 18.1352 112.715 15.9397C33.2067 14.7427 69.138 26.1001 -1.82962 48.1158C-9.72415 50.5664 -16.4428 55.7073 -20.8197 62.5639C-37.0089 87.9488 -54.1031 112.669 -76.66 134.488C-105.757 158.629 -99.8298 202.428 -96.2568 216.273C-85.6672 244.236 -30.8635 205.301 -16.7798 204.78C-8.81234 204.79 4.88736 205.783 12.407 203.281C48.2296 186.636 54.171 191.039 84.4446 192.145C90.2572 192.358 111.632 187.011 111.632 187.011C125.527 187.531 139.942 186.692 140.087 182.745C141.068 156.032 79.0184 165.321 61.8843 162.905C43.1053 162.365 37.7531 142.347 31.0611 125.379C25.3969 111.029 27.5846 94.8756 36.6718 82.339C44.2774 71.8501 52.0387 61.3975 62.5829 49.5392C87.7171 28.3236 162.76 70.3679 165.711 27.4141L165.711 27.4264Z" fill="white" fill-opacity="0.5"/>
<path d="M165.711 27.4264C166.059 22.3712 151.946 22.3456 146.389 21.6706C125.602 19.1457 124.496 18.1352 112.715 15.9397C33.2067 14.7427 69.138 26.1001 -1.82962 48.1158C-9.72415 50.5664 -16.4428 55.7073 -20.8197 62.5639C-37.0089 87.9488 -54.1031 112.669 -76.66 134.488C-105.757 158.629 -99.8298 202.428 -96.2568 216.273C-85.6672 244.236 -30.8635 205.301 -16.7798 204.78C-8.81234 204.79 4.88736 205.783 12.407 203.281C48.2296 186.636 54.171 191.039 84.4446 192.145C90.2572 192.358 111.632 187.011 111.632 187.011C125.527 187.531 139.942 186.692 140.087 182.745C141.068 156.032 79.0184 165.321 61.8843 162.905C43.1053 162.365 37.7531 142.347 31.0611 125.379C25.3969 111.029 27.5846 94.8756 36.6718 82.339C44.2774 71.8501 52.0387 61.3975 62.5829 49.5392C87.7171 28.3236 162.76 70.3679 165.711 27.4141L165.711 27.4264Z" fill="url(#paint11_linear_6971_2964)" fill-opacity="0.2"/>
<path d="M112.643 16.6231C124.331 18.8039 125.523 19.8265 146.306 22.3509C147.712 22.5217 149.665 22.6517 151.744 22.8263C153.839 23.0023 156.089 23.2253 158.147 23.5812C160.219 23.9395 162.037 24.4226 163.298 25.0937C164.559 25.7639 165.082 26.5098 165.028 27.3674C164.666 32.6324 163.205 36.5314 160.926 39.4013C158.648 42.2709 155.508 44.17 151.684 45.3548C143.996 47.7371 133.689 47.1939 122.541 45.9477C111.456 44.7084 99.5572 42.776 88.9034 42.4879C78.2604 42.2001 68.6305 43.5379 62.1411 49.0155L62.1038 49.0473L62.0711 49.0843C52.8248 59.4829 45.714 68.8019 38.9833 77.9993L36.1172 81.9373C26.8961 94.6588 24.6719 111.057 30.4239 125.631C33.7455 134.053 36.7937 143.403 41.3606 150.668C45.9516 157.971 52.1563 163.299 61.8321 163.588C66.1865 164.195 73.3273 164.066 81.4794 163.953C89.6938 163.839 98.9961 163.74 107.727 164.397C116.473 165.055 124.565 166.466 130.389 169.329C133.294 170.757 135.601 172.53 137.152 174.718C138.697 176.896 139.52 179.522 139.402 182.719C139.393 182.983 139.269 183.266 138.929 183.578C138.58 183.898 138.037 184.215 137.283 184.512C135.777 185.106 133.596 185.556 130.935 185.873C125.628 186.505 118.59 186.586 111.658 186.326L111.56 186.323L111.466 186.347L111.465 186.347L111.462 186.348C111.46 186.348 111.456 186.349 111.451 186.35C111.44 186.353 111.425 186.357 111.405 186.362C111.365 186.372 111.304 186.387 111.226 186.406C111.068 186.445 110.836 186.502 110.539 186.575C109.945 186.72 109.089 186.928 108.043 187.176C105.951 187.674 103.103 188.334 100.074 188.988C97.0434 189.642 93.8382 190.289 91.032 190.757C88.206 191.23 85.8442 191.511 84.4695 191.461C76.9098 191.184 70.8865 190.703 65.4939 190.393C60.1108 190.085 55.371 189.949 50.4474 190.374C40.5932 191.225 30.0781 194.318 12.1652 202.639C8.5173 203.846 3.3194 204.224 -2.02692 204.287C-7.4119 204.351 -12.7211 204.1 -16.7788 204.095L-16.7915 204.096L-16.8052 204.096C-18.6829 204.166 -21.1676 204.865 -24.0413 205.928C-26.9327 206.996 -30.2895 208.459 -33.9326 210.103C-41.2342 213.398 -49.7038 217.426 -58.069 220.567C-66.4463 223.713 -74.6218 225.931 -81.3242 225.662C-84.6645 225.529 -87.602 224.779 -90.0121 223.251C-92.406 221.733 -94.327 219.417 -95.6038 216.063C-97.3738 209.185 -99.7227 194.883 -98.0281 179.315C-96.3306 163.72 -90.5857 146.932 -76.2226 135.015L-76.2024 134.998L-76.1841 134.98C-53.5675 113.104 -36.4391 88.3272 -20.2431 62.9319L-20.2422 62.9329C-15.9529 56.2134 -9.36679 51.1734 -1.62624 48.7706L-1.62718 48.7696C16.1474 43.2555 27.249 38.4032 35.1464 34.2381C39.094 32.1561 42.2346 30.2492 44.9983 28.5259C47.7684 26.7985 50.1354 25.2717 52.5716 23.9225C62.218 18.5807 72.9377 16.0281 112.643 16.6231Z" stroke="white" stroke-opacity="0.5" stroke-width="1.3701"/>
<path d="M133.771 35.944C133.533 35.9353 133.292 35.8345 133.116 35.6504C119.58 24.1799 113.453 16.6024 113.562 13.6467C113.693 13.1551 114.183 13.4734 114.687 13.6082C121.361 15.329 134.856 18.3592 139.164 20.9127C140.682 21.8139 141.94 22.9507 142.153 25.0052C142.474 28.0748 137.437 33.5839 135.073 35.728C134.884 35.8989 134.009 35.9588 133.771 35.9501L133.771 35.944Z" fill="black" fill-opacity="0.1"/>
<path d="M-6.17175 106.146C0.895556 106.639 7.52986 102.866 13.0397 98.5234C19.9207 93.0987 25.8828 86.5685 30.6092 79.2726C34.1015 73.8875 36.9198 68.0914 40.7054 62.8929C47.0761 54.1375 51.4882 44.7746 57.0415 35.5027C67.0802 35.603 78.9877 37.2531 91.5586 34.1083C98.8821 37.5682 106.889 39.6448 115.004 40.1913C120.153 40.5367 125.558 40.2171 130.06 37.7634C134.561 35.3096 138.282 30.3187 137.31 25.3667C136.218 22.514 121.509 18.3863 113.29 16.0688C106.392 10.6411 98.1059 10.3011 89.2693 9.7964C80.4326 9.29166 70.471 6.84648 61.8816 6.76067C53.2922 6.67477 44.2812 6.02142 39.3894 9.29806C15.9527 25.0117 9.53347 49.2427 -15.4255 62.5403C-17.9717 70.2193 -20.0029 78.5649 -18.5231 86.5106C-17.0433 94.4564 -12.6468 101.109 -6.16546 106.146L-6.17175 106.146Z" fill="url(#paint12_linear_6971_2964)" fill-opacity="0.5"/>
<path d="M35.3438 49.7024L54.0092 32.1283L59.0285 32.1784C59.0285 32.1784 57.118 40.0561 51.0104 52.0024C44.9743 60.5162 38.6003 71.7825 33.8191 80.3088C29.0379 88.8351 17.5662 108.931 17.5662 108.931C17.5662 108.931 19.2454 96.3926 22.761 89.0786C26.2766 81.7645 35.3438 49.7024 35.3438 49.7024Z" fill="url(#paint13_linear_6971_2964)"/>
<path d="M-5.44516 103.422C1.62214 103.915 8.25645 100.142 13.7663 95.7994C20.6473 90.3746 26.6094 83.8444 31.3358 76.5486C34.8281 71.1635 37.6464 65.3674 41.4319 60.1689C47.8027 51.4135 52.2148 42.0506 57.7681 32.7787C67.8068 32.879 79.7143 34.5291 92.2852 31.3843C99.6087 34.8442 107.616 36.9208 115.731 37.4673C120.879 37.8127 126.284 37.4931 130.786 35.0394C135.288 32.5856 139.009 27.5947 138.036 22.6427C136.944 19.79 122.235 15.6623 114.017 13.3448C107.118 7.91712 98.8325 7.57716 89.9958 7.07242C81.1592 6.56767 67.3428 6.01601 58.7535 5.93019C50.1641 5.84429 45.0078 3.29744 40.1159 6.57407C16.6793 22.2877 10.2601 46.5187 -14.6989 59.8163C-17.2451 67.4953 -19.2764 75.8408 -17.7965 83.7866C-16.3167 91.7324 -11.9202 98.3845 -5.43888 103.422L-5.44516 103.422Z" fill="url(#paint14_linear_6971_2964)" fill-opacity="0.5"/>
<path d="M40.4979 7.14304C42.7541 5.63189 45.0793 5.44077 47.9945 5.67392C50.8635 5.9034 54.4349 6.57225 58.7474 6.61537C67.3226 6.70105 81.1274 7.25197 89.9574 7.75633C98.8452 8.26399 106.895 8.61292 113.594 13.8834L113.701 13.9674L113.832 14.0039C117.946 15.1639 123.657 16.7702 128.475 18.4405C130.886 19.2763 133.052 20.1213 134.674 20.9263C135.486 21.3294 136.142 21.7122 136.618 22.0679C137.072 22.4064 137.291 22.6694 137.375 22.8411C137.795 25.082 137.176 27.3655 135.885 29.4115C134.58 31.4791 132.614 33.2623 130.457 34.4375C126.129 36.7967 120.884 37.1268 115.776 36.7841C107.746 36.2433 99.8226 34.1881 92.577 30.765L92.3553 30.6602L92.1184 30.7194C79.661 33.8358 67.9215 32.1955 57.7738 32.0941L57.3822 32.0902L57.1801 32.4261C51.7532 41.4868 47.5015 50.4591 41.4672 58.9461L40.8779 59.7654C38.9633 62.3947 37.2974 65.1688 35.6816 67.9434C34.0608 70.7265 32.4957 73.5012 30.7612 76.1758C26.076 83.408 20.1649 89.8827 13.3423 95.2615C7.92032 99.5344 1.53772 103.135 -5.18545 102.75C-11.4582 97.8187 -15.6903 91.3553 -17.1232 83.6617C-18.553 75.984 -16.6321 67.877 -14.1319 60.2872C-1.6589 53.5739 6.20854 44.1523 13.817 34.5262C21.248 25.1244 28.4228 15.5471 39.421 7.87938L40.4979 7.14304Z" stroke="url(#paint15_linear_6971_2964)" stroke-opacity="0.5" stroke-width="1.3701"/>
</g>
<rect width="320" height="196" rx="24.948" fill="url(#paint16_linear_6971_2964)" fill-opacity="0.3"/>
<mask id="path-37-inside-1_6971_2964" fill="white">
<path d="M43.76 168.136C39.9629 168.136 36.8848 165.058 36.8848 161.261L36.8848 31.7425C36.8848 27.9454 39.9629 24.8672 43.76 24.8672H276.24C280.037 24.8672 283.115 27.9453 283.115 31.7425V161.261C283.115 165.058 280.037 168.136 276.24 168.136H43.76Z"/>
</mask>
<g clip-path="url(#paint17_diamond_6971_2964_clip_path)" data-figma-skip-parse="true" mask="url(#path-37-inside-1_6971_2964)"><g transform="matrix(0.125795 -0.0614472 0.305031 0.601578 34.2051 157.949)"><rect x="0" y="0" width="2044.64" height="181.512" fill="url(#paint17_diamond_6971_2964)" opacity="1" shape-rendering="crispEdges"/><rect x="0" y="0" width="2044.64" height="181.512" transform="scale(1 -1)" fill="url(#paint17_diamond_6971_2964)" opacity="1" shape-rendering="crispEdges"/><rect x="0" y="0" width="2044.64" height="181.512" transform="scale(-1 1)" fill="url(#paint17_diamond_6971_2964)" opacity="1" shape-rendering="crispEdges"/><rect x="0" y="0" width="2044.64" height="181.512" transform="scale(-1)" fill="url(#paint17_diamond_6971_2964)" opacity="1" shape-rendering="crispEdges"/></g></g><path d="M36.8848 161.261H39.8848L39.8848 31.7425H36.8848H33.8848L33.8848 161.261H36.8848ZM43.76 24.8672V27.8672H276.24V24.8672V21.8672H43.76V24.8672ZM283.115 31.7425H280.115V161.261H283.115H286.115V31.7425L283.115 31.7425ZM276.24 168.136V165.136H43.76V168.136V171.136H276.24V168.136ZM283.115 161.261H280.115C280.115 163.401 278.38 165.136 276.24 165.136V168.136V171.136C281.694 171.136 286.115 166.715 286.115 161.261H283.115ZM276.24 24.8672V27.8672C278.38 27.8672 280.115 29.6022 280.115 31.7425H283.115L286.115 31.7425C286.115 26.2885 281.694 21.8672 276.24 21.8672V24.8672ZM36.8848 31.7425H39.8848C39.8848 29.6022 41.6198 27.8672 43.76 27.8672V24.8672V21.8672C38.3061 21.8672 33.8848 26.2885 33.8848 31.7425H36.8848ZM36.8848 161.261H33.8848C33.8848 166.715 38.3061 171.136 43.76 171.136V168.136V165.136C41.6198 165.136 39.8848 163.401 39.8848 161.261H36.8848Z" data-figma-gradient-fill="{&#34;type&#34;:&#34;GRADIENT_DIAMOND&#34;,&#34;stops&#34;:[{&#34;color&#34;:{&#34;r&#34;:1.0,&#34;g&#34;:1.0,&#34;b&#34;:1.0,&#34;a&#34;:1.0},&#34;position&#34;:0.0},{&#34;color&#34;:{&#34;r&#34;:1.0,&#34;g&#34;:1.0,&#34;b&#34;:1.0,&#34;a&#34;:0.0},&#34;position&#34;:1.0},{&#34;color&#34;:{&#34;r&#34;:1.0,&#34;g&#34;:1.0,&#34;b&#34;:1.0,&#34;a&#34;:0.54000002145767212},&#34;position&#34;:1.0}],&#34;stopsVar&#34;:[],&#34;transform&#34;:{&#34;m00&#34;:251.58995056152344,&#34;m01&#34;:610.06237792968750,&#34;m02&#34;:-396.621093750,&#34;m10&#34;:-122.89430999755859,&#34;m11&#34;:1203.1555175781250,&#34;m12&#34;:-382.18206787109375},&#34;opacity&#34;:1.0,&#34;blendMode&#34;:&#34;NORMAL&#34;,&#34;visible&#34;:true}" mask="url(#path-37-inside-1_6971_2964)"/>
<path d="M36.8848 161.261H39.8848L39.8848 31.7425H36.8848H33.8848L33.8848 161.261H36.8848ZM43.76 24.8672V27.8672H276.24V24.8672V21.8672H43.76V24.8672ZM283.115 31.7425H280.115V161.261H283.115H286.115V31.7425L283.115 31.7425ZM276.24 168.136V165.136H43.76V168.136V171.136H276.24V168.136ZM283.115 161.261H280.115C280.115 163.401 278.38 165.136 276.24 165.136V168.136V171.136C281.694 171.136 286.115 166.715 286.115 161.261H283.115ZM276.24 24.8672V27.8672C278.38 27.8672 280.115 29.6022 280.115 31.7425H283.115L286.115 31.7425C286.115 26.2885 281.694 21.8672 276.24 21.8672V24.8672ZM36.8848 31.7425H39.8848C39.8848 29.6022 41.6198 27.8672 43.76 27.8672V24.8672V21.8672C38.3061 21.8672 33.8848 26.2885 33.8848 31.7425H36.8848ZM36.8848 161.261H33.8848C33.8848 166.715 38.3061 171.136 43.76 171.136V168.136V165.136C41.6198 165.136 39.8848 163.401 39.8848 161.261H36.8848Z" fill="white" fill-opacity="0.35" mask="url(#path-37-inside-1_6971_2964)"/>
<mask id="mask1_6971_2964" style="mask-type:alpha" maskUnits="userSpaceOnUse" x="36" y="24" width="248" height="145">
<rect x="36.8848" y="168.136" width="143.269" height="246.23" rx="10.9131" transform="rotate(-90 36.8848 168.136)" fill="#D9D9D9"/>
</mask>
<g mask="url(#mask1_6971_2964)">
<g filter="url(#filter2_f_6971_2964)">
<rect width="487.269" height="102.828" transform="matrix(0.82308 -0.567925 0.582295 0.812977 -187.966 46.8984)" fill="url(#paint18_linear_6971_2964)" fill-opacity="0.5"/>
</g>
</g>
</g>
<defs>
<filter id="filter0_d_6971_2964" x="37.6351" y="34.5957" width="240.826" height="130.228" filterUnits="userSpaceOnUse" color-interpolation-filters="sRGB">
<feFlood flood-opacity="0" result="BackgroundImageFix"/>
<feColorMatrix in="SourceAlpha" type="matrix" values="0 0 0 0 0 0 0 0 0 0 0 0 0 0 0 0 0 0 127 0" result="hardAlpha"/>
<feOffset dx="0.95" dy="1.9"/>
<feComposite in2="hardAlpha" operator="out"/>
<feColorMatrix type="matrix" values="0 0 0 0 0.75 0 0 0 0 0.75 0 0 0 0 0.75 0 0 0 1 0"/>
<feBlend mode="normal" in2="BackgroundImageFix" result="effect1_dropShadow_6971_2964"/>
<feBlend mode="normal" in="SourceGraphic" in2="effect1_dropShadow_6971_2964" result="shape"/>
</filter>
<filter id="filter1_d_6971_2964" x="19.2336" y="18.9416" width="276.68" height="165.073" filterUnits="userSpaceOnUse" color-interpolation-filters="sRGB">
<feFlood flood-opacity="0" result="BackgroundImageFix"/>
<feColorMatrix in="SourceAlpha" type="matrix" values="0 0 0 0 0 0 0 0 0 0 0 0 0 0 0 0 0 0 127 0" result="hardAlpha"/>
<feOffset dy="2.71835"/>
<feGaussianBlur stdDeviation="10.1938"/>
<feColorMatrix type="matrix" values="0 0 0 0 0 0 0 0 0 0 0 0 0 0 0 0 0 0 0.15 0"/>
<feBlend mode="normal" in2="BackgroundImageFix" result="effect1_dropShadow_6971_2964"/>
<feBlend mode="normal" in="SourceGraphic" in2="effect1_dropShadow_6971_2964" result="shape"/>
</filter>
<clipPath id="paint17_diamond_6971_2964_clip_path"><path d="M36.8848 161.261H39.8848L39.8848 31.7425H36.8848H33.8848L33.8848 161.261H36.8848ZM43.76 24.8672V27.8672H276.24V24.8672V21.8672H43.76V24.8672ZM283.115 31.7425H280.115V161.261H283.115H286.115V31.7425L283.115 31.7425ZM276.24 168.136V165.136H43.76V168.136V171.136H276.24V168.136ZM283.115 161.261H280.115C280.115 163.401 278.38 165.136 276.24 165.136V168.136V171.136C281.694 171.136 286.115 166.715 286.115 161.261H283.115ZM276.24 24.8672V27.8672C278.38 27.8672 280.115 29.6022 280.115 31.7425H283.115L286.115 31.7425C286.115 26.2885 281.694 21.8672 276.24 21.8672V24.8672ZM36.8848 31.7425H39.8848C39.8848 29.6022 41.6198 27.8672 43.76 27.8672V24.8672V21.8672C38.3061 21.8672 33.8848 26.2885 33.8848 31.7425H36.8848ZM36.8848 161.261H33.8848C33.8848 166.715 38.3061 171.136 43.76 171.136V168.136V165.136C41.6198 165.136 39.8848 163.401 39.8848 161.261H36.8848Z" mask="url(#path-37-inside-1_6971_2964)"/></clipPath><filter id="filter2_f_6971_2964" x="-217.966" y="-259.833" width="520.938" height="420.329" filterUnits="userSpaceOnUse" color-interpolation-filters="sRGB">
<feFlood flood-opacity="0" result="BackgroundImageFix"/>
<feBlend mode="normal" in="SourceGraphic" in2="BackgroundImageFix" result="shape"/>
<feGaussianBlur stdDeviation="15" result="effect1_foregroundBlur_6971_2964"/>
</filter>
<linearGradient id="paint0_linear_6971_2964" x1="160" y1="0" x2="160" y2="131.704" gradientUnits="userSpaceOnUse">
<stop stop-color="white"/>
<stop offset="0.611797" stop-color="white" stop-opacity="0.24"/>
<stop offset="1" stop-color="white" stop-opacity="0"/>
</linearGradient>
<linearGradient id="paint1_linear_6971_2964" x1="160" y1="0" x2="160" y2="131.704" gradientUnits="userSpaceOnUse">
<stop stop-color="white"/>
<stop offset="0.611797" stop-color="white" stop-opacity="0.24"/>
<stop offset="1" stop-color="white" stop-opacity="0"/>
</linearGradient>
<linearGradient id="paint2_linear_6971_2964" x1="87.4911" y1="112.49" x2="87.5776" y2="125.44" gradientUnits="userSpaceOnUse">
<stop stop-color="#B1B1B1"/>
<stop offset="1" stop-color="white"/>
</linearGradient>
<linearGradient id="paint3_linear_6971_2964" x1="78.5597" y1="106.221" x2="76.3486" y2="106.257" gradientUnits="userSpaceOnUse">
<stop offset="0.171875" stop-color="#BDBDBD"/>
<stop offset="0.640625" stop-color="#E1E1E1"/>
<stop offset="1" stop-color="#DDDDDD"/>
</linearGradient>
<linearGradient id="paint4_linear_6971_2964" x1="100.506" y1="106.425" x2="102.452" y2="107.142" gradientUnits="userSpaceOnUse">
<stop offset="0.0416667" stop-color="#B5B5B5"/>
<stop offset="0.362488" stop-color="#E2E2E2"/>
<stop offset="1" stop-color="white"/>
</linearGradient>
<linearGradient id="paint5_linear_6971_2964" x1="79.4043" y1="104.135" x2="96.2234" y2="107.086" gradientUnits="userSpaceOnUse">
<stop stop-color="#E0E0E0"/>
<stop offset="1" stop-color="white"/>
</linearGradient>
<linearGradient id="paint6_linear_6971_2964" x1="236.35" y1="132.211" x2="236.384" y2="137.31" gradientUnits="userSpaceOnUse">
<stop stop-color="#D6D4D4"/>
<stop offset="1" stop-color="#E4E4E4"/>
</linearGradient>
<linearGradient id="paint7_linear_6971_2964" x1="232.082" y1="129.563" x2="232.329" y2="131.105" gradientUnits="userSpaceOnUse">
<stop stop-color="#D7D7D7"/>
<stop offset="1" stop-color="#CDCDCD"/>
</linearGradient>
<linearGradient id="paint8_linear_6971_2964" x1="242.81" y1="129.652" x2="242.406" y2="131.277" gradientUnits="userSpaceOnUse">
<stop stop-color="#D9D9D9"/>
<stop offset="1" stop-color="#CDCDCD"/>
</linearGradient>
<linearGradient id="paint9_linear_6971_2964" x1="231.95" y1="131.056" x2="237.582" y2="132.023" gradientUnits="userSpaceOnUse">
<stop stop-color="#CECECE"/>
<stop offset="1" stop-color="#E7E7E7"/>
</linearGradient>
<linearGradient id="paint10_linear_6971_2964" x1="58.8314" y1="157.62" x2="253.003" y2="47.4555" gradientUnits="userSpaceOnUse">
<stop stop-color="white"/>
<stop offset="1" stop-color="white" stop-opacity="0"/>
</linearGradient>
<linearGradient id="paint11_linear_6971_2964" x1="-76.2373" y1="226.81" x2="2.73824" y2="118.906" gradientUnits="userSpaceOnUse">
<stop/>
<stop offset="1" stop-opacity="0"/>
</linearGradient>
<linearGradient id="paint12_linear_6971_2964" x1="52.9674" y1="33.9669" x2="19.2239" y2="69.9674" gradientUnits="userSpaceOnUse">
<stop stop-color="#DCDCDC"/>
<stop offset="1" stop-color="#DCDCDC" stop-opacity="0"/>
</linearGradient>
<linearGradient id="paint13_linear_6971_2964" x1="44.4955" y1="52.9558" x2="23.5806" y2="101.398" gradientUnits="userSpaceOnUse">
<stop stop-color="#D9D9D9"/>
<stop offset="1" stop-color="#D9D9D9" stop-opacity="0"/>
</linearGradient>
<linearGradient id="paint14_linear_6971_2964" x1="29.4856" y1="50.9917" x2="5.36724" y2="87.3941" gradientUnits="userSpaceOnUse">
<stop stop-color="white"/>
<stop offset="1" stop-color="white" stop-opacity="0"/>
</linearGradient>
<linearGradient id="paint15_linear_6971_2964" x1="46.653" y1="36.1526" x2="12.6155" y2="80.6935" gradientUnits="userSpaceOnUse">
<stop stop-color="white"/>
<stop offset="1" stop-color="white" stop-opacity="0"/>
</linearGradient>
<linearGradient id="paint16_linear_6971_2964" x1="301.867" y1="190.815" x2="279.493" y2="137.467" gradientUnits="userSpaceOnUse">
<stop stop-color="#686868"/>
<stop offset="1" stop-color="#686868" stop-opacity="0"/>
</linearGradient>
<linearGradient id="paint17_diamond_6971_2964" x1="0" y1="0" x2="500" y2="500" gradientUnits="userSpaceOnUse">
<stop stop-color="white"/>
<stop offset="1" stop-color="white" stop-opacity="0"/>
<stop offset="1" stop-color="white" stop-opacity="0.54"/>
</linearGradient>
<linearGradient id="paint18_linear_6971_2964" x1="243.634" y1="0" x2="243.634" y2="102.828" gradientUnits="userSpaceOnUse">
<stop stop-color="white" stop-opacity="0"/>
<stop offset="0.385417" stop-color="white"/>
<stop offset="0.567708" stop-color="white"/>
<stop offset="1" stop-color="white" stop-opacity="0"/>
</linearGradient>
<clipPath id="clip0_6971_2964">
<rect width="381.648" height="243.939" fill="white" transform="matrix(0.999332 0.0365346 -0.0366785 0.999327 -97.4004 -5.6582)"/>
</clipPath>
<clipPath id="clip1_6971_2964">
<rect width="57.1419" height="69.2425" rx="3.11585" transform="matrix(0.999984 -0.00668147 -0.169183 0.985604 65.2617 76.3672)" fill="white"/>
</clipPath>
<clipPath id="clip2_6971_2964">
<rect width="74.3737" height="74.3736" fill="white" transform="matrix(0.999984 -0.00668147 -0.169183 0.985604 57.9019 75.5273)"/>
</clipPath>
<clipPath id="clip3_6971_2964">
<rect width="29.2835" height="29.2836" fill="white" transform="matrix(0.999984 -0.00668147 -0.169183 0.985604 224.699 117.658)"/>
</clipPath>
</defs>
</svg>
