<svg width="416" height="196" viewBox="0 0 416 196" fill="none" xmlns="http://www.w3.org/2000/svg">
<mask id="mask0_6971_2672" style="mask-type:alpha" maskUnits="userSpaceOnUse" x="-284" y="0" width="321" height="196">
<rect x="-283.5" width="320" height="196" rx="24.948" fill="#686868"/>
<rect x="-283.5" width="320" height="196" rx="24.948" fill="url(#paint0_linear_6971_2672)" fill-opacity="0.25"/>
</mask>
<g mask="url(#mask0_6971_2672)">
<rect x="-283.5" width="320" height="196" rx="24.948" fill="#686868"/>
<rect x="-283.5" width="320" height="196" rx="24.948" fill="url(#paint1_linear_6971_2672)" fill-opacity="0.25"/>
<rect x="-283.5" width="320" height="196" rx="24.948" fill="url(#paint2_linear_6971_2672)" fill-opacity="0.3"/>
</g>
<mask id="mask1_6971_2672" style="mask-type:alpha" maskUnits="userSpaceOnUse" x="48" y="0" width="321" height="196">
<rect x="48.5" width="320" height="196" rx="24.948" fill="#686868"/>
<rect x="48.5" width="320" height="196" rx="24.948" fill="url(#paint3_linear_6971_2672)" fill-opacity="0.25"/>
</mask>
<g mask="url(#mask1_6971_2672)">
<rect x="48.5" width="320" height="196" rx="24.948" fill="#686868"/>
<rect x="48.5" width="320" height="196" rx="24.948" fill="url(#paint4_linear_6971_2672)" fill-opacity="0.25"/>
<g filter="url(#filter0_f_6971_2672)">
<g clip-path="url(#clip0_6971_2672)">
<rect x="84.1776" y="25.6725" width="246.242" height="142.672" rx="8.70246" stroke="#CBCBCB" stroke-width="2.27021"/>
<g filter="url(#filter1_d_6971_2672)">
<path d="M85.3135 33.7125C85.3135 29.8991 88.4049 26.8076 92.2184 26.8076L322.38 26.8076C326.194 26.8076 329.285 29.8991 329.285 33.7125V160.304C329.285 164.118 326.194 167.209 322.38 167.209L92.2184 167.209C88.4049 167.209 85.3135 164.118 85.3135 160.304L85.3135 33.7125Z" fill="white"/>
</g>
<path fill-rule="evenodd" clip-rule="evenodd" d="M99.1255 56.7285L316.626 56.7285V61.3318L99.1226 61.3318L99.1255 56.7285Z" fill="#E9E9EB"/>
<rect x="172.775" y="80.8965" width="56.3897" height="9.20665" rx="1.17592" fill="#E9E9EB"/>
<rect x="172.775" y="98.1592" width="56.3897" height="9.20665" rx="1.17592" fill="#E9E9EB"/>
<rect x="172.775" y="115.419" width="78.2551" height="9.20665" rx="1.17592" fill="#E9E9EB"/>
<rect x="172.775" y="132.684" width="25.3178" height="8.05582" rx="1.17592" fill="#E9E9EB"/>
<rect x="98.9341" y="36.646" width="103.673" height="10.5943" rx="1.17592" fill="#20263D" fill-opacity="0.3"/>
<rect x="294.929" y="36.646" width="21.1886" height="10.5943" rx="1.17592" fill="#DBB107" fill-opacity="0.5"/>
<g clip-path="url(#clip1_6971_2672)">
<g clip-path="url(#clip2_6971_2672)">
<rect x="98.7358" y="70.7837" width="64.6857" height="77.6228" fill="#92C2D7"/>
<path d="M164.59 137.088C167.562 142.405 169.273 154.668 169.273 154.668H94.356C94.356 154.668 96.0672 142.404 99.0383 137.088C102.009 131.772 120.116 126.841 120.116 126.841C121.72 129.739 126.428 132.382 131.247 132.5C136.476 132.628 141.836 129.984 143.503 126.839C143.503 126.839 161.619 131.77 164.59 137.088Z" fill="white"/>
<path d="M123.009 122.614V122.732C122.976 125.239 120.866 127.123 116.68 128.386C121.724 132.051 126.77 134.983 131.814 134.983C136.859 134.983 141.904 132.051 146.949 128.386C142.791 127.122 140.681 125.234 140.62 122.724C140.62 121.771 140.623 112.489 140.628 111.537C140.929 111.579 140.903 111.552 140.628 111.476C140.636 108.337 140.649 112.446 140.668 108.156C140.687 103.867 122.717 100.03 122.981 111.807C122.985 113.008 122.992 121.254 123.009 122.614Z" fill="url(#paint5_linear_6971_2672)"/>
<path d="M122.771 116.86C130.157 116.092 137.111 119.29 137.111 119.29C137.111 119.29 135.732 126.532 122.771 124.427V116.86Z" fill="#CDCDCD"/>
<path d="M164.59 137.088C167.562 142.405 169.273 154.668 169.273 154.668H94.356C94.356 154.668 96.0672 142.404 99.0383 137.088C102.009 131.772 120.116 126.841 120.116 126.841C120.116 130.064 126.362 134.71 131.247 134.793C138.057 134.793 143.503 130.064 143.503 126.839C143.503 126.839 161.619 131.77 164.59 137.088Z" fill="#979797"/>
<path d="M116.715 101.707C117.7 100.064 118.928 101.194 119.419 101.964L120.105 109.268C120.081 109.904 119.7 110.308 118.707 110.433C117.466 110.59 116.645 107.209 116.359 105.947C116.073 104.685 115.484 103.761 116.715 101.707Z" fill="url(#paint6_linear_6971_2672)"/>
<path d="M146.446 102.127C145.477 100.475 144.238 101.593 143.739 102.358L142.984 109.655C143.002 110.291 143.379 110.698 144.371 110.834C145.611 111.002 146.464 107.629 146.762 106.37C147.06 105.11 147.658 104.192 146.446 102.127Z" fill="url(#paint7_linear_6971_2672)"/>
<path d="M145.468 103.409C145.468 113.972 137.821 122.535 131.852 122.535C125.324 122.535 118.237 113.972 118.237 103.409C118.237 93.9981 118.988 83.9419 131.852 83.9419C144.717 83.9419 145.468 93.7805 145.468 103.409Z" fill="url(#paint8_linear_6971_2672)"/>
</g>
</g>
<g clip-path="url(#clip3_6971_2672)">
<path d="M299.564 139.896V139.943C299.551 140.946 298.707 141.7 297.032 142.205C299.05 143.671 301.068 144.844 303.086 144.844C305.104 144.844 307.122 143.671 309.14 142.205C307.476 141.699 306.633 140.944 306.608 139.94C306.608 139.559 306.609 135.846 306.611 135.465C306.732 135.482 306.721 135.471 306.611 135.441C306.615 134.185 306.62 135.829 306.627 134.113C306.635 132.397 299.447 130.862 299.553 135.573C299.554 136.054 299.557 139.352 299.564 139.896Z" fill="url(#paint9_linear_6971_2672)"/>
<path d="M299.604 138.088C302.559 137.781 305.204 138.87 305.204 138.87C305.204 138.87 304.789 141.902 299.604 141.061V138.088Z" fill="black" fill-opacity="0.1"/>
<path d="M296.692 131.853C297.064 131.183 297.57 131.619 297.777 131.92L298.147 134.832C298.145 135.086 297.998 135.252 297.603 135.316C297.109 135.395 296.736 134.054 296.605 133.553C296.475 133.052 296.227 132.69 296.692 131.853Z" fill="url(#paint10_linear_6971_2672)"/>
<path d="M309.409 132.068C309.095 131.369 308.554 131.76 308.323 132.043L307.708 134.912C307.688 135.166 307.82 135.344 308.209 135.441C308.694 135.561 309.179 134.257 309.352 133.769C309.524 133.281 309.802 132.941 309.409 132.068Z" fill="url(#paint11_linear_6971_2672)"/>
<path d="M316.196 145.684C317.384 147.811 318.068 152.717 318.068 152.717H288.102C288.102 152.717 288.786 147.811 289.975 145.684C291.163 143.558 298.406 141.586 298.406 141.586C299.047 142.745 300.931 143.802 302.858 143.849C304.95 143.9 307.094 142.843 307.761 141.585C307.761 141.585 315.007 143.557 316.196 145.684Z" fill="white"/>
<path d="M316.196 145.684C317.384 147.811 318.068 152.717 318.068 152.717H288.102C288.102 152.717 288.786 147.811 289.975 145.684C291.163 143.558 298.406 141.586 298.406 141.586C298.406 142.875 300.904 144.733 302.858 144.767C305.582 144.767 307.761 142.875 307.761 141.585C307.761 141.585 315.007 143.557 316.196 145.684Z" fill="#C6C6C6"/>
<path d="M308.532 132.278C308.532 136.71 305.431 140.303 303.01 140.303C300.363 140.303 297.489 136.71 297.489 132.278C297.489 128.329 297.577 124.049 303.01 124.109C308.82 124.109 308.532 128.237 308.532 132.278Z" fill="url(#paint12_linear_6971_2672)"/>
</g>
<path d="M207.293 14.8735C207.468 9.30695 192.307 9.84555 186.312 9.32727C163.885 7.38863 162.657 6.3232 149.917 4.38477C64.4677 6.2627 103.51 17.2947 28.1502 44.3263C19.7672 47.335 12.7532 53.2515 8.32224 60.9585C-8.06618 89.491 -25.4527 117.33 -48.8214 142.201C-79.1231 169.885 -71.03 217.756 -66.6464 232.82C-54.1695 263.109 3.16119 218.143 18.2682 217.005C26.8266 216.695 41.5808 217.236 49.5592 214.187C87.3807 194.465 93.9361 199.062 126.497 199.062C132.749 199.062 155.497 192.331 155.497 192.331C170.442 192.345 185.893 190.844 185.893 186.502C185.893 157.122 119.611 169.816 101.112 167.851C80.9198 168.012 74.3817 146.24 66.5247 127.871C59.8749 112.336 61.588 94.5055 70.8545 80.3705C78.6104 68.5442 86.5348 56.7516 97.393 43.3032C123.554 18.9909 205.816 62.1584 207.293 14.86V14.8735Z" fill="white" fill-opacity="0.5"/>
<path d="M207.293 14.8735C207.468 9.30695 192.307 9.84555 186.312 9.32727C163.885 7.38863 162.657 6.3232 149.917 4.38477C64.4677 6.2627 103.51 17.2947 28.1502 44.3263C19.7672 47.335 12.7532 53.2515 8.32224 60.9585C-8.06618 89.491 -25.4527 117.33 -48.8214 142.201C-79.1231 169.885 -71.03 217.756 -66.6464 232.82C-54.1695 263.109 3.16119 218.143 18.2682 217.005C26.8266 216.695 41.5808 217.236 49.5592 214.187C87.3807 194.465 93.9361 199.062 126.497 199.062C132.749 199.062 155.497 192.331 155.497 192.331C170.442 192.345 185.893 190.844 185.893 186.502C185.893 157.122 119.611 169.816 101.112 167.851C80.9198 168.012 74.3817 146.24 66.5247 127.871C59.8749 112.336 61.588 94.5055 70.8545 80.3705C78.6104 68.5442 86.5348 56.7516 97.393 43.3032C123.554 18.9909 205.816 62.1584 207.293 14.86V14.8735Z" fill="url(#paint13_linear_6971_2672)" fill-opacity="0.2"/>
<path d="M149.868 5.14453C162.499 7.0694 163.827 8.14595 186.246 10.084C187.764 10.2152 189.869 10.2795 192.107 10.3877C194.365 10.4968 196.788 10.6509 199.012 10.959C201.25 11.2691 203.217 11.727 204.594 12.4111C205.964 13.0919 206.558 13.886 206.534 14.8359C206.353 20.6359 204.937 24.9785 202.604 28.2217C200.271 31.4633 196.976 33.6721 192.921 35.125C184.765 38.0475 173.681 37.8656 161.657 36.9443C149.705 36.0285 136.844 34.3828 125.387 34.4941C113.94 34.6055 103.638 36.4633 96.876 42.7471L96.8369 42.7842L96.8027 42.8262C87.2808 54.6196 80.0105 65.1419 73.1436 75.5146L70.2197 79.9541C60.9634 94.0736 59.1313 111.832 65.5166 127.429L65.8271 128.17C69.7269 137.287 73.3688 147.435 78.5605 155.23C83.7774 163.064 90.6565 168.677 101.074 168.609C105.779 169.102 113.45 168.672 122.202 168.221C131.021 167.766 141.008 167.284 150.41 167.654C159.828 168.026 168.568 169.252 174.932 172.16C178.104 173.61 180.65 175.462 182.401 177.801C184.145 180.13 185.134 182.983 185.134 186.502C185.134 186.795 185.01 187.112 184.66 187.466C184.3 187.829 183.733 188.198 182.937 188.554C181.345 189.264 179.024 189.845 176.18 190.3C170.507 191.207 162.954 191.579 155.498 191.572H155.388L155.282 191.604H155.281L155.278 191.604C155.276 191.605 155.271 191.607 155.266 191.608C155.255 191.612 155.238 191.616 155.217 191.622C155.174 191.635 155.11 191.654 155.026 191.679C154.859 191.728 154.612 191.8 154.296 191.892C153.663 192.075 152.752 192.337 151.639 192.652C149.412 193.282 146.378 194.122 143.15 194.962C139.922 195.802 136.505 196.64 133.51 197.268C130.493 197.9 127.971 198.303 126.497 198.303C118.367 198.303 111.879 198.017 106.073 197.894C100.279 197.771 95.1806 197.811 89.9062 198.476C79.3477 199.807 68.169 203.629 49.252 213.49C45.3873 214.958 39.8291 215.581 34.0938 215.865C28.3107 216.151 22.6043 216.088 18.2412 216.246L18.2256 216.247L18.2109 216.248C16.1902 216.4 13.544 217.271 10.499 218.554C7.43446 219.844 3.88631 221.586 0.0380859 223.538C-7.67563 227.45 -16.6134 232.213 -25.4736 235.999C-34.3474 239.791 -43.035 242.554 -50.2363 242.528C-53.8241 242.516 -57.0022 241.81 -59.6455 240.231C-62.273 238.662 -64.4274 236.197 -65.9316 232.56C-68.1041 225.073 -71.1896 209.461 -69.9834 192.296C-68.7746 175.095 -63.2643 156.425 -48.3096 142.762L-48.2881 142.742L-48.2686 142.721C-24.8372 117.783 -7.41458 89.881 8.98047 61.3369C13.3226 53.7845 20.1948 47.9883 28.4062 45.041C47.2825 38.2701 59.0167 32.4926 67.3369 27.5996C71.4959 25.1537 74.7955 22.9327 77.6963 20.9287C80.6041 18.9199 83.0856 17.1485 85.6484 15.5693C95.7915 9.31934 107.196 6.08538 149.868 5.14453Z" stroke="white" stroke-opacity="0.5" stroke-width="1.51812"/>
<path d="M173.322 25.512C173.066 25.512 172.803 25.411 172.607 25.2158C157.615 13.1604 150.736 5.0833 150.736 1.8325C150.857 1.28729 151.397 1.61711 151.943 1.745C159.179 3.36716 173.794 6.15349 178.522 8.78529C180.188 9.71416 181.584 10.9123 181.894 13.1604C182.359 16.5192 177.166 22.7725 174.711 25.2226C174.516 25.4178 173.578 25.5187 173.322 25.5187V25.512Z" fill="black" fill-opacity="0.1"/>
<path d="M25.7748 108.24C33.3854 108.498 40.3626 104.087 46.1097 99.0958C53.2868 92.861 59.4334 85.4489 64.2225 77.2454C67.7613 71.1902 70.56 64.7107 74.4212 58.8488C80.9189 48.9761 85.2889 38.5148 90.8883 28.1077C101.675 27.8148 114.53 29.149 127.909 25.19C135.912 28.6963 144.594 30.6556 153.332 30.93C158.875 31.1027 164.669 30.5346 169.408 27.6587C174.146 24.7827 177.946 19.1514 176.706 13.7511C175.421 10.6617 159.459 6.71844 150.54 4.50301C142.916 -1.18171 134.003 -1.2224 124.491 -1.42196C114.98 -1.62151 104.183 -3.90725 94.9541 -3.6566C85.7246 -3.40603 76.0199 -3.76182 70.8947 0.0336388C46.3405 18.2344 40.4007 45.1073 14.1161 60.7155C11.6839 69.2522 9.83109 78.5004 11.7339 87.1686C13.6366 95.8367 18.6212 102.967 25.7815 108.24L25.7748 108.24Z" fill="url(#paint14_linear_6971_2672)" fill-opacity="0.5"/>
<path d="M68.1415 44.5759L87.4976 24.5233L92.8909 24.3768C92.8909 24.3768 91.1494 33.1063 85.06 46.4732C78.9122 56.0669 72.5099 68.6977 67.7105 78.2549C62.911 87.812 51.3814 110.346 51.3814 110.346C51.3814 110.346 52.6907 96.5064 56.1785 88.3316C59.6663 80.1567 68.1415 44.5759 68.1415 44.5759Z" fill="url(#paint15_linear_6971_2672)"/>
<path d="M26.4481 105.218C34.0586 105.476 41.0359 101.065 46.783 96.0738C53.9601 89.839 60.1067 82.4269 64.8958 74.2235C68.4346 68.1683 71.2333 61.6888 75.0945 55.8268C81.5922 45.9542 85.9622 35.4928 91.5616 25.0857C102.348 24.7928 115.203 26.1271 128.582 22.1681C136.585 25.6743 145.267 27.6336 154.005 27.9081C159.549 28.0807 165.342 27.5126 170.081 24.6367C174.82 21.7608 178.62 16.1294 177.379 10.7292C176.094 7.63972 160.132 3.69649 151.213 1.48106C143.59 -4.20366 134.676 -4.24435 125.165 -4.4439C115.653 -4.64346 100.791 -4.6946 91.5615 -4.44394C82.3321 -4.19338 76.6932 -6.78376 71.568 -2.98831C47.0138 15.2124 41.074 42.0853 14.7894 57.6935C12.3572 66.2302 10.5044 75.4784 12.4072 84.1466C14.3099 92.8147 19.2945 99.9447 26.4548 105.218L26.4481 105.218Z" fill="url(#paint16_linear_6971_2672)" fill-opacity="0.5"/>
<path d="M72.0193 -2.379C74.3753 -4.12374 76.8558 -4.42633 79.9917 -4.28755C83.0763 -4.15099 86.947 -3.5592 91.5818 -3.68499C100.795 -3.93521 115.645 -3.88454 125.149 -3.68515C134.717 -3.48441 143.365 -3.42408 150.759 2.08948L150.882 2.18091L151.03 2.2179C155.495 3.32691 161.692 4.86082 166.932 6.50164C169.555 7.32275 171.913 8.16305 173.685 8.98134C174.572 9.39095 175.29 9.78507 175.814 10.1554C176.312 10.5078 176.557 10.7869 176.653 10.9718C177.74 15.9024 174.258 21.2138 169.687 23.988C165.139 26.7485 159.526 27.3208 154.028 27.1496C145.387 26.8782 136.801 24.9399 128.887 21.4726L128.633 21.3613L128.366 21.4399C115.115 25.3612 102.451 24.0311 91.5406 24.3274L91.1013 24.3394L90.893 24.726C85.4211 34.8962 81.2081 44.9213 75.0615 54.4852L74.4605 55.409C72.5074 58.3742 70.8274 61.4887 69.2012 64.6011C67.7739 67.333 66.392 70.0557 64.8913 72.7084L64.2403 73.8408C59.4931 81.9724 53.3995 89.3197 46.2849 95.5003C40.6314 100.41 33.9301 104.611 26.7123 104.463C19.7886 99.302 14.9904 92.3758 13.1481 83.9835C11.3092 75.6055 13.0539 66.6218 15.44 58.1852C28.5738 50.3083 36.6538 39.6431 44.4449 28.7668C52.3023 17.7979 59.8573 6.63776 72.0203 -2.37805L72.0193 -2.379Z" stroke="url(#paint17_linear_6971_2672)" stroke-opacity="0.5" stroke-width="1.51812"/>
</g>
</g>
<rect x="48.5" width="320" height="196" rx="24.948" fill="url(#paint18_linear_6971_2672)" fill-opacity="0.3"/>
<mask id="path-39-inside-1_6971_2672" fill="white">
<path d="M92.26 168.136C88.4629 168.136 85.3848 165.058 85.3848 161.261L85.3848 31.7425C85.3848 27.9454 88.4629 24.8672 92.26 24.8672H324.74C328.537 24.8672 331.615 27.9453 331.615 31.7425V161.261C331.615 165.058 328.537 168.136 324.74 168.136H92.26Z"/>
</mask>
<g clip-path="url(#paint19_diamond_6971_2672_clip_path)" data-figma-skip-parse="true" mask="url(#path-39-inside-1_6971_2672)"><g transform="matrix(0.125795 -0.0614472 0.305031 0.601578 82.7051 157.949)"><rect x="0" y="0" width="2044.64" height="181.512" fill="url(#paint19_diamond_6971_2672)" opacity="1" shape-rendering="crispEdges"/><rect x="0" y="0" width="2044.64" height="181.512" transform="scale(1 -1)" fill="url(#paint19_diamond_6971_2672)" opacity="1" shape-rendering="crispEdges"/><rect x="0" y="0" width="2044.64" height="181.512" transform="scale(-1 1)" fill="url(#paint19_diamond_6971_2672)" opacity="1" shape-rendering="crispEdges"/><rect x="0" y="0" width="2044.64" height="181.512" transform="scale(-1)" fill="url(#paint19_diamond_6971_2672)" opacity="1" shape-rendering="crispEdges"/></g></g><path d="M85.3848 161.261H88.3848L88.3848 31.7425H85.3848H82.3848L82.3848 161.261H85.3848ZM92.26 24.8672V27.8672H324.74V24.8672V21.8672H92.26V24.8672ZM331.615 31.7425H328.615V161.261H331.615H334.615V31.7425L331.615 31.7425ZM324.74 168.136V165.136H92.26V168.136V171.136H324.74V168.136ZM331.615 161.261H328.615C328.615 163.401 326.88 165.136 324.74 165.136V168.136V171.136C330.194 171.136 334.615 166.715 334.615 161.261H331.615ZM324.74 24.8672V27.8672C326.88 27.8672 328.615 29.6022 328.615 31.7425H331.615L334.615 31.7425C334.615 26.2885 330.194 21.8672 324.74 21.8672V24.8672ZM85.3848 31.7425H88.3848C88.3848 29.6022 90.1198 27.8672 92.26 27.8672V24.8672V21.8672C86.8061 21.8672 82.3848 26.2885 82.3848 31.7425H85.3848ZM85.3848 161.261H82.3848C82.3848 166.715 86.8061 171.136 92.26 171.136V168.136V165.136C90.1198 165.136 88.3848 163.401 88.3848 161.261H85.3848Z" data-figma-gradient-fill="{&#34;type&#34;:&#34;GRADIENT_DIAMOND&#34;,&#34;stops&#34;:[{&#34;color&#34;:{&#34;r&#34;:1.0,&#34;g&#34;:1.0,&#34;b&#34;:1.0,&#34;a&#34;:1.0},&#34;position&#34;:0.0},{&#34;color&#34;:{&#34;r&#34;:1.0,&#34;g&#34;:1.0,&#34;b&#34;:1.0,&#34;a&#34;:0.0},&#34;position&#34;:1.0},{&#34;color&#34;:{&#34;r&#34;:1.0,&#34;g&#34;:1.0,&#34;b&#34;:1.0,&#34;a&#34;:0.54000002145767212},&#34;position&#34;:1.0}],&#34;stopsVar&#34;:[],&#34;transform&#34;:{&#34;m00&#34;:251.58995056152344,&#34;m01&#34;:610.06237792968750,&#34;m02&#34;:-348.121093750,&#34;m10&#34;:-122.89430999755859,&#34;m11&#34;:1203.1555175781250,&#34;m12&#34;:-382.18206787109375},&#34;opacity&#34;:1.0,&#34;blendMode&#34;:&#34;NORMAL&#34;,&#34;visible&#34;:true}" mask="url(#path-39-inside-1_6971_2672)"/>
<path d="M85.3848 161.261H88.3848L88.3848 31.7425H85.3848H82.3848L82.3848 161.261H85.3848ZM92.26 24.8672V27.8672H324.74V24.8672V21.8672H92.26V24.8672ZM331.615 31.7425H328.615V161.261H331.615H334.615V31.7425L331.615 31.7425ZM324.74 168.136V165.136H92.26V168.136V171.136H324.74V168.136ZM331.615 161.261H328.615C328.615 163.401 326.88 165.136 324.74 165.136V168.136V171.136C330.194 171.136 334.615 166.715 334.615 161.261H331.615ZM324.74 24.8672V27.8672C326.88 27.8672 328.615 29.6022 328.615 31.7425H331.615L334.615 31.7425C334.615 26.2885 330.194 21.8672 324.74 21.8672V24.8672ZM85.3848 31.7425H88.3848C88.3848 29.6022 90.1198 27.8672 92.26 27.8672V24.8672V21.8672C86.8061 21.8672 82.3848 26.2885 82.3848 31.7425H85.3848ZM85.3848 161.261H82.3848C82.3848 166.715 86.8061 171.136 92.26 171.136V168.136V165.136C90.1198 165.136 88.3848 163.401 88.3848 161.261H85.3848Z" fill="white" fill-opacity="0.35" mask="url(#path-39-inside-1_6971_2672)"/>
<mask id="mask2_6971_2672" style="mask-type:alpha" maskUnits="userSpaceOnUse" x="85" y="24" width="247" height="145">
<rect x="85.3848" y="168.136" width="143.269" height="246.23" rx="10.9131" transform="rotate(-90 85.3848 168.136)" fill="#D9D9D9"/>
</mask>
<g mask="url(#mask2_6971_2672)">
<g filter="url(#filter2_f_6971_2672)">
<rect width="487.269" height="102.828" transform="matrix(0.82308 -0.567925 0.582295 0.812977 -139.467 46.8984)" fill="url(#paint20_linear_6971_2672)" fill-opacity="0.5"/>
</g>
</g>
</g>
<mask id="mask3_6971_2672" style="mask-type:alpha" maskUnits="userSpaceOnUse" x="380" y="0" width="321" height="196">
<rect x="380.5" width="320" height="196" rx="24.948" fill="#686868"/>
<rect x="380.5" width="320" height="196" rx="24.948" fill="url(#paint21_linear_6971_2672)" fill-opacity="0.25"/>
</mask>
<g mask="url(#mask3_6971_2672)">
<rect x="380.5" width="320" height="196" rx="24.948" fill="#686868"/>
<rect x="380.5" width="320" height="196" rx="24.948" fill="url(#paint22_linear_6971_2672)" fill-opacity="0.25"/>
<g clip-path="url(#clip4_6971_2672)">
<rect x="416.178" y="25.6725" width="246.242" height="142.672" rx="8.70246" fill="url(#paint23_linear_6971_2672)"/>
<rect x="416.178" y="25.6725" width="246.242" height="142.672" rx="8.70246" fill="url(#paint24_linear_6971_2672)" fill-opacity="0.2"/>
<rect x="416.178" y="25.6725" width="246.242" height="142.672" rx="8.70246" stroke="#CBCBCB" stroke-width="2.27021"/>
<g filter="url(#filter3_d_6971_2672)">
<path d="M417.313 33.7125C417.313 29.8991 420.405 26.8076 424.218 26.8076L654.38 26.8076C658.194 26.8076 661.285 29.8991 661.285 33.7125V160.304C661.285 164.118 658.194 167.209 654.38 167.209L424.218 167.209C420.405 167.209 417.313 164.118 417.313 160.304V33.7125Z" fill="white"/>
</g>
<path d="M539.293 14.8735C539.468 9.30695 524.307 9.84555 518.312 9.32727C495.885 7.38863 494.657 6.3232 481.917 4.38477C396.468 6.2627 435.51 17.2947 360.15 44.3263C351.767 47.335 344.753 53.2515 340.322 60.9585C323.934 89.491 306.547 117.33 283.179 142.201C252.877 169.885 260.97 217.756 265.354 232.82C277.83 263.109 335.161 218.143 350.268 217.005C358.827 216.695 373.581 217.236 381.559 214.187C419.381 194.465 425.936 199.062 458.497 199.062C464.749 199.062 487.497 192.331 487.497 192.331C502.442 192.345 517.893 190.844 517.893 186.502C517.893 157.122 451.611 169.816 433.112 167.851C412.92 168.012 406.382 146.24 398.525 127.871C391.875 112.336 393.588 94.5055 402.855 80.3705C410.61 68.5442 418.535 56.7516 429.393 43.3032C455.554 18.9909 537.816 62.1584 539.293 14.86V14.8735Z" fill="white" fill-opacity="0.5"/>
<path d="M539.293 14.8735C539.468 9.30695 524.307 9.84555 518.312 9.32727C495.885 7.38863 494.657 6.3232 481.917 4.38477C396.468 6.2627 435.51 17.2947 360.15 44.3263C351.767 47.335 344.753 53.2515 340.322 60.9585C323.934 89.491 306.547 117.33 283.179 142.201C252.877 169.885 260.97 217.756 265.354 232.82C277.83 263.109 335.161 218.143 350.268 217.005C358.827 216.695 373.581 217.236 381.559 214.187C419.381 194.465 425.936 199.062 458.497 199.062C464.749 199.062 487.497 192.331 487.497 192.331C502.442 192.345 517.893 190.844 517.893 186.502C517.893 157.122 451.611 169.816 433.112 167.851C412.92 168.012 406.382 146.24 398.525 127.871C391.875 112.336 393.588 94.5055 402.855 80.3705C410.61 68.5442 418.535 56.7516 429.393 43.3032C455.554 18.9909 537.816 62.1584 539.293 14.86V14.8735Z" fill="url(#paint25_linear_6971_2672)" fill-opacity="0.2"/>
<path d="M481.868 5.14453C494.499 7.0694 495.827 8.14595 518.246 10.084C519.764 10.2152 521.869 10.2795 524.107 10.3877C526.365 10.4968 528.788 10.6509 531.012 10.959C533.25 11.2691 535.217 11.727 536.594 12.4111C537.964 13.0919 538.558 13.886 538.534 14.8359C538.353 20.6359 536.937 24.9785 534.604 28.2217C532.271 31.4633 528.976 33.6721 524.921 35.125C516.765 38.0475 505.681 37.8656 493.657 36.9443C481.705 36.0285 468.844 34.3828 457.387 34.4941C445.94 34.6055 435.638 36.4633 428.876 42.7471L428.837 42.7842L428.803 42.8262C419.281 54.6196 412.011 65.1419 405.144 75.5146L402.22 79.9541C392.963 94.0736 391.131 111.832 397.517 127.429L397.827 128.17C401.727 137.287 405.369 147.435 410.561 155.23C415.777 163.064 422.656 168.677 433.074 168.609C437.779 169.102 445.45 168.672 454.202 168.221C463.021 167.766 473.008 167.284 482.41 167.654C491.828 168.026 500.568 169.252 506.932 172.16C510.104 173.61 512.65 175.462 514.401 177.801C516.145 180.13 517.134 182.983 517.134 186.502C517.134 186.795 517.01 187.112 516.66 187.466C516.3 187.829 515.733 188.198 514.937 188.554C513.345 189.264 511.024 189.845 508.18 190.3C502.507 191.207 494.954 191.579 487.498 191.572H487.388L487.282 191.604H487.281L487.278 191.604C487.276 191.605 487.271 191.607 487.266 191.608C487.255 191.612 487.238 191.616 487.217 191.622C487.174 191.635 487.11 191.654 487.026 191.679C486.859 191.728 486.612 191.8 486.296 191.892C485.663 192.075 484.752 192.337 483.639 192.652C481.412 193.282 478.378 194.122 475.15 194.962C471.922 195.802 468.505 196.64 465.51 197.268C462.493 197.9 459.971 198.303 458.497 198.303C450.367 198.303 443.879 198.017 438.073 197.894C432.279 197.771 427.181 197.811 421.906 198.476C411.348 199.807 400.169 203.629 381.252 213.49C377.387 214.958 371.829 215.581 366.094 215.865C360.311 216.151 354.604 216.088 350.241 216.246L350.226 216.247L350.211 216.248C348.19 216.4 345.544 217.271 342.499 218.554C339.434 219.844 335.886 221.586 332.038 223.538C324.324 227.45 315.387 232.213 306.526 235.999C297.653 239.791 288.965 242.554 281.764 242.528C278.176 242.516 274.998 241.81 272.354 240.231C269.727 238.662 267.573 236.197 266.068 232.56C263.896 225.073 260.81 209.461 262.017 192.296C263.225 175.095 268.736 156.425 283.69 142.762L283.712 142.742L283.731 142.721C307.163 117.783 324.585 89.881 340.98 61.3369C345.323 53.7845 352.195 47.9883 360.406 45.041C379.282 38.2701 391.017 32.4926 399.337 27.5996C403.496 25.1537 406.795 22.9327 409.696 20.9287C412.604 18.9199 415.086 17.1485 417.648 15.5693C427.792 9.31934 439.196 6.08538 481.868 5.14453Z" stroke="white" stroke-opacity="0.5" stroke-width="1.51812"/>
<path d="M357.775 108.24C365.385 108.498 372.363 104.087 378.11 99.0958C385.287 92.861 391.433 85.4489 396.222 77.2454C399.761 71.1902 402.56 64.7107 406.421 58.8488C412.919 48.9761 417.289 38.5148 422.888 28.1077C433.675 27.8148 446.53 29.149 459.909 25.19C467.912 28.6963 476.594 30.6556 485.332 30.93C490.875 31.1027 496.669 30.5346 501.408 27.6587C506.146 24.7827 509.946 19.1514 508.706 13.7511C507.421 10.6617 491.459 6.71844 482.54 4.50301C474.916 -1.18171 466.003 -1.2224 456.491 -1.42196C446.98 -1.62151 436.183 -3.90725 426.954 -3.6566C417.725 -3.40603 408.02 -3.76182 402.895 0.0336388C378.34 18.2344 372.401 45.1073 346.116 60.7155C343.684 69.2522 341.831 78.5004 343.734 87.1686C345.637 95.8367 350.621 102.967 357.782 108.24L357.775 108.24Z" fill="url(#paint26_linear_6971_2672)" fill-opacity="0.5"/>
<path d="M400.142 44.5759L419.498 24.5233L424.891 24.3768C424.891 24.3768 423.149 33.1063 417.06 46.4732C410.912 56.0669 404.51 68.6977 399.71 78.2549C394.911 87.812 383.381 110.346 383.381 110.346C383.381 110.346 384.691 96.5064 388.178 88.3316C391.666 80.1567 400.142 44.5759 400.142 44.5759Z" fill="url(#paint27_linear_6971_2672)"/>
<path d="M358.448 105.218C366.058 105.475 373.036 101.064 378.783 96.0734C385.96 89.8385 392.106 82.4264 396.896 74.223C400.434 68.1678 403.233 61.6883 407.094 55.8263C413.592 45.9537 417.962 35.4924 423.561 25.0853C434.348 24.7923 447.203 26.1266 460.582 22.1676C468.585 25.6738 477.267 27.6331 486.005 27.9076C491.549 28.0802 497.342 27.5121 502.081 24.6362C506.819 21.7603 510.619 16.1289 509.379 10.7287C508.094 7.63923 492.132 3.696 483.213 1.48057C475.589 -4.20415 466.676 -4.24484 457.164 -4.44439C447.653 -4.64395 432.791 -4.69509 423.561 -4.44443C414.332 -4.19386 408.693 -6.78425 403.568 -2.98879C379.014 15.2119 373.074 42.0848 346.789 57.693C344.357 66.2298 342.504 75.478 344.407 84.1461C346.31 92.8142 351.294 99.9442 358.455 105.217L358.448 105.218Z" fill="url(#paint28_linear_6971_2672)" fill-opacity="0.5"/>
<path d="M404.019 -2.37949C406.375 -4.12423 408.856 -4.42682 411.991 -4.28804C415.076 -4.15148 418.947 -3.55969 423.582 -3.68547C432.795 -3.9357 447.645 -3.88503 457.149 -3.68564C466.717 -3.4849 475.365 -3.42456 482.759 2.08899L482.882 2.18042L483.03 2.21742C487.495 3.32643 493.692 4.86033 498.932 6.50115C501.554 7.32226 503.913 8.16256 505.685 8.98085C506.572 9.39046 507.289 9.78458 507.813 10.1549C508.312 10.5073 508.556 10.7864 508.653 10.9713C509.74 15.9019 506.258 21.2133 501.687 23.9875C497.138 26.748 491.525 27.3203 486.028 27.1491C477.387 26.8777 468.8 24.9394 460.887 21.4722L460.632 21.3609L460.366 21.4394C447.114 25.3607 434.45 24.0306 423.54 24.3269L423.101 24.3389L422.893 24.7255C417.421 34.8957 413.208 44.9208 407.061 54.4847L406.46 55.4085C404.507 58.3737 402.827 61.4882 401.201 64.6006C399.774 67.3325 398.392 70.0552 396.891 72.7079L396.24 73.8403C391.493 81.9719 385.399 89.3192 378.285 95.4998C372.631 100.409 365.93 104.611 358.712 104.462C351.788 99.3015 346.99 92.3753 345.148 83.983C343.309 75.605 345.054 66.6213 347.44 58.1847C360.574 50.3078 368.654 39.6426 376.445 28.7663C384.302 17.7974 391.857 6.63727 404.02 -2.37854L404.019 -2.37949Z" stroke="url(#paint29_linear_6971_2672)" stroke-opacity="0.5" stroke-width="1.51812"/>
</g>
<rect x="380.5" width="320" height="196" rx="24.948" fill="url(#paint30_linear_6971_2672)" fill-opacity="0.3"/>
</g>
<path d="M364 173C364 181.284 357.284 188 349 188C340.716 188 334 181.284 334 173C334 164.716 340.716 158 349 158C357.284 158 364 164.716 364 173Z" fill="white"/>
<path d="M350.991 164.804C351.139 164.788 351.288 164.814 351.421 164.879L351.517 164.935C351.608 164.996 351.687 165.077 351.746 165.172C351.805 165.266 351.843 165.372 351.858 165.481L351.866 165.592V179.815C351.866 179.964 351.824 180.11 351.745 180.235C351.667 180.361 351.555 180.462 351.422 180.527C351.289 180.592 351.14 180.619 350.992 180.604C350.882 180.592 350.775 180.557 350.679 180.502L350.587 180.44L345.467 176.459H342.184C341.816 176.459 341.464 176.313 341.204 176.054C340.944 175.794 340.798 175.442 340.798 175.074V170.333C340.798 169.966 340.944 169.613 341.204 169.354C341.464 169.094 341.816 168.947 342.184 168.947H345.467L350.587 164.966C350.704 164.875 350.844 164.819 350.991 164.804ZM355.004 169.002C355.556 169.002 356.004 169.45 356.004 170.002V176.004C356.004 176.556 355.556 177.004 355.004 177.004C354.452 177.004 354.004 176.556 354.004 176.004V170.002C354.004 169.45 354.452 169.002 355.004 169.002Z" fill="#60667C"/>
<defs>
<filter id="filter0_f_6971_2672" x="-85.0947" y="-15.9438" width="430.879" height="278.292" filterUnits="userSpaceOnUse" color-interpolation-filters="sRGB">
<feFlood flood-opacity="0" result="BackgroundImageFix"/>
<feBlend mode="normal" in="SourceGraphic" in2="BackgroundImageFix" result="shape"/>
<feGaussianBlur stdDeviation="2" result="effect1_foregroundBlur_6971_2672"/>
</filter>
<filter id="filter1_d_6971_2672" x="62.7233" y="7.22947" width="289.152" height="185.582" filterUnits="userSpaceOnUse" color-interpolation-filters="sRGB">
<feFlood flood-opacity="0" result="BackgroundImageFix"/>
<feColorMatrix in="SourceAlpha" type="matrix" values="0 0 0 0 0 0 0 0 0 0 0 0 0 0 0 0 0 0 127 0" result="hardAlpha"/>
<feOffset dy="3.01202"/>
<feGaussianBlur stdDeviation="11.2951"/>
<feColorMatrix type="matrix" values="0 0 0 0 0 0 0 0 0 0 0 0 0 0 0 0 0 0 0.15 0"/>
<feBlend mode="normal" in2="BackgroundImageFix" result="effect1_dropShadow_6971_2672"/>
<feBlend mode="normal" in="SourceGraphic" in2="effect1_dropShadow_6971_2672" result="shape"/>
</filter>
<clipPath id="paint19_diamond_6971_2672_clip_path"><path d="M85.3848 161.261H88.3848L88.3848 31.7425H85.3848H82.3848L82.3848 161.261H85.3848ZM92.26 24.8672V27.8672H324.74V24.8672V21.8672H92.26V24.8672ZM331.615 31.7425H328.615V161.261H331.615H334.615V31.7425L331.615 31.7425ZM324.74 168.136V165.136H92.26V168.136V171.136H324.74V168.136ZM331.615 161.261H328.615C328.615 163.401 326.88 165.136 324.74 165.136V168.136V171.136C330.194 171.136 334.615 166.715 334.615 161.261H331.615ZM324.74 24.8672V27.8672C326.88 27.8672 328.615 29.6022 328.615 31.7425H331.615L334.615 31.7425C334.615 26.2885 330.194 21.8672 324.74 21.8672V24.8672ZM85.3848 31.7425H88.3848C88.3848 29.6022 90.1198 27.8672 92.26 27.8672V24.8672V21.8672C86.8061 21.8672 82.3848 26.2885 82.3848 31.7425H85.3848ZM85.3848 161.261H82.3848C82.3848 166.715 86.8061 171.136 92.26 171.136V168.136V165.136C90.1198 165.136 88.3848 163.401 88.3848 161.261H85.3848Z" mask="url(#path-39-inside-1_6971_2672)"/></clipPath><filter id="filter2_f_6971_2672" x="-169.467" y="-259.833" width="520.938" height="420.329" filterUnits="userSpaceOnUse" color-interpolation-filters="sRGB">
<feFlood flood-opacity="0" result="BackgroundImageFix"/>
<feBlend mode="normal" in="SourceGraphic" in2="BackgroundImageFix" result="shape"/>
<feGaussianBlur stdDeviation="15" result="effect1_foregroundBlur_6971_2672"/>
</filter>
<filter id="filter3_d_6971_2672" x="394.723" y="7.22947" width="289.152" height="185.582" filterUnits="userSpaceOnUse" color-interpolation-filters="sRGB">
<feFlood flood-opacity="0" result="BackgroundImageFix"/>
<feColorMatrix in="SourceAlpha" type="matrix" values="0 0 0 0 0 0 0 0 0 0 0 0 0 0 0 0 0 0 127 0" result="hardAlpha"/>
<feOffset dy="3.01202"/>
<feGaussianBlur stdDeviation="11.2951"/>
<feColorMatrix type="matrix" values="0 0 0 0 0 0 0 0 0 0 0 0 0 0 0 0 0 0 0.15 0"/>
<feBlend mode="normal" in2="BackgroundImageFix" result="effect1_dropShadow_6971_2672"/>
<feBlend mode="normal" in="SourceGraphic" in2="effect1_dropShadow_6971_2672" result="shape"/>
</filter>
<linearGradient id="paint0_linear_6971_2672" x1="-123.5" y1="0" x2="-123.5" y2="131.704" gradientUnits="userSpaceOnUse">
<stop stop-color="white"/>
<stop offset="0.611797" stop-color="white" stop-opacity="0.24"/>
<stop offset="1" stop-color="white" stop-opacity="0"/>
</linearGradient>
<linearGradient id="paint1_linear_6971_2672" x1="-123.5" y1="0" x2="-123.5" y2="131.704" gradientUnits="userSpaceOnUse">
<stop stop-color="white"/>
<stop offset="0.611797" stop-color="white" stop-opacity="0.24"/>
<stop offset="1" stop-color="white" stop-opacity="0"/>
</linearGradient>
<linearGradient id="paint2_linear_6971_2672" x1="18.3667" y1="190.815" x2="-4.00669" y2="137.467" gradientUnits="userSpaceOnUse">
<stop stop-color="#686868"/>
<stop offset="1" stop-color="#686868" stop-opacity="0"/>
</linearGradient>
<linearGradient id="paint3_linear_6971_2672" x1="208.5" y1="0" x2="208.5" y2="131.704" gradientUnits="userSpaceOnUse">
<stop stop-color="white"/>
<stop offset="0.611797" stop-color="white" stop-opacity="0.24"/>
<stop offset="1" stop-color="white" stop-opacity="0"/>
</linearGradient>
<linearGradient id="paint4_linear_6971_2672" x1="208.5" y1="0" x2="208.5" y2="131.704" gradientUnits="userSpaceOnUse">
<stop stop-color="white"/>
<stop offset="0.611797" stop-color="white" stop-opacity="0.24"/>
<stop offset="1" stop-color="white" stop-opacity="0"/>
</linearGradient>
<linearGradient id="paint5_linear_6971_2672" x1="130.472" y1="112.523" x2="130.472" y2="127.099" gradientUnits="userSpaceOnUse">
<stop stop-color="#B1B1B1"/>
<stop offset="1" stop-color="white"/>
</linearGradient>
<linearGradient id="paint6_linear_6971_2672" x1="119.371" y1="105.4" x2="117.002" y2="105.838" gradientUnits="userSpaceOnUse">
<stop offset="0.171875" stop-color="#BDBDBD"/>
<stop offset="0.640625" stop-color="#E1E1E1"/>
<stop offset="1" stop-color="#DDDDDD"/>
</linearGradient>
<linearGradient id="paint7_linear_6971_2672" x1="143.755" y1="105.794" x2="146.12" y2="106.255" gradientUnits="userSpaceOnUse">
<stop offset="0.0416667" stop-color="#B5B5B5"/>
<stop offset="0.362488" stop-color="#E2E2E2"/>
<stop offset="1" stop-color="white"/>
</linearGradient>
<linearGradient id="paint8_linear_6971_2672" x1="119.91" y1="103.058" x2="139.143" y2="103.131" gradientUnits="userSpaceOnUse">
<stop stop-color="#E0E0E0"/>
<stop offset="1" stop-color="white"/>
</linearGradient>
<linearGradient id="paint9_linear_6971_2672" x1="302.549" y1="135.86" x2="302.549" y2="141.69" gradientUnits="userSpaceOnUse">
<stop stop-color="#D6D4D4"/>
<stop offset="1" stop-color="#E4E4E4"/>
</linearGradient>
<linearGradient id="paint10_linear_6971_2672" x1="297.062" y1="132.585" x2="297.347" y2="134.368" gradientUnits="userSpaceOnUse">
<stop stop-color="#D7D7D7"/>
<stop offset="1" stop-color="#CDCDCD"/>
</linearGradient>
<linearGradient id="paint11_linear_6971_2672" x1="308.979" y1="132.766" x2="308.544" y2="134.518" gradientUnits="userSpaceOnUse">
<stop stop-color="#D9D9D9"/>
<stop offset="1" stop-color="#CDCDCD"/>
</linearGradient>
<linearGradient id="paint12_linear_6971_2672" x1="297.199" y1="134.264" x2="303.631" y2="134.264" gradientUnits="userSpaceOnUse">
<stop stop-color="#CECECE"/>
<stop offset="1" stop-color="#E7E7E7"/>
</linearGradient>
<linearGradient id="paint13_linear_6971_2672" x1="-44.7277" y1="243.589" x2="38.3423" y2="123.625" gradientUnits="userSpaceOnUse">
<stop/>
<stop offset="1" stop-opacity="0"/>
</linearGradient>
<linearGradient id="paint14_linear_6971_2672" x1="86.4516" y1="26.5844" x2="50.7382" y2="66.6909" gradientUnits="userSpaceOnUse">
<stop stop-color="#DCDCDC"/>
<stop offset="1" stop-color="#DCDCDC" stop-opacity="0"/>
</linearGradient>
<linearGradient id="paint15_linear_6971_2672" x1="78.0998" y1="47.782" x2="56.7278" y2="101.505" gradientUnits="userSpaceOnUse">
<stop stop-color="#D9D9D9"/>
<stop offset="1" stop-color="#D9D9D9" stop-opacity="0"/>
</linearGradient>
<linearGradient id="paint16_linear_6971_2672" x1="61.9009" y1="46.2264" x2="36.6232" y2="86.6746" gradientUnits="userSpaceOnUse">
<stop stop-color="white"/>
<stop offset="1" stop-color="white" stop-opacity="0"/>
</linearGradient>
<linearGradient id="paint17_linear_6971_2672" x1="79.7557" y1="29.2379" x2="43.9054" y2="78.7709" gradientUnits="userSpaceOnUse">
<stop stop-color="white"/>
<stop offset="1" stop-color="white" stop-opacity="0"/>
</linearGradient>
<linearGradient id="paint18_linear_6971_2672" x1="350.367" y1="190.815" x2="327.993" y2="137.467" gradientUnits="userSpaceOnUse">
<stop stop-color="#686868"/>
<stop offset="1" stop-color="#686868" stop-opacity="0"/>
</linearGradient>
<linearGradient id="paint19_diamond_6971_2672" x1="0" y1="0" x2="500" y2="500" gradientUnits="userSpaceOnUse">
<stop stop-color="white"/>
<stop offset="1" stop-color="white" stop-opacity="0"/>
<stop offset="1" stop-color="white" stop-opacity="0.54"/>
</linearGradient>
<linearGradient id="paint20_linear_6971_2672" x1="243.634" y1="0" x2="243.634" y2="102.828" gradientUnits="userSpaceOnUse">
<stop stop-color="white" stop-opacity="0"/>
<stop offset="0.385417" stop-color="white"/>
<stop offset="0.567708" stop-color="white"/>
<stop offset="1" stop-color="white" stop-opacity="0"/>
</linearGradient>
<linearGradient id="paint21_linear_6971_2672" x1="540.5" y1="0" x2="540.5" y2="131.704" gradientUnits="userSpaceOnUse">
<stop stop-color="white"/>
<stop offset="0.611797" stop-color="white" stop-opacity="0.24"/>
<stop offset="1" stop-color="white" stop-opacity="0"/>
</linearGradient>
<linearGradient id="paint22_linear_6971_2672" x1="540.5" y1="0" x2="540.5" y2="131.704" gradientUnits="userSpaceOnUse">
<stop stop-color="white"/>
<stop offset="0.611797" stop-color="white" stop-opacity="0.24"/>
<stop offset="1" stop-color="white" stop-opacity="0"/>
</linearGradient>
<linearGradient id="paint23_linear_6971_2672" x1="539.299" y1="26.8076" x2="453.406" y2="153.056" gradientUnits="userSpaceOnUse">
<stop stop-color="white"/>
<stop offset="1" stop-color="white" stop-opacity="0"/>
</linearGradient>
<linearGradient id="paint24_linear_6971_2672" x1="539.299" y1="26.8076" x2="539.299" y2="167.209" gradientUnits="userSpaceOnUse">
<stop/>
<stop offset="1" stop-opacity="0"/>
</linearGradient>
<linearGradient id="paint25_linear_6971_2672" x1="287.272" y1="243.589" x2="370.342" y2="123.625" gradientUnits="userSpaceOnUse">
<stop/>
<stop offset="1" stop-opacity="0"/>
</linearGradient>
<linearGradient id="paint26_linear_6971_2672" x1="418.452" y1="26.5844" x2="382.738" y2="66.6909" gradientUnits="userSpaceOnUse">
<stop stop-color="#DCDCDC"/>
<stop offset="1" stop-color="#DCDCDC" stop-opacity="0"/>
</linearGradient>
<linearGradient id="paint27_linear_6971_2672" x1="410.1" y1="47.782" x2="388.728" y2="101.505" gradientUnits="userSpaceOnUse">
<stop stop-color="#D9D9D9"/>
<stop offset="1" stop-color="#D9D9D9" stop-opacity="0"/>
</linearGradient>
<linearGradient id="paint28_linear_6971_2672" x1="393.901" y1="46.2259" x2="368.623" y2="86.6741" gradientUnits="userSpaceOnUse">
<stop stop-color="white"/>
<stop offset="1" stop-color="white" stop-opacity="0"/>
</linearGradient>
<linearGradient id="paint29_linear_6971_2672" x1="411.755" y1="29.2374" x2="375.905" y2="78.7704" gradientUnits="userSpaceOnUse">
<stop stop-color="white"/>
<stop offset="1" stop-color="white" stop-opacity="0"/>
</linearGradient>
<linearGradient id="paint30_linear_6971_2672" x1="682.367" y1="190.815" x2="659.993" y2="137.467" gradientUnits="userSpaceOnUse">
<stop stop-color="#686868"/>
<stop offset="1" stop-color="#686868" stop-opacity="0"/>
</linearGradient>
<clipPath id="clip0_6971_2672">
<rect width="422.879" height="270.292" fill="white" transform="translate(-81.0947 -11.9438)"/>
</clipPath>
<clipPath id="clip1_6971_2672">
<rect x="98.9341" y="70.6992" width="64.3225" height="77.9437" rx="3.45246" fill="white"/>
</clipPath>
<clipPath id="clip2_6971_2672">
<rect width="82.4085" height="82.4084" fill="white" transform="translate(90.6096 70.6987)"/>
</clipPath>
<clipPath id="clip3_6971_2672">
<rect width="32.9634" height="32.9635" fill="white" transform="translate(286.604 119.13)"/>
</clipPath>
<clipPath id="clip4_6971_2672">
<rect width="422.879" height="270.292" fill="white" transform="translate(250.905 -11.9438)"/>
</clipPath>
</defs>
</svg>
