<svg width="368" height="196" viewBox="0 0 368 196" fill="none" xmlns="http://www.w3.org/2000/svg">
<mask id="mask0_6971_2666" style="mask-type:alpha" maskUnits="userSpaceOnUse" x="0" y="0" width="320" height="196">
<rect width="320" height="196" rx="24.948" fill="#686868"/>
<rect width="320" height="196" rx="24.948" fill="url(#paint0_linear_6971_2666)" fill-opacity="0.25"/>
</mask>
<g mask="url(#mask0_6971_2666)">
<rect width="320" height="196" rx="24.948" fill="#686868"/>
<rect width="320" height="196" rx="24.948" fill="url(#paint1_linear_6971_2666)" fill-opacity="0.25"/>
<rect width="320" height="196" rx="24.948" fill="url(#paint2_linear_6971_2666)" fill-opacity="0.3"/>
<mask id="path-4-inside-1_6971_2666" fill="white">
<path d="M43.76 168.136C39.9629 168.136 36.8848 165.058 36.8848 161.261L36.8848 31.7425C36.8848 27.9454 39.9629 24.8672 43.76 24.8672H276.24C280.037 24.8672 283.115 27.9453 283.115 31.7425V161.261C283.115 165.058 280.037 168.136 276.24 168.136H43.76Z"/>
</mask>
<g clip-path="url(#paint3_diamond_6971_2666_clip_path)" data-figma-skip-parse="true" mask="url(#path-4-inside-1_6971_2666)"><g transform="matrix(0.125795 -0.0614472 0.305031 0.601578 34.2051 157.949)"><rect x="0" y="0" width="2044.64" height="181.512" fill="url(#paint3_diamond_6971_2666)" opacity="1" shape-rendering="crispEdges"/><rect x="0" y="0" width="2044.64" height="181.512" transform="scale(1 -1)" fill="url(#paint3_diamond_6971_2666)" opacity="1" shape-rendering="crispEdges"/><rect x="0" y="0" width="2044.64" height="181.512" transform="scale(-1 1)" fill="url(#paint3_diamond_6971_2666)" opacity="1" shape-rendering="crispEdges"/><rect x="0" y="0" width="2044.64" height="181.512" transform="scale(-1)" fill="url(#paint3_diamond_6971_2666)" opacity="1" shape-rendering="crispEdges"/></g></g><path d="M36.8848 161.261H39.8848L39.8848 31.7425H36.8848H33.8848L33.8848 161.261H36.8848ZM43.76 24.8672V27.8672H276.24V24.8672V21.8672H43.76V24.8672ZM283.115 31.7425H280.115V161.261H283.115H286.115V31.7425L283.115 31.7425ZM276.24 168.136V165.136H43.76V168.136V171.136H276.24V168.136ZM283.115 161.261H280.115C280.115 163.401 278.38 165.136 276.24 165.136V168.136V171.136C281.694 171.136 286.115 166.715 286.115 161.261H283.115ZM276.24 24.8672V27.8672C278.38 27.8672 280.115 29.6022 280.115 31.7425H283.115L286.115 31.7425C286.115 26.2885 281.694 21.8672 276.24 21.8672V24.8672ZM36.8848 31.7425H39.8848C39.8848 29.6022 41.6198 27.8672 43.76 27.8672V24.8672V21.8672C38.3061 21.8672 33.8848 26.2885 33.8848 31.7425H36.8848ZM36.8848 161.261H33.8848C33.8848 166.715 38.3061 171.136 43.76 171.136V168.136V165.136C41.6198 165.136 39.8848 163.401 39.8848 161.261H36.8848Z" data-figma-gradient-fill="{&#34;type&#34;:&#34;GRADIENT_DIAMOND&#34;,&#34;stops&#34;:[{&#34;color&#34;:{&#34;r&#34;:1.0,&#34;g&#34;:1.0,&#34;b&#34;:1.0,&#34;a&#34;:1.0},&#34;position&#34;:0.0},{&#34;color&#34;:{&#34;r&#34;:1.0,&#34;g&#34;:1.0,&#34;b&#34;:1.0,&#34;a&#34;:0.0},&#34;position&#34;:1.0},{&#34;color&#34;:{&#34;r&#34;:1.0,&#34;g&#34;:1.0,&#34;b&#34;:1.0,&#34;a&#34;:0.54000002145767212},&#34;position&#34;:1.0}],&#34;stopsVar&#34;:[],&#34;transform&#34;:{&#34;m00&#34;:251.58995056152344,&#34;m01&#34;:610.06237792968750,&#34;m02&#34;:-396.621093750,&#34;m10&#34;:-122.89430999755859,&#34;m11&#34;:1203.1555175781250,&#34;m12&#34;:-382.18206787109375},&#34;opacity&#34;:1.0,&#34;blendMode&#34;:&#34;NORMAL&#34;,&#34;visible&#34;:true}" mask="url(#path-4-inside-1_6971_2666)"/>
<path d="M36.8848 161.261H39.8848L39.8848 31.7425H36.8848H33.8848L33.8848 161.261H36.8848ZM43.76 24.8672V27.8672H276.24V24.8672V21.8672H43.76V24.8672ZM283.115 31.7425H280.115V161.261H283.115H286.115V31.7425L283.115 31.7425ZM276.24 168.136V165.136H43.76V168.136V171.136H276.24V168.136ZM283.115 161.261H280.115C280.115 163.401 278.38 165.136 276.24 165.136V168.136V171.136C281.694 171.136 286.115 166.715 286.115 161.261H283.115ZM276.24 24.8672V27.8672C278.38 27.8672 280.115 29.6022 280.115 31.7425H283.115L286.115 31.7425C286.115 26.2885 281.694 21.8672 276.24 21.8672V24.8672ZM36.8848 31.7425H39.8848C39.8848 29.6022 41.6198 27.8672 43.76 27.8672V24.8672V21.8672C38.3061 21.8672 33.8848 26.2885 33.8848 31.7425H36.8848ZM36.8848 161.261H33.8848C33.8848 166.715 38.3061 171.136 43.76 171.136V168.136V165.136C41.6198 165.136 39.8848 163.401 39.8848 161.261H36.8848Z" fill="white" fill-opacity="0.35" mask="url(#path-4-inside-1_6971_2666)"/>
<mask id="mask1_6971_2666" style="mask-type:alpha" maskUnits="userSpaceOnUse" x="36" y="24" width="248" height="145">
<rect x="36.8848" y="168.136" width="143.269" height="246.23" rx="10.9131" transform="rotate(-90 36.8848 168.136)" fill="#D9D9D9"/>
</mask>
<g mask="url(#mask1_6971_2666)">
<g filter="url(#filter0_f_6971_2666)">
<rect width="487.269" height="102.828" transform="matrix(0.82308 -0.567925 0.582295 0.812977 -187.967 46.8984)" fill="url(#paint4_linear_6971_2666)" fill-opacity="0.5"/>
</g>
</g>
</g>
<mask id="mask2_6971_2666" style="mask-type:alpha" maskUnits="userSpaceOnUse" x="332" y="0" width="320" height="196">
<rect x="332" width="320" height="196" rx="24.948" fill="#686868"/>
<rect x="332" width="320" height="196" rx="24.948" fill="url(#paint5_linear_6971_2666)" fill-opacity="0.25"/>
</mask>
<g mask="url(#mask2_6971_2666)">
<rect x="332" width="320" height="196" rx="24.948" fill="#686868"/>
<rect x="332" width="320" height="196" rx="24.948" fill="url(#paint6_linear_6971_2666)" fill-opacity="0.25"/>
<g filter="url(#filter1_f_6971_2666)">
<g clip-path="url(#clip0_6971_2666)">
<rect x="367.678" y="25.6725" width="246.242" height="142.672" rx="8.70246" stroke="#CBCBCB" stroke-width="2.27021"/>
<g filter="url(#filter2_d_6971_2666)">
<path d="M368.813 33.7125C368.813 29.8991 371.905 26.8076 375.718 26.8076L605.88 26.8076C609.694 26.8076 612.785 29.8991 612.785 33.7125V160.304C612.785 164.118 609.694 167.209 605.88 167.209L375.718 167.209C371.905 167.209 368.813 164.118 368.813 160.304V33.7125Z" fill="white"/>
</g>
<path d="M490.793 14.8735C490.968 9.30695 475.807 9.84555 469.812 9.32727C447.385 7.38863 446.157 6.3232 433.417 4.38477C347.968 6.2627 387.01 17.2947 311.65 44.3263C303.267 47.335 296.253 53.2515 291.822 60.9585C275.434 89.491 258.047 117.33 234.679 142.201C204.377 169.885 212.47 217.756 216.854 232.82C229.33 263.109 286.661 218.143 301.768 217.005C310.327 216.695 325.081 217.236 333.059 214.187C370.881 194.465 377.436 199.062 409.997 199.062C416.249 199.062 438.997 192.331 438.997 192.331C453.942 192.345 469.393 190.844 469.393 186.502C469.393 157.122 403.111 169.816 384.612 167.851C364.42 168.012 357.882 146.24 350.025 127.871C343.375 112.336 345.088 94.5055 354.355 80.3705C362.11 68.5442 370.035 56.7516 380.893 43.3032C407.054 18.9909 489.316 62.1584 490.793 14.86V14.8735Z" fill="white" fill-opacity="0.5"/>
<path d="M490.793 14.8735C490.968 9.30695 475.807 9.84555 469.812 9.32727C447.385 7.38863 446.157 6.3232 433.417 4.38477C347.968 6.2627 387.01 17.2947 311.65 44.3263C303.267 47.335 296.253 53.2515 291.822 60.9585C275.434 89.491 258.047 117.33 234.679 142.201C204.377 169.885 212.47 217.756 216.854 232.82C229.33 263.109 286.661 218.143 301.768 217.005C310.327 216.695 325.081 217.236 333.059 214.187C370.881 194.465 377.436 199.062 409.997 199.062C416.249 199.062 438.997 192.331 438.997 192.331C453.942 192.345 469.393 190.844 469.393 186.502C469.393 157.122 403.111 169.816 384.612 167.851C364.42 168.012 357.882 146.24 350.025 127.871C343.375 112.336 345.088 94.5055 354.355 80.3705C362.11 68.5442 370.035 56.7516 380.893 43.3032C407.054 18.9909 489.316 62.1584 490.793 14.86V14.8735Z" fill="url(#paint7_linear_6971_2666)" fill-opacity="0.2"/>
<path d="M433.368 5.14453C445.999 7.0694 447.327 8.14595 469.746 10.084C471.264 10.2152 473.369 10.2795 475.607 10.3877C477.865 10.4968 480.288 10.6509 482.512 10.959C484.75 11.2691 486.717 11.727 488.094 12.4111C489.464 13.0919 490.058 13.886 490.034 14.8359C489.853 20.6359 488.437 24.9785 486.104 28.2217C483.771 31.4633 480.476 33.6721 476.421 35.125C468.265 38.0475 457.181 37.8656 445.157 36.9443C433.205 36.0285 420.344 34.3828 408.887 34.4941C397.44 34.6055 387.138 36.4633 380.376 42.7471L380.337 42.7842L380.303 42.8262C370.781 54.6196 363.511 65.1419 356.644 75.5146L353.72 79.9541C344.463 94.0736 342.631 111.832 349.017 127.429L349.327 128.17C353.227 137.287 356.869 147.435 362.061 155.23C367.277 163.064 374.156 168.677 384.574 168.609C389.279 169.102 396.95 168.672 405.702 168.221C414.521 167.766 424.508 167.284 433.91 167.654C443.328 168.026 452.068 169.252 458.432 172.16C461.604 173.61 464.15 175.462 465.901 177.801C467.645 180.13 468.634 182.983 468.634 186.502C468.634 186.795 468.51 187.112 468.16 187.466C467.8 187.829 467.233 188.198 466.437 188.554C464.845 189.264 462.524 189.845 459.68 190.3C454.007 191.207 446.454 191.579 438.998 191.572H438.888L438.782 191.604H438.781L438.778 191.604C438.776 191.605 438.771 191.607 438.766 191.608C438.755 191.612 438.738 191.616 438.717 191.622C438.674 191.635 438.61 191.654 438.526 191.679C438.359 191.728 438.112 191.8 437.796 191.892C437.163 192.075 436.252 192.337 435.139 192.652C432.912 193.282 429.878 194.122 426.65 194.962C423.422 195.802 420.005 196.64 417.01 197.268C413.993 197.9 411.471 198.303 409.997 198.303C401.867 198.303 395.379 198.017 389.573 197.894C383.779 197.771 378.681 197.811 373.406 198.476C362.848 199.807 351.669 203.629 332.752 213.49C328.887 214.958 323.329 215.581 317.594 215.865C311.811 216.151 306.104 216.088 301.741 216.246L301.726 216.247L301.711 216.248C299.69 216.4 297.044 217.271 293.999 218.554C290.934 219.844 287.386 221.586 283.538 223.538C275.824 227.45 266.887 232.213 258.026 235.999C249.153 239.791 240.465 242.554 233.264 242.528C229.676 242.516 226.498 241.81 223.854 240.231C221.227 238.662 219.073 236.197 217.568 232.56C215.396 225.073 212.31 209.461 213.517 192.296C214.725 175.095 220.236 156.425 235.19 142.762L235.212 142.742L235.231 142.721C258.663 117.783 276.085 89.881 292.48 61.3369C296.823 53.7845 303.695 47.9883 311.906 45.041C330.782 38.2701 342.517 32.4926 350.837 27.5996C354.996 25.1537 358.295 22.9327 361.196 20.9287C364.104 18.9199 366.586 17.1485 369.148 15.5693C379.292 9.31934 390.696 6.08538 433.368 5.14453Z" stroke="white" stroke-opacity="0.5" stroke-width="1.51812"/>
<path d="M309.275 108.24C316.885 108.498 323.863 104.087 329.61 99.0958C336.787 92.861 342.933 85.4489 347.722 77.2454C351.261 71.1902 354.06 64.7107 357.921 58.8488C364.419 48.9761 368.789 38.5148 374.388 28.1077C385.175 27.8148 398.03 29.149 411.409 25.19C419.412 28.6963 428.094 30.6556 436.832 30.93C442.375 31.1027 448.169 30.5346 452.908 27.6587C457.646 24.7827 461.446 19.1514 460.206 13.7511C458.921 10.6617 442.959 6.71844 434.04 4.50301C426.416 -1.18171 417.503 -1.2224 407.991 -1.42196C398.48 -1.62151 387.683 -3.90725 378.454 -3.6566C369.225 -3.40603 359.52 -3.76182 354.395 0.0336388C329.84 18.2344 323.901 45.1073 297.616 60.7155C295.184 69.2522 293.331 78.5004 295.234 87.1686C297.137 95.8367 302.121 102.967 309.282 108.24L309.275 108.24Z" fill="url(#paint8_linear_6971_2666)" fill-opacity="0.5"/>
<path d="M351.642 44.5759L370.998 24.5233L376.391 24.3768C376.391 24.3768 374.649 33.1063 368.56 46.4732C362.412 56.0669 356.01 68.6977 351.21 78.2549C346.411 87.812 334.881 110.346 334.881 110.346C334.881 110.346 336.191 96.5064 339.678 88.3316C343.166 80.1567 351.642 44.5759 351.642 44.5759Z" fill="url(#paint9_linear_6971_2666)"/>
<path d="M309.948 105.218C317.559 105.476 324.536 101.065 330.283 96.0738C337.46 89.839 343.607 82.4269 348.396 74.2235C351.935 68.1683 354.733 61.6888 358.594 55.8268C365.092 45.9542 369.462 35.4928 375.062 25.0857C385.848 24.7928 398.703 26.1271 412.082 22.1681C420.085 25.6743 428.767 27.6336 437.505 27.9081C443.049 28.0807 448.842 27.5126 453.581 24.6367C458.32 21.7608 462.12 16.1294 460.879 10.7292C459.594 7.63972 443.632 3.69649 434.713 1.48106C427.09 -4.20366 418.176 -4.24435 408.665 -4.4439C399.153 -4.64346 384.291 -4.6946 375.062 -4.44394C365.832 -4.19338 360.193 -6.78376 355.068 -2.98831C330.514 15.2124 324.574 42.0853 298.289 57.6935C295.857 66.2302 294.004 75.4784 295.907 84.1466C297.81 92.8147 302.794 99.9447 309.955 105.218L309.948 105.218Z" fill="url(#paint10_linear_6971_2666)" fill-opacity="0.5"/>
<path d="M355.519 -2.379C357.875 -4.12374 360.356 -4.42633 363.492 -4.28755C366.576 -4.15099 370.447 -3.5592 375.082 -3.68499C384.295 -3.93521 399.145 -3.88454 408.649 -3.68515C418.217 -3.48441 426.865 -3.42408 434.259 2.08948L434.382 2.18091L434.53 2.2179C438.995 3.32691 445.192 4.86082 450.432 6.50164C453.055 7.32275 455.413 8.16305 457.185 8.98134C458.072 9.39095 458.79 9.78507 459.314 10.1554C459.812 10.5078 460.057 10.7869 460.153 10.9718C461.24 15.9024 457.758 21.2138 453.187 23.988C448.639 26.7485 443.026 27.3208 437.528 27.1496C428.887 26.8782 420.301 24.9399 412.387 21.4726L412.133 21.3613L411.866 21.4399C398.615 25.3612 385.951 24.0311 375.041 24.3274L374.601 24.3394L374.393 24.726C368.921 34.8962 364.708 44.9213 358.561 54.4852L357.96 55.409C356.007 58.3742 354.327 61.4887 352.701 64.6011C351.274 67.333 349.892 70.0557 348.391 72.7084L347.74 73.8408C342.993 81.9724 336.9 89.3197 329.785 95.5003C324.131 100.41 317.43 104.611 310.212 104.463C303.289 99.302 298.49 92.3758 296.648 83.9835C294.809 75.6055 296.554 66.6218 298.94 58.1852C312.074 50.3083 320.154 39.6431 327.945 28.7668C335.802 17.7979 343.357 6.63776 355.52 -2.37805L355.519 -2.379Z" stroke="url(#paint11_linear_6971_2666)" stroke-opacity="0.5" stroke-width="1.51812"/>
</g>
</g>
<rect x="332" width="320" height="196" rx="24.948" fill="url(#paint12_linear_6971_2666)" fill-opacity="0.3"/>
</g>
<path d="M313 174C313 182.284 306.284 189 298 189C289.716 189 283 182.284 283 174C283 165.716 289.716 159 298 159C306.284 159 313 165.716 313 174Z" fill="white"/>
<path d="M299.991 165.804C300.139 165.788 300.288 165.814 300.421 165.879L300.517 165.935C300.608 165.996 300.687 166.077 300.746 166.172C300.805 166.266 300.843 166.372 300.858 166.481L300.866 166.592V180.815C300.866 180.964 300.824 181.11 300.745 181.235C300.667 181.361 300.555 181.462 300.422 181.527C300.289 181.592 300.14 181.619 299.992 181.604C299.882 181.592 299.775 181.557 299.679 181.502L299.587 181.44L294.467 177.459H291.184C290.816 177.459 290.464 177.313 290.204 177.054C289.944 176.794 289.798 176.442 289.798 176.074V171.333C289.798 170.966 289.944 170.613 290.204 170.354C290.464 170.094 290.816 169.947 291.184 169.947H294.467L299.587 165.966C299.704 165.875 299.844 165.819 299.991 165.804ZM304.004 170.002C304.556 170.002 305.004 170.45 305.004 171.002V177.004C305.004 177.556 304.556 178.004 304.004 178.004C303.452 178.004 303.004 177.556 303.004 177.004V171.002C303.004 170.45 303.452 170.002 304.004 170.002Z" fill="#60667C"/>
<defs>
<clipPath id="paint3_diamond_6971_2666_clip_path"><path d="M36.8848 161.261H39.8848L39.8848 31.7425H36.8848H33.8848L33.8848 161.261H36.8848ZM43.76 24.8672V27.8672H276.24V24.8672V21.8672H43.76V24.8672ZM283.115 31.7425H280.115V161.261H283.115H286.115V31.7425L283.115 31.7425ZM276.24 168.136V165.136H43.76V168.136V171.136H276.24V168.136ZM283.115 161.261H280.115C280.115 163.401 278.38 165.136 276.24 165.136V168.136V171.136C281.694 171.136 286.115 166.715 286.115 161.261H283.115ZM276.24 24.8672V27.8672C278.38 27.8672 280.115 29.6022 280.115 31.7425H283.115L286.115 31.7425C286.115 26.2885 281.694 21.8672 276.24 21.8672V24.8672ZM36.8848 31.7425H39.8848C39.8848 29.6022 41.6198 27.8672 43.76 27.8672V24.8672V21.8672C38.3061 21.8672 33.8848 26.2885 33.8848 31.7425H36.8848ZM36.8848 161.261H33.8848C33.8848 166.715 38.3061 171.136 43.76 171.136V168.136V165.136C41.6198 165.136 39.8848 163.401 39.8848 161.261H36.8848Z" mask="url(#path-4-inside-1_6971_2666)"/></clipPath><filter id="filter0_f_6971_2666" x="-217.967" y="-259.833" width="520.938" height="420.329" filterUnits="userSpaceOnUse" color-interpolation-filters="sRGB">
<feFlood flood-opacity="0" result="BackgroundImageFix"/>
<feBlend mode="normal" in="SourceGraphic" in2="BackgroundImageFix" result="shape"/>
<feGaussianBlur stdDeviation="15" result="effect1_foregroundBlur_6971_2666"/>
</filter>
<filter id="filter1_f_6971_2666" x="198.405" y="-15.9438" width="430.879" height="278.292" filterUnits="userSpaceOnUse" color-interpolation-filters="sRGB">
<feFlood flood-opacity="0" result="BackgroundImageFix"/>
<feBlend mode="normal" in="SourceGraphic" in2="BackgroundImageFix" result="shape"/>
<feGaussianBlur stdDeviation="2" result="effect1_foregroundBlur_6971_2666"/>
</filter>
<filter id="filter2_d_6971_2666" x="346.223" y="7.22947" width="289.152" height="185.582" filterUnits="userSpaceOnUse" color-interpolation-filters="sRGB">
<feFlood flood-opacity="0" result="BackgroundImageFix"/>
<feColorMatrix in="SourceAlpha" type="matrix" values="0 0 0 0 0 0 0 0 0 0 0 0 0 0 0 0 0 0 127 0" result="hardAlpha"/>
<feOffset dy="3.01202"/>
<feGaussianBlur stdDeviation="11.2951"/>
<feColorMatrix type="matrix" values="0 0 0 0 0 0 0 0 0 0 0 0 0 0 0 0 0 0 0.15 0"/>
<feBlend mode="normal" in2="BackgroundImageFix" result="effect1_dropShadow_6971_2666"/>
<feBlend mode="normal" in="SourceGraphic" in2="effect1_dropShadow_6971_2666" result="shape"/>
</filter>
<linearGradient id="paint0_linear_6971_2666" x1="160" y1="0" x2="160" y2="131.704" gradientUnits="userSpaceOnUse">
<stop stop-color="white"/>
<stop offset="0.611797" stop-color="white" stop-opacity="0.24"/>
<stop offset="1" stop-color="white" stop-opacity="0"/>
</linearGradient>
<linearGradient id="paint1_linear_6971_2666" x1="160" y1="0" x2="160" y2="131.704" gradientUnits="userSpaceOnUse">
<stop stop-color="white"/>
<stop offset="0.611797" stop-color="white" stop-opacity="0.24"/>
<stop offset="1" stop-color="white" stop-opacity="0"/>
</linearGradient>
<linearGradient id="paint2_linear_6971_2666" x1="301.867" y1="190.815" x2="279.493" y2="137.467" gradientUnits="userSpaceOnUse">
<stop stop-color="#686868"/>
<stop offset="1" stop-color="#686868" stop-opacity="0"/>
</linearGradient>
<linearGradient id="paint3_diamond_6971_2666" x1="0" y1="0" x2="500" y2="500" gradientUnits="userSpaceOnUse">
<stop stop-color="white"/>
<stop offset="1" stop-color="white" stop-opacity="0"/>
<stop offset="1" stop-color="white" stop-opacity="0.54"/>
</linearGradient>
<linearGradient id="paint4_linear_6971_2666" x1="243.634" y1="0" x2="243.634" y2="102.828" gradientUnits="userSpaceOnUse">
<stop stop-color="white" stop-opacity="0"/>
<stop offset="0.385417" stop-color="white"/>
<stop offset="0.567708" stop-color="white"/>
<stop offset="1" stop-color="white" stop-opacity="0"/>
</linearGradient>
<linearGradient id="paint5_linear_6971_2666" x1="492" y1="0" x2="492" y2="131.704" gradientUnits="userSpaceOnUse">
<stop stop-color="white"/>
<stop offset="0.611797" stop-color="white" stop-opacity="0.24"/>
<stop offset="1" stop-color="white" stop-opacity="0"/>
</linearGradient>
<linearGradient id="paint6_linear_6971_2666" x1="492" y1="0" x2="492" y2="131.704" gradientUnits="userSpaceOnUse">
<stop stop-color="white"/>
<stop offset="0.611797" stop-color="white" stop-opacity="0.24"/>
<stop offset="1" stop-color="white" stop-opacity="0"/>
</linearGradient>
<linearGradient id="paint7_linear_6971_2666" x1="238.772" y1="243.589" x2="321.842" y2="123.625" gradientUnits="userSpaceOnUse">
<stop/>
<stop offset="1" stop-opacity="0"/>
</linearGradient>
<linearGradient id="paint8_linear_6971_2666" x1="369.952" y1="26.5844" x2="334.238" y2="66.6909" gradientUnits="userSpaceOnUse">
<stop stop-color="#DCDCDC"/>
<stop offset="1" stop-color="#DCDCDC" stop-opacity="0"/>
</linearGradient>
<linearGradient id="paint9_linear_6971_2666" x1="361.6" y1="47.782" x2="340.228" y2="101.505" gradientUnits="userSpaceOnUse">
<stop stop-color="#D9D9D9"/>
<stop offset="1" stop-color="#D9D9D9" stop-opacity="0"/>
</linearGradient>
<linearGradient id="paint10_linear_6971_2666" x1="345.401" y1="46.2264" x2="320.123" y2="86.6746" gradientUnits="userSpaceOnUse">
<stop stop-color="white"/>
<stop offset="1" stop-color="white" stop-opacity="0"/>
</linearGradient>
<linearGradient id="paint11_linear_6971_2666" x1="363.256" y1="29.2379" x2="327.405" y2="78.7709" gradientUnits="userSpaceOnUse">
<stop stop-color="white"/>
<stop offset="1" stop-color="white" stop-opacity="0"/>
</linearGradient>
<linearGradient id="paint12_linear_6971_2666" x1="633.867" y1="190.815" x2="611.493" y2="137.467" gradientUnits="userSpaceOnUse">
<stop stop-color="#686868"/>
<stop offset="1" stop-color="#686868" stop-opacity="0"/>
</linearGradient>
<clipPath id="clip0_6971_2666">
<rect width="422.879" height="270.292" fill="white" transform="translate(202.405 -11.9438)"/>
</clipPath>
</defs>
</svg>
