<svg width="368" height="196" viewBox="0 0 368 196" fill="none" xmlns="http://www.w3.org/2000/svg">
<mask id="mask0_6971_2678" style="mask-type:alpha" maskUnits="userSpaceOnUse" x="-284" y="0" width="320" height="196">
<rect x="-284" width="320" height="196" rx="24.948" fill="#686868"/>
<rect x="-284" width="320" height="196" rx="24.948" fill="url(#paint0_linear_6971_2678)" fill-opacity="0.25"/>
</mask>
<g mask="url(#mask0_6971_2678)">
<rect x="-284" width="320" height="196" rx="24.948" fill="#686868"/>
<rect x="-284" width="320" height="196" rx="24.948" fill="url(#paint1_linear_6971_2678)" fill-opacity="0.25"/>
<g filter="url(#filter0_f_6971_2678)">
<g clip-path="url(#clip0_6971_2678)">
<rect x="-248.322" y="25.6725" width="246.242" height="142.672" rx="8.70246" stroke="#CBCBCB" stroke-width="2.27021"/>
<g filter="url(#filter1_d_6971_2678)">
<path d="M-247.187 33.7125C-247.187 29.8991 -244.095 26.8076 -240.282 26.8076L-10.1198 26.8076C-6.30632 26.8076 -3.21489 29.8991 -3.21489 33.7125V160.304C-3.21489 164.118 -6.30632 167.209 -10.1198 167.209L-240.282 167.209C-244.095 167.209 -247.187 164.118 -247.187 160.304V33.7125Z" fill="white"/>
</g>
</g>
</g>
<rect x="-284" width="320" height="196" rx="24.948" fill="url(#paint2_linear_6971_2678)" fill-opacity="0.3"/>
</g>
<mask id="mask1_6971_2678" style="mask-type:alpha" maskUnits="userSpaceOnUse" x="48" y="0" width="320" height="196">
<rect x="48" width="320" height="196" rx="24.948" fill="#686868"/>
<rect x="48" width="320" height="196" rx="24.948" fill="url(#paint3_linear_6971_2678)" fill-opacity="0.25"/>
</mask>
<g mask="url(#mask1_6971_2678)">
<rect x="48" width="320" height="196" rx="24.948" fill="#686868"/>
<rect x="48" width="320" height="196" rx="24.948" fill="url(#paint4_linear_6971_2678)" fill-opacity="0.25"/>
<g clip-path="url(#clip1_6971_2678)">
<rect x="83.6776" y="25.6725" width="246.242" height="142.672" rx="8.70246" stroke="#CBCBCB" stroke-width="2.27021"/>
<g filter="url(#filter2_d_6971_2678)">
<path d="M84.8135 33.7125C84.8135 29.8991 87.9049 26.8076 91.7184 26.8076L321.88 26.8076C325.694 26.8076 328.785 29.8991 328.785 33.7125V160.304C328.785 164.118 325.694 167.209 321.88 167.209L91.7184 167.209C87.9049 167.209 84.8135 164.118 84.8135 160.304L84.8135 33.7125Z" fill="white"/>
</g>
<path fill-rule="evenodd" clip-rule="evenodd" d="M98.6255 56.7285L316.126 56.7285V61.3318L98.6226 61.3318L98.6255 56.7285Z" fill="#E9E9EB"/>
<rect x="172.275" y="80.8965" width="56.3897" height="9.20665" rx="1.17592" fill="#E9E9EB"/>
<rect x="172.275" y="98.1592" width="56.3897" height="9.20665" rx="1.17592" fill="#E9E9EB"/>
<rect x="172.275" y="115.419" width="78.2551" height="9.20665" rx="1.17592" fill="#E9E9EB"/>
<rect x="172.275" y="132.684" width="25.3178" height="8.05582" rx="1.17592" fill="#E9E9EB"/>
<rect x="98.4341" y="36.646" width="103.673" height="10.5943" rx="1.17592" fill="#20263D" fill-opacity="0.3"/>
<rect x="294.429" y="36.646" width="21.1886" height="10.5943" rx="1.17592" fill="#DBB107" fill-opacity="0.5"/>
<g clip-path="url(#clip2_6971_2678)">
<g clip-path="url(#clip3_6971_2678)">
<rect x="98.2358" y="70.7837" width="64.6857" height="77.6228" fill="#92C2D7"/>
<path d="M164.09 137.088C167.062 142.405 168.773 154.668 168.773 154.668H93.856C93.856 154.668 95.5672 142.404 98.5383 137.088C101.509 131.772 119.616 126.841 119.616 126.841C121.22 129.739 125.928 132.382 130.747 132.5C135.976 132.628 141.336 129.984 143.003 126.839C143.003 126.839 161.119 131.77 164.09 137.088Z" fill="white"/>
<path d="M122.509 122.614V122.732C122.476 125.239 120.366 127.123 116.18 128.386C121.224 132.051 126.27 134.983 131.314 134.983C136.359 134.983 141.404 132.051 146.449 128.386C142.291 127.122 140.181 125.234 140.12 122.724C140.12 121.771 140.123 112.489 140.128 111.537C140.429 111.579 140.403 111.552 140.128 111.476C140.136 108.337 140.149 112.446 140.168 108.156C140.187 103.867 122.217 100.03 122.481 111.807C122.485 113.008 122.492 121.254 122.509 122.614Z" fill="url(#paint5_linear_6971_2678)"/>
<path d="M122.271 116.86C129.657 116.092 136.611 119.29 136.611 119.29C136.611 119.29 135.232 126.532 122.271 124.427V116.86Z" fill="#CDCDCD"/>
<path d="M164.09 137.088C167.062 142.405 168.773 154.668 168.773 154.668H93.856C93.856 154.668 95.5672 142.404 98.5383 137.088C101.509 131.772 119.616 126.841 119.616 126.841C119.616 130.064 125.862 134.71 130.747 134.793C137.557 134.793 143.003 130.064 143.003 126.839C143.003 126.839 161.119 131.77 164.09 137.088Z" fill="#979797"/>
<path d="M116.215 101.707C117.2 100.064 118.428 101.194 118.919 101.964L119.605 109.268C119.581 109.904 119.2 110.308 118.207 110.433C116.966 110.59 116.145 107.209 115.859 105.947C115.573 104.685 114.984 103.761 116.215 101.707Z" fill="url(#paint6_linear_6971_2678)"/>
<path d="M145.946 102.127C144.977 100.475 143.738 101.593 143.239 102.358L142.484 109.655C142.502 110.291 142.879 110.698 143.871 110.834C145.111 111.002 145.964 107.629 146.262 106.37C146.56 105.11 147.158 104.192 145.946 102.127Z" fill="url(#paint7_linear_6971_2678)"/>
<path d="M144.968 103.409C144.968 113.972 137.321 122.535 131.352 122.535C124.824 122.535 117.737 113.972 117.737 103.409C117.737 93.9981 118.488 83.9419 131.352 83.9419C144.217 83.9419 144.968 93.7805 144.968 103.409Z" fill="url(#paint8_linear_6971_2678)"/>
</g>
</g>
<g clip-path="url(#clip4_6971_2678)">
<path d="M299.064 139.896V139.943C299.051 140.946 298.207 141.7 296.532 142.205C298.55 143.671 300.568 144.844 302.586 144.844C304.604 144.844 306.622 143.671 308.64 142.205C306.976 141.699 306.133 140.944 306.108 139.94C306.108 139.559 306.109 135.846 306.111 135.465C306.232 135.482 306.221 135.471 306.111 135.441C306.115 134.185 306.12 135.829 306.127 134.113C306.135 132.397 298.947 130.862 299.053 135.573C299.054 136.054 299.057 139.352 299.064 139.896Z" fill="url(#paint9_linear_6971_2678)"/>
<path d="M299.104 138.088C302.059 137.781 304.704 138.87 304.704 138.87C304.704 138.87 304.289 141.902 299.104 141.061V138.088Z" fill="black" fill-opacity="0.1"/>
<path d="M296.192 131.853C296.564 131.183 297.07 131.619 297.277 131.92L297.647 134.832C297.645 135.086 297.498 135.252 297.103 135.316C296.609 135.395 296.236 134.054 296.105 133.553C295.975 133.052 295.727 132.69 296.192 131.853Z" fill="url(#paint10_linear_6971_2678)"/>
<path d="M308.909 132.068C308.595 131.369 308.054 131.76 307.823 132.043L307.208 134.912C307.188 135.166 307.32 135.344 307.709 135.441C308.194 135.561 308.679 134.257 308.852 133.769C309.024 133.281 309.302 132.941 308.909 132.068Z" fill="url(#paint11_linear_6971_2678)"/>
<path d="M315.696 145.684C316.884 147.811 317.568 152.717 317.568 152.717H287.602C287.602 152.717 288.286 147.811 289.475 145.684C290.663 143.558 297.906 141.586 297.906 141.586C298.547 142.745 300.431 143.802 302.358 143.849C304.45 143.9 306.594 142.843 307.261 141.585C307.261 141.585 314.507 143.557 315.696 145.684Z" fill="white"/>
<path d="M315.696 145.684C316.884 147.811 317.568 152.717 317.568 152.717H287.602C287.602 152.717 288.286 147.811 289.475 145.684C290.663 143.558 297.906 141.586 297.906 141.586C297.906 142.875 300.404 144.733 302.358 144.767C305.082 144.767 307.261 142.875 307.261 141.585C307.261 141.585 314.507 143.557 315.696 145.684Z" fill="#C6C6C6"/>
<path d="M308.032 132.278C308.032 136.71 304.931 140.303 302.51 140.303C299.863 140.303 296.989 136.71 296.989 132.278C296.989 128.329 297.077 124.049 302.51 124.109C308.32 124.109 308.032 128.237 308.032 132.278Z" fill="url(#paint12_linear_6971_2678)"/>
</g>
<path d="M206.793 14.8735C206.968 9.30695 191.807 9.84555 185.812 9.32727C163.385 7.38863 162.157 6.3232 149.417 4.38477C63.9677 6.2627 103.01 17.2947 27.6502 44.3263C19.2672 47.335 12.2532 53.2515 7.82224 60.9585C-8.56618 89.491 -25.9527 117.33 -49.3214 142.201C-79.6231 169.885 -71.53 217.756 -67.1464 232.82C-54.6695 263.109 2.66119 218.143 17.7682 217.005C26.3266 216.695 41.0808 217.236 49.0592 214.187C86.8807 194.465 93.4361 199.062 125.997 199.062C132.249 199.062 154.997 192.331 154.997 192.331C169.942 192.345 185.393 190.844 185.393 186.502C185.393 157.122 119.111 169.816 100.612 167.851C80.4198 168.012 73.8817 146.24 66.0247 127.871C59.3749 112.336 61.088 94.5055 70.3545 80.3705C78.1104 68.5442 86.0348 56.7516 96.893 43.3032C123.054 18.9909 205.316 62.1584 206.793 14.86V14.8735Z" fill="white" fill-opacity="0.5"/>
<path d="M206.793 14.8735C206.968 9.30695 191.807 9.84555 185.812 9.32727C163.385 7.38863 162.157 6.3232 149.417 4.38477C63.9677 6.2627 103.01 17.2947 27.6502 44.3263C19.2672 47.335 12.2532 53.2515 7.82224 60.9585C-8.56618 89.491 -25.9527 117.33 -49.3214 142.201C-79.6231 169.885 -71.53 217.756 -67.1464 232.82C-54.6695 263.109 2.66119 218.143 17.7682 217.005C26.3266 216.695 41.0808 217.236 49.0592 214.187C86.8807 194.465 93.4361 199.062 125.997 199.062C132.249 199.062 154.997 192.331 154.997 192.331C169.942 192.345 185.393 190.844 185.393 186.502C185.393 157.122 119.111 169.816 100.612 167.851C80.4198 168.012 73.8817 146.24 66.0247 127.871C59.3749 112.336 61.088 94.5055 70.3545 80.3705C78.1104 68.5442 86.0348 56.7516 96.893 43.3032C123.054 18.9909 205.316 62.1584 206.793 14.86V14.8735Z" fill="url(#paint13_linear_6971_2678)" fill-opacity="0.2"/>
<path d="M149.368 5.14453C161.999 7.0694 163.327 8.14595 185.746 10.084C187.264 10.2152 189.369 10.2795 191.607 10.3877C193.865 10.4968 196.288 10.6509 198.512 10.959C200.75 11.2691 202.717 11.727 204.094 12.4111C205.464 13.0919 206.058 13.886 206.034 14.8359C205.853 20.6359 204.437 24.9785 202.104 28.2217C199.771 31.4633 196.476 33.6721 192.421 35.125C184.265 38.0475 173.181 37.8656 161.157 36.9443C149.205 36.0285 136.344 34.3828 124.887 34.4941C113.44 34.6055 103.138 36.4633 96.376 42.7471L96.3369 42.7842L96.3027 42.8262C86.7808 54.6196 79.5105 65.1419 72.6436 75.5146L69.7197 79.9541C60.4634 94.0736 58.6313 111.832 65.0166 127.429L65.3271 128.17C69.2269 137.287 72.8688 147.435 78.0605 155.23C83.2774 163.064 90.1565 168.677 100.574 168.609C105.279 169.102 112.95 168.672 121.702 168.221C130.521 167.766 140.508 167.284 149.91 167.654C159.328 168.026 168.068 169.252 174.432 172.16C177.604 173.61 180.15 175.462 181.901 177.801C183.645 180.13 184.634 182.983 184.634 186.502C184.634 186.795 184.51 187.112 184.16 187.466C183.8 187.829 183.233 188.198 182.437 188.554C180.845 189.264 178.524 189.845 175.68 190.3C170.007 191.207 162.454 191.579 154.998 191.572H154.888L154.782 191.604H154.781L154.778 191.604C154.776 191.605 154.771 191.607 154.766 191.608C154.755 191.612 154.738 191.616 154.717 191.622C154.674 191.635 154.61 191.654 154.526 191.679C154.359 191.728 154.112 191.8 153.796 191.892C153.163 192.075 152.252 192.337 151.139 192.652C148.912 193.282 145.878 194.122 142.65 194.962C139.422 195.802 136.005 196.64 133.01 197.268C129.993 197.9 127.471 198.303 125.997 198.303C117.867 198.303 111.379 198.017 105.573 197.894C99.7787 197.771 94.6806 197.811 89.4062 198.476C78.8477 199.807 67.669 203.629 48.752 213.49C44.8873 214.958 39.3291 215.581 33.5938 215.865C27.8107 216.151 22.1043 216.088 17.7412 216.246L17.7256 216.247L17.7109 216.248C15.6902 216.4 13.044 217.271 9.99902 218.554C6.93446 219.844 3.38631 221.586 -0.461914 223.538C-8.17563 227.45 -17.1134 232.213 -25.9736 235.999C-34.8474 239.791 -43.535 242.554 -50.7363 242.528C-54.3241 242.516 -57.5022 241.81 -60.1455 240.231C-62.773 238.662 -64.9274 236.197 -66.4316 232.56C-68.6041 225.073 -71.6896 209.461 -70.4834 192.296C-69.2746 175.095 -63.7643 156.425 -48.8096 142.762L-48.7881 142.742L-48.7686 142.721C-25.3372 117.783 -7.91458 89.881 8.48047 61.3369C12.8226 53.7845 19.6948 47.9883 27.9062 45.041C46.7825 38.2701 58.5167 32.4926 66.8369 27.5996C70.9959 25.1537 74.2955 22.9327 77.1963 20.9287C80.1041 18.9199 82.5856 17.1485 85.1484 15.5693C95.2915 9.31934 106.696 6.08538 149.368 5.14453Z" stroke="white" stroke-opacity="0.5" stroke-width="1.51812"/>
<path d="M172.822 25.512C172.566 25.512 172.303 25.411 172.107 25.2158C157.115 13.1604 150.236 5.0833 150.236 1.8325C150.357 1.28729 150.897 1.61711 151.443 1.745C158.679 3.36716 173.294 6.15349 178.022 8.78529C179.688 9.71416 181.084 10.9123 181.394 13.1604C181.859 16.5192 176.666 22.7725 174.211 25.2226C174.016 25.4178 173.078 25.5187 172.822 25.5187V25.512Z" fill="black" fill-opacity="0.1"/>
<path d="M25.2748 108.24C32.8854 108.498 39.8626 104.087 45.6097 99.0958C52.7868 92.861 58.9334 85.4489 63.7225 77.2454C67.2613 71.1902 70.06 64.7107 73.9212 58.8488C80.4189 48.9761 84.7889 38.5148 90.3883 28.1077C101.175 27.8148 114.03 29.149 127.409 25.19C135.412 28.6963 144.094 30.6556 152.832 30.93C158.375 31.1027 164.169 30.5346 168.908 27.6587C173.646 24.7827 177.446 19.1514 176.206 13.7511C174.921 10.6617 158.959 6.71844 150.04 4.50301C142.416 -1.18171 133.503 -1.2224 123.991 -1.42196C114.48 -1.62151 103.683 -3.90725 94.4541 -3.6566C85.2246 -3.40603 75.5199 -3.76182 70.3947 0.0336388C45.8405 18.2344 39.9007 45.1073 13.6161 60.7155C11.1839 69.2522 9.33109 78.5004 11.2339 87.1686C13.1366 95.8367 18.1212 102.967 25.2815 108.24L25.2748 108.24Z" fill="url(#paint14_linear_6971_2678)" fill-opacity="0.5"/>
<path d="M67.6415 44.5759L86.9976 24.5233L92.3909 24.3768C92.3909 24.3768 90.6494 33.1063 84.56 46.4732C78.4122 56.0669 72.0099 68.6977 67.2105 78.2549C62.411 87.812 50.8814 110.346 50.8814 110.346C50.8814 110.346 52.1907 96.5064 55.6785 88.3316C59.1663 80.1567 67.6415 44.5759 67.6415 44.5759Z" fill="url(#paint15_linear_6971_2678)"/>
<path d="M25.9478 105.218C33.5584 105.475 40.5357 101.064 46.2827 96.0734C53.4599 89.8385 59.6064 82.4264 64.3955 74.223C67.9344 68.1678 70.733 61.6883 74.5942 55.8263C81.092 45.9537 85.462 35.4924 91.0613 25.0853C101.848 24.7923 114.703 26.1266 128.082 22.1676C136.085 25.6738 144.767 27.6331 153.505 27.9076C159.049 28.0802 164.842 27.5121 169.581 24.6362C174.319 21.7603 178.119 16.1289 176.879 10.7287C175.594 7.63923 159.632 3.696 150.713 1.48057C143.089 -4.20415 134.176 -4.24484 124.664 -4.44439C115.153 -4.64395 100.291 -4.69509 91.0613 -4.44443C81.8319 -4.19386 76.193 -6.78425 71.0678 -2.98879C46.5135 15.2119 40.5738 42.0848 14.2891 57.693C11.857 66.2298 10.0041 75.478 11.9069 84.1461C13.8097 92.8142 18.7942 99.9442 25.9546 105.217L25.9478 105.218Z" fill="url(#paint16_linear_6971_2678)" fill-opacity="0.5"/>
<path d="M71.5191 -2.37949C73.8751 -4.12423 76.3555 -4.42682 79.4915 -4.28804C82.5761 -4.15148 86.4467 -3.55969 91.0816 -3.68547C100.295 -3.9357 115.145 -3.88503 124.649 -3.68564C134.217 -3.4849 142.865 -3.42456 150.259 2.08899L150.382 2.18042L150.53 2.21742C154.995 3.32643 161.192 4.86033 166.432 6.50115C169.054 7.32226 171.413 8.16256 173.185 8.98085C174.072 9.39046 174.789 9.78458 175.313 10.1549C175.812 10.5073 176.056 10.7864 176.153 10.9713C177.24 15.9019 173.758 21.2133 169.187 23.9875C164.638 26.748 159.025 27.3203 153.528 27.1491C144.887 26.8777 136.3 24.9394 128.387 21.4722L128.132 21.3609L127.866 21.4394C114.614 25.3607 101.95 24.0306 91.0403 24.3269L90.601 24.3389L90.3928 24.7255C84.9209 34.8957 80.7079 44.9208 74.5613 54.4847L73.9602 55.4085C72.0071 58.3737 70.3272 61.4882 68.701 64.6006C67.2737 67.3325 65.8918 70.0552 64.3911 72.7079L63.74 73.8403C58.9929 81.9719 52.8993 89.3192 45.7847 95.4998C40.1312 100.409 33.4299 104.611 26.2121 104.462C19.2883 99.3015 14.4901 92.3753 12.6479 83.983C10.809 75.605 12.5537 66.6213 14.9398 58.1847C28.0735 50.3078 36.1536 39.6426 43.9446 28.7663C51.8021 17.7974 59.357 6.63727 71.5201 -2.37854L71.5191 -2.37949Z" stroke="url(#paint17_linear_6971_2678)" stroke-opacity="0.5" stroke-width="1.51812"/>
</g>
<rect x="48" width="320" height="196" rx="24.948" fill="url(#paint18_linear_6971_2678)" fill-opacity="0.3"/>
<mask id="path-41-inside-1_6971_2678" fill="white">
<path d="M91.76 168.136C87.9629 168.136 84.8848 165.058 84.8848 161.261L84.8848 31.7425C84.8848 27.9454 87.9629 24.8672 91.76 24.8672H324.24C328.037 24.8672 331.115 27.9453 331.115 31.7425V161.261C331.115 165.058 328.037 168.136 324.24 168.136H91.76Z"/>
</mask>
<g clip-path="url(#paint19_diamond_6971_2678_clip_path)" data-figma-skip-parse="true" mask="url(#path-41-inside-1_6971_2678)"><g transform="matrix(0.125795 -0.0614472 0.305031 0.601578 82.2051 157.949)"><rect x="0" y="0" width="2044.64" height="181.512" fill="url(#paint19_diamond_6971_2678)" opacity="1" shape-rendering="crispEdges"/><rect x="0" y="0" width="2044.64" height="181.512" transform="scale(1 -1)" fill="url(#paint19_diamond_6971_2678)" opacity="1" shape-rendering="crispEdges"/><rect x="0" y="0" width="2044.64" height="181.512" transform="scale(-1 1)" fill="url(#paint19_diamond_6971_2678)" opacity="1" shape-rendering="crispEdges"/><rect x="0" y="0" width="2044.64" height="181.512" transform="scale(-1)" fill="url(#paint19_diamond_6971_2678)" opacity="1" shape-rendering="crispEdges"/></g></g><path d="M84.8848 161.261H87.8848L87.8848 31.7425H84.8848H81.8848L81.8848 161.261H84.8848ZM91.76 24.8672V27.8672H324.24V24.8672V21.8672H91.76V24.8672ZM331.115 31.7425H328.115V161.261H331.115H334.115V31.7425L331.115 31.7425ZM324.24 168.136V165.136H91.76V168.136V171.136H324.24V168.136ZM331.115 161.261H328.115C328.115 163.401 326.38 165.136 324.24 165.136V168.136V171.136C329.694 171.136 334.115 166.715 334.115 161.261H331.115ZM324.24 24.8672V27.8672C326.38 27.8672 328.115 29.6022 328.115 31.7425H331.115L334.115 31.7425C334.115 26.2885 329.694 21.8672 324.24 21.8672V24.8672ZM84.8848 31.7425H87.8848C87.8848 29.6022 89.6198 27.8672 91.76 27.8672V24.8672V21.8672C86.3061 21.8672 81.8848 26.2885 81.8848 31.7425H84.8848ZM84.8848 161.261H81.8848C81.8848 166.715 86.3061 171.136 91.76 171.136V168.136V165.136C89.6198 165.136 87.8848 163.401 87.8848 161.261H84.8848Z" data-figma-gradient-fill="{&#34;type&#34;:&#34;GRADIENT_DIAMOND&#34;,&#34;stops&#34;:[{&#34;color&#34;:{&#34;r&#34;:1.0,&#34;g&#34;:1.0,&#34;b&#34;:1.0,&#34;a&#34;:1.0},&#34;position&#34;:0.0},{&#34;color&#34;:{&#34;r&#34;:1.0,&#34;g&#34;:1.0,&#34;b&#34;:1.0,&#34;a&#34;:0.0},&#34;position&#34;:1.0},{&#34;color&#34;:{&#34;r&#34;:1.0,&#34;g&#34;:1.0,&#34;b&#34;:1.0,&#34;a&#34;:0.54000002145767212},&#34;position&#34;:1.0}],&#34;stopsVar&#34;:[],&#34;transform&#34;:{&#34;m00&#34;:251.58995056152344,&#34;m01&#34;:610.06237792968750,&#34;m02&#34;:-348.621093750,&#34;m10&#34;:-122.89430999755859,&#34;m11&#34;:1203.1555175781250,&#34;m12&#34;:-382.18206787109375},&#34;opacity&#34;:1.0,&#34;blendMode&#34;:&#34;NORMAL&#34;,&#34;visible&#34;:true}" mask="url(#path-41-inside-1_6971_2678)"/>
<path d="M84.8848 161.261H87.8848L87.8848 31.7425H84.8848H81.8848L81.8848 161.261H84.8848ZM91.76 24.8672V27.8672H324.24V24.8672V21.8672H91.76V24.8672ZM331.115 31.7425H328.115V161.261H331.115H334.115V31.7425L331.115 31.7425ZM324.24 168.136V165.136H91.76V168.136V171.136H324.24V168.136ZM331.115 161.261H328.115C328.115 163.401 326.38 165.136 324.24 165.136V168.136V171.136C329.694 171.136 334.115 166.715 334.115 161.261H331.115ZM324.24 24.8672V27.8672C326.38 27.8672 328.115 29.6022 328.115 31.7425H331.115L334.115 31.7425C334.115 26.2885 329.694 21.8672 324.24 21.8672V24.8672ZM84.8848 31.7425H87.8848C87.8848 29.6022 89.6198 27.8672 91.76 27.8672V24.8672V21.8672C86.3061 21.8672 81.8848 26.2885 81.8848 31.7425H84.8848ZM84.8848 161.261H81.8848C81.8848 166.715 86.3061 171.136 91.76 171.136V168.136V165.136C89.6198 165.136 87.8848 163.401 87.8848 161.261H84.8848Z" fill="white" fill-opacity="0.35" mask="url(#path-41-inside-1_6971_2678)"/>
<mask id="mask2_6971_2678" style="mask-type:alpha" maskUnits="userSpaceOnUse" x="84" y="24" width="248" height="145">
<rect x="84.8848" y="168.136" width="143.269" height="246.23" rx="10.9131" transform="rotate(-90 84.8848 168.136)" fill="#D9D9D9"/>
</mask>
<g mask="url(#mask2_6971_2678)">
<g filter="url(#filter3_f_6971_2678)">
<rect width="487.269" height="102.828" transform="matrix(0.82308 -0.567925 0.582295 0.812977 -139.967 46.8979)" fill="url(#paint20_linear_6971_2678)" fill-opacity="0.5"/>
</g>
</g>
</g>
<path d="M364 173C364 181.284 357.284 188 349 188C340.716 188 334 181.284 334 173C334 164.716 340.716 158 349 158C357.284 158 364 164.716 364 173Z" fill="white"/>
<path d="M350.991 164.804C351.139 164.788 351.288 164.814 351.421 164.879L351.517 164.935C351.608 164.996 351.687 165.077 351.746 165.172C351.805 165.266 351.843 165.372 351.858 165.481L351.866 165.592V179.815C351.866 179.964 351.824 180.11 351.745 180.235C351.667 180.361 351.555 180.462 351.422 180.527C351.289 180.592 351.14 180.619 350.992 180.604C350.882 180.592 350.775 180.557 350.679 180.502L350.587 180.44L345.467 176.459H342.184C341.816 176.459 341.464 176.313 341.204 176.054C340.944 175.794 340.798 175.442 340.798 175.074V170.333C340.798 169.966 340.944 169.613 341.204 169.354C341.464 169.094 341.816 168.947 342.184 168.947H345.467L350.587 164.966C350.704 164.875 350.844 164.819 350.991 164.804ZM355.004 169.002C355.556 169.002 356.004 169.45 356.004 170.002V176.004C356.004 176.556 355.556 177.004 355.004 177.004C354.452 177.004 354.004 176.556 354.004 176.004V170.002C354.004 169.45 354.452 169.002 355.004 169.002Z" fill="#60667C"/>
<defs>
<filter id="filter0_f_6971_2678" x="-417.595" y="-15.9438" width="430.879" height="278.292" filterUnits="userSpaceOnUse" color-interpolation-filters="sRGB">
<feFlood flood-opacity="0" result="BackgroundImageFix"/>
<feBlend mode="normal" in="SourceGraphic" in2="BackgroundImageFix" result="shape"/>
<feGaussianBlur stdDeviation="2" result="effect1_foregroundBlur_6971_2678"/>
</filter>
<filter id="filter1_d_6971_2678" x="-269.777" y="7.22947" width="289.152" height="185.582" filterUnits="userSpaceOnUse" color-interpolation-filters="sRGB">
<feFlood flood-opacity="0" result="BackgroundImageFix"/>
<feColorMatrix in="SourceAlpha" type="matrix" values="0 0 0 0 0 0 0 0 0 0 0 0 0 0 0 0 0 0 127 0" result="hardAlpha"/>
<feOffset dy="3.01202"/>
<feGaussianBlur stdDeviation="11.2951"/>
<feColorMatrix type="matrix" values="0 0 0 0 0 0 0 0 0 0 0 0 0 0 0 0 0 0 0.15 0"/>
<feBlend mode="normal" in2="BackgroundImageFix" result="effect1_dropShadow_6971_2678"/>
<feBlend mode="normal" in="SourceGraphic" in2="effect1_dropShadow_6971_2678" result="shape"/>
</filter>
<filter id="filter2_d_6971_2678" x="62.2233" y="7.22947" width="289.152" height="185.582" filterUnits="userSpaceOnUse" color-interpolation-filters="sRGB">
<feFlood flood-opacity="0" result="BackgroundImageFix"/>
<feColorMatrix in="SourceAlpha" type="matrix" values="0 0 0 0 0 0 0 0 0 0 0 0 0 0 0 0 0 0 127 0" result="hardAlpha"/>
<feOffset dy="3.01202"/>
<feGaussianBlur stdDeviation="11.2951"/>
<feColorMatrix type="matrix" values="0 0 0 0 0 0 0 0 0 0 0 0 0 0 0 0 0 0 0.15 0"/>
<feBlend mode="normal" in2="BackgroundImageFix" result="effect1_dropShadow_6971_2678"/>
<feBlend mode="normal" in="SourceGraphic" in2="effect1_dropShadow_6971_2678" result="shape"/>
</filter>
<clipPath id="paint19_diamond_6971_2678_clip_path"><path d="M84.8848 161.261H87.8848L87.8848 31.7425H84.8848H81.8848L81.8848 161.261H84.8848ZM91.76 24.8672V27.8672H324.24V24.8672V21.8672H91.76V24.8672ZM331.115 31.7425H328.115V161.261H331.115H334.115V31.7425L331.115 31.7425ZM324.24 168.136V165.136H91.76V168.136V171.136H324.24V168.136ZM331.115 161.261H328.115C328.115 163.401 326.38 165.136 324.24 165.136V168.136V171.136C329.694 171.136 334.115 166.715 334.115 161.261H331.115ZM324.24 24.8672V27.8672C326.38 27.8672 328.115 29.6022 328.115 31.7425H331.115L334.115 31.7425C334.115 26.2885 329.694 21.8672 324.24 21.8672V24.8672ZM84.8848 31.7425H87.8848C87.8848 29.6022 89.6198 27.8672 91.76 27.8672V24.8672V21.8672C86.3061 21.8672 81.8848 26.2885 81.8848 31.7425H84.8848ZM84.8848 161.261H81.8848C81.8848 166.715 86.3061 171.136 91.76 171.136V168.136V165.136C89.6198 165.136 87.8848 163.401 87.8848 161.261H84.8848Z" mask="url(#path-41-inside-1_6971_2678)"/></clipPath><filter id="filter3_f_6971_2678" x="-169.967" y="-259.834" width="520.938" height="420.329" filterUnits="userSpaceOnUse" color-interpolation-filters="sRGB">
<feFlood flood-opacity="0" result="BackgroundImageFix"/>
<feBlend mode="normal" in="SourceGraphic" in2="BackgroundImageFix" result="shape"/>
<feGaussianBlur stdDeviation="15" result="effect1_foregroundBlur_6971_2678"/>
</filter>
<linearGradient id="paint0_linear_6971_2678" x1="-124" y1="0" x2="-124" y2="131.704" gradientUnits="userSpaceOnUse">
<stop stop-color="white"/>
<stop offset="0.611797" stop-color="white" stop-opacity="0.24"/>
<stop offset="1" stop-color="white" stop-opacity="0"/>
</linearGradient>
<linearGradient id="paint1_linear_6971_2678" x1="-124" y1="0" x2="-124" y2="131.704" gradientUnits="userSpaceOnUse">
<stop stop-color="white"/>
<stop offset="0.611797" stop-color="white" stop-opacity="0.24"/>
<stop offset="1" stop-color="white" stop-opacity="0"/>
</linearGradient>
<linearGradient id="paint2_linear_6971_2678" x1="17.8667" y1="190.815" x2="-4.50669" y2="137.467" gradientUnits="userSpaceOnUse">
<stop stop-color="#686868"/>
<stop offset="1" stop-color="#686868" stop-opacity="0"/>
</linearGradient>
<linearGradient id="paint3_linear_6971_2678" x1="208" y1="0" x2="208" y2="131.704" gradientUnits="userSpaceOnUse">
<stop stop-color="white"/>
<stop offset="0.611797" stop-color="white" stop-opacity="0.24"/>
<stop offset="1" stop-color="white" stop-opacity="0"/>
</linearGradient>
<linearGradient id="paint4_linear_6971_2678" x1="208" y1="0" x2="208" y2="131.704" gradientUnits="userSpaceOnUse">
<stop stop-color="white"/>
<stop offset="0.611797" stop-color="white" stop-opacity="0.24"/>
<stop offset="1" stop-color="white" stop-opacity="0"/>
</linearGradient>
<linearGradient id="paint5_linear_6971_2678" x1="129.972" y1="112.523" x2="129.972" y2="127.099" gradientUnits="userSpaceOnUse">
<stop stop-color="#B1B1B1"/>
<stop offset="1" stop-color="white"/>
</linearGradient>
<linearGradient id="paint6_linear_6971_2678" x1="118.871" y1="105.4" x2="116.502" y2="105.838" gradientUnits="userSpaceOnUse">
<stop offset="0.171875" stop-color="#BDBDBD"/>
<stop offset="0.640625" stop-color="#E1E1E1"/>
<stop offset="1" stop-color="#DDDDDD"/>
</linearGradient>
<linearGradient id="paint7_linear_6971_2678" x1="143.255" y1="105.794" x2="145.62" y2="106.255" gradientUnits="userSpaceOnUse">
<stop offset="0.0416667" stop-color="#B5B5B5"/>
<stop offset="0.362488" stop-color="#E2E2E2"/>
<stop offset="1" stop-color="white"/>
</linearGradient>
<linearGradient id="paint8_linear_6971_2678" x1="119.41" y1="103.058" x2="138.643" y2="103.131" gradientUnits="userSpaceOnUse">
<stop stop-color="#E0E0E0"/>
<stop offset="1" stop-color="white"/>
</linearGradient>
<linearGradient id="paint9_linear_6971_2678" x1="302.049" y1="135.86" x2="302.049" y2="141.69" gradientUnits="userSpaceOnUse">
<stop stop-color="#D6D4D4"/>
<stop offset="1" stop-color="#E4E4E4"/>
</linearGradient>
<linearGradient id="paint10_linear_6971_2678" x1="296.562" y1="132.585" x2="296.847" y2="134.368" gradientUnits="userSpaceOnUse">
<stop stop-color="#D7D7D7"/>
<stop offset="1" stop-color="#CDCDCD"/>
</linearGradient>
<linearGradient id="paint11_linear_6971_2678" x1="308.479" y1="132.766" x2="308.044" y2="134.518" gradientUnits="userSpaceOnUse">
<stop stop-color="#D9D9D9"/>
<stop offset="1" stop-color="#CDCDCD"/>
</linearGradient>
<linearGradient id="paint12_linear_6971_2678" x1="296.699" y1="134.264" x2="303.131" y2="134.264" gradientUnits="userSpaceOnUse">
<stop stop-color="#CECECE"/>
<stop offset="1" stop-color="#E7E7E7"/>
</linearGradient>
<linearGradient id="paint13_linear_6971_2678" x1="-45.2277" y1="243.589" x2="37.8423" y2="123.625" gradientUnits="userSpaceOnUse">
<stop/>
<stop offset="1" stop-opacity="0"/>
</linearGradient>
<linearGradient id="paint14_linear_6971_2678" x1="85.9516" y1="26.5844" x2="50.2382" y2="66.6909" gradientUnits="userSpaceOnUse">
<stop stop-color="#DCDCDC"/>
<stop offset="1" stop-color="#DCDCDC" stop-opacity="0"/>
</linearGradient>
<linearGradient id="paint15_linear_6971_2678" x1="77.5998" y1="47.782" x2="56.2278" y2="101.505" gradientUnits="userSpaceOnUse">
<stop stop-color="#D9D9D9"/>
<stop offset="1" stop-color="#D9D9D9" stop-opacity="0"/>
</linearGradient>
<linearGradient id="paint16_linear_6971_2678" x1="61.4006" y1="46.2259" x2="36.123" y2="86.6741" gradientUnits="userSpaceOnUse">
<stop stop-color="white"/>
<stop offset="1" stop-color="white" stop-opacity="0"/>
</linearGradient>
<linearGradient id="paint17_linear_6971_2678" x1="79.2554" y1="29.2374" x2="43.4051" y2="78.7704" gradientUnits="userSpaceOnUse">
<stop stop-color="white"/>
<stop offset="1" stop-color="white" stop-opacity="0"/>
</linearGradient>
<linearGradient id="paint18_linear_6971_2678" x1="349.867" y1="190.815" x2="327.493" y2="137.467" gradientUnits="userSpaceOnUse">
<stop stop-color="#686868"/>
<stop offset="1" stop-color="#686868" stop-opacity="0"/>
</linearGradient>
<linearGradient id="paint19_diamond_6971_2678" x1="0" y1="0" x2="500" y2="500" gradientUnits="userSpaceOnUse">
<stop stop-color="white"/>
<stop offset="1" stop-color="white" stop-opacity="0"/>
<stop offset="1" stop-color="white" stop-opacity="0.54"/>
</linearGradient>
<linearGradient id="paint20_linear_6971_2678" x1="243.634" y1="0" x2="243.634" y2="102.828" gradientUnits="userSpaceOnUse">
<stop stop-color="white" stop-opacity="0"/>
<stop offset="0.385417" stop-color="white"/>
<stop offset="0.567708" stop-color="white"/>
<stop offset="1" stop-color="white" stop-opacity="0"/>
</linearGradient>
<clipPath id="clip0_6971_2678">
<rect width="422.879" height="270.292" fill="white" transform="translate(-413.595 -11.9438)"/>
</clipPath>
<clipPath id="clip1_6971_2678">
<rect width="422.879" height="270.292" fill="white" transform="translate(-81.5947 -11.9438)"/>
</clipPath>
<clipPath id="clip2_6971_2678">
<rect x="98.4341" y="70.6992" width="64.3225" height="77.9437" rx="3.45246" fill="white"/>
</clipPath>
<clipPath id="clip3_6971_2678">
<rect width="82.4085" height="82.4084" fill="white" transform="translate(90.1096 70.6987)"/>
</clipPath>
<clipPath id="clip4_6971_2678">
<rect width="32.9634" height="32.9635" fill="white" transform="translate(286.104 119.13)"/>
</clipPath>
</defs>
</svg>
