<svg width="64" height="64" viewBox="0 0 64 64" fill="none" xmlns="http://www.w3.org/2000/svg">
<path fill-rule="evenodd" clip-rule="evenodd" d="M32 6.66675C18.032 6.66675 6.66669 18.0294 6.66669 32.0001C6.66669 45.9681 18.032 57.3334 32 57.3334C45.968 57.3334 57.3334 45.9681 57.3334 32.0001C57.3334 18.0294 45.968 6.66675 32 6.66675Z" fill="#FF5A5F"/>
<path fill-rule="evenodd" clip-rule="evenodd" d="M39.6426 39.6367C39.2533 40.0261 38.7413 40.2234 38.2293 40.2234C37.7146 40.2234 37.2053 40.0261 36.8133 39.6367L31.9973 34.8181L27.1946 39.6207C26.4133 40.4021 25.1467 40.4021 24.3653 39.6207C23.5867 38.8394 23.5867 37.5754 24.3653 36.7941L29.168 31.9914L24.3627 27.1834C23.5813 26.4021 23.5813 25.1381 24.3627 24.3568C25.144 23.5754 26.408 23.5754 27.1893 24.3568L31.9946 29.1621L36.8 24.3594C37.5813 23.5781 38.8453 23.5781 39.6266 24.3594C40.408 25.1381 40.408 26.4048 39.6266 27.1861L34.824 31.9914L39.6426 36.8074C40.424 37.5887 40.424 38.8554 39.6426 39.6367Z" fill="#262831"/>
</svg>
