<svg width="48" height="48" viewBox="0 0 48 48" fill="none" xmlns="http://www.w3.org/2000/svg">
<g clip-path="url(#clip0_8452_19364)">
<path fill-rule="evenodd" clip-rule="evenodd" d="M24 7.3C14.8866 7.3 7.3 14.8866 7.3 24C7.3 33.1116 14.8867 40.7 24 40.7C33.1134 40.7 40.7 33.1116 40.7 24C40.7 14.8866 33.1134 7.3 24 7.3ZM4.5 24C4.5 13.2297 13.2297 4.5 24 4.5C34.7702 4.5 43.5 13.2297 43.5 24C43.5 34.7682 34.7704 43.5 24 43.5C13.2296 43.5 4.5 34.7682 4.5 24Z" fill="#FFB647"/>
<path fill-rule="evenodd" clip-rule="evenodd" d="M24 15.1133C24.8284 15.1133 25.5 15.7849 25.5 16.6133V25.2124C25.5 26.0408 24.8284 26.7124 24 26.7124C23.1716 26.7124 22.5 26.0408 22.5 25.2124V16.6133C22.5 15.7849 23.1716 15.1133 24 15.1133ZM24.0076 29.8882C24.836 29.8882 25.5076 30.5598 25.5076 31.3882V31.4836C25.5076 32.312 24.836 32.9836 24.0076 32.9836C23.1792 32.9836 22.5076 32.312 22.5076 31.4836V31.3882C22.5076 30.5598 23.1792 29.8882 24.0076 29.8882Z" fill="#FFB647"/>
</g>
<defs>
<clipPath id="clip0_8452_19364">
<rect width="48" height="48" fill="white"/>
</clipPath>
</defs>
</svg>
