<svg width="32" height="32" viewBox="0 0 32 32" fill="none" xmlns="http://www.w3.org/2000/svg">
<g clip-path="url(#clip0_8452_19344)">
<path fill-rule="evenodd" clip-rule="evenodd" d="M16 3.33325C9.01598 3.33325 3.33331 9.01592 3.33331 15.9999C3.33331 22.9853 9.01598 28.6666 16 28.6666C22.984 28.6666 28.6666 22.9853 28.6666 15.9999C28.6666 9.01592 22.984 3.33325 16 3.33325Z" fill="#FFB647"/>
<path fill-rule="evenodd" clip-rule="evenodd" d="M16 21.9587C15.448 21.9587 15 21.5427 15 20.9894V20.9267C15 20.3747 15.448 19.9267 16 19.9267C16.552 19.9267 17 20.3747 17 20.9267C17 21.4787 16.552 21.9587 16 21.9587ZM14.9947 11.0774C14.9947 10.5254 15.4427 10.0774 15.9947 10.0774C16.5467 10.0774 16.9947 10.5254 16.9947 11.0774V16.8094C16.9947 17.3614 16.5467 17.8094 15.9947 17.8094C15.4427 17.8094 14.9947 17.3614 14.9947 16.8094V11.0774Z" fill="#262831"/>
</g>
<defs>
<clipPath id="clip0_8452_19344">
<rect width="32" height="32" fill="white"/>
</clipPath>
</defs>
</svg>
