<svg width="64" height="64" viewBox="0 0 64 64" fill="none" xmlns="http://www.w3.org/2000/svg">
<path fill-rule="evenodd" clip-rule="evenodd" d="M32 9C19.8488 9 9 19.8488 9 32C9 44.1488 19.8489 55 32 55C44.1512 55 55 44.1488 55 32C55 19.8488 44.1512 9 32 9ZM6 32C6 17.6397 17.6397 6 32 6C46.3603 6 58 17.6397 58 32C58 46.3576 46.3605 58 32 58C17.6395 58 6 46.3576 6 32Z" fill="#FF5A5F"/>
<path fill-rule="evenodd" clip-rule="evenodd" d="M24.3725 24.3592C25.1535 23.5782 26.42 23.5782 27.2008 24.3592L32.0077 29.1661L36.8109 24.363C37.592 23.582 38.8581 23.582 39.6392 24.363C40.4202 25.1441 40.4202 26.4104 39.6392 27.1915L34.8362 31.9944L39.6549 36.8133C40.436 37.5944 40.436 38.8605 39.6549 39.6416C38.8738 40.4227 37.6074 40.4227 36.8266 39.6416L32.0077 34.8229L27.2058 39.6248C26.425 40.4059 25.1586 40.4059 24.3776 39.6248C23.5965 38.8437 23.5965 37.5773 24.3776 36.7963L29.1794 31.9944L24.3725 27.1877C23.5914 26.4066 23.5914 25.1403 24.3725 24.3592Z" fill="#FF5A5F"/>
</svg>
