<svg width="40" height="40" viewBox="0 0 40 40" fill="none" xmlns="http://www.w3.org/2000/svg">
<path fill-rule="evenodd" clip-rule="evenodd" d="M20 4.16675C11.27 4.16675 4.16669 11.2684 4.16669 20.0001C4.16669 28.7301 11.27 35.8334 20 35.8334C28.73 35.8334 35.8334 28.7301 35.8334 20.0001C35.8334 11.2684 28.73 4.16675 20 4.16675Z" fill="#FF5A5F"/>
<path fill-rule="evenodd" clip-rule="evenodd" d="M24.7766 24.7729C24.5333 25.0163 24.2133 25.1396 23.8933 25.1396C23.5716 25.1396 23.2533 25.0163 23.0083 24.7729L19.9983 21.7613L16.9966 24.7629C16.5083 25.2513 15.7167 25.2513 15.2283 24.7629C14.7417 24.2746 14.7417 23.4846 15.2283 22.9963L18.23 19.9946L15.2267 16.9896C14.7383 16.5013 14.7383 15.7113 15.2267 15.2229C15.715 14.7346 16.505 14.7346 16.9933 15.2229L19.9966 18.2263L23 15.2246C23.4883 14.7363 24.2783 14.7363 24.7666 15.2246C25.255 15.7113 25.255 16.5029 24.7666 16.9913L21.765 19.9946L24.7766 23.0046C25.265 23.4929 25.265 24.2846 24.7766 24.7729Z" fill="#262831"/>
</svg>
