<svg width="32" height="32" viewBox="0 0 32 32" fill="none" xmlns="http://www.w3.org/2000/svg">
<path fill-rule="evenodd" clip-rule="evenodd" d="M16 5C9.92439 5 5 9.92439 5 16C5 22.0744 9.92447 27 16 27C22.0756 27 27 22.0744 27 16C27 9.92439 22.0756 5 16 5ZM3 16C3 8.81983 8.81983 3 16 3C23.1801 3 29 8.81983 29 16C29 23.1788 23.1803 29 16 29C8.81975 29 3 23.1788 3 16Z" fill="#FF5A5F"/>
<path fill-rule="evenodd" clip-rule="evenodd" d="M12.1862 12.1796C12.5768 11.7891 13.21 11.7891 13.6004 12.1796L16.0039 14.5831L18.4055 12.1815C18.796 11.791 19.4291 11.791 19.8196 12.1815C20.2101 12.572 20.2101 13.2052 19.8196 13.5957L17.4181 15.9972L19.8275 18.4067C20.218 18.7972 20.218 19.4303 19.8275 19.8208C19.4369 20.2113 18.8037 20.2113 18.4133 19.8208L16.0039 17.4115L13.6029 19.8124C13.2125 20.2029 12.5793 20.2029 12.1888 19.8124C11.7982 19.4219 11.7982 18.7887 12.1888 18.3981L14.5897 15.9972L12.1862 13.5939C11.7957 13.2033 11.7957 12.5701 12.1862 12.1796Z" fill="#FF5A5F"/>
</svg>
