<svg width="48" height="48" viewBox="0 0 48 48" fill="none" xmlns="http://www.w3.org/2000/svg">
<path fill-rule="evenodd" clip-rule="evenodd" d="M24 5C13.524 5 5 13.524 5 24C5 34.478 13.524 43 24 43C34.476 43 43 34.478 43 24C43 13.524 34.476 5 24 5Z" fill="#45B380"/>
<path fill-rule="evenodd" clip-rule="evenodd" d="M31.986 20.4441L22.75 29.6801C22.456 29.9741 22.074 30.1201 21.69 30.1201C21.304 30.1201 20.922 29.9741 20.628 29.6801L16.01 25.0621C15.424 24.4761 15.424 23.5261 16.01 22.9401C16.596 22.3541 17.544 22.3541 18.13 22.9401L21.69 26.4981L29.864 18.3221C30.45 17.7361 31.4 17.7361 31.986 18.3221C32.572 18.9081 32.572 19.8581 31.986 20.4441Z" fill="#262831"/>
</svg>
