<svg width="48" height="48" viewBox="0 0 48 48" fill="none" xmlns="http://www.w3.org/2000/svg">
<path d="M36.6748 31.6171C36.6749 30.1014 37.2748 28.6444 38.3457 27.5683L39.7676 26.1464C40.9504 24.9522 40.9435 23.0238 39.749 21.8358L39.7471 21.8329L38.3457 20.4325L38.3428 20.4286C37.2732 19.3513 36.6729 17.8974 36.6728 16.3778V14.3778C36.6728 12.694 35.3068 11.328 33.623 11.328H31.6172C30.1001 11.3279 28.6427 10.7283 27.5664 9.65712L26.1641 8.25478C26.1588 8.24965 26.1537 8.24339 26.1484 8.23818L26.1475 8.24013C24.9526 7.05364 23.0218 7.05919 21.834 8.2538L20.4287 9.66103C19.353 10.7266 17.8994 11.3299 16.3799 11.33H14.3789C12.6943 11.3316 11.3301 12.6963 11.3301 14.3798C11.3301 14.406 11.3276 14.432 11.3262 14.4579V16.3739C11.3261 17.8942 10.7237 19.3512 9.65331 20.4267L8.23632 21.8456L8.23437 21.8436C8.23306 21.845 8.23175 21.8463 8.23046 21.8476L8.23242 21.8495C7.04852 23.0456 7.05684 24.9724 8.25195 26.1571L9.65624 27.5624L9.65722 27.5643C10.727 28.6392 11.33 30.0938 11.3301 31.6132V33.6249C11.3303 35.3085 12.6945 36.6726 14.3779 36.6727H16.3779C17.799 36.6749 19.1681 37.2014 20.2207 38.1503L20.4268 38.3456L21.8262 39.745C21.8328 39.7514 21.8401 39.7571 21.8467 39.7636C23.0405 40.9479 24.9714 40.9407 26.1562 39.745L26.1611 39.7392L27.5615 38.3417L27.5625 38.3397C28.6377 37.2695 30.0946 36.667 31.6133 36.6669H33.624C35.3054 36.6683 36.6706 35.308 36.6748 33.6249V31.6171ZM6.40917 19.8622C6.40319 19.8672 6.39694 19.8734 6.38964 19.8798C6.39869 19.8719 6.40676 19.863 6.41601 19.8554C6.41369 19.8573 6.41154 19.8602 6.40917 19.8622ZM6.53515 19.7684L6.53417 19.7694L6.52538 19.7753C6.52152 19.7779 6.51787 19.7812 6.51367 19.7841C6.50531 19.7898 6.49541 19.7954 6.48535 19.8026C6.46978 19.8138 6.44912 19.8287 6.42577 19.8476C6.46101 19.8192 6.49719 19.7932 6.53515 19.7684ZM39.373 16.3778C39.3731 17.1826 39.6893 17.9518 40.2549 18.5233L41.6523 19.9208C43.9031 22.1593 43.9178 25.7988 41.6807 28.0517L40.2568 29.4755C39.6919 30.0446 39.375 30.8153 39.375 31.6171V33.6268C39.3697 36.8009 36.795 39.3681 33.623 39.3661H31.6133C30.81 39.3662 30.0379 39.6855 29.4678 40.2528L28.0684 41.6503C25.8392 43.8941 22.2165 43.9136 19.9639 41.6981C19.9547 41.6895 19.9444 41.6816 19.9355 41.6727L18.5195 40.2567C18.0221 39.7629 17.3694 39.4572 16.6748 39.3876L16.374 39.3729H14.3779C11.2032 39.3728 8.63107 36.7995 8.63085 33.6249V31.6132C8.63082 30.8107 8.31244 30.0402 7.74511 29.4696L6.34667 28.0702C4.09703 25.8348 4.08376 22.2028 6.31347 19.9501L6.31835 19.9442C6.32047 19.9421 6.32306 19.9405 6.32519 19.9384L7.7412 18.5204C8.30759 17.9506 8.62686 17.1791 8.62695 16.3739V14.3798C8.62695 14.3326 8.62906 14.286 8.63378 14.2401C8.70796 11.1296 11.2498 8.6324 14.3769 8.62978H16.3799C17.1827 8.62975 17.9547 8.3113 18.5283 7.74306L19.9219 6.34755C22.149 4.11027 25.7587 4.08906 28.0127 6.28798C28.0334 6.30631 28.0537 6.32603 28.0732 6.3456L29.4707 7.74306C30.0398 8.30942 30.8121 8.62772 31.6172 8.62782H33.623C36.798 8.62785 39.373 11.2029 39.373 14.3778V16.3778Z" fill="#006AFF"/>
<path d="M29.0117 18.9588C29.6168 18.3534 30.5986 18.3528 31.2041 18.9578C31.8096 19.563 31.8093 20.5448 31.2041 21.1502L23.0586 29.3006C22.7678 29.5914 22.3732 29.7548 21.9619 29.7547C21.5506 29.7546 21.1559 29.5907 20.8652 29.2996L16.9111 25.3397C16.3063 24.7339 16.3073 23.7522 16.9131 23.1473C17.5189 22.5428 18.4997 22.5436 19.1045 23.1492L21.9619 26.0115L29.0117 18.9588Z" fill="#006AFF"/>
</svg>
