<svg width="32" height="32" viewBox="0 0 32 32" fill="none" xmlns="http://www.w3.org/2000/svg">
<path fill-rule="evenodd" clip-rule="evenodd" d="M27.6049 13.4477L26.6729 12.5156C26.2476 12.089 26.0142 11.521 26.0142 10.9196V9.5863C26.0142 7.60097 24.3982 5.9863 22.4142 5.9863H21.0782C20.4742 5.9863 19.9076 5.75297 19.4836 5.32897L18.5356 4.3823C17.1262 2.98497 14.8436 2.99164 13.4449 4.39697L12.5156 5.32897C12.0876 5.7543 11.521 5.98764 10.9183 5.98764H9.58364C7.62231 5.98897 6.02231 7.56764 5.98631 9.52231C5.98496 9.54364 5.98364 9.56497 5.98364 9.58764V10.917C5.98364 11.5196 5.75031 12.0863 5.32497 12.5116L4.38097 13.457C4.37964 13.461 4.37564 13.4623 4.37297 13.465C2.97964 14.8757 2.99164 17.1583 4.39564 18.549L5.32764 19.4837C5.75164 19.909 5.98631 20.4743 5.98631 21.077V22.417C5.98631 24.401 7.59964 26.0157 9.58364 26.0157H10.9156C11.5196 26.017 12.0863 26.2503 12.5103 26.673L13.4609 27.621C14.1382 28.2943 15.0369 28.665 15.9929 28.665H16.0089C16.9702 28.661 17.8716 28.2823 18.5462 27.6037L19.4809 26.6703C19.9009 26.2517 20.4822 26.0117 21.0756 26.0117H22.4169C24.3969 26.0117 26.0116 24.3997 26.0156 22.417V21.0797C26.0156 20.4783 26.2489 19.9117 26.6716 19.4863L27.6196 18.5383C29.0196 17.1303 29.0116 14.8463 27.6049 13.4477Z" fill="#006AFF"/>
<path fill-rule="evenodd" clip-rule="evenodd" d="M20.7782 14.0768L15.3476 19.5102C15.1596 19.6982 14.9049 19.8035 14.6396 19.8035C14.3742 19.8035 14.1196 19.6982 13.9329 19.5102L11.2969 16.8702C10.9076 16.4782 10.9076 15.8448 11.2983 15.4542C11.6903 15.0648 12.3223 15.0662 12.713 15.4555L14.6409 17.3875L19.3636 12.6621C19.7542 12.2715 20.3876 12.2715 20.7782 12.6621C21.1689 13.0528 21.1689 13.6862 20.7782 14.0768Z" fill="#262831"/>
</svg>
