<svg width="16" height="16" viewBox="0 0 16 16" fill="none" xmlns="http://www.w3.org/2000/svg">
<path d="M12.1751 10.5391C12.1751 10.0207 12.3804 9.52245 12.7467 9.15435L13.2194 8.68104C13.5951 8.30265 13.5931 7.6907 13.2142 7.31385L12.7454 6.8451C12.3796 6.47659 12.1745 5.97882 12.1745 5.45904V4.79302C12.1745 4.25936 11.7413 3.82623 11.2077 3.82622H10.5391C10.0202 3.82619 9.52181 3.621 9.15364 3.25461L8.68619 2.78716C8.68454 2.78556 8.68262 2.78358 8.68099 2.78195L8.60742 2.7162C8.22682 2.40774 7.66685 2.43162 7.3138 2.78651L7.3125 2.78716L6.8444 3.25591C6.47653 3.62028 5.97938 3.82688 5.45963 3.82688H4.79296C4.259 3.8274 3.82682 4.26015 3.82682 4.79367C3.82681 4.8022 3.82594 4.81064 3.82552 4.81906V5.45773C3.82552 5.97777 3.61939 6.47658 3.25325 6.84445L2.79687 7.30018C2.79085 7.30688 2.78461 7.31239 2.77929 7.31776C2.40405 7.69687 2.40706 8.30819 2.7858 8.68365L3.25455 9.15305C3.6204 9.52067 3.82681 10.0181 3.82682 10.5378V11.2084C3.82689 11.742 4.25938 12.1745 4.79296 12.1745H5.45963C5.91317 12.1753 6.35142 12.3318 6.70052 12.6166L6.8444 12.7468L7.30859 13.211C7.31153 13.2138 7.31483 13.2166 7.3177 13.2195C7.69603 13.5946 8.30749 13.5918 8.68294 13.2129L9.15169 12.7448C9.51945 12.3788 10.0183 12.1726 10.5378 12.1726H11.2083C11.741 12.1729 12.1737 11.7417 12.1751 11.2084V10.5391ZM2.05859 6.62635C2.05035 6.6353 2.03774 6.64886 2.02408 6.66737C2.03605 6.65113 2.04928 6.63585 2.06315 6.62115C2.06159 6.62279 2.06018 6.62463 2.05859 6.62635ZM2.14322 6.55344C2.14013 6.55554 2.13654 6.55792 2.13281 6.5606C2.1285 6.56369 2.12318 6.56763 2.11718 6.57232L2.14778 6.55018C2.14637 6.55112 2.14475 6.5524 2.14322 6.55344ZM13.1745 5.45904C13.1745 5.71414 13.2745 5.95819 13.4538 6.13938L13.9193 6.60487C14.6891 7.37052 14.6943 8.61557 13.929 9.38612L13.4544 9.86073L13.4538 9.86008C13.2748 10.0404 13.1751 10.2851 13.1751 10.5391V11.209C13.1733 12.2947 12.2926 13.1732 11.2077 13.1726H10.5378C10.2833 13.1726 10.0388 13.2734 9.85807 13.4532L9.85742 13.4525L9.39127 13.9187C8.63034 14.6845 7.39512 14.6927 6.62434 13.9395C6.61961 13.9351 6.61459 13.931 6.61002 13.9265L6.13867 13.4551C5.98098 13.2982 5.77394 13.2012 5.55338 13.1791L5.45768 13.1745H4.79296C3.70704 13.1745 2.82689 12.2942 2.82682 11.2084V10.5378C2.82681 10.2834 2.7256 10.039 2.54557 9.85813L2.08007 9.39198C1.31105 8.62737 1.30653 7.38498 2.06901 6.61464L2.07096 6.61203C2.0715 6.61149 2.07237 6.61127 2.07291 6.61073L2.54492 6.13807C2.72437 5.95749 2.82552 5.71289 2.82552 5.45773V4.79367C2.82552 4.77619 2.82637 4.75861 2.82812 4.74159C2.85557 3.67954 3.72409 2.82775 4.79231 2.82688H5.45963C5.71392 2.82688 5.95871 2.72574 6.14062 2.54563L6.60481 2.08078C7.36591 1.31594 8.59932 1.3083 9.37044 2.05865C9.37809 2.06541 9.386 2.07226 9.39322 2.07948L9.85872 2.54563C10.039 2.72506 10.2839 2.82619 10.5391 2.82622H11.2077C12.2936 2.82623 13.1745 3.70708 13.1745 4.79302V5.45904Z" fill="#006AFF"/>
<path d="M9.68229 6.33124C9.8775 6.13594 10.194 6.13607 10.3893 6.33124C10.5846 6.52642 10.5851 6.84295 10.39 7.03827L7.67448 9.75507C7.58068 9.8489 7.45299 9.90159 7.32032 9.90155C7.18773 9.90144 7.06049 9.84824 6.9668 9.75442L5.64909 8.43476C5.45404 8.23942 5.45389 7.92286 5.64909 7.72772C5.8445 7.53261 6.161 7.53297 6.35612 7.72838L7.32032 8.69387L9.68229 6.33124Z" fill="#006AFF"/>
</svg>
