<svg width="24" height="24" viewBox="0 0 24 24" fill="none" xmlns="http://www.w3.org/2000/svg">
<path fill-rule="evenodd" clip-rule="evenodd" d="M12 3.75C7.44329 3.75 3.75 7.44329 3.75 12C3.75 16.5558 7.44335 20.25 12 20.25C16.5567 20.25 20.25 16.5558 20.25 12C20.25 7.44329 16.5567 3.75 12 3.75ZM2.25 12C2.25 6.61487 6.61487 2.25 12 2.25C17.3851 2.25 21.75 6.61487 21.75 12C21.75 17.3841 17.3852 21.75 12 21.75C6.61481 21.75 2.25 17.3841 2.25 12Z" fill="#45B380"/>
<path fill-rule="evenodd" clip-rule="evenodd" d="M15.998 9.16108C16.2908 9.45397 16.2908 9.92884 15.998 10.2217L11.3802 14.8395C11.0874 15.1323 10.6126 15.1324 10.3197 14.8396L8.00979 12.5307C7.71683 12.2379 7.71673 11.763 8.00956 11.4701C8.3024 11.1771 8.77727 11.177 9.07022 11.4698L10.8498 13.2486L14.9373 9.16108C15.2302 8.86818 15.7051 8.86818 15.998 9.16108Z" fill="#45B380"/>
</svg>
