<svg width="40" height="40" viewBox="0 0 40 40" fill="none" xmlns="http://www.w3.org/2000/svg">
<g clip-path="url(#clip0_8452_19356)">
<path fill-rule="evenodd" clip-rule="evenodd" d="M20 6.25C12.4055 6.25 6.25 12.4055 6.25 20C6.25 27.593 12.4056 33.75 20 33.75C27.5945 33.75 33.75 27.593 33.75 20C33.75 12.4055 27.5945 6.25 20 6.25ZM3.75 20C3.75 11.0248 11.0248 3.75 20 3.75C28.9752 3.75 36.25 11.0248 36.25 20C36.25 28.9735 28.9753 36.25 20 36.25C11.0247 36.25 3.75 28.9735 3.75 20Z" fill="#FFB647"/>
<path fill-rule="evenodd" clip-rule="evenodd" d="M20 12.5945C20.6903 12.5945 21.25 13.1541 21.25 13.8445V21.0104C21.25 21.7007 20.6903 22.2604 20 22.2604C19.3097 22.2604 18.75 21.7007 18.75 21.0104V13.8445C18.75 13.1541 19.3097 12.5945 20 12.5945ZM20.0063 24.9069C20.6967 24.9069 21.2563 25.4666 21.2563 26.1569V26.2364C21.2563 26.9267 20.6967 27.4864 20.0063 27.4864C19.316 27.4864 18.7563 26.9267 18.7563 26.2364V26.1569C18.7563 25.4666 19.316 24.9069 20.0063 24.9069Z" fill="#FFB647"/>
</g>
<defs>
<clipPath id="clip0_8452_19356">
<rect width="40" height="40" fill="white"/>
</clipPath>
</defs>
</svg>
