<svg width="24" height="24" viewBox="0 0 24 24" fill="none" xmlns="http://www.w3.org/2000/svg">
<path fill-rule="evenodd" clip-rule="evenodd" d="M12 3.75C7.44329 3.75 3.75 7.44329 3.75 12C3.75 16.5558 7.44335 20.25 12 20.25C16.5567 20.25 20.25 16.5558 20.25 12C20.25 7.44329 16.5567 3.75 12 3.75ZM2.25 12C2.25 6.61487 6.61487 2.25 12 2.25C17.3851 2.25 21.75 6.61487 21.75 12C21.75 17.3841 17.3852 21.75 12 21.75C6.61481 21.75 2.25 17.3841 2.25 12Z" fill="#FF5A5F"/>
<path fill-rule="evenodd" clip-rule="evenodd" d="M9.13969 9.13471C9.43258 8.84182 9.9075 8.84182 10.2003 9.13471L12.0029 10.9373L13.8041 9.13613C14.097 8.84324 14.5718 8.84324 14.8647 9.13613C15.1576 9.42903 15.1576 9.9039 14.8647 10.1968L13.0636 11.9979L14.8706 13.805C15.1635 14.0979 15.1635 14.5727 14.8706 14.8656C14.5777 15.1585 14.1028 15.1585 13.81 14.8656L12.0029 13.0586L10.2022 14.8593C9.9094 15.1522 9.43448 15.1522 9.14159 14.8593C8.84869 14.5664 8.84869 14.0915 9.14159 13.7986L10.9423 11.9979L9.13969 10.1954C8.84679 9.90248 8.84679 9.4276 9.13969 9.13471Z" fill="#FF5A5F"/>
</svg>
