<svg width="16" height="16" viewBox="0 0 16 16" fill="none" xmlns="http://www.w3.org/2000/svg">
<path fill-rule="evenodd" clip-rule="evenodd" d="M8.00002 1.66675C4.50802 1.66675 1.66669 4.50741 1.66669 8.00008C1.66669 11.4921 4.50802 14.3334 8.00002 14.3334C11.492 14.3334 14.3334 11.4921 14.3334 8.00008C14.3334 4.50741 11.492 1.66675 8.00002 1.66675Z" fill="#FF5A5F"/>
<path fill-rule="evenodd" clip-rule="evenodd" d="M9.91065 9.90912C9.81331 10.0065 9.68531 10.0558 9.55731 10.0558C9.42865 10.0558 9.30131 10.0065 9.20331 9.90912L7.99931 8.70445L6.79865 9.90512C6.60332 10.1005 6.28665 10.1005 6.09132 9.90512C5.89665 9.70979 5.89665 9.39379 6.09132 9.19845L7.29198 7.99779L6.09065 6.79579C5.89532 6.60046 5.89532 6.28446 6.09065 6.08913C6.28599 5.89379 6.60199 5.89379 6.79731 6.08913L7.99865 7.29045L9.19998 6.08979C9.39531 5.89446 9.71131 5.89446 9.90665 6.08979C10.102 6.28446 10.102 6.60113 9.90665 6.79645L8.70598 7.99779L9.91065 9.20179C10.106 9.39712 10.106 9.71379 9.91065 9.90912Z" fill="#262831"/>
</svg>
