<svg width="64" height="64" viewBox="0 0 64 64" fill="none" xmlns="http://www.w3.org/2000/svg">
<g clip-path="url(#clip0_8452_19372)">
<path fill-rule="evenodd" clip-rule="evenodd" d="M32 9C19.8488 9 9 19.8488 9 32C9 44.1488 19.8489 55 32 55C44.1512 55 55 44.1488 55 32C55 19.8488 44.1512 9 32 9ZM6 32C6 17.6397 17.6397 6 32 6C46.3603 6 58 17.6397 58 32C58 46.3576 46.3605 58 32 58C17.6395 58 6 46.3576 6 32Z" fill="#FFB647"/>
<path fill-rule="evenodd" clip-rule="evenodd" d="M32 20.1511C33.1045 20.1511 34 21.0466 34 22.1511V33.6166C34 34.7212 33.1045 35.6166 32 35.6166C30.8955 35.6166 30 34.7212 30 33.6166V22.1511C30 21.0466 30.8955 20.1511 32 20.1511ZM32.0101 39.851C33.1147 39.851 34.0101 40.7465 34.0101 41.851V41.9782C34.0101 43.0828 33.1147 43.9782 32.0101 43.9782C30.9056 43.9782 30.0101 43.0828 30.0101 41.9782V41.851C30.0101 40.7465 30.9056 39.851 32.0101 39.851Z" fill="#FFB647"/>
</g>
<defs>
<clipPath id="clip0_8452_19372">
<rect width="64" height="64" fill="white"/>
</clipPath>
</defs>
</svg>
