<svg width="40" height="40" viewBox="0 0 40 40" fill="none" xmlns="http://www.w3.org/2000/svg">
<path d="M30.4378 26.3475C30.4379 25.0515 30.9511 23.8059 31.8669 22.8856L33.0485 21.7024C33.9877 20.7564 33.9828 19.2265 33.0355 18.2844L31.8636 17.1125C30.9489 16.1912 30.4362 14.9468 30.4362 13.6473V11.9823C30.4362 10.6482 29.3533 9.56534 28.0192 9.56532H26.3477C25.0505 9.56523 23.8045 9.05226 22.8841 8.13628L21.7155 6.96766C21.7114 6.96365 21.7066 6.95871 21.7025 6.95464L21.5186 6.79025C20.5671 6.0191 19.1671 6.07882 18.2845 6.96603L18.2813 6.96766L17.111 8.13954C16.1913 9.05047 14.9485 9.56694 13.6491 9.56694H11.9824C10.6475 9.56826 9.56706 10.6501 9.56706 11.9839C9.56705 12.0053 9.56487 12.0264 9.56381 12.0474V13.6441C9.56381 14.9442 9.04848 16.1912 8.13314 17.1109L6.99219 18.2502C6.97715 18.2669 6.96155 18.2807 6.94825 18.2942C6.01015 19.2419 6.01766 20.7702 6.96452 21.7089L8.1364 22.8824C9.05101 23.8014 9.56704 25.045 9.56706 26.3443V28.0207C9.56724 29.3548 10.6485 30.4361 11.9824 30.4361H13.6491C14.7829 30.438 15.8786 30.8292 16.7513 31.5412L17.111 31.8667L18.2715 33.0272C18.2788 33.0342 18.2871 33.0413 18.2943 33.0484C19.2401 33.9862 20.7687 33.9793 21.7074 33.0321L22.8792 31.8619C23.7987 30.9467 25.0457 30.4313 26.3444 30.4312H28.0208C29.3526 30.432 30.4343 29.354 30.4378 28.0207V26.3475ZM5.14649 16.5656C5.12588 16.588 5.09436 16.6219 5.06023 16.6682C5.09013 16.6276 5.12322 16.5894 5.15788 16.5526C5.15398 16.5567 5.15046 16.5613 5.14649 16.5656ZM5.35808 16.3834C5.35034 16.3886 5.34135 16.3946 5.33204 16.4013C5.32128 16.409 5.30797 16.4188 5.29297 16.4306L5.36947 16.3752C5.36595 16.3776 5.3619 16.3807 5.35808 16.3834ZM32.9362 13.6473C32.9362 14.2851 33.1863 14.8952 33.6344 15.3482L34.7982 16.5119C36.7228 18.426 36.7358 21.5387 34.8226 23.4651L33.6361 24.6516L33.6344 24.65C33.1871 25.1007 32.9379 25.7125 32.9378 26.3475V28.0223C32.9334 30.7364 30.7315 32.9329 28.0192 32.9312H26.3444C25.7082 32.9313 25.0969 33.1833 24.6452 33.6327L24.6436 33.6311L23.4782 34.7964C21.5759 36.711 18.4878 36.7314 16.5609 34.8485C16.549 34.8376 16.5365 34.8274 16.5251 34.816L15.3467 33.6376C14.9525 33.2453 14.4349 33.0028 13.8835 32.9475L13.6442 32.9361H11.9824C9.26762 32.9361 7.06724 30.7354 7.06706 28.0207V26.3443C7.06704 25.7083 6.81401 25.0973 6.36394 24.6451L5.2002 23.4797C3.27764 21.5682 3.26634 18.4622 5.17253 16.5363L5.17741 16.5298C5.17877 16.5285 5.18093 16.5279 5.1823 16.5266L6.36231 15.3449C6.81094 14.8935 7.06381 14.282 7.06381 13.6441V11.9839C7.06381 11.9402 7.06594 11.8963 7.07032 11.8537C7.13895 9.1986 9.31024 7.06912 11.9808 7.06694H13.6491C14.2848 7.06694 14.8968 6.81412 15.3516 6.36382L16.512 5.20171C18.4148 3.28961 21.4983 3.27051 23.4261 5.14637C23.4452 5.16327 23.465 5.18041 23.4831 5.19845L24.6468 6.36382C25.0976 6.81241 25.7098 7.06523 26.3477 7.06532H28.0192C30.734 7.06534 32.9362 9.26745 32.9362 11.9823V13.6473Z" fill="#006AFF"/>
<path d="M24.2057 15.8285C24.6937 15.3402 25.485 15.3405 25.9733 15.8285C26.4615 16.3164 26.4627 17.1077 25.9749 17.596L19.1862 24.388C18.9517 24.6226 18.6325 24.7543 18.3008 24.7542C17.9693 24.754 17.6512 24.621 17.417 24.3864L14.1227 21.0873C13.6351 20.5989 13.6347 19.8075 14.1227 19.3197C14.6112 18.8319 15.4025 18.8328 15.8903 19.3213L18.3008 21.735L24.2057 15.8285Z" fill="#006AFF"/>
</svg>
