<svg width="48" height="48" viewBox="0 0 48 48" fill="none" xmlns="http://www.w3.org/2000/svg">
<g clip-path="url(#clip0_8452_19360)">
<path fill-rule="evenodd" clip-rule="evenodd" d="M24 5C13.524 5 5 13.524 5 24C5 34.478 13.524 43 24 43C34.476 43 43 34.478 43 24C43 13.524 34.476 5 24 5Z" fill="#FFB647"/>
<path fill-rule="evenodd" clip-rule="evenodd" d="M24 32.938C23.172 32.938 22.5 32.314 22.5 31.484V31.39C22.5 30.562 23.172 29.89 24 29.89C24.828 29.89 25.5 30.562 25.5 31.39C25.5 32.218 24.828 32.938 24 32.938ZM22.492 16.616C22.492 15.788 23.164 15.116 23.992 15.116C24.82 15.116 25.492 15.788 25.492 16.616V25.214C25.492 26.042 24.82 26.714 23.992 26.714C23.164 26.714 22.492 26.042 22.492 25.214V16.616Z" fill="#262831"/>
</g>
<defs>
<clipPath id="clip0_8452_19360">
<rect width="48" height="48" fill="white"/>
</clipPath>
</defs>
</svg>
