<svg width="16" height="16" viewBox="0 0 16 16" fill="none" xmlns="http://www.w3.org/2000/svg">
<g clip-path="url(#clip0_8452_19328)">
<path fill-rule="evenodd" clip-rule="evenodd" d="M8.00002 1.66675C4.50802 1.66675 1.66669 4.50808 1.66669 8.00008C1.66669 11.4927 4.50802 14.3334 8.00002 14.3334C11.492 14.3334 14.3334 11.4927 14.3334 8.00008C14.3334 4.50808 11.492 1.66675 8.00002 1.66675Z" fill="#FFB647"/>
<path fill-rule="evenodd" clip-rule="evenodd" d="M7.99998 10.9792C7.72398 10.9792 7.49998 10.7712 7.49998 10.4946V10.4632C7.49998 10.1872 7.72398 9.96324 7.99998 9.96324C8.27598 9.96324 8.49998 10.1872 8.49998 10.4632C8.49998 10.7392 8.27598 10.9792 7.99998 10.9792ZM7.49731 5.53857C7.49731 5.26257 7.72131 5.03857 7.99731 5.03857C8.27331 5.03857 8.49731 5.26257 8.49731 5.53857V8.40457C8.49731 8.68057 8.27331 8.90457 7.99731 8.90457C7.72131 8.90457 7.49731 8.68057 7.49731 8.40457V5.53857Z" fill="#262831"/>
</g>
<defs>
<clipPath id="clip0_8452_19328">
<rect width="16" height="16" fill="white"/>
</clipPath>
</defs>
</svg>
