<svg width="16" height="16" viewBox="0 0 16 16" fill="none" xmlns="http://www.w3.org/2000/svg">
<path fill-rule="evenodd" clip-rule="evenodd" d="M13.8025 6.72372L13.3365 6.2577C13.1238 6.04436 13.0072 5.76036 13.0072 5.4597V4.79303C13.0072 3.80036 12.1992 2.99303 11.2072 2.99303H10.5392C10.2372 2.99303 9.95382 2.87636 9.74182 2.66436L9.26782 2.19103C8.56315 1.49236 7.42182 1.4957 6.72248 2.19836L6.25784 2.66436C6.04384 2.87703 5.76052 2.9937 5.45918 2.9937H4.79185C3.81118 2.99436 3.01118 3.7837 2.99318 4.76103C2.99251 4.7717 2.99185 4.78236 2.99185 4.7937V5.45836C2.99185 5.7597 2.87518 6.04303 2.66252 6.2557L2.19052 6.72838C2.18985 6.73038 2.18785 6.73105 2.18652 6.73238C1.48985 7.43772 1.49585 8.57905 2.19785 9.27438L2.66385 9.74172C2.87585 9.95438 2.99318 10.2371 2.99318 10.5384V11.2084C2.99318 12.2004 3.79985 13.0077 4.79185 13.0077H5.45785C5.75985 13.0084 6.04318 13.125 6.25518 13.3364L6.73048 13.8104C7.06915 14.147 7.51848 14.3324 7.99648 14.3324H8.00448C8.48515 14.3304 8.93582 14.141 9.27315 13.8017L9.74048 13.3351C9.95048 13.1257 10.2412 13.0057 10.5378 13.0057H11.2085C12.1985 13.0057 13.0058 12.1997 13.0078 11.2084V10.5397C13.0078 10.239 13.1245 9.95572 13.3358 9.74305L13.8098 9.26905C14.5098 8.56505 14.5058 7.42305 13.8025 6.72372Z" fill="#006AFF"/>
<path fill-rule="evenodd" clip-rule="evenodd" d="M10.3891 7.03842L7.67378 9.75509C7.57978 9.84909 7.45245 9.90176 7.31978 9.90176C7.18711 9.90176 7.05978 9.84909 6.96645 9.75509L5.64847 8.43509C5.45381 8.23909 5.45381 7.92242 5.64915 7.72709C5.84515 7.53242 6.16114 7.53309 6.35648 7.72776L7.32045 8.69376L9.68178 6.33107C9.87711 6.13574 10.1938 6.13574 10.3891 6.33107C10.5844 6.5264 10.5844 6.84309 10.3891 7.03842Z" fill="#262831"/>
</svg>
