<svg width="24" height="24" viewBox="0 0 24 24" fill="none" xmlns="http://www.w3.org/2000/svg">
<path d="M18.2627 15.8087C18.2627 15.031 18.5707 14.2837 19.1201 13.7315L19.8291 13.0216C20.3926 12.454 20.3897 11.5361 19.8213 10.9708L19.1182 10.2677C18.5694 9.71489 18.2617 8.96824 18.2617 8.18856V7.18953C18.2617 6.38904 17.612 5.73935 16.8115 5.73934H15.8086C15.0303 5.73928 14.2827 5.4315 13.7305 4.88191L13.0293 4.18074C13.0268 4.17833 13.0239 4.17537 13.0215 4.17293L12.9111 4.0743C12.3403 3.6116 11.5003 3.64744 10.9707 4.17977L10.9688 4.18074L10.2666 4.88387C9.71481 5.43043 8.96909 5.74031 8.18946 5.74031H7.18946C6.38852 5.7411 5.74024 6.39022 5.74024 7.19051C5.74024 7.2033 5.73893 7.21596 5.73829 7.22859V8.1866C5.73829 8.96666 5.42909 9.71488 4.87989 10.2667L4.19532 10.9503C4.1863 10.9603 4.17693 10.9686 4.16895 10.9766C3.6061 11.5453 3.6106 12.4623 4.17872 13.0255L4.88184 13.7296C5.43061 14.281 5.74023 15.0272 5.74024 15.8067V16.8126C5.74035 17.613 6.38908 18.2618 7.18946 18.2618H8.18946C8.86977 18.2629 9.52715 18.4977 10.0508 18.9249L10.2666 19.1202L10.9629 19.8165C10.9673 19.8206 10.9723 19.8249 10.9766 19.8292C11.5441 20.3918 12.4613 20.3877 13.0244 19.8194L13.7275 19.1173C14.2792 18.5682 15.0274 18.2589 15.8066 18.2589H16.8125C17.6116 18.2593 18.2606 17.6125 18.2627 16.8126V15.8087ZM3.0879 9.93953C3.07554 9.95295 3.05662 9.97329 3.03614 10.0011C3.05408 9.9767 3.07394 9.95377 3.09473 9.93172C3.0924 9.93419 3.09028 9.93694 3.0879 9.93953ZM3.21485 9.83016C3.21021 9.83332 3.20482 9.83688 3.19923 9.8409C3.19277 9.84554 3.18479 9.85144 3.17579 9.85848L3.22169 9.82527C3.21957 9.82668 3.21715 9.8286 3.21485 9.83016ZM19.7617 8.18856C19.7617 8.57121 19.9118 8.93729 20.1807 9.20906L20.8789 9.90731C22.0337 11.0558 22.0415 12.9233 20.8936 14.0792L20.1816 14.7911L20.1807 14.7901C19.9123 15.0606 19.7627 15.4276 19.7627 15.8087V16.8136C19.76 18.442 18.4389 19.7599 16.8115 19.7589H15.8066C15.4249 19.7589 15.0582 19.9101 14.7871 20.1798L14.7861 20.1788L14.0869 20.878C12.9455 22.0267 11.0927 22.039 9.93653 20.9093C9.92943 20.9027 9.9219 20.8966 9.91505 20.8897L9.20802 20.1827C8.97148 19.9473 8.66092 19.8018 8.33009 19.7686L8.18653 19.7618H7.18946C5.56058 19.7618 4.24035 18.4414 4.24024 16.8126V15.8067C4.24023 15.4251 4.08841 15.0585 3.81837 14.7872L3.12013 14.088C1.96659 12.9411 1.95981 11.0775 3.10352 9.92195L3.10645 9.91805C3.10727 9.91723 3.10856 9.9169 3.10938 9.91609L3.81739 9.20711C4.08657 8.93623 4.23829 8.56933 4.23829 8.1866V7.19051C4.23829 7.16428 4.23957 7.13792 4.2422 7.11238C4.28337 5.51931 5.58615 4.24162 7.18849 4.24031H8.18946C8.5709 4.24031 8.93808 4.08862 9.21095 3.81844L9.90724 3.12117C11.0489 1.97391 12.899 1.96245 14.0557 3.08797C14.0671 3.09811 14.079 3.10839 14.0899 3.11922L14.7881 3.81844C15.0585 4.08759 15.4259 4.23928 15.8086 4.23934H16.8115C18.4404 4.23935 19.7617 5.56061 19.7617 7.18953V8.18856Z" fill="#006AFF"/>
<path d="M14.5234 9.49698C14.8162 9.20404 15.291 9.20422 15.584 9.49698C15.8769 9.78975 15.8776 10.2646 15.585 10.5575L11.5117 14.6327C11.371 14.7735 11.1795 14.8525 10.9805 14.8525C10.7816 14.8523 10.5907 14.7725 10.4502 14.6317L8.47364 12.6523C8.18106 12.3592 8.18083 11.8844 8.47364 11.5917C8.76675 11.299 9.24151 11.2996 9.53419 11.5927L10.9805 13.0409L14.5234 9.49698Z" fill="#006AFF"/>
</svg>
