<svg width="48" height="48" viewBox="0 0 48 48" fill="none" xmlns="http://www.w3.org/2000/svg">
<path fill-rule="evenodd" clip-rule="evenodd" d="M24 7.3C14.8866 7.3 7.3 14.8866 7.3 24C7.3 33.1116 14.8867 40.7 24 40.7C33.1134 40.7 40.7 33.1116 40.7 24C40.7 14.8866 33.1134 7.3 24 7.3ZM4.5 24C4.5 13.2297 13.2297 4.5 24 4.5C34.7702 4.5 43.5 13.2297 43.5 24C43.5 34.7682 34.7704 43.5 24 43.5C13.2296 43.5 4.5 34.7682 4.5 24Z" fill="#45B380"/>
<path fill-rule="evenodd" clip-rule="evenodd" d="M31.9959 18.3222C32.5815 18.9079 32.5815 19.8577 31.9959 20.4434L22.7603 29.679C22.1747 30.2646 21.2251 30.2648 20.6393 29.6792L16.0196 25.0614C15.4336 24.4758 15.4334 23.526 16.0191 22.9402C16.6048 22.3542 17.5545 22.354 18.1404 22.9396L21.6995 26.4972L29.8745 18.3222C30.4603 17.7364 31.4101 17.7364 31.9959 18.3222Z" fill="#45B380"/>
</svg>
