<svg width="16" height="16" viewBox="0 0 16 16" fill="none" xmlns="http://www.w3.org/2000/svg">
<path fill-rule="evenodd" clip-rule="evenodd" d="M8 2.5C4.96219 2.5 2.5 4.96219 2.5 8C2.5 11.0372 4.96223 13.5 8 13.5C11.0378 13.5 13.5 11.0372 13.5 8C13.5 4.96219 11.0378 2.5 8 2.5ZM1.5 8C1.5 4.40991 4.40991 1.5 8 1.5C11.5901 1.5 14.5 4.40991 14.5 8C14.5 11.5894 11.5901 14.5 8 14.5C4.40987 14.5 1.5 11.5894 1.5 8Z" fill="#FF5A5F"/>
<path fill-rule="evenodd" clip-rule="evenodd" d="M6.09311 6.0898C6.28837 5.89454 6.60498 5.89454 6.80018 6.0898L8.00191 7.29153L9.20271 6.09075C9.39798 5.89549 9.71451 5.89549 9.90978 6.09075C10.105 6.28602 10.105 6.6026 9.90978 6.79786L8.70905 7.9986L9.91371 9.20333C10.109 9.3986 10.109 9.71513 9.91371 9.9104C9.71845 10.1057 9.40185 10.1057 9.20665 9.9104L8.00191 8.70573L6.80145 9.9062C6.60625 10.1015 6.28963 10.1015 6.09437 9.9062C5.89911 9.71093 5.89911 9.39433 6.09437 9.19906L7.29485 7.9986L6.09311 6.79693C5.89784 6.60165 5.89784 6.28506 6.09311 6.0898Z" fill="#FF5A5F"/>
</svg>
