<svg width="32" height="32" viewBox="0 0 32 32" fill="none" xmlns="http://www.w3.org/2000/svg">
<path fill-rule="evenodd" clip-rule="evenodd" d="M16 3.33325C9.01598 3.33325 3.33331 9.01459 3.33331 15.9999C3.33331 22.9839 9.01598 28.6666 16 28.6666C22.984 28.6666 28.6666 22.9839 28.6666 15.9999C28.6666 9.01459 22.984 3.33325 16 3.33325Z" fill="#FF5A5F"/>
<path fill-rule="evenodd" clip-rule="evenodd" d="M19.8214 19.8185C19.6267 20.0132 19.3707 20.1118 19.1147 20.1118C18.8574 20.1118 18.6027 20.0132 18.4067 19.8185L15.9987 17.4092L13.5974 19.8105C13.2067 20.2012 12.5734 20.2012 12.1827 19.8105C11.7934 19.4198 11.7934 18.7878 12.1827 18.3972L14.584 15.9958L12.1814 13.5918C11.7907 13.2012 11.7907 12.5692 12.1814 12.1785C12.572 11.7878 13.204 11.7878 13.5947 12.1785L15.9974 14.5812L18.4 12.1798C18.7907 11.7892 19.4227 11.7892 19.8134 12.1798C20.204 12.5692 20.204 13.2025 19.8134 13.5932L17.412 15.9958L19.8214 18.4038C20.212 18.7945 20.212 19.4278 19.8214 19.8185Z" fill="#262831"/>
</svg>
