<svg width="32" height="32" viewBox="0 0 32 32" fill="none" xmlns="http://www.w3.org/2000/svg">
<path d="M24.3503 21.0782C24.3503 20.0414 24.7609 19.0449 25.4935 18.3087L26.4388 17.3621C27.1901 16.6053 27.1862 15.3814 26.4284 14.6277L25.4909 13.6902C24.7591 12.9532 24.3489 11.9576 24.3489 10.9181V9.58604C24.3489 8.51873 23.4827 7.65247 22.4154 7.65245H21.0781C20.0404 7.65238 19.0436 7.24201 18.3073 6.50922L17.3724 5.57432C17.3691 5.57111 17.3652 5.56716 17.362 5.56391L17.2148 5.4324C16.4536 4.81547 15.3337 4.86325 14.6276 5.57302L14.625 5.57432L13.6888 6.51182C12.9531 7.24057 11.9588 7.65375 10.9193 7.65375H9.58593C8.518 7.6548 7.65364 8.52029 7.65364 9.58734C7.65363 9.6044 7.65189 9.62128 7.65103 9.63813V10.9155C7.65103 11.9555 7.23877 12.9532 6.5065 13.6889L5.59374 14.6004C5.58171 14.6138 5.56922 14.6248 5.55858 14.6355C4.80811 15.3937 4.81412 16.6164 5.57161 17.3673L6.50911 18.3061C7.2408 19.0413 7.65362 20.0362 7.65364 21.0756V22.4168C7.65378 23.484 8.51875 24.3491 9.58593 24.3491H10.9193C11.8263 24.3506 12.7028 24.6636 13.401 25.2332L13.6888 25.4936L14.6172 26.422C14.6231 26.4275 14.6297 26.4332 14.6354 26.4389C15.3921 27.1891 16.615 27.1836 17.3659 26.4259L18.3034 25.4897C19.0389 24.7576 20.0365 24.3452 21.0755 24.3452H22.4167C23.4821 24.3458 24.3475 23.4834 24.3503 22.4168V21.0782ZM4.11718 13.2527C4.10069 13.2706 4.07548 13.2977 4.04817 13.3347C4.07209 13.3023 4.09857 13.2717 4.12629 13.2423C4.12318 13.2456 4.12036 13.2493 4.11718 13.2527ZM4.28645 13.1069C4.28026 13.1111 4.27307 13.1158 4.26562 13.1212C4.25701 13.1274 4.24637 13.1353 4.23437 13.1446L4.29556 13.1004C4.29275 13.1022 4.28951 13.1048 4.28645 13.1069ZM26.3489 10.9181C26.3489 11.4283 26.549 11.9164 26.9075 12.2788L27.8385 13.2097C29.3782 14.741 29.3886 17.2311 27.8581 18.7722L26.9088 19.7215L26.9075 19.7202C26.5497 20.0808 26.3503 20.5702 26.3503 21.0782V22.4181C26.3467 24.5893 24.5852 26.3465 22.4154 26.3452H21.0755C20.5666 26.3452 20.0775 26.5468 19.7161 26.9064L19.7148 26.9051L18.7825 27.8373C17.2607 29.369 14.7902 29.3853 13.2487 27.879C13.2392 27.8703 13.2292 27.8621 13.22 27.853L12.2773 26.9103C11.962 26.5964 11.5479 26.4024 11.1068 26.3582L10.9154 26.3491H9.58593C7.41409 26.3491 5.65378 24.5885 5.65364 22.4168V21.0756C5.65362 20.5669 5.4512 20.078 5.09114 19.7163L4.16015 18.784C2.6221 17.2547 2.61306 14.77 4.13801 13.2293L4.14192 13.2241C4.14301 13.223 4.14473 13.2225 4.14582 13.2215L5.08983 12.2761C5.44874 11.915 5.65103 11.4258 5.65103 10.9155V9.58734C5.65103 9.55238 5.65274 9.51722 5.65624 9.48318C5.71114 7.35908 7.44818 5.6555 9.58463 5.65375H10.9193C11.4278 5.65375 11.9174 5.45149 12.2812 5.09125L13.2096 4.16156C14.7318 2.63188 17.1986 2.6166 18.7409 4.11729C18.7562 4.13081 18.772 4.14453 18.7864 4.15896L19.7174 5.09125C20.078 5.45012 20.5678 5.65238 21.0781 5.65245H22.4154C24.5872 5.65247 26.3489 7.41415 26.3489 9.58604V10.9181Z" fill="#006AFF"/>
<path d="M19.3646 12.6627C19.755 12.2721 20.388 12.2724 20.7787 12.6627C21.1692 13.0531 21.1702 13.6861 20.78 14.0768L15.349 19.5104C15.1614 19.698 14.906 19.8034 14.6406 19.8033C14.3755 19.8031 14.121 19.6967 13.9336 19.5091L11.2982 16.8698C10.9081 16.4791 10.9078 15.846 11.2982 15.4557C11.689 15.0655 12.322 15.0662 12.7122 15.457L14.6406 17.388L19.3646 12.6627Z" fill="#006AFF"/>
</svg>
