<svg width="48" height="48" viewBox="0 0 48 48" fill="none" xmlns="http://www.w3.org/2000/svg">
<path fill-rule="evenodd" clip-rule="evenodd" d="M41.4074 20.1714L40.0094 18.7733C39.3714 18.1333 39.0214 17.2813 39.0214 16.3793V14.3793C39.0214 11.4013 36.5974 8.97934 33.6214 8.97934H31.6174C30.7114 8.97934 29.8614 8.62934 29.2254 7.99334L27.8034 6.57334C25.6894 4.47734 22.2654 4.48734 20.1674 6.59534L18.7735 7.99334C18.1315 8.63134 17.2815 8.98134 16.3775 8.98134H14.3755C11.4335 8.98334 9.03349 11.3513 8.97949 14.2833C8.97747 14.3153 8.97549 14.3473 8.97549 14.3813V16.3753C8.97549 17.2793 8.62549 18.1293 7.98749 18.7673L6.57149 20.1854C6.56949 20.1914 6.56349 20.1934 6.55949 20.1974C4.46949 22.3134 4.48749 25.7374 6.59349 27.8234L7.99149 29.2254C8.62749 29.8634 8.97949 30.7114 8.97949 31.6154V33.6254C8.97949 36.6014 11.3995 39.0234 14.3755 39.0234H16.3735C17.2795 39.0254 18.1295 39.3754 18.7655 40.0094L20.1914 41.4314C21.2074 42.4414 22.5554 42.9974 23.9894 42.9974H24.0134C25.4554 42.9914 26.8074 42.4234 27.8194 41.4054L29.2214 40.0054C29.8514 39.3774 30.7234 39.0174 31.6134 39.0174H33.6254C36.5954 39.0174 39.0174 36.5994 39.0234 33.6254V31.6194C39.0234 30.7174 39.3734 29.8674 40.0074 29.2294L41.4294 27.8074C43.5294 25.6954 43.5174 22.2694 41.4074 20.1714Z" fill="#006AFF"/>
<path fill-rule="evenodd" clip-rule="evenodd" d="M31.1674 21.1155L23.0214 29.2655C22.7394 29.5475 22.3574 29.7055 21.9594 29.7055C21.5614 29.7055 21.1794 29.5475 20.8994 29.2655L16.9455 25.3055C16.3615 24.7175 16.3615 23.7675 16.9475 23.1815C17.5355 22.5975 18.4835 22.5995 19.0695 23.1835L21.9614 26.0815L29.0454 18.9935C29.6314 18.4075 30.5814 18.4075 31.1674 18.9935C31.7534 19.5795 31.7534 20.5295 31.1674 21.1155Z" fill="#262831"/>
</svg>
