<svg width="64" height="64" viewBox="0 0 64 64" fill="none" xmlns="http://www.w3.org/2000/svg">
<path fill-rule="evenodd" clip-rule="evenodd" d="M32 9C19.8488 9 9 19.8488 9 32C9 44.1488 19.8489 55 32 55C44.1512 55 55 44.1488 55 32C55 19.8488 44.1512 9 32 9ZM6 32C6 17.6397 17.6397 6 32 6C46.3603 6 58 17.6397 58 32C58 46.3576 46.3605 58 32 58C17.6395 58 6 46.3576 6 32Z" fill="#45B380"/>
<path fill-rule="evenodd" clip-rule="evenodd" d="M42.6612 24.4296C43.442 25.2106 43.442 26.4769 42.6612 27.2579L30.3471 39.572C29.5663 40.3528 28.3001 40.3531 27.5191 39.5723L21.3594 33.4152C20.5782 32.6344 20.5779 31.368 21.3588 30.5869C22.1397 29.8056 23.4061 29.8053 24.1873 30.5861L28.9327 35.3296L39.8327 24.4296C40.6137 23.6485 41.8801 23.6485 42.6612 24.4296Z" fill="#45B380"/>
</svg>
