<svg width="64" height="64" viewBox="0 0 64 64" fill="none" xmlns="http://www.w3.org/2000/svg">
<path fill-rule="evenodd" clip-rule="evenodd" d="M32 6.66675C18.032 6.66675 6.66669 18.0321 6.66669 32.0001C6.66669 45.9707 18.032 57.3334 32 57.3334C45.968 57.3334 57.3334 45.9707 57.3334 32.0001C57.3334 18.0321 45.968 6.66675 32 6.66675Z" fill="#45B380"/>
<path fill-rule="evenodd" clip-rule="evenodd" d="M42.648 27.2586L30.3333 39.5733C29.9413 39.9653 29.432 40.1599 28.92 40.1599C28.4053 40.1599 27.896 39.9653 27.504 39.5733L21.3467 33.4159C20.5653 32.6346 20.5653 31.3679 21.3467 30.5866C22.128 29.8053 23.392 29.8053 24.1733 30.5866L28.92 35.3306L39.8187 24.4293C40.6 23.6479 41.8667 23.6479 42.648 24.4293C43.4293 25.2106 43.4293 26.4773 42.648 27.2586Z" fill="#262831"/>
</svg>
