<svg width="40" height="40" viewBox="0 0 40 40" fill="none" xmlns="http://www.w3.org/2000/svg">
<path fill-rule="evenodd" clip-rule="evenodd" d="M34.5062 16.8094L33.3412 15.6444C32.8095 15.111 32.5178 14.401 32.5178 13.6494V11.9827C32.5178 9.50103 30.4978 7.4827 28.0178 7.4827H26.3478C25.5928 7.4827 24.8845 7.19103 24.3545 6.66103L23.1695 5.4777C21.4078 3.73103 18.5545 3.73936 16.8062 5.49603L15.6446 6.66103C15.1096 7.1927 14.4013 7.48437 13.6479 7.48437H11.9796C9.52793 7.48603 7.52793 9.45936 7.48293 11.9027C7.48125 11.9294 7.4796 11.956 7.4796 11.9844V13.646C7.4796 14.3994 7.18793 15.1077 6.65626 15.6394L5.47626 16.8211C5.4746 16.8261 5.4696 16.8277 5.46626 16.8311C3.7246 18.5944 3.7396 21.4477 5.4946 23.1861L6.6596 24.3544C7.1896 24.8861 7.48293 25.5927 7.48293 26.3461V28.0211C7.48293 30.5011 9.49959 32.5194 11.9796 32.5194H13.6446C14.3996 32.5211 15.1079 32.8127 15.6379 33.3411L16.8262 34.5261C17.6728 35.3677 18.7962 35.8311 19.9912 35.8311H20.0112C21.2128 35.8261 22.3395 35.3527 23.1828 34.5044L24.3512 33.3377C24.8762 32.8144 25.6028 32.5144 26.3445 32.5144H28.0212C30.4962 32.5144 32.5145 30.4994 32.5195 28.0211V26.3494C32.5195 25.5977 32.8112 24.8894 33.3395 24.3577L34.5245 23.1727C36.2745 21.4127 36.2645 18.5577 34.5062 16.8094Z" fill="#006AFF"/>
<path fill-rule="evenodd" clip-rule="evenodd" d="M25.9728 17.5961L19.1845 24.3877C18.9495 24.6227 18.6312 24.7544 18.2995 24.7544C17.9678 24.7544 17.6495 24.6227 17.4162 24.3877L14.1212 21.0877C13.6346 20.5977 13.6346 19.8061 14.1229 19.3177C14.6129 18.8311 15.4029 18.8327 15.8913 19.3194L18.3012 21.7344L24.2045 15.8277C24.6928 15.3393 25.4845 15.3393 25.9728 15.8277C26.4612 16.316 26.4612 17.1077 25.9728 17.5961Z" fill="#262831"/>
</svg>
