<svg width="344" height="284" viewBox="0 0 344 284" fill="none" xmlns="http://www.w3.org/2000/svg">
<g opacity="0.7">
<rect x="27.4414" y="16.6484" width="291.077" height="234.055" rx="24" fill="white"/>
<rect x="27.9414" y="17.1484" width="290.077" height="233.055" rx="23.5" stroke="black" stroke-opacity="0.1"/>
</g>
<path d="M120.515 38.811C115.12 38.811 110.746 43.1812 110.746 48.572C110.746 53.9628 115.12 58.3329 120.515 58.3329H225.445C230.84 58.3329 235.214 53.9628 235.214 48.572C235.214 43.1812 230.84 38.811 225.445 38.811H120.515Z" fill="#AAAAAA"/>
<path d="M59.9944 73.2064C54.5995 73.2064 50.226 77.5766 50.226 82.9674C50.226 88.3582 54.5995 92.7283 59.9944 92.7283H269.791C275.186 92.7283 279.559 88.3582 279.559 82.9674C279.559 77.5766 275.186 73.2064 269.791 73.2064H59.9944Z" fill="#AAAAAA"/>
<path d="M49.9829 113.599C49.9829 110.354 52.6156 107.723 55.8633 107.723H229.333C232.581 107.723 235.214 110.354 235.214 113.599C235.214 116.844 232.581 119.475 229.333 119.475H55.8633C52.6156 119.475 49.9829 116.844 49.9829 113.599Z" fill="#AAAAAA"/>
<path d="M55.8633 134.165C52.6156 134.165 49.9829 136.795 49.9829 140.041C49.9829 143.286 52.6156 145.916 55.8632 145.916H253.835C257.082 145.916 259.715 143.286 259.715 140.041C259.715 136.795 257.082 134.165 253.835 134.165H55.8633Z" fill="#AAAAAA"/>
<path d="M49.9829 167.461C49.9829 164.216 52.6156 161.585 55.8633 161.585H199.932C203.179 161.585 205.812 164.216 205.812 167.461C205.812 170.706 203.179 173.337 199.932 173.337H55.8632C52.6156 173.337 49.9829 170.706 49.9829 167.461Z" fill="#AAAAAA"/>
<path d="M83.5056 202.716C80.3585 202.716 77.8073 205.266 77.8073 208.41C77.8073 211.555 80.3585 214.104 83.5056 214.104H123.286C126.433 214.104 128.984 211.555 128.984 208.41C128.984 205.266 126.433 202.716 123.286 202.716H83.5056Z" fill="#AAAAAA"/>
<path d="M235.704 77.3652C269.9 77.3654 300.144 94.2749 318.519 120.182V237.266C315.11 242.071 311.293 246.567 307.118 250.703H164.289C145.751 232.337 134.268 206.871 134.268 178.725C134.268 122.746 179.683 77.3652 235.704 77.3652Z" fill="white"/>
<path d="M163.67 107.724H229.338C232.583 107.724 235.214 110.355 235.214 113.6C235.214 116.845 232.583 119.476 229.338 119.476H151.419L163.67 107.724Z" fill="#E6E6E6"/>
<path d="M144.069 134.166H253.839C257.085 134.166 259.715 136.796 259.715 140.041C259.715 143.287 257.085 145.917 253.839 145.917H137.698L144.069 134.166Z" fill="#E6E6E6"/>
<path d="M135.248 161.586H199.936C203.181 161.586 205.812 164.217 205.812 167.462C205.812 170.707 203.181 173.338 199.936 173.338H133.778L135.248 161.586Z" fill="#E6E6E6"/>
<path fill-rule="evenodd" clip-rule="evenodd" d="M235.059 277.2C289.843 277.2 334.255 232.823 334.255 178.08C334.255 123.337 289.843 78.959 235.059 78.959C180.274 78.959 135.862 123.337 135.862 178.08C135.862 232.823 180.274 277.2 235.059 277.2ZM235.059 281.732C292.348 281.732 338.79 235.325 338.79 178.08C338.79 120.834 292.348 74.4277 235.059 74.4277C177.77 74.4277 131.328 120.834 131.328 178.08C131.328 235.325 177.77 281.732 235.059 281.732Z" fill="#CCCCCC"/>
<path d="M282.363 209.469V205.394C282.363 205.101 282.315 204.85 282.219 204.642C282.123 204.428 281.974 204.261 281.771 204.143C281.573 204.025 281.317 203.965 281.001 203.965C280.73 203.965 280.496 204.013 280.298 204.109C280.101 204.199 279.949 204.332 279.842 204.506C279.734 204.676 279.681 204.876 279.681 205.107H277.244C277.244 204.718 277.334 204.349 277.515 203.999C277.695 203.65 277.958 203.343 278.302 203.078C278.646 202.807 279.055 202.596 279.528 202.444C280.008 202.291 280.544 202.215 281.136 202.215C281.847 202.215 282.478 202.334 283.031 202.57C283.584 202.807 284.018 203.162 284.334 203.636C284.656 204.109 284.816 204.701 284.816 205.411V209.325C284.816 209.827 284.847 210.238 284.909 210.56C284.972 210.875 285.062 211.151 285.18 211.388V211.532H282.718C282.6 211.284 282.509 210.974 282.447 210.602C282.391 210.224 282.363 209.847 282.363 209.469ZM282.684 205.961L282.701 207.339H281.339C281.018 207.339 280.738 207.375 280.501 207.448C280.265 207.522 280.07 207.626 279.918 207.761C279.765 207.891 279.653 208.043 279.579 208.218C279.512 208.393 279.478 208.584 279.478 208.793C279.478 209.001 279.526 209.19 279.622 209.359C279.717 209.523 279.856 209.652 280.036 209.748C280.217 209.838 280.428 209.883 280.671 209.883C281.037 209.883 281.356 209.81 281.627 209.663C281.897 209.517 282.106 209.337 282.253 209.122C282.405 208.908 282.484 208.705 282.49 208.514L283.133 209.545C283.042 209.776 282.918 210.016 282.76 210.264C282.608 210.512 282.414 210.746 282.177 210.965C281.94 211.18 281.655 211.357 281.322 211.498C280.989 211.633 280.595 211.701 280.138 211.701C279.557 211.701 279.029 211.585 278.556 211.354C278.087 211.118 277.715 210.794 277.439 210.382C277.168 209.965 277.033 209.492 277.033 208.962C277.033 208.483 277.123 208.057 277.303 207.685C277.484 207.313 277.749 207 278.099 206.747C278.454 206.488 278.897 206.293 279.427 206.163C279.957 206.028 280.572 205.961 281.271 205.961H282.684Z" fill="#006AFF"/>
<path d="M274.216 204.38V211.532H271.779V202.384H274.072L274.216 204.38ZM276.974 202.325L276.932 204.583C276.813 204.566 276.669 204.552 276.5 204.54C276.337 204.523 276.187 204.515 276.052 204.515C275.708 204.515 275.409 204.56 275.155 204.65C274.907 204.735 274.698 204.861 274.529 205.031C274.365 205.2 274.241 205.405 274.157 205.648C274.078 205.89 274.033 206.166 274.021 206.476L273.531 206.324C273.531 205.732 273.59 205.188 273.708 204.692C273.827 204.191 273.999 203.754 274.224 203.382C274.456 203.01 274.738 202.723 275.07 202.52C275.403 202.317 275.784 202.215 276.213 202.215C276.348 202.215 276.486 202.227 276.627 202.249C276.768 202.266 276.884 202.291 276.974 202.325Z" fill="#006AFF"/>
<path d="M267.051 211.701C266.34 211.701 265.703 211.588 265.139 211.363C264.575 211.132 264.095 210.813 263.7 210.407C263.311 210.002 263.012 209.531 262.804 208.996C262.595 208.455 262.491 207.88 262.491 207.271V206.933C262.491 206.24 262.589 205.605 262.787 205.031C262.984 204.456 263.266 203.957 263.633 203.534C264.005 203.111 264.456 202.787 264.986 202.562C265.517 202.331 266.115 202.215 266.78 202.215C267.429 202.215 268.004 202.322 268.506 202.537C269.008 202.751 269.428 203.055 269.767 203.45C270.111 203.844 270.37 204.318 270.545 204.87C270.72 205.417 270.807 206.025 270.807 206.696V207.711H263.531V206.087H268.413V205.901C268.413 205.563 268.351 205.262 268.227 204.997C268.108 204.726 267.928 204.512 267.685 204.354C267.443 204.196 267.133 204.118 266.755 204.118C266.433 204.118 266.157 204.188 265.926 204.329C265.694 204.47 265.505 204.667 265.359 204.921C265.218 205.174 265.111 205.473 265.037 205.817C264.97 206.155 264.936 206.527 264.936 206.933V207.271C264.936 207.637 264.986 207.975 265.088 208.285C265.195 208.595 265.345 208.863 265.536 209.089C265.734 209.314 265.971 209.489 266.247 209.613C266.529 209.737 266.848 209.799 267.203 209.799C267.643 209.799 268.052 209.714 268.43 209.545C268.814 209.37 269.143 209.108 269.42 208.759L270.604 210.044C270.413 210.32 270.15 210.585 269.818 210.839C269.49 211.092 269.096 211.301 268.633 211.464C268.171 211.622 267.643 211.701 267.051 211.701Z" fill="#006AFF"/>
<path d="M250.681 204.278V211.532H248.236V202.384H250.529L250.681 204.278ZM250.343 206.637H249.666C249.666 206 249.742 205.414 249.894 204.878C250.052 204.337 250.28 203.87 250.579 203.475C250.884 203.075 251.259 202.765 251.705 202.545C252.15 202.325 252.666 202.215 253.253 202.215C253.659 202.215 254.031 202.277 254.37 202.401C254.708 202.52 254.999 202.708 255.241 202.968C255.489 203.221 255.681 203.554 255.817 203.965C255.952 204.371 256.02 204.859 256.02 205.428V211.532H253.583V205.698C253.583 205.281 253.527 204.96 253.414 204.735C253.301 204.509 253.14 204.351 252.931 204.261C252.728 204.171 252.483 204.126 252.195 204.126C251.88 204.126 251.603 204.191 251.366 204.32C251.135 204.45 250.943 204.63 250.791 204.861C250.639 205.087 250.526 205.352 250.453 205.656C250.379 205.961 250.343 206.287 250.343 206.637ZM255.791 206.358L254.92 206.468C254.92 205.87 254.993 205.315 255.14 204.802C255.292 204.289 255.515 203.839 255.808 203.45C256.107 203.061 256.477 202.759 256.916 202.545C257.356 202.325 257.864 202.215 258.439 202.215C258.879 202.215 259.28 202.28 259.641 202.41C260.002 202.534 260.309 202.734 260.563 203.01C260.822 203.281 261.02 203.636 261.155 204.075C261.296 204.515 261.367 205.053 261.367 205.69V211.532H258.922V205.69C258.922 205.267 258.865 204.946 258.752 204.726C258.645 204.501 258.487 204.346 258.279 204.261C258.076 204.171 257.833 204.126 257.551 204.126C257.258 204.126 257.001 204.185 256.781 204.304C256.561 204.416 256.378 204.574 256.231 204.777C256.084 204.98 255.975 205.217 255.901 205.487C255.828 205.752 255.791 206.042 255.791 206.358Z" fill="#006AFF"/>
<path d="M244.328 209.469V205.394C244.328 205.101 244.28 204.85 244.184 204.642C244.089 204.428 243.939 204.261 243.736 204.143C243.539 204.025 243.282 203.965 242.966 203.965C242.695 203.965 242.461 204.013 242.264 204.109C242.066 204.199 241.914 204.332 241.807 204.506C241.7 204.676 241.646 204.876 241.646 205.107H239.21C239.21 204.718 239.3 204.349 239.48 203.999C239.661 203.65 239.923 203.343 240.267 203.078C240.611 202.807 241.02 202.596 241.494 202.444C241.973 202.291 242.509 202.215 243.101 202.215C243.812 202.215 244.444 202.334 244.997 202.57C245.549 202.807 245.984 203.162 246.3 203.636C246.621 204.109 246.782 204.701 246.782 205.411V209.325C246.782 209.827 246.813 210.238 246.875 210.56C246.937 210.875 247.027 211.151 247.146 211.388V211.532H244.684C244.565 211.284 244.475 210.974 244.413 210.602C244.356 210.224 244.328 209.847 244.328 209.469ZM244.65 205.961L244.667 207.339H243.305C242.983 207.339 242.704 207.375 242.467 207.448C242.23 207.522 242.035 207.626 241.883 207.761C241.731 207.891 241.618 208.043 241.545 208.218C241.477 208.393 241.443 208.584 241.443 208.793C241.443 209.001 241.491 209.19 241.587 209.359C241.683 209.523 241.821 209.652 242.002 209.748C242.182 209.838 242.394 209.883 242.636 209.883C243.003 209.883 243.321 209.81 243.592 209.663C243.863 209.517 244.072 209.337 244.218 209.122C244.371 208.908 244.45 208.705 244.455 208.514L245.098 209.545C245.008 209.776 244.884 210.016 244.726 210.264C244.574 210.512 244.379 210.746 244.142 210.965C243.905 211.18 243.62 211.357 243.288 211.498C242.955 211.633 242.56 211.701 242.103 211.701C241.522 211.701 240.995 211.585 240.521 211.354C240.053 211.118 239.681 210.794 239.404 210.382C239.133 209.965 238.998 209.492 238.998 208.962C238.998 208.483 239.088 208.057 239.269 207.685C239.449 207.313 239.714 207 240.064 206.747C240.419 206.488 240.862 206.293 241.392 206.163C241.923 206.028 242.537 205.961 243.237 205.961H244.65Z" fill="#006AFF"/>
<path d="M234.55 209.799C234.848 209.799 235.114 209.742 235.345 209.63C235.576 209.511 235.757 209.348 235.886 209.139C236.022 208.925 236.092 208.674 236.098 208.387H238.391C238.385 209.029 238.213 209.601 237.875 210.103C237.536 210.599 237.082 210.991 236.512 211.278C235.943 211.56 235.305 211.701 234.6 211.701C233.89 211.701 233.269 211.583 232.739 211.346C232.214 211.109 231.777 210.782 231.428 210.365C231.078 209.942 230.816 209.452 230.641 208.894C230.466 208.331 230.378 207.727 230.378 207.085V206.84C230.378 206.192 230.466 205.589 230.641 205.031C230.816 204.467 231.078 203.977 231.428 203.56C231.777 203.137 232.214 202.807 232.739 202.57C233.263 202.334 233.878 202.215 234.583 202.215C235.334 202.215 235.991 202.359 236.555 202.646C237.124 202.934 237.57 203.345 237.891 203.881C238.219 204.411 238.385 205.039 238.391 205.766H236.098C236.092 205.462 236.027 205.186 235.903 204.938C235.785 204.69 235.61 204.492 235.379 204.346C235.153 204.194 234.874 204.118 234.541 204.118C234.186 204.118 233.895 204.194 233.67 204.346C233.444 204.492 233.269 204.695 233.145 204.954C233.021 205.208 232.934 205.498 232.883 205.825C232.838 206.147 232.815 206.485 232.815 206.84V207.085C232.815 207.44 232.838 207.781 232.883 208.108C232.928 208.435 233.012 208.725 233.137 208.979C233.266 209.232 233.444 209.432 233.67 209.579C233.895 209.725 234.189 209.799 234.55 209.799Z" fill="#006AFF"/>
<path d="M217.174 209.164L219.077 202.384H220.626L220.127 205.047L218.223 211.531H216.928L217.174 209.164ZM216.209 202.384L217.571 209.156L217.698 211.531H216.175L213.857 202.384H216.209ZM222.369 209.046L223.697 202.384H226.057L223.739 211.531H222.225L222.369 209.046ZM220.837 202.384L222.732 209.113L222.995 211.531H221.692L219.788 205.055L219.306 202.384H220.837Z" fill="#006AFF"/>
<path d="M204.805 207.051V206.874C204.805 206.203 204.901 205.586 205.093 205.022C205.284 204.453 205.564 203.96 205.93 203.543C206.297 203.126 206.748 202.801 207.284 202.57C207.82 202.334 208.435 202.215 209.128 202.215C209.822 202.215 210.44 202.334 210.981 202.57C211.523 202.801 211.977 203.126 212.343 203.543C212.716 203.96 212.998 204.453 213.19 205.022C213.381 205.586 213.477 206.203 213.477 206.874V207.051C213.477 207.716 213.381 208.333 213.19 208.903C212.998 209.466 212.716 209.959 212.343 210.382C211.977 210.799 211.526 211.123 210.99 211.354C210.454 211.585 209.839 211.701 209.145 211.701C208.452 211.701 207.834 211.585 207.292 211.354C206.757 211.123 206.303 210.799 205.93 210.382C205.564 209.959 205.284 209.466 205.093 208.903C204.901 208.333 204.805 207.716 204.805 207.051ZM207.242 206.874V207.051C207.242 207.434 207.276 207.792 207.343 208.125C207.411 208.457 207.518 208.75 207.665 209.004C207.817 209.252 208.014 209.446 208.257 209.587C208.5 209.728 208.796 209.799 209.145 209.799C209.484 209.799 209.774 209.728 210.017 209.587C210.259 209.446 210.454 209.252 210.601 209.004C210.747 208.75 210.854 208.457 210.922 208.125C210.995 207.792 211.032 207.434 211.032 207.051V206.874C211.032 206.502 210.995 206.152 210.922 205.825C210.854 205.493 210.744 205.2 210.592 204.946C210.445 204.687 210.251 204.484 210.008 204.337C209.766 204.191 209.473 204.118 209.128 204.118C208.784 204.118 208.491 204.191 208.249 204.337C208.012 204.484 207.817 204.687 207.665 204.946C207.518 205.2 207.411 205.493 207.343 205.825C207.276 206.152 207.242 206.502 207.242 206.874Z" fill="#006AFF"/>
<path d="M203.597 198.546V211.532H201.152V198.546H203.597Z" fill="#006AFF"/>
<path d="M199.427 198.546V211.532H196.982V198.546H199.427Z" fill="#006AFF"/>
<path d="M190.79 201.327L187.44 211.531H184.741L189.318 199.222H191.035L190.79 201.327ZM193.574 211.531L190.215 201.327L189.944 199.222H191.678L196.281 211.531H193.574ZM193.421 206.949V208.936H186.915V206.949H193.421Z" fill="#006AFF"/>
</svg>
