<svg width="256" height="168" viewBox="0 0 256 168" fill="none" xmlns="http://www.w3.org/2000/svg">
<g clip-path="url(#clip0_7032_635)">
<path fill-rule="evenodd" clip-rule="evenodd" d="M74.231 108.222C74.645 108.939 74.399 109.857 73.682 110.271C72.9649 110.685 72.0469 110.439 71.6329 109.722C71.2189 109.005 71.4359 108.037 72.153 107.623C72.87 107.209 73.758 107.403 74.172 108.12L74.231 108.222ZM71.0313 126.376C67.3611 128.495 62.6511 127.233 60.5321 123.563C58.4131 119.893 59.6751 115.183 63.3453 113.064C67.0155 110.945 71.7256 112.207 73.8446 115.877C75.9636 119.547 74.7015 124.257 71.0313 126.376ZM70.9539 102.41C70.3112 102.749 69.5737 102.823 68.8988 102.627C68.7736 102.586 68.2443 102.381 66.7475 101.448C65.0293 100.38 62.8749 100.345 61.1255 101.355L54.3498 105.267C52.6281 106.261 51.5808 108.115 51.6194 110.102C51.6535 111.909 51.573 112.493 51.5421 112.636C51.3694 113.341 50.937 113.944 50.3561 114.314C46.9579 116.276 45.7878 120.637 47.7446 124.038L53.3866 133.811C55.9266 138.21 61.5737 139.723 65.9714 137.184L82.9247 127.396C87.3241 124.856 88.8355 119.21 86.2955 114.811L80.6515 105.035C78.6875 101.633 74.3227 100.465 70.9539 102.41Z" fill="#3A3E4B"/>
<path fill-rule="evenodd" clip-rule="evenodd" d="M64.8457 115.661C62.6079 116.953 61.8386 119.825 63.1306 122.063C64.4226 124.3 67.2939 125.07 69.5317 123.778C71.7696 122.486 72.5389 119.614 71.2469 117.377C69.9549 115.139 67.0836 114.369 64.8457 115.661Z" fill="#3A3E4B"/>
</g>
<path d="M82.5299 47.2116C82.8233 47.381 82.9196 47.7617 82.7201 48.0357C80.2522 51.4231 75.5741 52.4986 71.8549 50.3645C67.8779 48.0568 66.5189 42.9467 68.8256 38.9714L73.0476 31.6587C75.3406 27.6871 80.4386 26.3211 84.4102 28.6141C88.1147 30.7529 89.5307 35.3259 87.8433 39.155C87.7064 39.4656 87.3279 39.5732 87.0338 39.4034L83.6262 37.436C82.9091 37.022 81.9911 37.268 81.5771 37.985C81.1631 38.7021 81.4091 39.6201 82.1262 40.0341L85.5781 42.0271C85.8651 42.1928 85.9634 42.5597 85.7978 42.8467L84.8908 44.4177C84.7251 44.7046 84.3581 44.803 84.0711 44.6373L79.0603 41.7443C78.3433 41.3303 77.4253 41.5762 77.0113 42.2933C76.5973 43.0104 76.8433 43.9284 77.5603 44.3424L82.5299 47.2116Z" fill="#3A3E4B"/>
<path d="M89.228 49.0883C89.8654 49.5002 90.1957 50.4161 89.7825 51.1359C87.6611 54.8301 84.2299 57.4772 80.1166 58.5896C76.4897 59.5717 72.7197 59.2495 69.3446 57.7073L67.2086 61.407C66.7946 62.1241 65.8766 62.37 65.1595 61.956C64.4425 61.542 64.1965 60.6241 64.6105 59.907L66.7465 56.2073C63.7217 54.0545 61.5604 50.9499 60.5964 47.3196C59.5021 43.2029 60.0799 38.9061 62.2186 35.2219C62.6343 34.5058 63.5503 34.2633 64.2656 34.6763L64.2691 34.6783C64.9852 35.094 65.2284 36.0127 64.8127 36.7288C63.0767 39.7195 62.6085 43.2066 63.4956 46.5501C64.3827 49.8935 66.5186 52.6902 69.511 54.4271C72.5045 56.1462 75.9944 56.5976 79.3335 55.6941C82.6726 54.7906 85.4583 52.6415 87.1804 49.6428C87.5927 48.9247 88.5099 48.676 89.228 49.0883Z" fill="#3A3E4B"/>
<path fill-rule="evenodd" clip-rule="evenodd" d="M165.471 33.3555C165.48 32.9064 165.042 32.5549 164.648 32.7709C162.882 33.7388 161.668 35.621 161.668 37.7549V49.2349C161.668 51.4059 162.885 53.2799 164.654 54.2433C165.047 54.4573 165.482 54.1091 165.471 53.6619C165.469 53.5661 165.468 53.4705 165.468 53.3749V33.6149C165.468 33.5284 165.469 33.4419 165.471 33.3555Z" fill="#3A3E4B"/>
<path fill-rule="evenodd" clip-rule="evenodd" d="M196.749 32.7951C196.355 32.5767 195.916 32.9281 195.925 33.378C195.927 33.4561 195.928 33.5349 195.928 33.6143V53.3744C195.928 53.4598 195.927 53.5454 195.925 53.6306C195.915 54.0806 196.355 54.432 196.749 54.2136C198.488 53.2476 199.668 51.3812 199.668 49.2344V37.7543C199.668 35.6247 198.488 33.7606 196.749 32.7951Z" fill="#3A3E4B"/>
<path fill-rule="evenodd" clip-rule="evenodd" d="M183.787 42.8544C183.907 42.9744 184.127 43.2144 184.147 43.4944C184.147 43.7544 183.947 43.9944 183.767 44.1544C182.607 45.2144 181.207 46.0944 179.747 46.6744C179.427 46.8144 179.207 46.7944 179.127 46.7344C179.027 46.6744 178.967 46.5344 178.927 46.3544C178.727 44.3744 178.727 42.4544 178.927 40.6744C178.944 40.56 178.987 40.419 179.067 40.3274C179.103 40.2874 179.153 40.2646 179.205 40.2524C179.249 40.242 179.298 40.2344 179.347 40.2344C179.467 40.2344 179.587 40.2544 179.707 40.3144C181.307 40.9744 182.627 41.7944 183.787 42.8544Z" fill="#3A3E4B"/>
<path fill-rule="evenodd" clip-rule="evenodd" d="M185.815 46.368C185.81 46.3726 185.804 46.375 185.798 46.375C185.791 46.375 185.785 46.3774 185.78 46.3816C184.362 47.6588 182.665 48.7362 180.868 49.475C180.328 49.675 179.808 49.775 179.308 49.775C178.688 49.775 178.108 49.615 177.588 49.295C176.668 48.755 176.108 47.835 175.948 46.695C175.728 44.475 175.728 42.335 175.948 40.315C176.108 39.155 176.708 38.215 177.628 37.695C178.588 37.135 179.768 37.075 180.868 37.535C182.748 38.335 184.428 39.375 185.808 40.635C186.668 41.415 187.128 42.435 187.148 43.495C187.148 44.552 186.671 45.5692 185.815 46.368ZM186.668 26.375H174.708C170.708 26.375 167.468 29.635 167.468 33.615V53.375C167.468 57.375 170.708 60.615 174.708 60.615H186.668C190.668 60.615 193.928 57.375 193.928 53.375V33.615C193.928 29.635 190.668 26.375 186.668 26.375Z" fill="#3A3E4B"/>
<g clip-path="url(#clip1_7032_635)">
<path fill-rule="evenodd" clip-rule="evenodd" d="M203.555 121.589C203.867 121.7 204.21 121.537 204.321 121.224L209.177 107.56C210.691 103.299 208.456 98.6033 204.195 97.0892L193.83 93.4059C189.569 91.8917 184.873 94.124 183.358 98.3849L178.503 112.05C178.392 112.362 178.555 112.705 178.867 112.816L203.555 121.589Z" fill="#3A3E4B"/>
<path fill-rule="evenodd" clip-rule="evenodd" d="M187.782 126.852C186.777 126.495 186.271 125.43 186.628 124.426C186.992 123.401 188.21 122.972 189.054 123.272C189.899 123.572 190.573 124.673 190.208 125.698C189.844 126.723 188.626 127.152 187.782 126.852ZM177.863 115.642C177.551 115.531 177.208 115.694 177.097 116.006L176.126 118.739C174.612 123 176.846 127.697 181.107 129.211L191.472 132.895C195.733 134.409 200.43 132.175 201.944 127.914L202.915 125.181C203.026 124.869 202.863 124.526 202.551 124.415L177.863 115.642Z" fill="#3A3E4B"/>
</g>
<path d="M13.125 130C15.127 130 16.75 131.623 16.75 133.625V151.75H34.875C36.8769 151.75 38.5 153.373 38.5 155.375C38.4998 157.377 36.8768 159 34.875 159H13.125C12.3117 159 11.5609 158.732 10.9561 158.279C10.863 158.21 10.7734 158.136 10.6875 158.058C10.5159 157.902 10.3588 157.73 10.2197 157.544C10.0805 157.358 9.95924 157.158 9.85742 156.946C9.83204 156.894 9.80803 156.84 9.78516 156.786C9.73928 156.678 9.69841 156.567 9.66309 156.453C9.62773 156.34 9.59742 156.224 9.57324 156.105C9.54907 155.987 9.53093 155.867 9.51855 155.745C9.5062 155.623 9.50002 155.5 9.5 155.375V133.625C9.5 131.623 11.123 130 13.125 130ZM242.875 130C244.877 130 246.5 131.623 246.5 133.625V155.375C246.5 155.438 246.499 155.5 246.496 155.562C246.484 155.808 246.446 156.049 246.387 156.28C246.372 156.338 246.356 156.395 246.338 156.452C246.232 156.793 246.076 157.112 245.881 157.401C245.848 157.45 245.815 157.497 245.78 157.544C245.537 157.87 245.24 158.153 244.902 158.381C244.661 158.544 244.4 158.678 244.122 158.779C243.956 158.84 243.783 158.89 243.606 158.926C243.429 158.962 243.247 158.986 243.062 158.995C243 158.998 242.937 159 242.875 159H221.125C219.123 159 217.5 157.377 217.5 155.375C217.5 153.373 219.123 151.75 221.125 151.75H239.25V133.625C239.25 131.623 240.873 130 242.875 130ZM34.9443 8C36.9519 8 38.5801 9.6282 38.5801 11.6357C38.5799 13.6431 36.9517 15.2705 34.9443 15.2705H16.7695V33.4453C16.7695 35.4527 15.1422 37.08 13.1348 37.0801C11.1273 37.0801 9.50008 35.4528 9.5 33.4453V11.6357C9.5 11.573 9.50077 11.5102 9.50391 11.4482C9.51018 11.3245 9.52266 11.2023 9.54102 11.082C9.55024 11.0216 9.56109 10.9617 9.57324 10.9023C9.60953 10.7251 9.65867 10.5525 9.71973 10.3857C9.74011 10.33 9.76216 10.2751 9.78516 10.2207C9.85418 10.0575 9.93423 9.90001 10.0254 9.75C10.1468 9.55016 10.2879 9.36354 10.4443 9.19141C10.5226 9.10535 10.6044 9.02256 10.6904 8.94434C10.7334 8.90524 10.7774 8.86711 10.8223 8.83008C11.0018 8.68191 11.1963 8.55137 11.4023 8.43945C11.4538 8.41148 11.5056 8.38391 11.5586 8.3584C11.9293 8.1798 12.3351 8.06298 12.7627 8.01953C12.885 8.00708 13.0091 8.00001 13.1348 8H34.9443ZM242.875 8C243.688 8 244.439 8.26835 245.044 8.7207C245.137 8.79033 245.227 8.86433 245.312 8.94238C245.57 9.1765 245.794 9.44703 245.976 9.74609C246.036 9.84559 246.092 9.94824 246.143 10.0537C246.168 10.1064 246.192 10.1598 246.215 10.2139C246.261 10.3223 246.302 10.4334 246.337 10.5469C246.372 10.6605 246.403 10.7764 246.427 10.8945C246.451 11.0126 246.469 11.1329 246.481 11.2549C246.494 11.3766 246.5 11.5001 246.5 11.625V33.375C246.5 35.377 244.877 37 242.875 37C240.873 37 239.25 35.377 239.25 33.375V15.25H221.125C219.123 15.2498 217.5 13.6269 217.5 11.625C217.5 9.62322 219.123 8.00015 221.125 8H242.875Z" fill="#C6C8D2"/>
<path fill-rule="evenodd" clip-rule="evenodd" d="M139.946 79.1927L126.369 92.776C125.899 93.246 125.263 93.5093 124.599 93.5093C123.936 93.5093 123.299 93.246 122.833 92.776L116.243 86.176C115.269 85.196 115.269 83.6127 116.246 82.636C117.226 81.6627 118.806 81.666 119.783 82.6393L124.603 87.4693L136.409 75.6559C137.386 74.6792 138.969 74.6792 139.946 75.6559C140.923 76.6325 140.923 78.216 139.946 79.1927ZM157.013 77.6193L154.683 75.2892C153.619 74.2226 153.036 72.8025 153.036 71.2992V67.9659C153.036 63.0026 148.996 58.9659 144.036 58.9659H140.696C139.186 58.9659 137.769 58.3826 136.709 57.3226L134.339 54.9559C130.816 51.4626 125.109 51.4792 121.613 54.9926L119.289 57.3226C118.219 58.3859 116.803 58.9692 115.296 58.9692H111.959C107.056 58.9726 103.056 62.9192 102.966 67.8059C102.963 67.8592 102.959 67.9126 102.959 67.9692V71.2925C102.959 72.7992 102.376 74.2159 101.313 75.2792L98.9528 77.6427C98.9494 77.6527 98.9394 77.656 98.9328 77.6626C95.4494 81.1893 95.4794 86.896 98.9894 90.3727L101.319 92.7093C102.379 93.7727 102.966 95.186 102.966 96.6927V100.043C102.966 105.003 106.999 109.039 111.959 109.039H115.289C116.799 109.043 118.216 109.626 119.276 110.683L121.653 113.053C123.346 114.736 125.593 115.663 127.983 115.663H128.023C130.426 115.653 132.679 114.706 134.366 113.009L136.703 110.676C137.753 109.629 139.206 109.029 140.689 109.029H144.043C148.993 109.029 153.029 104.999 153.039 100.043V96.6993C153.039 95.196 153.623 93.7793 154.679 92.716L157.049 90.346C160.549 86.826 160.529 81.116 157.013 77.6193Z" fill="#60667C"/>
<defs>
<clipPath id="clip0_7032_635">
<rect width="48" height="48" fill="white" transform="translate(33 108.5) rotate(-30)"/>
</clipPath>
<clipPath id="clip1_7032_635">
<rect width="48" height="48" fill="white" transform="translate(178.073 82.5) rotate(19.5631)"/>
</clipPath>
</defs>
</svg>
