<svg width="32" height="32" viewBox="0 0 32 32" fill="none" xmlns="http://www.w3.org/2000/svg">
<g clip-path="url(#clip0_8452_18105)">
<path fill-rule="evenodd" clip-rule="evenodd" d="M16 3.33325C9.01604 3.33325 3.33337 9.01592 3.33337 15.9999C3.33337 22.9853 9.01604 28.6666 16 28.6666C22.984 28.6666 28.6667 22.9853 28.6667 15.9999C28.6667 9.01592 22.984 3.33325 16 3.33325Z" fill="#FF9900"/>
<path fill-rule="evenodd" clip-rule="evenodd" d="M16 21.9587C15.448 21.9587 15 21.5427 15 20.9894V20.9267C15 20.3747 15.448 19.9267 16 19.9267C16.552 19.9267 17 20.3747 17 20.9267C17 21.4787 16.552 21.9587 16 21.9587ZM14.9946 11.0774C14.9946 10.5254 15.4426 10.0774 15.9946 10.0774C16.5466 10.0774 16.9946 10.5254 16.9946 11.0774V16.8094C16.9946 17.3614 16.5466 17.8094 15.9946 17.8094C15.4426 17.8094 14.9946 17.3614 14.9946 16.8094V11.0774Z" fill="white"/>
</g>
<defs>
<clipPath id="clip0_8452_18105">
<rect width="32" height="32" fill="white"/>
</clipPath>
</defs>
</svg>
