<svg width="48" height="48" viewBox="0 0 48 48" fill="none" xmlns="http://www.w3.org/2000/svg">
<path fill-rule="evenodd" clip-rule="evenodd" d="M24 5C13.524 5 5 13.522 5 24C5 34.476 13.524 43 24 43C34.476 43 43 34.476 43 24C43 13.522 34.476 5 24 5Z" fill="#E71111"/>
<path fill-rule="evenodd" clip-rule="evenodd" d="M29.732 29.7276C29.44 30.0196 29.056 30.1676 28.672 30.1676C28.286 30.1676 27.904 30.0196 27.61 29.7276L23.998 26.1136L20.396 29.7156C19.81 30.3016 18.86 30.3016 18.274 29.7156C17.69 29.1296 17.69 28.1816 18.274 27.5956L21.876 23.9936L18.272 20.3876C17.686 19.8016 17.686 18.8536 18.272 18.2676C18.858 17.6816 19.806 17.6816 20.392 18.2676L23.996 21.8716L27.6 18.2696C28.186 17.6836 29.134 17.6836 29.72 18.2696C30.306 18.8536 30.306 19.8036 29.72 20.3896L26.118 23.9936L29.732 27.6056C30.318 28.1916 30.318 29.1416 29.732 29.7276Z" fill="white"/>
</svg>
