<svg width="64" height="64" viewBox="0 0 64 64" fill="none" xmlns="http://www.w3.org/2000/svg">
<g clip-path="url(#clip0_8452_18129)">
<path fill-rule="evenodd" clip-rule="evenodd" d="M32 6.66675C18.032 6.66675 6.66663 18.0321 6.66663 32.0001C6.66663 45.9707 18.032 57.3334 32 57.3334C45.968 57.3334 57.3333 45.9707 57.3333 32.0001C57.3333 18.0321 45.968 6.66675 32 6.66675Z" fill="#FF9900"/>
<path fill-rule="evenodd" clip-rule="evenodd" d="M32 43.9174C30.896 43.9174 30 43.0855 30 41.9788V41.8535C30 40.7495 30.896 39.8535 32 39.8535C33.104 39.8535 34 40.7495 34 41.8535C34 42.9575 33.104 43.9174 32 43.9174ZM29.9894 22.1548C29.9894 21.0508 30.8854 20.1548 31.9894 20.1548C33.0934 20.1548 33.9894 21.0508 33.9894 22.1548V33.6188C33.9894 34.7228 33.0934 35.6188 31.9894 35.6188C30.8854 35.6188 29.9894 34.7228 29.9894 33.6188V22.1548Z" fill="white"/>
</g>
<defs>
<clipPath id="clip0_8452_18129">
<rect width="64" height="64" fill="white"/>
</clipPath>
</defs>
</svg>
