<svg width="32" height="32" viewBox="0 0 32 32" fill="none" xmlns="http://www.w3.org/2000/svg">
<path fill-rule="evenodd" clip-rule="evenodd" d="M16 3.33325C9.01604 3.33325 3.33337 9.01592 3.33337 15.9999C3.33337 22.9853 9.01604 28.6666 16 28.6666C22.984 28.6666 28.6667 22.9853 28.6667 15.9999C28.6667 9.01592 22.984 3.33325 16 3.33325Z" fill="#189F60"/>
<path fill-rule="evenodd" clip-rule="evenodd" d="M21.324 13.6293L15.1667 19.7866C14.9707 19.9826 14.716 20.08 14.46 20.08C14.2027 20.08 13.948 19.9826 13.752 19.7866L10.6734 16.708C10.2827 16.3173 10.2827 15.684 10.6734 15.2933C11.064 14.9026 11.696 14.9026 12.0867 15.2933L14.46 17.6653L19.9094 12.2146C20.3 11.824 20.9334 11.824 21.324 12.2146C21.7147 12.6053 21.7147 13.2386 21.324 13.6293Z" fill="white"/>
</svg>
