<svg width="40" height="40" viewBox="0 0 40 40" fill="none" xmlns="http://www.w3.org/2000/svg">
<g clip-path="url(#clip0_8452_18113)">
<path fill-rule="evenodd" clip-rule="evenodd" d="M20 4.16675C11.27 4.16675 4.16663 11.2701 4.16663 20.0001C4.16663 28.7317 11.27 35.8334 20 35.8334C28.73 35.8334 35.8333 28.7317 35.8333 20.0001C35.8333 11.2701 28.73 4.16675 20 4.16675Z" fill="#FF9900"/>
<path fill-rule="evenodd" clip-rule="evenodd" d="M20 27.4483C19.31 27.4483 18.75 26.9283 18.75 26.2367V26.1583C18.75 25.4683 19.31 24.9083 20 24.9083C20.69 24.9083 21.25 25.4683 21.25 26.1583C21.25 26.8483 20.69 27.4483 20 27.4483ZM18.7433 13.8467C18.7433 13.1567 19.3033 12.5967 19.9933 12.5967C20.6833 12.5967 21.2433 13.1567 21.2433 13.8467V21.0117C21.2433 21.7017 20.6833 22.2617 19.9933 22.2617C19.3033 22.2617 18.7433 21.7017 18.7433 21.0117V13.8467Z" fill="white"/>
</g>
<defs>
<clipPath id="clip0_8452_18113">
<rect width="40" height="40" fill="white"/>
</clipPath>
</defs>
</svg>
