<svg width="64" height="64" viewBox="0 0 64 64" fill="none" xmlns="http://www.w3.org/2000/svg">
<path d="M49.2998 42.1565C49.2998 40.2411 50.058 38.4001 51.4111 37.0403L51.4131 37.0373L53.3067 35.1447C55.0404 33.3957 55.0305 30.5701 53.2813 28.8303L51.4111 26.9602L51.4072 26.9572C50.0553 25.5955 49.2969 23.7568 49.2969 21.8361V19.1701C49.2966 16.7044 47.2967 14.7045 44.8311 14.7043H42.1572C40.2399 14.7043 38.3982 13.9464 37.0381 12.593L35.168 10.7229C35.1608 10.716 35.1535 10.7084 35.1465 10.7014L35.1455 10.7033C33.3958 8.96555 30.5678 8.97333 28.8281 10.7229L26.9561 12.5979C25.5962 13.9448 23.7595 14.7072 21.8399 14.7072H19.1719L18.9424 14.7131C16.5822 14.8344 14.7071 16.7843 14.707 19.1731C14.707 19.2075 14.7046 19.2417 14.7022 19.2756V21.8313C14.7022 23.7526 13.9406 25.5942 12.5879 26.9533L12.586 26.9543L10.6983 28.8449L10.6973 28.844C10.6953 28.846 10.6924 28.8469 10.6904 28.8488L10.6924 28.8508C9.01261 30.5479 8.97135 33.2506 10.5625 34.9953L10.7217 35.1604L10.7266 35.1662L12.5928 37.0344C13.9447 38.3928 14.7069 40.231 14.707 42.1506V44.8322C14.707 47.2983 16.705 49.297 19.1709 49.2971H21.8369C23.7525 49.3001 25.5931 50.0568 26.9531 51.4104L28.8213 53.2785C28.8299 53.2866 28.8393 53.2937 28.8477 53.302C30.5962 55.0367 33.4228 55.0255 35.1582 53.2746L37.0322 51.4035C38.3911 50.0509 40.2323 49.2883 42.1514 49.2883H44.832C47.2951 49.2902 49.2948 47.2978 49.2998 44.8322V42.1565ZM8.57716 27.0295C8.55683 27.0572 8.53619 27.0892 8.51466 27.1242C8.53446 27.092 8.55483 27.06 8.57716 27.0295ZM8.67482 26.9113C8.67148 26.915 8.66786 26.9189 8.66408 26.9231C8.67098 26.9153 8.67848 26.9082 8.68556 26.9006C8.68218 26.9042 8.67824 26.9076 8.67482 26.9113ZM8.90919 26.7092C8.90069 26.715 8.89104 26.7214 8.88087 26.7287C8.86875 26.7374 8.8539 26.7486 8.83693 26.7619L8.92189 26.7004C8.91795 26.703 8.91346 26.7063 8.90919 26.7092ZM52.0967 21.8361C52.0967 23.0155 52.5614 24.1435 53.3906 24.9807L55.2549 26.8449C58.0997 29.6743 58.1175 34.2744 55.2901 37.1213L53.3936 39.0178L53.3926 39.0168C52.5639 39.8509 52.0996 40.9813 52.0996 42.1565V44.8352C52.0929 48.8465 48.8396 52.0906 44.8311 52.0881L42.1514 52.0891C40.974 52.0891 39.843 52.5566 39.0078 53.3879L37.1426 55.2502C34.331 58.0821 29.7643 58.1115 26.916 55.3274C26.8989 55.3119 26.8806 55.2978 26.8643 55.2815L24.9785 53.3957L24.8184 53.2444C24.0569 52.5579 23.0798 52.1548 22.0527 52.1027L21.832 52.0969H19.1709C15.1585 52.0968 11.9072 48.8445 11.9072 44.8322V42.1506C11.9071 40.974 11.4399 39.8455 10.6084 39.01L8.74513 37.1447C5.90084 34.32 5.88382 29.7285 8.70216 26.8811L8.71681 26.8674L10.6045 24.9758C11.4344 24.1411 11.9024 23.0109 11.9024 21.8313V19.1731C11.9024 19.1199 11.9054 19.0675 11.9111 19.0158C11.9948 15.0759 15.2112 11.9096 19.1699 11.9065H21.8399C23.0163 11.9064 24.1462 11.4397 24.9854 10.6086L26.8447 8.7463C29.6638 5.91333 34.2371 5.89089 37.085 8.6838C37.1065 8.70281 37.1282 8.72308 37.1485 8.74338L39.0127 10.6076C39.8467 11.4377 40.9782 11.9045 42.1572 11.9045H44.8311C48.8431 11.9047 52.0965 15.158 52.0967 19.1701V21.8361Z" fill="#006AFF"/>
<path d="M38.9069 25.5022C39.5901 24.8189 40.698 24.819 41.3815 25.5022C42.0648 26.1854 42.0646 27.2933 41.3815 27.9768L30.5201 38.843C30.1919 39.1713 29.7471 39.3557 29.2828 39.3557C28.8185 39.3556 28.3727 39.1715 28.0445 38.843L22.7721 33.5627C22.0892 32.8788 22.0901 31.77 22.774 31.0871C23.4579 30.4046 24.5658 30.4054 25.2486 31.0891L29.2838 35.1301L38.9069 25.5022Z" fill="#006AFF"/>
</svg>
