<svg width="24" height="24" viewBox="0 0 24 24" fill="none" xmlns="http://www.w3.org/2000/svg">
<g clip-path="url(#clip0_8452_18101)">
<path fill-rule="evenodd" clip-rule="evenodd" d="M12 3.75C7.44329 3.75 3.75 7.44329 3.75 12C3.75 16.5558 7.44335 20.25 12 20.25C16.5567 20.25 20.25 16.5558 20.25 12C20.25 7.44329 16.5567 3.75 12 3.75ZM2.25 12C2.25 6.61487 6.61487 2.25 12 2.25C17.3851 2.25 21.75 6.61487 21.75 12C21.75 17.3841 17.3852 21.75 12 21.75C6.61481 21.75 2.25 17.3841 2.25 12Z" fill="#FF9900"/>
<path fill-rule="evenodd" clip-rule="evenodd" d="M12 7.55664C12.4142 7.55664 12.75 7.89243 12.75 8.30664V12.6062C12.75 13.0204 12.4142 13.3562 12 13.3562C11.5858 13.3562 11.25 13.0204 11.25 12.6062V8.30664C11.25 7.89243 11.5858 7.55664 12 7.55664ZM12.0038 14.9441C12.418 14.9441 12.7538 15.2799 12.7538 15.6941V15.7418C12.7538 16.156 12.418 16.4918 12.0038 16.4918C11.5896 16.4918 11.2538 16.156 11.2538 15.7418V15.6941C11.2538 15.2799 11.5896 14.9441 12.0038 14.9441Z" fill="#FF9900"/>
</g>
<defs>
<clipPath id="clip0_8452_18101">
<rect width="24" height="24" fill="white"/>
</clipPath>
</defs>
</svg>
