<svg width="64" height="64" viewBox="0 0 64 64" fill="none" xmlns="http://www.w3.org/2000/svg">
<path fill-rule="evenodd" clip-rule="evenodd" d="M55.2098 26.8951L53.3458 25.031C52.4951 24.1777 52.0285 23.0417 52.0285 21.839V19.1724C52.0285 15.2017 48.7965 11.9724 44.8285 11.9724H42.1565C40.9485 11.9724 39.8151 11.5057 38.9671 10.6577L37.0711 8.76437C34.2525 5.9697 29.6871 5.98303 26.8898 8.7937L25.0312 10.6577C24.1753 11.5084 23.0419 11.975 21.8366 11.975H19.1673C15.2446 11.9777 12.0446 15.135 11.9726 19.0444C11.9699 19.087 11.9673 19.1297 11.9673 19.175V21.8337C11.9673 23.039 11.5006 24.1724 10.6499 25.023L8.76195 26.9138C8.75928 26.9218 8.75128 26.9244 8.74595 26.9298C5.95928 29.7511 5.98328 34.3164 8.79128 37.0978L10.6553 38.9671C11.5033 39.8178 11.9726 40.9484 11.9726 42.1538V44.8338C11.9726 48.8018 15.1993 52.0311 19.1673 52.0311H21.8313C23.0393 52.0338 24.1726 52.5004 25.0206 53.3458L26.9218 55.2418C28.2765 56.5884 30.0738 57.3298 31.9858 57.3298H32.0178C33.9405 57.3218 35.7431 56.5644 37.0925 55.2071L38.9618 53.3404C39.8018 52.5031 40.9645 52.0231 42.1511 52.0231H44.8338C48.7938 52.0231 52.0231 48.7991 52.0311 44.8338V42.1591C52.0311 40.9564 52.4978 39.8231 53.3431 38.9724L55.2391 37.0764C58.0391 34.2604 58.0231 29.6924 55.2098 26.8951Z" fill="#006AFF"/>
<path fill-rule="evenodd" clip-rule="evenodd" d="M41.5565 28.1539L30.6951 39.0206C30.3191 39.3966 29.8098 39.6073 29.2791 39.6073C28.7485 39.6073 28.2391 39.3966 27.8658 39.0206L22.5939 33.7406C21.8153 32.9566 21.8153 31.6899 22.5966 30.9086C23.3806 30.1299 24.6446 30.1326 25.4259 30.9113L29.2818 34.7753L38.7271 25.3245C39.5085 24.5432 40.7751 24.5432 41.5565 25.3245C42.3378 26.1059 42.3378 27.3726 41.5565 28.1539Z" fill="white"/>
</svg>
