<svg width="24" height="24" viewBox="0 0 24 24" fill="none" xmlns="http://www.w3.org/2000/svg">
<path fill-rule="evenodd" clip-rule="evenodd" d="M12 2.5C6.762 2.5 2.5 6.762 2.5 12C2.5 17.239 6.762 21.5 12 21.5C17.238 21.5 21.5 17.239 21.5 12C21.5 6.762 17.238 2.5 12 2.5Z" fill="#189F60"/>
<path fill-rule="evenodd" clip-rule="evenodd" d="M15.993 10.2219L11.375 14.8399C11.228 14.9869 11.037 15.0599 10.845 15.0599C10.652 15.0599 10.461 14.9869 10.314 14.8399L8.00503 12.5309C7.71203 12.2379 7.71203 11.7629 8.00503 11.4699C8.29803 11.1769 8.77203 11.1769 9.06503 11.4699L10.845 13.2489L14.932 9.16091C15.225 8.86791 15.7 8.86791 15.993 9.16091C16.286 9.45391 16.286 9.92891 15.993 10.2219Z" fill="white"/>
</svg>
