<svg width="32" height="32" viewBox="0 0 32 32" fill="none" xmlns="http://www.w3.org/2000/svg">
<path fill-rule="evenodd" clip-rule="evenodd" d="M16 3.33325C9.01604 3.33325 3.33337 9.01459 3.33337 15.9999C3.33337 22.9839 9.01604 28.6666 16 28.6666C22.984 28.6666 28.6667 22.9839 28.6667 15.9999C28.6667 9.01459 22.984 3.33325 16 3.33325Z" fill="#E71111"/>
<path fill-rule="evenodd" clip-rule="evenodd" d="M19.8213 19.8185C19.6266 20.0132 19.3706 20.1118 19.1146 20.1118C18.8573 20.1118 18.6026 20.0132 18.4066 19.8185L15.9986 17.4092L13.5973 19.8105C13.2066 20.2012 12.5733 20.2012 12.1826 19.8105C11.7933 19.4198 11.7933 18.7878 12.1826 18.3972L14.584 15.9958L12.1813 13.5918C11.7906 13.2012 11.7906 12.5692 12.1813 12.1785C12.572 11.7878 13.204 11.7878 13.5946 12.1785L15.9973 14.5812L18.4 12.1798C18.7906 11.7892 19.4226 11.7892 19.8133 12.1798C20.204 12.5692 20.204 13.2025 19.8133 13.5932L17.412 15.9958L19.8213 18.4038C20.212 18.7945 20.212 19.4278 19.8213 19.8185Z" fill="white"/>
</svg>
