<svg width="48" height="48" viewBox="0 0 48 48" fill="none" xmlns="http://www.w3.org/2000/svg">
<path fill-rule="evenodd" clip-rule="evenodd" d="M24 7.3C14.8866 7.3 7.3 14.8866 7.3 24C7.3 33.1116 14.8867 40.7 24 40.7C33.1134 40.7 40.7 33.1116 40.7 24C40.7 14.8866 33.1134 7.3 24 7.3ZM4.5 24C4.5 13.2297 13.2297 4.5 24 4.5C34.7702 4.5 43.5 13.2297 43.5 24C43.5 34.7682 34.7704 43.5 24 43.5C13.2296 43.5 4.5 34.7682 4.5 24Z" fill="#E71111"/>
<path fill-rule="evenodd" clip-rule="evenodd" d="M18.2793 18.2694C18.8651 17.6836 19.8149 17.6836 20.4005 18.2694L24.0057 21.8746L27.6081 18.2723C28.1939 17.6865 29.1435 17.6865 29.7293 18.2723C30.3151 18.8581 30.3151 19.8078 29.7293 20.3936L26.1271 23.9958L29.7411 27.61C30.3269 28.1958 30.3269 29.1454 29.7411 29.7312C29.1553 30.317 28.2055 30.317 27.6199 29.7312L24.0057 26.1172L20.4043 29.7186C19.8187 30.3044 18.8689 30.3044 18.2831 29.7186C17.6973 29.1328 17.6973 28.183 18.2831 27.5972L21.8845 23.9958L18.2793 20.3908C17.6935 19.805 17.6935 18.8552 18.2793 18.2694Z" fill="#E71111"/>
</svg>
