<svg width="40" height="40" viewBox="0 0 40 40" fill="none" xmlns="http://www.w3.org/2000/svg">
<path fill-rule="evenodd" clip-rule="evenodd" d="M20 4.16675C11.27 4.16675 4.16663 11.2684 4.16663 20.0001C4.16663 28.7301 11.27 35.8334 20 35.8334C28.73 35.8334 35.8333 28.7301 35.8333 20.0001C35.8333 11.2684 28.73 4.16675 20 4.16675Z" fill="#E71111"/>
<path fill-rule="evenodd" clip-rule="evenodd" d="M24.7767 24.7729C24.5334 25.0163 24.2134 25.1396 23.8934 25.1396C23.5717 25.1396 23.2534 25.0163 23.0084 24.7729L19.9984 21.7613L16.9967 24.7629C16.5084 25.2513 15.7167 25.2513 15.2284 24.7629C14.7417 24.2746 14.7417 23.4846 15.2284 22.9963L18.23 19.9946L15.2267 16.9896C14.7384 16.5013 14.7384 15.7113 15.2267 15.2229C15.7151 14.7346 16.5051 14.7346 16.9934 15.2229L19.9967 18.2263L23 15.2246C23.4884 14.7363 24.2784 14.7363 24.7667 15.2246C25.255 15.7113 25.255 16.5029 24.7667 16.9913L21.765 19.9946L24.7767 23.0046C25.265 23.4929 25.265 24.2846 24.7767 24.7729Z" fill="white"/>
</svg>
