<svg width="16" height="16" viewBox="0 0 16 16" fill="none" xmlns="http://www.w3.org/2000/svg">
<g clip-path="url(#clip0_8452_18093)">
<path fill-rule="evenodd" clip-rule="evenodd" d="M8 2.5C4.96219 2.5 2.5 4.96219 2.5 8C2.5 11.0372 4.96223 13.5 8 13.5C11.0378 13.5 13.5 11.0372 13.5 8C13.5 4.96219 11.0378 2.5 8 2.5ZM1.5 8C1.5 4.40991 4.40991 1.5 8 1.5C11.5901 1.5 14.5 4.40991 14.5 8C14.5 11.5894 11.5901 14.5 8 14.5C4.40987 14.5 1.5 11.5894 1.5 8Z" fill="#FF9900"/>
<path fill-rule="evenodd" clip-rule="evenodd" d="M8 5.03784C8.27613 5.03784 8.5 5.2617 8.5 5.53784V8.40422C8.5 8.68035 8.27613 8.90422 8 8.90422C7.72387 8.90422 7.5 8.68035 7.5 8.40422V5.53784C7.5 5.2617 7.72387 5.03784 8 5.03784ZM8.00253 9.96282C8.27867 9.96282 8.50253 10.1867 8.50253 10.4628V10.4946C8.50253 10.7707 8.27867 10.9946 8.00253 10.9946C7.7264 10.9946 7.50253 10.7707 7.50253 10.4946V10.4628C7.50253 10.1867 7.7264 9.96282 8.00253 9.96282Z" fill="#FF9900"/>
</g>
<defs>
<clipPath id="clip0_8452_18093">
<rect width="16" height="16" fill="white"/>
</clipPath>
</defs>
</svg>
