<svg width="40" height="40" viewBox="0 0 40 40" fill="none" xmlns="http://www.w3.org/2000/svg">
<path fill-rule="evenodd" clip-rule="evenodd" d="M20 6.25C12.4055 6.25 6.25 12.4055 6.25 20C6.25 27.593 12.4056 33.75 20 33.75C27.5945 33.75 33.75 27.593 33.75 20C33.75 12.4055 27.5945 6.25 20 6.25ZM3.75 20C3.75 11.0248 11.0248 3.75 20 3.75C28.9752 3.75 36.25 11.0248 36.25 20C36.25 28.9735 28.9753 36.25 20 36.25C11.0247 36.25 3.75 28.9735 3.75 20Z" fill="#E71111"/>
<path fill-rule="evenodd" clip-rule="evenodd" d="M15.2328 15.2245C15.721 14.7364 16.5125 14.7364 17.0005 15.2245L20.0048 18.2288L23.0068 15.2269C23.495 14.7387 24.2863 14.7387 24.7745 15.2269C25.2627 15.715 25.2627 16.5065 24.7745 16.9947L21.7727 19.9965L24.7843 23.0083C25.2725 23.4965 25.2725 24.2878 24.7843 24.776C24.2962 25.2642 23.5047 25.2642 23.0167 24.776L20.0048 21.7643L17.0037 24.7655C16.5157 25.2537 15.7241 25.2537 15.236 24.7655C14.7478 24.2773 14.7478 23.4858 15.236 22.9977L18.2372 19.9965L15.2328 16.9923C14.7447 16.5041 14.7447 15.7127 15.2328 15.2245Z" fill="#E71111"/>
</svg>
