<svg width="16" height="16" viewBox="0 0 16 16" fill="none" xmlns="http://www.w3.org/2000/svg">
<path fill-rule="evenodd" clip-rule="evenodd" d="M7.99996 1.66675C4.50796 1.66675 1.66663 4.50808 1.66663 8.00008C1.66663 11.4927 4.50796 14.3334 7.99996 14.3334C11.492 14.3334 14.3333 11.4927 14.3333 8.00008C14.3333 4.50808 11.492 1.66675 7.99996 1.66675Z" fill="#189F60"/>
<path fill-rule="evenodd" clip-rule="evenodd" d="M10.662 6.81477L7.58335 9.89344C7.48535 9.99144 7.35802 10.0401 7.23002 10.0401C7.10135 10.0401 6.97402 9.99144 6.87602 9.89344L5.33669 8.3541C5.14135 8.15877 5.14135 7.8421 5.33669 7.64677C5.53202 7.45144 5.84802 7.45144 6.04335 7.64677L7.23002 8.83277L9.95469 6.10744C10.15 5.9121 10.4667 5.9121 10.662 6.10744C10.8574 6.30277 10.8574 6.61944 10.662 6.81477Z" fill="white"/>
</svg>
