<svg width="48" height="48" viewBox="0 0 48 48" fill="none" xmlns="http://www.w3.org/2000/svg">
<g clip-path="url(#clip0_8452_18121)">
<path fill-rule="evenodd" clip-rule="evenodd" d="M24 5C13.524 5 5 13.524 5 24C5 34.478 13.524 43 24 43C34.476 43 43 34.478 43 24C43 13.524 34.476 5 24 5Z" fill="#FF9900"/>
<path fill-rule="evenodd" clip-rule="evenodd" d="M23.9999 32.938C23.1719 32.938 22.4999 32.314 22.4999 31.484V31.39C22.4999 30.562 23.1719 29.89 23.9999 29.89C24.8279 29.89 25.4999 30.562 25.4999 31.39C25.4999 32.218 24.8279 32.938 23.9999 32.938ZM22.4919 16.616C22.4919 15.788 23.1639 15.116 23.9919 15.116C24.8199 15.116 25.4919 15.788 25.4919 16.616V25.214C25.4919 26.042 24.8199 26.714 23.9919 26.714C23.1639 26.714 22.4919 26.042 22.4919 25.214V16.616Z" fill="white"/>
</g>
<defs>
<clipPath id="clip0_8452_18121">
<rect width="48" height="48" fill="white"/>
</clipPath>
</defs>
</svg>
