<svg width="64" height="64" viewBox="0 0 64 64" fill="none" xmlns="http://www.w3.org/2000/svg">
<path fill-rule="evenodd" clip-rule="evenodd" d="M32 6.66675C18.032 6.66675 6.66663 18.0294 6.66663 32.0001C6.66663 45.9681 18.032 57.3334 32 57.3334C45.968 57.3334 57.3333 45.9681 57.3333 32.0001C57.3333 18.0294 45.968 6.66675 32 6.66675Z" fill="#E71111"/>
<path fill-rule="evenodd" clip-rule="evenodd" d="M39.6427 39.6367C39.2534 40.0261 38.7414 40.2234 38.2294 40.2234C37.7147 40.2234 37.2054 40.0261 36.8134 39.6367L31.9974 34.8181L27.1947 39.6207C26.4134 40.4021 25.1467 40.4021 24.3654 39.6207C23.5867 38.8394 23.5867 37.5754 24.3654 36.7941L29.168 31.9914L24.3627 27.1834C23.5814 26.4021 23.5814 25.1381 24.3627 24.3568C25.1441 23.5754 26.4081 23.5754 27.1894 24.3568L31.9947 29.1621L36.8 24.3594C37.5814 23.5781 38.8454 23.5781 39.6267 24.3594C40.408 25.1381 40.408 26.4048 39.6267 27.1861L34.824 31.9914L39.6427 36.8074C40.424 37.5887 40.424 38.8554 39.6427 39.6367Z" fill="white"/>
</svg>
