<svg width="16" height="16" viewBox="0 0 16 16" fill="none" xmlns="http://www.w3.org/2000/svg">
<path fill-rule="evenodd" clip-rule="evenodd" d="M7.99996 1.66675C4.50796 1.66675 1.66663 4.50741 1.66663 8.00008C1.66663 11.4921 4.50796 14.3334 7.99996 14.3334C11.492 14.3334 14.3333 11.4921 14.3333 8.00008C14.3333 4.50741 11.492 1.66675 7.99996 1.66675Z" fill="#E71111"/>
<path fill-rule="evenodd" clip-rule="evenodd" d="M9.91071 9.90912C9.81337 10.0065 9.68537 10.0558 9.55737 10.0558C9.42871 10.0558 9.30137 10.0065 9.20337 9.90912L7.99937 8.70445L6.79871 9.90512C6.60338 10.1005 6.28671 10.1005 6.09138 9.90512C5.89671 9.70979 5.89671 9.39379 6.09138 9.19845L7.29204 7.99779L6.09071 6.79579C5.89538 6.60046 5.89538 6.28446 6.09071 6.08913C6.28605 5.89379 6.60205 5.89379 6.79737 6.08913L7.99871 7.29045L9.20004 6.08979C9.39537 5.89446 9.71137 5.89446 9.90671 6.08979C10.102 6.28446 10.102 6.60113 9.90671 6.79645L8.70604 7.99779L9.91071 9.20179C10.106 9.39712 10.106 9.71379 9.91071 9.90912Z" fill="white"/>
</svg>
