<svg width="24" height="24" viewBox="0 0 24 24" fill="none" xmlns="http://www.w3.org/2000/svg">
<g clip-path="url(#clip0_8452_18097)">
<path fill-rule="evenodd" clip-rule="evenodd" d="M12 2.5C6.762 2.5 2.5 6.762 2.5 12C2.5 17.239 6.762 21.5 12 21.5C17.238 21.5 21.5 17.239 21.5 12C21.5 6.762 17.238 2.5 12 2.5Z" fill="#FF9900"/>
<path fill-rule="evenodd" clip-rule="evenodd" d="M12 16.4691C11.586 16.4691 11.25 16.1571 11.25 15.7421V15.6951C11.25 15.2811 11.586 14.9451 12 14.9451C12.414 14.9451 12.75 15.2811 12.75 15.6951C12.75 16.1091 12.414 16.4691 12 16.4691ZM11.246 8.3081C11.246 7.8941 11.582 7.55811 11.996 7.55811C12.41 7.55811 12.746 7.8941 12.746 8.3081V12.6071C12.746 13.0211 12.41 13.3571 11.996 13.3571C11.582 13.3571 11.246 13.0211 11.246 12.6071V8.3081Z" fill="white"/>
</g>
<defs>
<clipPath id="clip0_8452_18097">
<rect width="24" height="24" fill="white"/>
</clipPath>
</defs>
</svg>
