<svg width="40" height="40" viewBox="0 0 40 40" fill="none" xmlns="http://www.w3.org/2000/svg">
<path d="M30.4378 26.3475C30.4378 25.0515 30.951 23.8059 31.8668 22.8856L33.0484 21.7024C33.9876 20.7564 33.9827 19.2265 33.0354 18.2844L31.8636 17.1125C30.9489 16.1912 30.4361 14.9468 30.4361 13.6473V11.9823C30.4361 10.6482 29.3533 9.56534 28.0191 9.56532H26.3476C25.0505 9.56523 23.8045 9.05226 22.8841 8.13628L21.7154 6.96766C21.7113 6.96365 21.7065 6.95871 21.7024 6.95464L21.5185 6.79025C20.567 6.0191 19.1671 6.07882 18.2844 6.96603L18.2812 6.96766L17.1109 8.13954C16.1913 9.05047 14.9484 9.56694 13.649 9.56694H11.9824C10.6475 9.56826 9.567 10.6501 9.567 11.9839C9.56699 12.0053 9.56481 12.0264 9.56375 12.0474V13.6441C9.56375 14.9442 9.04842 16.1912 8.13308 17.1109L6.99213 18.2502C6.97709 18.2669 6.96149 18.2807 6.94818 18.2942C6.01009 19.2419 6.0176 20.7702 6.96446 21.7089L8.13634 22.8824C9.05095 23.8014 9.56697 25.045 9.567 26.3443V28.0207C9.56718 29.3548 10.6484 30.4361 11.9824 30.4361H13.649C14.7829 30.438 15.8785 30.8292 16.7512 31.5412L17.1109 31.8667L18.2714 33.0272C18.2788 33.0342 18.287 33.0413 18.2942 33.0484C19.24 33.9862 20.7687 33.9793 21.7073 33.0321L22.8792 31.8619C23.7986 30.9467 25.0456 30.4313 26.3443 30.4312H28.0208C29.3525 30.432 30.4343 29.354 30.4378 28.0207V26.3475ZM5.14643 16.5656C5.12582 16.588 5.0943 16.6219 5.06016 16.6682C5.09007 16.6276 5.12316 16.5894 5.15782 16.5526C5.15392 16.5567 5.1504 16.5613 5.14643 16.5656ZM5.35802 16.3834C5.35028 16.3886 5.34129 16.3946 5.33197 16.4013C5.32122 16.409 5.30791 16.4188 5.29291 16.4306L5.36941 16.3752C5.36589 16.3776 5.36184 16.3807 5.35802 16.3834ZM32.9361 13.6473C32.9361 14.2851 33.1862 14.8952 33.6344 15.3482L34.7981 16.5119C36.7227 18.426 36.7357 21.5387 34.8225 23.4651L33.636 24.6516L33.6344 24.65C33.1871 25.1007 32.9378 25.7125 32.9378 26.3475V28.0223C32.9333 30.7364 30.7315 32.9329 28.0191 32.9312H26.3443C25.7081 32.9313 25.0969 33.1833 24.6451 33.6327L24.6435 33.6311L23.4781 34.7964C21.5758 36.711 18.4877 36.7314 16.5608 34.8485C16.549 34.8376 16.5364 34.8274 16.525 34.816L15.3466 33.6376C14.9524 33.2453 14.4348 33.0028 13.8834 32.9475L13.6441 32.9361H11.9824C9.26756 32.9361 7.06718 30.7354 7.067 28.0207V26.3443C7.06697 25.7083 6.81395 25.0973 6.36388 24.6451L5.20014 23.4797C3.27758 21.5682 3.26628 18.4622 5.17247 16.5363L5.17735 16.5298C5.17871 16.5285 5.18087 16.5279 5.18223 16.5266L6.36225 15.3449C6.81088 14.8935 7.06375 14.282 7.06375 13.6441V11.9839C7.06375 11.9402 7.06588 11.8963 7.07026 11.8537C7.13888 9.1986 9.31018 7.06912 11.9807 7.06694H13.649C14.2848 7.06694 14.8967 6.81412 15.3515 6.36382L16.512 5.20171C18.4147 3.28961 21.4983 3.27051 23.4261 5.14637C23.4452 5.16327 23.465 5.18041 23.483 5.19845L24.6468 6.36382C25.0975 6.81241 25.7097 7.06523 26.3476 7.06532H28.0191C30.734 7.06534 32.9361 9.26745 32.9361 11.9823V13.6473Z" fill="#006AFF"/>
<path d="M24.2057 15.8285C24.6937 15.3402 25.485 15.3405 25.9733 15.8285C26.4615 16.3164 26.4627 17.1077 25.9749 17.596L19.1862 24.388C18.9517 24.6226 18.6325 24.7543 18.3008 24.7542C17.9693 24.754 17.6512 24.621 17.417 24.3864L14.1227 21.0873C13.6351 20.5989 13.6347 19.8075 14.1227 19.3197C14.6112 18.8319 15.4025 18.8328 15.8903 19.3213L18.3008 21.735L24.2057 15.8285Z" fill="#006AFF"/>
</svg>
