<svg width="40" height="40" viewBox="0 0 40 40" fill="none" xmlns="http://www.w3.org/2000/svg">
<path fill-rule="evenodd" clip-rule="evenodd" d="M34.5061 16.8094L33.3411 15.6444C32.8094 15.111 32.5178 14.401 32.5178 13.6494V11.9827C32.5178 9.50103 30.4978 7.4827 28.0178 7.4827H26.3478C25.5928 7.4827 24.8845 7.19103 24.3545 6.66103L23.1695 5.4777C21.4078 3.73103 18.5545 3.73936 16.8061 5.49603L15.6445 6.66103C15.1095 7.1927 14.4012 7.48437 13.6479 7.48437H11.9795C9.52787 7.48603 7.52787 9.45936 7.48287 11.9027C7.48118 11.9294 7.47953 11.956 7.47953 11.9844V13.646C7.47953 14.3994 7.18787 15.1077 6.6562 15.6394L5.4762 16.8211C5.47453 16.8261 5.46953 16.8277 5.4662 16.8311C3.72453 18.5944 3.73953 21.4477 5.49453 23.1861L6.65953 24.3544C7.18953 24.8861 7.48287 25.5927 7.48287 26.3461V28.0211C7.48287 30.5011 9.49953 32.5194 11.9795 32.5194H13.6445C14.3995 32.5211 15.1079 32.8127 15.6379 33.3411L16.8261 34.5261C17.6728 35.3677 18.7961 35.8311 19.9911 35.8311H20.0111C21.2128 35.8261 22.3395 35.3527 23.1828 34.5044L24.3511 33.3377C24.8761 32.8144 25.6028 32.5144 26.3444 32.5144H28.0211C30.4961 32.5144 32.5144 30.4994 32.5194 28.0211V26.3494C32.5194 25.5977 32.8111 24.8894 33.3394 24.3577L34.5245 23.1727C36.2744 21.4127 36.2644 18.5577 34.5061 16.8094Z" fill="#006AFF"/>
<path fill-rule="evenodd" clip-rule="evenodd" d="M25.9728 17.5961L19.1845 24.3877C18.9495 24.6227 18.6312 24.7544 18.2995 24.7544C17.9678 24.7544 17.6495 24.6227 17.4162 24.3877L14.1212 21.0877C13.6346 20.5977 13.6346 19.8061 14.1229 19.3177C14.6129 18.8311 15.4029 18.8327 15.8913 19.3194L18.3012 21.7344L24.2045 15.8277C24.6928 15.3393 25.4845 15.3393 25.9728 15.8277C26.4612 16.316 26.4612 17.1077 25.9728 17.5961Z" fill="white"/>
</svg>
