<svg width="16" height="16" viewBox="0 0 16 16" fill="none" xmlns="http://www.w3.org/2000/svg">
<path d="M12.1752 10.5391C12.1752 10.0207 12.3805 9.52245 12.7468 9.15435L13.2194 8.68104C13.5951 8.30265 13.5931 7.6907 13.2142 7.31385L12.7455 6.8451C12.3796 6.47659 12.1745 5.97882 12.1745 5.45904V4.79302C12.1745 4.25936 11.7414 3.82623 11.2077 3.82622H10.5391C10.0202 3.82619 9.52184 3.621 9.15367 3.25461L8.68622 2.78716C8.68457 2.78556 8.68265 2.78358 8.68102 2.78195L8.60745 2.7162C8.22686 2.40774 7.66688 2.43162 7.31383 2.78651L7.31253 2.78716L6.84443 3.25591C6.47656 3.62028 5.97941 3.82688 5.45966 3.82688H4.79299C4.25903 3.8274 3.82685 4.26015 3.82685 4.79367C3.82684 4.8022 3.82597 4.81064 3.82555 4.81906V5.45773C3.82555 5.97777 3.61942 6.47658 3.25328 6.84445L2.7969 7.30018C2.79089 7.30688 2.78464 7.31239 2.77932 7.31776C2.40408 7.69687 2.40709 8.30819 2.78583 8.68365L3.25458 9.15305C3.62043 9.52067 3.82684 10.0181 3.82685 10.5378V11.2084C3.82692 11.742 4.25941 12.1745 4.79299 12.1745H5.45966C5.9132 12.1753 6.35146 12.3318 6.70055 12.6166L6.84443 12.7468L7.30862 13.211C7.31156 13.2138 7.31486 13.2166 7.31773 13.2195C7.69606 13.5946 8.30752 13.5918 8.68297 13.2129L9.15172 12.7448C9.51948 12.3788 10.0183 12.1726 10.5378 12.1726H11.2084C11.7411 12.1729 12.1738 11.7417 12.1752 11.2084V10.5391ZM2.05862 6.62635C2.05038 6.6353 2.03777 6.64886 2.02411 6.66737C2.03608 6.65113 2.04931 6.63585 2.06318 6.62115C2.06162 6.62279 2.06021 6.62463 2.05862 6.62635ZM2.14326 6.55344C2.14016 6.55554 2.13657 6.55792 2.13284 6.5606C2.12853 6.56369 2.12321 6.56763 2.11721 6.57232L2.14781 6.55018C2.1464 6.55112 2.14478 6.5524 2.14326 6.55344ZM13.1745 5.45904C13.1745 5.71414 13.2745 5.95819 13.4538 6.13938L13.9193 6.60487C14.6891 7.37052 14.6943 8.61557 13.9291 9.38612L13.4545 9.86073L13.4538 9.86008C13.2749 10.0404 13.1752 10.2851 13.1752 10.5391V11.209C13.1734 12.2947 12.2926 13.1732 11.2077 13.1726H10.5378C10.2833 13.1726 10.0388 13.2734 9.8581 13.4532L9.85745 13.4525L9.3913 13.9187C8.63037 14.6845 7.39515 14.6927 6.62438 13.9395C6.61964 13.9351 6.61462 13.931 6.61005 13.9265L6.1387 13.4551C5.98101 13.2982 5.77397 13.2012 5.55341 13.1791L5.45771 13.1745H4.79299C3.70707 13.1745 2.82692 12.2942 2.82685 11.2084V10.5378C2.82684 10.2834 2.72563 10.039 2.5456 9.85813L2.0801 9.39198C1.31108 8.62737 1.30656 7.38498 2.06904 6.61464L2.07099 6.61203C2.07153 6.61149 2.0724 6.61127 2.07294 6.61073L2.54495 6.13807C2.7244 5.95749 2.82555 5.71289 2.82555 5.45773V4.79367C2.82555 4.77619 2.8264 4.75861 2.82815 4.74159C2.8556 3.67954 3.72412 2.82775 4.79234 2.82688H5.45966C5.71396 2.82688 5.95874 2.72574 6.14065 2.54563L6.60484 2.08078C7.36594 1.31594 8.59935 1.3083 9.37047 2.05865C9.37812 2.06541 9.38604 2.07226 9.39326 2.07948L9.85875 2.54563C10.039 2.72506 10.2839 2.82619 10.5391 2.82622H11.2077C12.2936 2.82623 13.1745 3.70708 13.1745 4.79302V5.45904Z" fill="#006AFF"/>
<path d="M9.68223 6.33124C9.87743 6.13594 10.194 6.13607 10.3893 6.33124C10.5845 6.52642 10.585 6.84295 10.3899 7.03827L7.67442 9.75507C7.58062 9.8489 7.45293 9.90159 7.32026 9.90155C7.18767 9.90144 7.06043 9.84824 6.96674 9.75442L5.64903 8.43476C5.45398 8.23942 5.45383 7.92286 5.64903 7.72772C5.84444 7.53261 6.16094 7.53297 6.35606 7.72838L7.32026 8.69387L9.68223 6.33124Z" fill="#006AFF"/>
</svg>
