<svg width="32" height="32" viewBox="0 0 32 32" fill="none" xmlns="http://www.w3.org/2000/svg">
<g clip-path="url(#clip0_8452_18109)">
<path fill-rule="evenodd" clip-rule="evenodd" d="M16 5C9.92439 5 5 9.92439 5 16C5 22.0744 9.92447 27 16 27C22.0756 27 27 22.0744 27 16C27 9.92439 22.0756 5 16 5ZM3 16C3 8.81983 8.81983 3 16 3C23.1801 3 29 8.81983 29 16C29 23.1788 23.1803 29 16 29C8.81975 29 3 23.1788 3 16Z" fill="#FF9900"/>
<path fill-rule="evenodd" clip-rule="evenodd" d="M16 10.0754C16.5523 10.0754 17 10.5232 17 11.0754V16.8082C17 17.3605 16.5523 17.8082 16 17.8082C15.4477 17.8082 15 17.3605 15 16.8082V11.0754C15 10.5232 15.4477 10.0754 16 10.0754ZM16.0051 19.9254C16.5573 19.9254 17.0051 20.3731 17.0051 20.9254V20.989C17.0051 21.5413 16.5573 21.989 16.0051 21.989C15.4528 21.989 15.0051 21.5413 15.0051 20.989V20.9254C15.0051 20.3731 15.4528 19.9254 16.0051 19.9254Z" fill="#FF9900"/>
</g>
<defs>
<clipPath id="clip0_8452_18109">
<rect width="32" height="32" fill="white"/>
</clipPath>
</defs>
</svg>
