<svg width="16" height="16" viewBox="0 0 16 16" fill="none" xmlns="http://www.w3.org/2000/svg">
<path fill-rule="evenodd" clip-rule="evenodd" d="M8 2.5C4.96219 2.5 2.5 4.96219 2.5 8C2.5 11.0372 4.96223 13.5 8 13.5C11.0378 13.5 13.5 11.0372 13.5 8C13.5 4.96219 11.0378 2.5 8 2.5ZM1.5 8C1.5 4.40991 4.40991 1.5 8 1.5C11.5901 1.5 14.5 4.40991 14.5 8C14.5 11.5894 11.5901 14.5 8 14.5C4.40987 14.5 1.5 11.5894 1.5 8Z" fill="#189F60"/>
<path fill-rule="evenodd" clip-rule="evenodd" d="M10.6653 6.10739C10.8605 6.30265 10.8605 6.61923 10.6653 6.81447L7.58679 9.893C7.39159 10.0882 7.07506 10.0883 6.87979 9.89307L5.33988 8.3538C5.14458 8.1586 5.14451 7.842 5.33973 7.64673C5.53496 7.4514 5.85154 7.45133 6.04684 7.64653L7.23319 8.8324L9.95819 6.10739C10.1535 5.91212 10.4701 5.91212 10.6653 6.10739Z" fill="#189F60"/>
</svg>
