<svg width="32" height="32" viewBox="0 0 32 32" fill="none" xmlns="http://www.w3.org/2000/svg">
<path d="M24.3503 21.0782C24.3503 20.0414 24.7609 19.0449 25.4935 18.3087L26.4389 17.3621C27.1902 16.6053 27.1863 15.3814 26.4284 14.6277L25.4909 13.6902C24.7592 12.9532 24.349 11.9576 24.349 10.9181V9.58604C24.349 8.51873 23.4827 7.65247 22.4154 7.65245H21.0782C20.0405 7.65238 19.0437 7.24201 18.3073 6.50922L17.3724 5.57432C17.3691 5.57111 17.3653 5.56716 17.362 5.56391L17.2149 5.4324C16.4537 4.81547 15.3338 4.86325 14.6277 5.57302L14.6251 5.57432L13.6889 6.51182C12.9531 7.24057 11.9588 7.65375 10.9193 7.65375H9.58599C8.51806 7.6548 7.6537 8.52029 7.6537 9.58734C7.65369 9.6044 7.65195 9.62128 7.65109 9.63813V10.9155C7.65109 11.9555 7.23883 12.9532 6.50656 13.6889L5.5938 14.6004C5.58177 14.6138 5.56929 14.6248 5.55865 14.6355C4.80817 15.3937 4.81418 16.6164 5.57167 17.3673L6.50917 18.3061C7.24086 19.0413 7.65368 20.0362 7.6537 21.0756V22.4168C7.65384 23.484 8.51881 24.3491 9.58599 24.3491H10.9193C11.8264 24.3506 12.7029 24.6636 13.4011 25.2332L13.6889 25.4936L14.6172 26.422C14.6231 26.4275 14.6297 26.4332 14.6355 26.4389C15.3921 27.1891 16.615 27.1836 17.3659 26.4259L18.3034 25.4897C19.039 24.7576 20.0366 24.3452 21.0756 24.3452H22.4167C23.4821 24.3458 24.3475 23.4834 24.3503 22.4168V21.0782ZM4.11724 13.2527C4.10076 13.2706 4.07554 13.2977 4.04823 13.3347C4.07215 13.3023 4.09863 13.2717 4.12635 13.2423C4.12324 13.2456 4.12042 13.2493 4.11724 13.2527ZM4.28651 13.1069C4.28032 13.1111 4.27313 13.1158 4.26568 13.1212C4.25707 13.1274 4.24643 13.1353 4.23443 13.1446L4.29562 13.1004C4.29281 13.1022 4.28957 13.1048 4.28651 13.1069ZM26.349 10.9181C26.349 11.4283 26.5491 11.9164 26.9076 12.2788L27.8386 13.2097C29.3783 14.741 29.3887 17.2311 27.8581 18.7722L26.9089 19.7215L26.9076 19.7202C26.5497 20.0808 26.3503 20.5702 26.3503 21.0782V22.4181C26.3467 24.5893 24.5853 26.3465 22.4154 26.3452H21.0756C20.5666 26.3452 20.0776 26.5468 19.7162 26.9064L19.7149 26.9051L18.7826 27.8373C17.2607 29.369 14.7903 29.3853 13.2488 27.879C13.2393 27.8703 13.2292 27.8621 13.2201 27.853L12.2774 26.9103C11.962 26.5964 11.5479 26.4024 11.1068 26.3582L10.9154 26.3491H9.58599C7.41415 26.3491 5.65384 24.5885 5.6537 22.4168V21.0756C5.65368 20.5669 5.45126 20.078 5.0912 19.7163L4.16021 18.784C2.62216 17.2547 2.61312 14.77 4.13807 13.2293L4.14198 13.2241C4.14307 13.223 4.14479 13.2225 4.14589 13.2215L5.0899 12.2761C5.4488 11.915 5.65109 11.4258 5.65109 10.9155V9.58734C5.65109 9.55238 5.6528 9.51722 5.6563 9.48318C5.71121 7.35908 7.44824 5.6555 9.58469 5.65375H10.9193C11.4279 5.65375 11.9175 5.45149 12.2813 5.09125L13.2097 4.16156C14.7319 2.63188 17.1987 2.6166 18.7409 4.11729C18.7562 4.13081 18.7721 4.14453 18.7865 4.15896L19.7175 5.09125C20.0781 5.45012 20.5679 5.65238 21.0782 5.65245H22.4154C24.5873 5.65247 26.349 7.41415 26.349 9.58604V10.9181Z" fill="#006AFF"/>
<path d="M19.3646 12.6627C19.755 12.2721 20.388 12.2724 20.7787 12.6627C21.1692 13.0531 21.1702 13.6861 20.78 14.0768L15.349 19.5104C15.1614 19.698 14.906 19.8034 14.6406 19.8033C14.3755 19.8031 14.121 19.6967 13.9336 19.5091L11.2982 16.8698C10.9081 16.4791 10.9078 15.846 11.2982 15.4557C11.689 15.0655 12.322 15.0662 12.7122 15.457L14.6406 17.388L19.3646 12.6627Z" fill="#006AFF"/>
</svg>
