<svg width="40" height="40" viewBox="0 0 40 40" fill="none" xmlns="http://www.w3.org/2000/svg">
<path fill-rule="evenodd" clip-rule="evenodd" d="M20 6.25C12.4055 6.25 6.25 12.4055 6.25 20C6.25 27.593 12.4056 33.75 20 33.75C27.5945 33.75 33.75 27.593 33.75 20C33.75 12.4055 27.5945 6.25 20 6.25ZM3.75 20C3.75 11.0248 11.0248 3.75 20 3.75C28.9752 3.75 36.25 11.0248 36.25 20C36.25 28.9735 28.9753 36.25 20 36.25C11.0247 36.25 3.75 28.9735 3.75 20Z" fill="#189F60"/>
<path fill-rule="evenodd" clip-rule="evenodd" d="M26.6632 15.2685C27.1512 15.7566 27.1512 16.5481 26.6632 17.0362L18.9669 24.7325C18.4789 25.2205 17.6875 25.2207 17.1994 24.7327L13.3496 20.8845C12.8613 20.3965 12.8612 19.605 13.3492 19.1168C13.8373 18.6285 14.6287 18.6283 15.117 19.1163L18.0829 22.081L24.8954 15.2685C25.3835 14.7803 26.175 14.7803 26.6632 15.2685Z" fill="#189F60"/>
</svg>
