<svg width="16" height="16" viewBox="0 0 16 16" fill="none" xmlns="http://www.w3.org/2000/svg">
<path fill-rule="evenodd" clip-rule="evenodd" d="M13.8024 6.72372L13.3364 6.2577C13.1238 6.04436 13.0071 5.76036 13.0071 5.4597V4.79303C13.0071 3.80036 12.1991 2.99303 11.2071 2.99303H10.5391C10.2371 2.99303 9.95376 2.87636 9.74176 2.66436L9.26776 2.19103C8.56309 1.49236 7.42176 1.4957 6.72242 2.19836L6.25778 2.66436C6.04378 2.87703 5.76046 2.9937 5.45912 2.9937H4.79179C3.81112 2.99436 3.01112 3.7837 2.99312 4.76103C2.99245 4.7717 2.99179 4.78236 2.99179 4.7937V5.45836C2.99179 5.7597 2.87512 6.04303 2.66246 6.2557L2.19046 6.72838C2.18979 6.73038 2.18779 6.73105 2.18646 6.73238C1.48979 7.43772 1.49579 8.57905 2.19779 9.27438L2.66379 9.74172C2.87579 9.95438 2.99312 10.2371 2.99312 10.5384V11.2084C2.99312 12.2004 3.79979 13.0077 4.79179 13.0077H5.45779C5.75979 13.0084 6.04312 13.125 6.25512 13.3364L6.73042 13.8104C7.06909 14.147 7.51842 14.3324 7.99642 14.3324H8.00442C8.48509 14.3304 8.93576 14.141 9.27309 13.8017L9.74042 13.3351C9.95042 13.1257 10.2411 13.0057 10.5378 13.0057H11.2084C12.1984 13.0057 13.0058 12.1997 13.0078 11.2084V10.5397C13.0078 10.239 13.1244 9.95572 13.3358 9.74305L13.8098 9.26905C14.5098 8.56505 14.5058 7.42305 13.8024 6.72372Z" fill="#006AFF"/>
<path fill-rule="evenodd" clip-rule="evenodd" d="M10.3891 7.03842L7.67378 9.75509C7.57978 9.84909 7.45245 9.90176 7.31978 9.90176C7.18711 9.90176 7.05978 9.84909 6.96645 9.75509L5.64847 8.43509C5.45381 8.23909 5.45381 7.92242 5.64915 7.72709C5.84515 7.53242 6.16114 7.53309 6.35648 7.72776L7.32045 8.69376L9.68178 6.33107C9.87711 6.13574 10.1938 6.13574 10.3891 6.33107C10.5844 6.5264 10.5844 6.84309 10.3891 7.03842Z" fill="white"/>
</svg>
