<svg width="32" height="32" viewBox="0 0 32 32" fill="none" xmlns="http://www.w3.org/2000/svg">
<path fill-rule="evenodd" clip-rule="evenodd" d="M27.605 13.4477L26.673 12.5156C26.2476 12.089 26.0143 11.521 26.0143 10.9196V9.5863C26.0143 7.60097 24.3983 5.9863 22.4143 5.9863H21.0783C20.4743 5.9863 19.9076 5.75297 19.4836 5.32897L18.5356 4.3823C17.1263 2.98497 14.8436 2.99164 13.445 4.39697L12.5157 5.32897C12.0877 5.7543 11.521 5.98764 10.9184 5.98764H9.5837C7.62237 5.98897 6.02237 7.56764 5.98637 9.52231C5.98502 9.54364 5.9837 9.56497 5.9837 9.58764V10.917C5.9837 11.5196 5.75037 12.0863 5.32503 12.5116L4.38103 13.457C4.3797 13.461 4.3757 13.4623 4.37303 13.465C2.9797 14.8757 2.9917 17.1583 4.3957 18.549L5.3277 19.4837C5.7517 19.909 5.98637 20.4743 5.98637 21.077V22.417C5.98637 24.401 7.5997 26.0157 9.5837 26.0157H10.9157C11.5197 26.017 12.0864 26.2503 12.5104 26.673L13.461 27.621C14.1383 28.2943 15.037 28.665 15.993 28.665H16.009C16.9703 28.661 17.8716 28.2823 18.5463 27.6037L19.481 26.6703C19.901 26.2517 20.4823 26.0117 21.0756 26.0117H22.417C24.397 26.0117 26.0116 24.3997 26.0156 22.417V21.0797C26.0156 20.4783 26.249 19.9117 26.6716 19.4863L27.6196 18.5383C29.0196 17.1303 29.0116 14.8463 27.605 13.4477Z" fill="#006AFF"/>
<path fill-rule="evenodd" clip-rule="evenodd" d="M20.7782 14.0768L15.3476 19.5102C15.1596 19.6982 14.9049 19.8035 14.6396 19.8035C14.3742 19.8035 14.1196 19.6982 13.9329 19.5102L11.2969 16.8702C10.9076 16.4782 10.9076 15.8448 11.2983 15.4542C11.6903 15.0648 12.3223 15.0662 12.713 15.4555L14.6409 17.3875L19.3636 12.6621C19.7542 12.2715 20.3876 12.2715 20.7782 12.6621C21.1689 13.0528 21.1689 13.6862 20.7782 14.0768Z" fill="white"/>
</svg>
