<svg width="32" height="32" viewBox="0 0 32 32" fill="none" xmlns="http://www.w3.org/2000/svg">
<path fill-rule="evenodd" clip-rule="evenodd" d="M16 5C9.92439 5 5 9.92439 5 16C5 22.0744 9.92447 27 16 27C22.0756 27 27 22.0744 27 16C27 9.92439 22.0756 5 16 5ZM3 16C3 8.81983 8.81983 3 16 3C23.1801 3 29 8.81983 29 16C29 23.1788 23.1803 29 16 29C8.81975 29 3 23.1788 3 16Z" fill="#189F60"/>
<path fill-rule="evenodd" clip-rule="evenodd" d="M21.3306 12.2148C21.721 12.6053 21.721 13.2385 21.3306 13.6289L15.1736 19.786C14.7832 20.1764 14.1501 20.1765 13.7596 19.7861L10.6798 16.7076C10.2892 16.3172 10.289 15.684 10.6795 15.2935C11.0699 14.9028 11.7031 14.9027 12.0937 15.2931L14.4664 17.6648L19.9164 12.2148C20.3069 11.8242 20.9401 11.8242 21.3306 12.2148Z" fill="#189F60"/>
</svg>
