<svg width="40" height="40" viewBox="0 0 40 40" fill="none" xmlns="http://www.w3.org/2000/svg">
<path fill-rule="evenodd" clip-rule="evenodd" d="M20 4.16675C11.27 4.16675 4.16663 11.2701 4.16663 20.0001C4.16663 28.7317 11.27 35.8334 20 35.8334C28.73 35.8334 35.8333 28.7317 35.8333 20.0001C35.8333 11.2701 28.73 4.16675 20 4.16675Z" fill="#189F60"/>
<path fill-rule="evenodd" clip-rule="evenodd" d="M26.655 17.0367L18.9584 24.7333C18.7134 24.9783 18.395 25.1 18.075 25.1C17.7534 25.1 17.435 24.9783 17.19 24.7333L13.3417 20.885C12.8534 20.3967 12.8534 19.605 13.3417 19.1167C13.83 18.6283 14.62 18.6283 15.1084 19.1167L18.075 22.0817L24.8867 15.2683C25.375 14.78 26.1667 14.78 26.655 15.2683C27.1434 15.7567 27.1434 16.5483 26.655 17.0367Z" fill="white"/>
</svg>
