<svg width="48" height="48" viewBox="0 0 48 48" fill="none" xmlns="http://www.w3.org/2000/svg">
<path fill-rule="evenodd" clip-rule="evenodd" d="M24 5C13.524 5 5 13.524 5 24C5 34.478 13.524 43 24 43C34.476 43 43 34.478 43 24C43 13.524 34.476 5 24 5Z" fill="#189F60"/>
<path fill-rule="evenodd" clip-rule="evenodd" d="M31.9861 20.4441L22.7501 29.6801C22.4561 29.9741 22.0741 30.1201 21.6901 30.1201C21.3041 30.1201 20.9221 29.9741 20.6281 29.6801L16.0101 25.0621C15.4241 24.4761 15.4241 23.5261 16.0101 22.9401C16.5961 22.3541 17.5441 22.3541 18.1301 22.9401L21.6901 26.4981L29.8641 18.3221C30.4501 17.7361 31.4001 17.7361 31.9861 18.3221C32.5721 18.9081 32.5721 19.8581 31.9861 20.4441Z" fill="white"/>
</svg>
