<svg width="24" height="24" viewBox="0 0 24 24" fill="none" xmlns="http://www.w3.org/2000/svg">
<path d="M18.2627 15.8087C18.2628 15.031 18.5707 14.2837 19.1202 13.7315L19.8291 13.0216C20.3926 12.454 20.3897 11.5361 19.8213 10.9708L19.1182 10.2677C18.5694 9.71489 18.2618 8.96824 18.2618 8.18856V7.18953C18.2618 6.38904 17.612 5.73935 16.8116 5.73934H15.8086C15.0304 5.73928 14.2828 5.4315 13.7305 4.88191L13.0293 4.18074C13.0269 4.17833 13.024 4.17537 13.0215 4.17293L12.9112 4.0743C12.3403 3.6116 11.5003 3.64744 10.9707 4.17977L10.9688 4.18074L10.2666 4.88387C9.71484 5.43043 8.96912 5.74031 8.18949 5.74031H7.18949C6.38855 5.7411 5.74027 6.39022 5.74027 7.19051C5.74027 7.2033 5.73896 7.21596 5.73832 7.22859V8.1866C5.73832 8.96666 5.42912 9.71488 4.87992 10.2667L4.19535 10.9503C4.18633 10.9603 4.17696 10.9686 4.16898 10.9766C3.60613 11.5453 3.61063 12.4623 4.17875 13.0255L4.88187 13.7296C5.43064 14.281 5.74026 15.0272 5.74027 15.8067V16.8126C5.74038 17.613 6.38911 18.2618 7.18949 18.2618H8.18949C8.8698 18.2629 9.52718 18.4977 10.0508 18.9249L10.2666 19.1202L10.9629 19.8165C10.9673 19.8206 10.9723 19.8249 10.9766 19.8292C11.5441 20.3918 12.4613 20.3877 13.0245 19.8194L13.7276 19.1173C14.2792 18.5682 15.0275 18.2589 15.8067 18.2589H16.8125C17.6116 18.2593 18.2606 17.6125 18.2627 16.8126V15.8087ZM3.08793 9.93953C3.07557 9.95295 3.05666 9.97329 3.03617 10.0011C3.05411 9.9767 3.07397 9.95377 3.09477 9.93172C3.09243 9.93419 3.09031 9.93694 3.08793 9.93953ZM3.21488 9.83016C3.21024 9.83332 3.20485 9.83688 3.19926 9.8409C3.1928 9.84554 3.18482 9.85144 3.17582 9.85848L3.22172 9.82527C3.21961 9.82668 3.21718 9.8286 3.21488 9.83016ZM19.7618 8.18856C19.7618 8.57121 19.9118 8.93729 20.1807 9.20906L20.8789 9.90731C22.0337 11.0558 22.0415 12.9233 20.8936 14.0792L20.1817 14.7911L20.1807 14.7901C19.9123 15.0606 19.7628 15.4276 19.7627 15.8087V16.8136C19.7601 18.442 18.439 19.7599 16.8116 19.7589H15.8067C15.425 19.7589 15.0582 19.9101 14.7871 20.1798L14.7862 20.1788L14.087 20.878C12.9456 22.0267 11.0927 22.039 9.93656 20.9093C9.92946 20.9027 9.92193 20.8966 9.91508 20.8897L9.20805 20.1827C8.97151 19.9473 8.66095 19.8018 8.33012 19.7686L8.18656 19.7618H7.18949C5.56061 19.7618 4.24038 18.4414 4.24027 16.8126V15.8067C4.24026 15.4251 4.08844 15.0585 3.8184 14.7872L3.12016 14.088C1.96662 12.9411 1.95984 11.0775 3.10355 9.92195L3.10648 9.91805C3.1073 9.91723 3.10859 9.9169 3.10941 9.91609L3.81742 9.20711C4.0866 8.93623 4.23832 8.56933 4.23832 8.1866V7.19051C4.23832 7.16428 4.2396 7.13792 4.24223 7.11238C4.2834 5.51931 5.58618 4.24162 7.18852 4.24031H8.18949C8.57093 4.24031 8.93811 4.08862 9.21098 3.81844L9.90727 3.12117C11.0489 1.97391 12.899 1.96245 14.0557 3.08797C14.0672 3.09811 14.0791 3.10839 14.0899 3.11922L14.7881 3.81844C15.0586 4.08759 15.4259 4.23928 15.8086 4.23934H16.8116C18.4405 4.23935 19.7618 5.56061 19.7618 7.18953V8.18856Z" fill="#006AFF"/>
<path d="M14.5235 9.49698C14.8163 9.20404 15.291 9.20422 15.584 9.49698C15.8769 9.78975 15.8777 10.2646 15.585 10.5575L11.5118 14.6327C11.3711 14.7735 11.1795 14.8525 10.9805 14.8525C10.7816 14.8523 10.5908 14.7725 10.4502 14.6317L8.47367 12.6523C8.18109 12.3592 8.18086 11.8844 8.47367 11.5917C8.76678 11.299 9.24154 11.2996 9.53422 11.5927L10.9805 13.0409L14.5235 9.49698Z" fill="#006AFF"/>
</svg>
