<svg width="40" height="40" viewBox="0 0 40 40" fill="none" xmlns="http://www.w3.org/2000/svg">
<g clip-path="url(#clip0_5718_12107)">
<rect width="40" height="40" fill="url(#paint0_linear_5718_12107)"/>
<path d="M22.6348 8.22266H17.1424C16.553 8.22266 15.9878 8.45678 15.571 8.87353L13.7235 10.721C13.4735 10.9711 13.1343 11.1115 12.7807 11.1115H10.3108C8.5684 11.1115 7.69721 11.1115 7.0317 11.4506C6.44631 11.7489 5.97037 12.2248 5.6721 12.8102C5.33301 13.4757 5.33301 14.3469 5.33301 16.0893V25.9115C5.33301 27.6539 5.33301 28.5251 5.6721 29.1906C5.97037 29.776 6.44631 30.252 7.0317 30.5502C7.69721 30.8893 8.5684 30.8893 10.3108 30.8893H29.6886C31.4309 30.8893 32.3021 30.8893 32.9676 30.5502C33.553 30.252 34.029 29.776 34.3272 29.1906C34.6663 28.5251 34.6663 27.6539 34.6663 25.9115V16.0893C34.6663 14.3469 34.6663 13.4757 34.3272 12.8102C34.029 12.2248 33.553 11.7489 32.9676 11.4506C32.3021 11.1115 31.4309 11.1115 29.6886 11.1115H26.9964C26.6428 11.1115 26.3036 10.9711 26.0536 10.721L24.2061 8.87353C23.7894 8.45678 23.2241 8.22266 22.6348 8.22266Z" fill="url(#paint1_linear_5718_12107)"/>
<circle cx="30.0001" cy="15.5562" r="1.33333" fill="#FCCA00"/>
<g filter="url(#filter0_d_5718_12107)">
<path d="M19.999 14.2227C23.6809 14.2227 26.666 17.2078 26.666 20.8896C26.666 24.5715 23.6809 27.5566 19.999 27.5566C16.3173 27.5565 13.3331 24.5714 13.333 20.8896C13.333 17.2078 16.3173 14.2228 19.999 14.2227ZM19.999 15.5557C17.0537 15.5559 14.666 17.9443 14.666 20.8896C14.6661 23.8349 17.0538 26.2224 19.999 26.2227C22.9445 26.2227 25.3329 23.8351 25.333 20.8896C25.333 17.9441 22.9445 15.5557 19.999 15.5557Z" fill="url(#paint2_linear_5718_12107)"/>
</g>
</g>
<defs>
<filter id="filter0_d_5718_12107" x="12.4886" y="14.2227" width="15.0219" height="15.0229" filterUnits="userSpaceOnUse" color-interpolation-filters="sRGB">
<feFlood flood-opacity="0" result="BackgroundImageFix"/>
<feColorMatrix in="SourceAlpha" type="matrix" values="0 0 0 0 0 0 0 0 0 0 0 0 0 0 0 0 0 0 127 0" result="hardAlpha"/>
<feOffset dy="0.844444"/>
<feGaussianBlur stdDeviation="0.422222"/>
<feComposite in2="hardAlpha" operator="out"/>
<feColorMatrix type="matrix" values="0 0 0 0 0 0 0 0 0 0 0 0 0 0 0 0 0 0 0.15 0"/>
<feBlend mode="normal" in2="BackgroundImageFix" result="effect1_dropShadow_5718_12107"/>
<feBlend mode="normal" in="SourceGraphic" in2="effect1_dropShadow_5718_12107" result="shape"/>
</filter>
<linearGradient id="paint0_linear_5718_12107" x1="20" y1="0" x2="20" y2="40" gradientUnits="userSpaceOnUse">
<stop stop-color="#E5E4EB"/>
<stop offset="1" stop-color="#8F8E92"/>
</linearGradient>
<linearGradient id="paint1_linear_5718_12107" x1="19.9997" y1="8.22266" x2="19.9997" y2="30.8893" gradientUnits="userSpaceOnUse">
<stop stop-color="#2D2D2D"/>
<stop offset="1" stop-color="#2D2C2E"/>
</linearGradient>
<linearGradient id="paint2_linear_5718_12107" x1="19.9995" y1="14.2227" x2="19.9995" y2="27.5566" gradientUnits="userSpaceOnUse">
<stop stop-color="#C4C3C7"/>
<stop offset="1" stop-color="#AAA9B0"/>
</linearGradient>
<clipPath id="clip0_5718_12107">
<rect width="40" height="40" rx="8" fill="white"/>
</clipPath>
</defs>
</svg>
