<svg width="40" height="40" viewBox="0 0 40 40" fill="none" xmlns="http://www.w3.org/2000/svg">
<path d="M0 8C0 3.58172 3.58172 0 8 0H32C36.4183 0 40 3.58172 40 8V32C40 36.4183 36.4183 40 32 40H8C3.58172 40 0 36.4183 0 32V8Z" fill="#0079FE"/>
<path d="M28.7555 10.9042L9.42158 18.5449C8.47362 18.9196 8.62813 20.3063 9.6353 20.463L17.6137 21.705C18.0428 21.7718 18.3798 22.108 18.4476 22.537L19.736 30.6846C19.8912 31.6664 21.2285 31.845 21.6359 30.9383L30.0352 12.244C30.403 11.4256 29.59 10.5744 28.7555 10.9042Z" fill="white"/>
</svg>
