<svg width="40" height="40" viewBox="0 0 40 40" fill="none" xmlns="http://www.w3.org/2000/svg">
<path d="M0 8C0 3.58172 3.58172 0 8 0H32C36.4183 0 40 3.58172 40 8V32C40 36.4183 36.4183 40 32 40H8C3.58172 40 0 36.4183 0 32V8Z" fill="#1A1A1B"/>
<g clip-path="url(#clip0_8636_3054)">
<path d="M31.3333 0H8.66667C3.8802 0 0 3.8802 0 8.66667V31.3333C0 36.1198 3.8802 40 8.66667 40H31.3333C36.1198 40 40 36.1198 40 31.3333V8.66667C40 3.8802 36.1198 0 31.3333 0Z" fill="#1A1A1B"/>
<path d="M20.3333 4.33301H21.6666V35.6663H20.3333V4.33301Z" fill="#2AAEF5"/>
<path d="M19.1633 24.1663C19.0312 24.1655 18.9049 24.1124 18.8119 24.0187C18.7188 23.925 18.6666 23.7984 18.6666 23.6663V16.333C18.6666 16.2004 18.7193 16.0732 18.813 15.9795C18.9068 15.8857 19.034 15.833 19.1666 15.833C19.2992 15.833 19.4264 15.8857 19.5201 15.9795C19.6139 16.0732 19.6666 16.2004 19.6666 16.333V23.6663C19.6666 23.7323 19.6535 23.7976 19.6282 23.8585C19.6029 23.9193 19.5657 23.9746 19.519 24.0211C19.4722 24.0676 19.4167 24.1043 19.3556 24.1292C19.2946 24.1542 19.2292 24.1668 19.1633 24.1663ZM17.4966 24.833C17.3646 24.8321 17.2382 24.7791 17.1452 24.6854C17.0521 24.5917 16.9999 24.465 16.9999 24.333V15.6663C16.9999 15.5337 17.0526 15.4066 17.1464 15.3128C17.2401 15.219 17.3673 15.1663 17.4999 15.1663C17.6325 15.1663 17.7597 15.219 17.8535 15.3128C17.9472 15.4066 17.9999 15.5337 17.9999 15.6663V24.333C17.9999 24.399 17.9869 24.4642 17.9615 24.5251C17.9362 24.586 17.8991 24.6413 17.8523 24.6877C17.8055 24.7342 17.75 24.771 17.689 24.7959C17.6279 24.8208 17.5625 24.8334 17.4966 24.833ZM15.8299 30.4997C15.6979 30.4988 15.5716 30.4457 15.4785 30.3521C15.3855 30.2584 15.3332 30.1317 15.3333 29.9997V9.99967C15.3333 9.86707 15.3859 9.73989 15.4797 9.64612C15.5735 9.55235 15.7006 9.49967 15.8333 9.49967C15.9659 9.49967 16.093 9.55235 16.1868 9.64612C16.2806 9.73989 16.3333 9.86707 16.3333 9.99967V29.9997C16.3333 30.0656 16.3202 30.1309 16.2949 30.1918C16.2695 30.2527 16.2324 30.3079 16.1856 30.3544C16.1388 30.4009 16.0833 30.4376 16.0223 30.4626C15.9612 30.4875 15.8959 30.5001 15.8299 30.4997ZM12.4966 33.1663C12.3646 33.1655 12.2382 33.1124 12.1452 33.0187C12.0521 32.925 11.9999 32.7984 11.9999 32.6663V7.33301C11.9999 7.2004 12.0526 7.07322 12.1464 6.97945C12.2401 6.88569 12.3673 6.83301 12.4999 6.83301C12.6325 6.83301 12.7597 6.88569 12.8535 6.97945C12.9472 7.07322 12.9999 7.2004 12.9999 7.33301V32.6663C12.9999 32.7323 12.9869 32.7976 12.9615 32.8585C12.9362 32.9193 12.8991 32.9746 12.8523 33.0211C12.8055 33.0676 12.75 33.1043 12.689 33.1292C12.6279 33.1542 12.5625 33.1668 12.4966 33.1663ZM14.1633 29.4997C14.0312 29.4988 13.9049 29.4457 13.8119 29.3521C13.7188 29.2584 13.6666 29.1317 13.6666 28.9997V10.9997C13.6666 10.8671 13.7193 10.7399 13.813 10.6461C13.9068 10.5524 14.034 10.4997 14.1666 10.4997C14.2992 10.4997 14.4264 10.5524 14.5201 10.6461C14.6139 10.7399 14.6666 10.8671 14.6666 10.9997V28.9997C14.6666 29.0656 14.6535 29.1309 14.6282 29.1918C14.6029 29.2527 14.5657 29.3079 14.519 29.3544C14.4722 29.4009 14.4167 29.4376 14.3556 29.4626C14.2946 29.4875 14.2292 29.5001 14.1633 29.4997ZM10.8299 27.4997C10.6979 27.4988 10.5716 27.4457 10.4785 27.3521C10.3855 27.2584 10.3332 27.1317 10.3333 26.9997V12.9997C10.3333 12.8671 10.3859 12.7399 10.4797 12.6461C10.5735 12.5524 10.7006 12.4997 10.8333 12.4997C10.9659 12.4997 11.093 12.5524 11.1868 12.6461C11.2806 12.7399 11.3333 12.8671 11.3333 12.9997V26.9997C11.3333 27.0656 11.3202 27.1309 11.2949 27.1918C11.2695 27.2527 11.2324 27.3079 11.1856 27.3544C11.1388 27.4009 11.0833 27.4376 11.0223 27.4626C10.9612 27.4875 10.8959 27.5001 10.8299 27.4997ZM9.16325 25.1663C9.03122 25.1655 8.9049 25.1124 8.81185 25.0187C8.7188 24.925 8.66658 24.7984 8.66659 24.6663V15.333C8.66659 15.2004 8.71926 15.0732 8.81303 14.9795C8.9068 14.8857 9.03398 14.833 9.16659 14.833C9.29919 14.833 9.42637 14.8857 9.52014 14.9795C9.61391 15.0732 9.66659 15.2004 9.66659 15.333V24.6663C9.66659 24.7323 9.65354 24.7976 9.62821 24.8585C9.60287 24.9193 9.56575 24.9746 9.51896 25.0211C9.47218 25.0676 9.41667 25.1043 9.35562 25.1292C9.29457 25.1542 9.22919 25.1668 9.16325 25.1663ZM7.49659 21.833C7.36456 21.8321 7.23823 21.7791 7.14518 21.6854C7.05214 21.5917 6.99992 21.465 6.99992 21.333V18.6663C6.99992 18.5337 7.0526 18.4066 7.14637 18.3128C7.24013 18.219 7.36731 18.1663 7.49992 18.1663C7.63253 18.1663 7.7597 18.219 7.85347 18.3128C7.94724 18.4066 7.99992 18.5337 7.99992 18.6663V21.333C7.99992 21.399 7.98688 21.4642 7.96154 21.5251C7.93621 21.586 7.89908 21.6413 7.8523 21.6877C7.80551 21.7342 7.75 21.771 7.68895 21.7959C7.6279 21.8208 7.56253 21.8334 7.49659 21.833ZM5.82992 21.1663C5.69789 21.1655 5.57157 21.1124 5.47852 21.0187C5.38547 20.925 5.33325 20.7984 5.33325 20.6663V19.333C5.33325 19.2004 5.38593 19.0732 5.4797 18.9795C5.57347 18.8857 5.70064 18.833 5.83325 18.833C5.96586 18.833 6.09304 18.8857 6.18681 18.9795C6.28057 19.0732 6.33325 19.2004 6.33325 19.333V20.6663C6.33325 20.7323 6.32021 20.7976 6.29488 20.8585C6.26954 20.9193 6.23241 20.9746 6.18563 21.0211C6.13885 21.0676 6.08333 21.1043 6.02228 21.1292C5.96124 21.1542 5.89586 21.1668 5.82992 21.1663ZM4.16325 20.6663C4.03122 20.6655 3.9049 20.6124 3.81185 20.5187C3.7188 20.425 3.66658 20.2984 3.66659 20.1663V19.833C3.66659 19.7004 3.71926 19.5732 3.81303 19.4795C3.9068 19.3857 4.03398 19.333 4.16659 19.333C4.29919 19.333 4.42637 19.3857 4.52014 19.4795C4.61391 19.5732 4.66659 19.7004 4.66659 19.833V20.1663C4.66659 20.2323 4.65354 20.2976 4.62821 20.3585C4.60287 20.4193 4.56575 20.4746 4.51896 20.5211C4.47218 20.5676 4.41667 20.6043 4.35562 20.6292C4.29457 20.6542 4.22919 20.6668 4.16325 20.6663ZM0.829919 20.6663C0.697889 20.6655 0.571567 20.6124 0.478518 20.5187C0.38547 20.425 0.333249 20.2984 0.333252 20.1663V19.833C0.333252 19.7004 0.38593 19.5732 0.479699 19.4795C0.573467 19.3857 0.700644 19.333 0.833252 19.333C0.96586 19.333 1.09304 19.3857 1.18681 19.4795C1.28057 19.5732 1.33325 19.7004 1.33325 19.833V20.1663C1.33325 20.2323 1.32021 20.2976 1.29488 20.3585C1.26954 20.4193 1.23241 20.4746 1.18563 20.5211C1.13885 20.5676 1.08333 20.6043 1.02228 20.6292C0.961236 20.6542 0.89586 20.6668 0.829919 20.6663ZM2.49659 20.833C2.36456 20.8321 2.23823 20.7791 2.14518 20.6854C2.05214 20.5917 1.99992 20.465 1.99992 20.333V19.6663C1.99992 19.5337 2.0526 19.4066 2.14637 19.3128C2.24013 19.219 2.36731 19.1663 2.49992 19.1663C2.63253 19.1663 2.7597 19.219 2.85347 19.3128C2.94724 19.4066 2.99992 19.5337 2.99992 19.6663V20.333C2.99992 20.399 2.98688 20.4642 2.96154 20.5251C2.93621 20.586 2.89908 20.6413 2.8523 20.6877C2.80551 20.7342 2.75 20.771 2.68895 20.7959C2.6279 20.8208 2.56253 20.8334 2.49659 20.833Z" fill="#FC3D39"/>
<path d="M29.1634 21.5003C29.0314 21.4994 28.9051 21.4464 28.812 21.3527C28.719 21.259 28.6667 21.1324 28.6667 21.0003V19.0003C28.6667 18.8677 28.7194 18.7405 28.8132 18.6468C28.907 18.553 29.0341 18.5003 29.1667 18.5003C29.2994 18.5003 29.4265 18.553 29.5203 18.6468C29.6141 18.7405 29.6667 18.8677 29.6667 19.0003V21.0003C29.6667 21.0663 29.6537 21.1316 29.6284 21.1924C29.603 21.2533 29.5659 21.3086 29.5191 21.3551C29.4723 21.4015 29.4168 21.4383 29.3558 21.4632C29.2947 21.4882 29.2294 21.5008 29.1634 21.5003ZM26.1634 21.8337C26.0314 21.8328 25.9051 21.7797 25.812 21.686C25.719 21.5924 25.6667 21.4657 25.6667 21.3337V18.667C25.6667 18.5344 25.7194 18.4072 25.8132 18.3134C25.907 18.2197 26.0341 18.167 26.1667 18.167C26.2994 18.167 26.4265 18.2197 26.5203 18.3134C26.6141 18.4072 26.6667 18.5344 26.6667 18.667V21.3337C26.6667 21.3996 26.6537 21.4649 26.6284 21.5258C26.603 21.5867 26.5659 21.6419 26.5191 21.6884C26.4723 21.7349 26.4168 21.7716 26.3558 21.7966C26.2947 21.8215 26.2294 21.8341 26.1634 21.8337Z" fill="#FEFEFE"/>
<path d="M22.8299 24.8337C22.6979 24.8328 22.5716 24.7797 22.4785 24.686C22.3855 24.5924 22.3332 24.4657 22.3333 24.3337V15.667C22.3333 15.5344 22.3859 15.4072 22.4797 15.3134C22.5735 15.2197 22.7006 15.167 22.8333 15.167C22.9659 15.167 23.093 15.2197 23.1868 15.3134C23.2806 15.4072 23.3333 15.5344 23.3333 15.667V24.3337C23.3333 24.3996 23.3202 24.4649 23.2949 24.5258C23.2695 24.5867 23.2324 24.6419 23.1856 24.6884C23.1388 24.7349 23.0833 24.7716 23.0223 24.7966C22.9612 24.8215 22.8959 24.8341 22.8299 24.8337Z" fill="#C7C7CC"/>
<path d="M24.4967 22.8337C24.3646 22.8328 24.2383 22.7797 24.1453 22.686C24.0522 22.5924 24 22.4657 24 22.3337V17.667C24 17.5344 24.0527 17.4072 24.1464 17.3134C24.2402 17.2197 24.3674 17.167 24.5 17.167C24.6326 17.167 24.7598 17.2197 24.8536 17.3134C24.9473 17.4072 25 17.5344 25 17.667V22.3337C25 22.3996 24.987 22.4649 24.9616 22.5258C24.9363 22.5867 24.8992 22.6419 24.8524 22.6884C24.8056 22.7349 24.7501 22.7716 24.689 22.7966C24.628 22.8215 24.5626 22.8341 24.4967 22.8337ZM30.83 20.8337C30.698 20.8328 30.5716 20.7797 30.4786 20.686C30.3856 20.5924 30.3333 20.4657 30.3333 20.3337V19.667C30.3333 19.5344 30.386 19.4072 30.4798 19.3134C30.5735 19.2197 30.7007 19.167 30.8333 19.167C30.9659 19.167 31.0931 19.2197 31.1869 19.3134C31.2807 19.4072 31.3333 19.5344 31.3333 19.667V20.3337C31.3333 20.3996 31.3203 20.4649 31.295 20.5258C31.2696 20.5867 31.2325 20.6419 31.1857 20.6884C31.1389 20.7349 31.0834 20.7716 31.0224 20.7966C30.9613 20.8215 30.8959 20.8341 30.83 20.8337ZM27.83 21.167C27.698 21.1661 27.5716 21.113 27.4786 21.0194C27.3856 20.9257 27.3333 20.799 27.3333 20.667V19.3337C27.3333 19.2011 27.386 19.0739 27.4798 18.9801C27.5735 18.8863 27.7007 18.8337 27.8333 18.8337C27.9659 18.8337 28.0931 18.8863 28.1869 18.9801C28.2807 19.0739 28.3333 19.2011 28.3333 19.3337V20.667C28.3333 20.7329 28.3203 20.7982 28.295 20.8591C28.2696 20.92 28.2325 20.9753 28.1857 21.0217C28.1389 21.0682 28.0834 21.105 28.0224 21.1299C27.9613 21.1548 27.8959 21.1674 27.83 21.167ZM39.1633 20.667C39.0307 20.667 38.9035 20.6143 38.8098 20.5205C38.716 20.4268 38.6633 20.2996 38.6633 20.167V19.8337C38.6633 19.7011 38.716 19.5739 38.8098 19.4801C38.9035 19.3863 39.0307 19.3337 39.1633 19.3337C39.2959 19.3337 39.4231 19.3863 39.5169 19.4801C39.6107 19.5739 39.6633 19.7011 39.6633 19.8337V20.167C39.6633 20.2996 39.6107 20.4268 39.5169 20.5205C39.4231 20.6143 39.2959 20.667 39.1633 20.667ZM35.83 20.667C35.6974 20.667 35.5702 20.6143 35.4764 20.5205C35.3827 20.4268 35.33 20.2996 35.33 20.167V19.8337C35.33 19.7011 35.3827 19.5739 35.4764 19.4801C35.5702 19.3863 35.6974 19.3337 35.83 19.3337C35.9626 19.3337 36.0898 19.3863 36.1836 19.4801C36.2773 19.5739 36.33 19.7011 36.33 19.8337V20.167C36.33 20.2996 36.2773 20.4268 36.1836 20.5205C36.0898 20.6143 35.9626 20.667 35.83 20.667ZM32.4967 20.667C32.3646 20.6661 32.2383 20.613 32.1453 20.5194C32.0522 20.4257 32 20.299 32 20.167V19.8337C32 19.7011 32.0527 19.5739 32.1464 19.4801C32.2402 19.3863 32.3674 19.3337 32.5 19.3337C32.6326 19.3337 32.7598 19.3863 32.8536 19.4801C32.9473 19.5739 33 19.7011 33 19.8337V20.167C33 20.2329 32.987 20.2982 32.9616 20.3591C32.9363 20.42 32.8992 20.4753 32.8524 20.5217C32.8056 20.5682 32.7501 20.605 32.689 20.6299C32.628 20.6548 32.5626 20.6674 32.4967 20.667ZM34.1633 21.167C34.0313 21.1661 33.905 21.113 33.8119 21.0194C33.7189 20.9257 33.6667 20.799 33.6667 20.667V19.3337C33.6667 19.2011 33.7193 19.0739 33.8131 18.9801C33.9069 18.8863 34.0341 18.8337 34.1667 18.8337C34.2993 18.8337 34.4265 18.8863 34.5202 18.9801C34.614 19.0739 34.6667 19.2011 34.6667 19.3337V20.667C34.6667 20.7329 34.6536 20.7982 34.6283 20.8591C34.603 20.92 34.5658 20.9753 34.519 21.0217C34.4723 21.0682 34.4167 21.105 34.3557 21.1299C34.2947 21.1548 34.2293 21.1674 34.1633 21.167ZM37.4967 20.8337C37.3646 20.8328 37.2383 20.7797 37.1453 20.686C37.0522 20.5924 37 20.4657 37 20.3337V19.667C37 19.5344 37.0527 19.4072 37.1464 19.3134C37.2402 19.2197 37.3674 19.167 37.5 19.167C37.6326 19.167 37.7598 19.2197 37.8536 19.3134C37.9473 19.4072 38 19.5344 38 19.667V20.3337C38 20.3996 37.987 20.4649 37.9616 20.5258C37.9363 20.5867 37.8992 20.6419 37.8524 20.6884C37.8056 20.7349 37.7501 20.7716 37.689 20.7966C37.628 20.8215 37.5626 20.8341 37.4967 20.8337Z" fill="#FEFEFE"/>
<path d="M20.9967 37.0003C21.9172 37.0003 22.6634 36.2541 22.6634 35.3337C22.6634 34.4132 21.9172 33.667 20.9967 33.667C20.0763 33.667 19.3301 34.4132 19.3301 35.3337C19.3301 36.2541 20.0763 37.0003 20.9967 37.0003Z" fill="#2AAEF5"/>
<path d="M20.9966 6.33333C21.9171 6.33333 22.6633 5.58714 22.6633 4.66667C22.6633 3.74619 21.9171 3 20.9966 3C20.0761 3 19.33 3.74619 19.33 4.66667C19.33 5.58714 20.0761 6.33333 20.9966 6.33333Z" fill="#2AAEF5"/>
</g>
<defs>
<clipPath id="clip0_8636_3054">
<rect width="40" height="40" fill="white"/>
</clipPath>
</defs>
</svg>
