<svg width="40" height="40" viewBox="0 0 40 40" fill="none" xmlns="http://www.w3.org/2000/svg">
<path d="M0 8C0 3.58172 3.58172 0 8 0H32C36.4183 0 40 3.58172 40 8V32C40 36.4183 36.4183 40 32 40H8C3.58172 40 0 36.4183 0 32V8Z" fill="#0079FE"/>
<path d="M12 25.7113C12 29.1925 14.0486 33 19.4978 33C22.3248 33 24.1276 31.9122 25.6435 30.0991C27.1594 28.286 27.856 26.1102 28.7164 24.007C29.5768 21.9038 31.1337 19.9819 31.5434 19.7281C31.9531 19.4742 32.4857 18.7852 31.1337 18.5677C29.7816 18.3501 28.1018 19.1116 27.5692 20.3445C27.0365 21.5774 26.5858 22.4477 26.0942 22.3752C25.6025 22.3027 25.3977 21.9038 25.3977 21.0698V9.97351C25.3977 8.99449 24.7012 8.59554 24.1276 8.59554C23.554 8.59554 22.6936 8.84938 22.6936 9.75593V19.3292C22.6936 19.8804 22.475 19.994 22.3658 19.9819C22.1336 19.9698 21.6693 19.8223 21.6693 19.3292V8.84938C21.6693 7.79777 21.3415 7 20.4401 7C19.5388 7 19.0471 7.61646 19.0471 8.84938V19.1116C19.0471 19.6918 18.692 19.7643 18.5145 19.7281C18.3506 19.7281 18.0228 19.6048 18.0228 19.1116V8.84938C18.0228 7.97908 17.2853 7.61646 16.6707 7.61646C16.0562 7.61646 15.3597 7.94282 15.3597 8.84938V19.7281C15.3597 20.127 15.2367 20.3445 14.827 20.3445C14.4173 20.3445 14.2944 20.1995 14.2944 19.7281V11.9316C14.2944 11.17 13.5979 10.9525 13.2291 10.9525C12.8604 10.9525 12 10.88 12 11.9316V25.7113Z" fill="white"/>
</svg>
