<svg width="40" height="40" viewBox="0 0 40 40" fill="none" xmlns="http://www.w3.org/2000/svg">
<g clip-path="url(#clip0_5718_12108)">
<rect width="40" height="40" rx="8" fill="#E9E9EB"/>
<rect width="40" height="40" fill="url(#paint0_linear_5718_12108)"/>
<path d="M19.9962 37.3325C29.5691 37.3325 37.3295 29.5721 37.3295 19.9992C37.3295 10.4262 29.5691 2.66583 19.9962 2.66583C10.4232 2.66583 2.66284 10.4262 2.66284 19.9992C2.66284 29.5721 10.4232 37.3325 19.9962 37.3325Z" fill="#2E2E30"/>
<path d="M21.1635 10.7724C21.2076 10.7786 21.2516 10.7848 21.2956 10.791C21.3836 10.8034 21.5156 10.8219 21.6037 10.8343L22.0849 9.64524C22.2286 9.26151 22.3105 9.31789 22.305 9.67617L22.2638 10.9271C22.3959 10.9456 22.5657 11.0144 22.6978 11.0329L23.3049 9.90646C23.4864 9.57292 23.5744 9.58529 23.5188 9.9814L23.3016 11.2075C23.4274 11.2701 23.5973 11.3389 23.7293 11.3574L24.4561 10.3375C24.6816 10.0102 24.7635 10.0666 24.6638 10.4565L24.3146 11.6641C24.4404 11.7267 24.6103 11.7954 24.7299 11.902L25.5386 10.9385C25.8019 10.6613 25.8838 10.7177 25.7463 11.0574L25.265 12.2465C25.3846 12.353 25.5105 12.4156 25.6302 12.5222L26.5585 11.6653C26.8658 11.3943 26.9477 11.4507 26.76 11.8282L26.159 12.9107C26.2787 13.0173 26.3983 13.1239 26.474 13.2242L27.5158 12.5179C27.817 12.291 27.8988 12.3473 27.6733 12.6747L26.8901 13.7764C27.0098 13.883 27.0854 13.9834 27.1989 14.134L28.3101 13.5721C28.6491 13.3953 28.731 13.4517 28.4614 13.7729L27.615 14.6862C27.6906 14.7866 27.8041 14.9371 27.8736 15.0816L29.0605 14.62C29.4373 14.4935 29.469 14.5877 29.1678 14.8146L28.2016 15.6214C28.2711 15.7658 28.3406 15.9102 28.41 16.0546L29.6224 15.7313C29.9931 15.6487 30.0247 15.7429 29.7297 15.9259L28.6879 16.6322C28.7574 16.7766 28.7828 16.9148 28.8523 17.0592L30.0901 16.8741C30.4546 16.8356 30.5302 16.936 30.1472 17.1066L29.036 17.6685C29.0614 17.8067 29.1309 17.9511 29.1502 18.1334L30.3632 18.1243C30.7655 18.136 30.7531 18.224 30.4203 18.3568L29.2836 18.7805C29.3091 18.9187 29.3283 19.1009 29.3538 19.2391L30.5923 19.3683C30.9884 19.424 30.9761 19.512 30.6054 19.5946L29.3992 19.8739C29.4247 20.0121 29.4 20.1881 29.3814 20.3202L30.5512 20.6192C30.9411 20.7189 30.9287 20.8069 30.5202 20.8393L29.2886 20.9803C29.2701 21.1124 29.2453 21.2884 29.2268 21.4205C29.2268 21.4205 29.2268 21.4205 29.2206 21.4645L30.378 21.8515C30.7617 21.9952 30.7493 22.0833 30.347 22.0716L29.134 22.0806C29.1092 22.2567 29.0467 22.3825 29.0219 22.5586L30.1106 23.1155C30.4441 23.297 30.4317 23.3851 30.0356 23.3294L28.8473 23.1624C28.7847 23.2882 28.76 23.4643 28.6974 23.5901L29.7235 24.2729C30.0509 24.4984 29.9945 24.5803 29.6486 24.4868L28.4788 24.1877C28.4162 24.3136 28.3475 24.4834 28.2849 24.6093L29.2044 25.4117C29.4816 25.6751 29.4692 25.7631 29.0855 25.6194L27.9783 25.1945C27.8717 25.3142 27.8029 25.4841 27.6963 25.6037L28.5154 26.4818C28.7926 26.7452 28.73 26.871 28.3525 26.6833L27.2446 25.9442C27.138 26.0638 27.0314 26.1835 26.9248 26.3032L27.6435 27.2569C27.8705 27.5581 27.8141 27.6399 27.4867 27.4144L26.5047 26.7378C26.3981 26.8575 26.2915 26.9771 26.1471 27.0466L26.7654 28.076C26.9422 28.415 26.8858 28.4969 26.5646 28.2273L25.6451 27.4249C25.4946 27.5384 25.3942 27.614 25.2498 27.6835L25.7237 28.7823C25.8942 29.1654 25.8 29.197 25.529 28.8896L24.71 28.0115C24.5655 28.081 24.4211 28.1505 24.2767 28.2199L24.6062 29.3883C24.7328 29.7651 24.6386 29.7968 24.4116 29.4956L23.7431 28.504C23.5987 28.5735 23.4543 28.6429 23.2659 28.7062L23.4572 29.9C23.5397 30.2707 23.4455 30.3023 23.2247 29.9571L22.6566 28.8899C22.5184 28.9153 22.33 28.9786 22.1918 29.0041L22.251 30.1793C22.2833 30.5878 22.1513 30.5692 22.0186 30.2364L21.5763 29.2317C21.4381 29.2572 21.2558 29.2765 21.1176 29.3019L21.0386 30.5026C21.027 30.9049 20.895 30.8863 20.8124 30.5157L20.4829 29.3474C20.3447 29.3728 20.1686 29.3481 19.9864 29.3673L19.7314 30.5433C19.6757 30.9394 19.5437 30.9208 19.5051 30.5564L19.4081 29.3309C19.232 29.3062 19.1 29.2876 18.9177 29.3069L18.5307 30.4643C18.387 30.848 18.299 30.8357 18.3106 30.4334L18.3016 29.2203C18.1255 29.1956 17.9935 29.177 17.8236 29.1083L17.3107 30.2031C17.1732 30.5428 17.0412 30.5243 17.0968 30.1282L17.2198 28.9336C17.05 28.8649 16.9179 28.8463 16.7921 28.7838L16.1093 29.8098C15.9278 30.1434 15.7958 30.1248 15.8954 29.7349L16.1505 28.559C16.0246 28.4964 15.8548 28.4276 15.7289 28.3651L14.9643 29.3348C14.7388 29.6621 14.6129 29.5995 14.7566 29.2158L15.1437 28.0584C15.0178 27.9958 14.8981 27.8893 14.7283 27.8205L13.844 28.6836C13.5806 28.9608 13.4988 28.9044 13.6363 28.5647L14.1932 27.476C14.0736 27.3694 13.9539 27.2629 13.8281 27.2003L12.8681 27.963C12.5669 28.19 12.4851 28.1336 12.7106 27.8062L13.3934 26.7802C13.2738 26.6736 13.1541 26.567 13.0846 26.4226L12.0676 26.9529C11.7224 27.1736 11.6467 27.0732 11.9101 26.7961L12.6747 25.8264C12.5551 25.7198 12.4856 25.5754 12.4099 25.475L11.3049 25.9929C10.9659 26.1697 10.8902 26.0693 11.1536 25.7921L12.0379 24.929C11.9684 24.7846 11.8927 24.6842 11.8233 24.5398L10.6487 24.9133C10.2719 25.0399 10.2403 24.9457 10.5414 24.7187L11.5454 23.9622C11.4759 23.8178 11.4065 23.6734 11.381 23.5352L10.181 23.7705C9.81037 23.853 9.77873 23.7588 10.1239 23.538L11.1973 22.9259C11.1279 22.7815 11.1024 22.6433 11.077 22.5051L9.76351 22.5897C9.35503 22.6221 9.32339 22.5279 9.70641 22.3573L10.8493 21.8896C10.8238 21.7514 10.8046 21.5691 10.7791 21.4309L9.52822 21.3898C9.12593 21.3781 9.1383 21.2901 9.51514 21.1635L10.6897 20.79C10.6642 20.6518 10.6889 20.4757 10.6635 20.3375L9.43734 20.1203C9.04124 20.0646 9.05979 19.9326 9.42426 19.8941L10.6683 19.665C10.6868 19.5329 10.6675 19.3507 10.6861 19.2187L9.4785 18.8694C9.08858 18.7697 9.10714 18.6377 9.50943 18.6494L10.7727 18.6025C10.7912 18.4705 10.816 18.2944 10.8345 18.1624L9.68952 17.6873C9.3498 17.5498 9.36835 17.4177 9.76446 17.4734L11.0092 17.5586C11.0277 17.4266 11.0965 17.2567 11.159 17.1308L10.0766 16.5299C9.74305 16.3484 9.75542 16.2604 10.1515 16.316L11.3777 16.5332C11.4402 16.4074 11.509 16.2375 11.5716 16.1117L10.5517 15.3849C10.2243 15.1593 10.2807 15.0775 10.6706 15.1772L11.872 15.5704C11.9346 15.4446 12.0412 15.3249 12.1038 15.1991L11.1904 14.3526C10.9133 14.0893 10.9697 14.0074 11.3094 14.1449L12.4482 14.664C12.5548 14.5444 12.6174 14.4185 12.724 14.2988L11.9172 13.3327C11.6463 13.0254 11.7467 12.9497 12.074 13.1752L13.1503 13.8202C13.2569 13.7005 13.3573 13.6249 13.4638 13.5052L12.7637 12.4194C12.5429 12.0742 12.6371 12.0426 12.9205 12.2619L13.9342 13.0327C14.0408 12.9131 14.1852 12.8436 14.2917 12.7239L13.7484 11.4807C13.5716 11.1416 13.672 11.066 13.9492 11.3294L14.8563 12.2198C14.9567 12.1442 15.1011 12.0747 15.2455 12.0052L14.828 10.8245C14.7014 10.4477 14.7956 10.416 15.0226 10.7172L15.8231 11.7274C15.9675 11.6579 16.1119 11.5884 16.2123 11.5128L15.9392 10.2626C15.8567 9.89195 15.9509 9.86031 16.1778 10.1615L16.834 11.2411C16.9784 11.1716 17.1166 11.1462 17.2548 11.1207L17.1199 9.84508C17.0876 9.4366 17.1818 9.40496 17.3524 9.78798L17.8641 10.9371C18.0023 10.9116 18.1405 10.8861 18.2787 10.8607L18.3199 9.6098C18.3316 9.2075 18.4196 9.21987 18.5461 9.59671L18.9135 10.8152C19.0517 10.7898 19.2339 10.7705 19.366 10.7891L19.5453 9.51273C19.601 9.11662 19.689 9.129 19.7716 9.49965L20.0447 10.7498C20.1767 10.7684 20.359 10.7491 20.491 10.7677L20.7962 9.55389C20.8959 9.16397 20.9839 9.17634 21.0163 9.58482L21.1635 10.7724ZM18.9327 27.6035C23.1139 28.1912 26.9791 25.2785 27.5667 21.0974C28.1543 16.9163 25.2417 13.0511 21.0605 12.4634C16.8794 11.8758 12.9764 14.7383 12.3888 18.9194C11.8011 23.1005 14.7516 27.0159 18.9327 27.6035Z" fill="black"/>
<path d="M21.1635 10.7724C21.2076 10.7786 21.2516 10.7848 21.2956 10.791C21.3836 10.8034 21.5156 10.8219 21.6037 10.8343L22.0849 9.64524C22.2286 9.26151 22.3105 9.31789 22.305 9.67617L22.2638 10.9271C22.3959 10.9456 22.5657 11.0144 22.6978 11.0329L23.3049 9.90646C23.4864 9.57292 23.5744 9.58529 23.5188 9.9814L23.3016 11.2075C23.4274 11.2701 23.5973 11.3389 23.7293 11.3574L24.4561 10.3375C24.6816 10.0102 24.7635 10.0666 24.6638 10.4565L24.3146 11.6641C24.4404 11.7267 24.6103 11.7954 24.7299 11.902L25.5386 10.9385C25.8019 10.6613 25.8838 10.7177 25.7463 11.0574L25.265 12.2465C25.3846 12.353 25.5105 12.4156 25.6302 12.5222L26.5585 11.6653C26.8658 11.3943 26.9477 11.4507 26.76 11.8282L26.159 12.9107C26.2787 13.0173 26.3983 13.1239 26.474 13.2242L27.5158 12.5179C27.817 12.291 27.8988 12.3473 27.6733 12.6747L26.8901 13.7764C27.0098 13.883 27.0854 13.9834 27.1989 14.134L28.3101 13.5721C28.6491 13.3953 28.731 13.4517 28.4614 13.7729L27.615 14.6862C27.6906 14.7866 27.8041 14.9371 27.8736 15.0816L29.0605 14.62C29.4373 14.4935 29.469 14.5877 29.1678 14.8146L28.2016 15.6214C28.2711 15.7658 28.3406 15.9102 28.41 16.0546L29.6224 15.7313C29.9931 15.6487 30.0247 15.7429 29.7297 15.9259L28.6879 16.6322C28.7574 16.7766 28.7828 16.9148 28.8523 17.0592L30.0901 16.8741C30.4546 16.8356 30.5302 16.936 30.1472 17.1066L29.036 17.6685C29.0614 17.8067 29.1309 17.9511 29.1502 18.1334L30.3632 18.1243C30.7655 18.136 30.7531 18.224 30.4203 18.3568L29.2836 18.7805C29.3091 18.9187 29.3283 19.1009 29.3538 19.2391L30.5923 19.3683C30.9884 19.424 30.9761 19.512 30.6054 19.5946L29.3992 19.8739C29.4247 20.0121 29.4 20.1881 29.3814 20.3202L30.5512 20.6192C30.9411 20.7189 30.9287 20.8069 30.5202 20.8393L29.2886 20.9803C29.2701 21.1124 29.2453 21.2884 29.2268 21.4205C29.2268 21.4205 29.2268 21.4205 29.2206 21.4645L30.378 21.8515C30.7617 21.9952 30.7493 22.0833 30.347 22.0716L29.134 22.0806C29.1092 22.2567 29.0467 22.3825 29.0219 22.5586L30.1106 23.1155C30.4441 23.297 30.4317 23.3851 30.0356 23.3294L28.8473 23.1624C28.7847 23.2882 28.76 23.4643 28.6974 23.5901L29.7235 24.2729C30.0509 24.4984 29.9945 24.5803 29.6486 24.4868L28.4788 24.1877C28.4162 24.3136 28.3475 24.4834 28.2849 24.6093L29.2044 25.4117C29.4816 25.6751 29.4692 25.7631 29.0855 25.6194L27.9783 25.1945C27.8717 25.3142 27.8029 25.4841 27.6963 25.6037L28.5154 26.4818C28.7926 26.7452 28.73 26.871 28.3525 26.6833L27.2446 25.9442C27.138 26.0638 27.0314 26.1835 26.9248 26.3032L27.6435 27.2569C27.8705 27.5581 27.8141 27.6399 27.4867 27.4144L26.5047 26.7378C26.3981 26.8575 26.2915 26.9771 26.1471 27.0466L26.7654 28.076C26.9422 28.415 26.8858 28.4969 26.5646 28.2273L25.6451 27.4249C25.4946 27.5384 25.3942 27.614 25.2498 27.6835L25.7237 28.7823C25.8942 29.1654 25.8 29.197 25.529 28.8896L24.71 28.0115C24.5655 28.081 24.4211 28.1505 24.2767 28.2199L24.6062 29.3883C24.7328 29.7651 24.6386 29.7968 24.4116 29.4956L23.7431 28.504C23.5987 28.5735 23.4543 28.6429 23.2659 28.7062L23.4572 29.9C23.5397 30.2707 23.4455 30.3023 23.2247 29.9571L22.6566 28.8899C22.5184 28.9153 22.33 28.9786 22.1918 29.0041L22.251 30.1793C22.2833 30.5878 22.1513 30.5692 22.0186 30.2364L21.5763 29.2317C21.4381 29.2572 21.2558 29.2765 21.1176 29.3019L21.0386 30.5026C21.027 30.9049 20.895 30.8863 20.8124 30.5157L20.4829 29.3474C20.3447 29.3728 20.1686 29.3481 19.9864 29.3673L19.7314 30.5433C19.6757 30.9394 19.5437 30.9208 19.5051 30.5564L19.4081 29.3309C19.232 29.3062 19.1 29.2876 18.9177 29.3069L18.5307 30.4643C18.387 30.848 18.299 30.8357 18.3106 30.4334L18.3016 29.2203C18.1255 29.1956 17.9935 29.177 17.8236 29.1083L17.3107 30.2031C17.1732 30.5428 17.0412 30.5243 17.0968 30.1282L17.2198 28.9336C17.05 28.8649 16.9179 28.8463 16.7921 28.7838L16.1093 29.8098C15.9278 30.1434 15.7958 30.1248 15.8954 29.7349L16.1505 28.559C16.0246 28.4964 15.8548 28.4276 15.7289 28.3651L14.9643 29.3348C14.7388 29.6621 14.6129 29.5995 14.7566 29.2158L15.1437 28.0584C15.0178 27.9958 14.8981 27.8893 14.7283 27.8205L13.844 28.6836C13.5806 28.9608 13.4988 28.9044 13.6363 28.5647L14.1932 27.476C14.0736 27.3694 13.9539 27.2629 13.8281 27.2003L12.8681 27.963C12.5669 28.19 12.4851 28.1336 12.7106 27.8062L13.3934 26.7802C13.2738 26.6736 13.1541 26.567 13.0846 26.4226L12.0676 26.9529C11.7224 27.1736 11.6467 27.0732 11.9101 26.7961L12.6747 25.8264C12.5551 25.7198 12.4856 25.5754 12.4099 25.475L11.3049 25.9929C10.9659 26.1697 10.8902 26.0693 11.1536 25.7921L12.0379 24.929C11.9684 24.7846 11.8927 24.6842 11.8233 24.5398L10.6487 24.9133C10.2719 25.0399 10.2403 24.9457 10.5414 24.7187L11.5454 23.9622C11.4759 23.8178 11.4065 23.6734 11.381 23.5352L10.181 23.7705C9.81037 23.853 9.77873 23.7588 10.1239 23.538L11.1973 22.9259C11.1279 22.7815 11.1024 22.6433 11.077 22.5051L9.76351 22.5897C9.35503 22.6221 9.32339 22.5279 9.70641 22.3573L10.8493 21.8896C10.8238 21.7514 10.8046 21.5691 10.7791 21.4309L9.52822 21.3898C9.12593 21.3781 9.1383 21.2901 9.51514 21.1635L10.6897 20.79C10.6642 20.6518 10.6889 20.4757 10.6635 20.3375L9.43734 20.1203C9.04124 20.0646 9.05979 19.9326 9.42426 19.8941L10.6683 19.665C10.6868 19.5329 10.6675 19.3507 10.6861 19.2187L9.4785 18.8694C9.08858 18.7697 9.10714 18.6377 9.50943 18.6494L10.7727 18.6025C10.7912 18.4705 10.816 18.2944 10.8345 18.1624L9.68952 17.6873C9.3498 17.5498 9.36835 17.4177 9.76446 17.4734L11.0092 17.5586C11.0277 17.4266 11.0965 17.2567 11.159 17.1308L10.0766 16.5299C9.74305 16.3484 9.75542 16.2604 10.1515 16.316L11.3777 16.5332C11.4402 16.4074 11.509 16.2375 11.5716 16.1117L10.5517 15.3849C10.2243 15.1593 10.2807 15.0775 10.6706 15.1772L11.872 15.5704C11.9346 15.4446 12.0412 15.3249 12.1038 15.1991L11.1904 14.3526C10.9133 14.0893 10.9697 14.0074 11.3094 14.1449L12.4482 14.664C12.5548 14.5444 12.6174 14.4185 12.724 14.2988L11.9172 13.3327C11.6463 13.0254 11.7467 12.9497 12.074 13.1752L13.1503 13.8202C13.2569 13.7005 13.3573 13.6249 13.4638 13.5052L12.7637 12.4194C12.5429 12.0742 12.6371 12.0426 12.9205 12.2619L13.9342 13.0327C14.0408 12.9131 14.1852 12.8436 14.2917 12.7239L13.7484 11.4807C13.5716 11.1416 13.672 11.066 13.9492 11.3294L14.8563 12.2198C14.9567 12.1442 15.1011 12.0747 15.2455 12.0052L14.828 10.8245C14.7014 10.4477 14.7956 10.416 15.0226 10.7172L15.8231 11.7274C15.9675 11.6579 16.1119 11.5884 16.2123 11.5128L15.9392 10.2626C15.8567 9.89195 15.9509 9.86031 16.1778 10.1615L16.834 11.2411C16.9784 11.1716 17.1166 11.1462 17.2548 11.1207L17.1199 9.84508C17.0876 9.4366 17.1818 9.40496 17.3524 9.78798L17.8641 10.9371C18.0023 10.9116 18.1405 10.8861 18.2787 10.8607L18.3199 9.6098C18.3316 9.2075 18.4196 9.21987 18.5461 9.59671L18.9135 10.8152C19.0517 10.7898 19.2339 10.7705 19.366 10.7891L19.5453 9.51273C19.601 9.11662 19.689 9.129 19.7716 9.49965L20.0447 10.7498C20.1767 10.7684 20.359 10.7491 20.491 10.7677L20.7962 9.55389C20.8959 9.16397 20.9839 9.17634 21.0163 9.58482L21.1635 10.7724ZM18.9327 27.6035C23.1139 28.1912 26.9791 25.2785 27.5667 21.0974C28.1543 16.9163 25.2417 13.0511 21.0605 12.4634C16.8794 11.8758 12.9764 14.7383 12.3888 18.9194C11.8011 23.1005 14.7516 27.0159 18.9327 27.6035Z" fill="#7F7F7F"/>
<path d="M21.1635 10.7724C21.2076 10.7786 21.2516 10.7848 21.2956 10.791C21.3836 10.8034 21.5156 10.8219 21.6037 10.8343L22.0849 9.64524C22.2286 9.26151 22.3105 9.31789 22.305 9.67617L22.2638 10.9271C22.3959 10.9456 22.5657 11.0144 22.6978 11.0329L23.3049 9.90646C23.4864 9.57292 23.5744 9.58529 23.5188 9.9814L23.3016 11.2075C23.4274 11.2701 23.5973 11.3389 23.7293 11.3574L24.4561 10.3375C24.6816 10.0102 24.7635 10.0666 24.6638 10.4565L24.3146 11.6641C24.4404 11.7267 24.6103 11.7954 24.7299 11.902L25.5386 10.9385C25.8019 10.6613 25.8838 10.7177 25.7463 11.0574L25.265 12.2465C25.3846 12.353 25.5105 12.4156 25.6302 12.5222L26.5585 11.6653C26.8658 11.3943 26.9477 11.4507 26.76 11.8282L26.159 12.9107C26.2787 13.0173 26.3983 13.1239 26.474 13.2242L27.5158 12.5179C27.817 12.291 27.8988 12.3473 27.6733 12.6747L26.8901 13.7764C27.0098 13.883 27.0854 13.9834 27.1989 14.134L28.3101 13.5721C28.6491 13.3953 28.731 13.4517 28.4614 13.7729L27.615 14.6862C27.6906 14.7866 27.8041 14.9371 27.8736 15.0816L29.0605 14.62C29.4373 14.4935 29.469 14.5877 29.1678 14.8146L28.2016 15.6214C28.2711 15.7658 28.3406 15.9102 28.41 16.0546L29.6224 15.7313C29.9931 15.6487 30.0247 15.7429 29.7297 15.9259L28.6879 16.6322C28.7574 16.7766 28.7828 16.9148 28.8523 17.0592L30.0901 16.8741C30.4546 16.8356 30.5302 16.936 30.1472 17.1066L29.036 17.6685C29.0614 17.8067 29.1309 17.9511 29.1502 18.1334L30.3632 18.1243C30.7655 18.136 30.7531 18.224 30.4203 18.3568L29.2836 18.7805C29.3091 18.9187 29.3283 19.1009 29.3538 19.2391L30.5923 19.3683C30.9884 19.424 30.9761 19.512 30.6054 19.5946L29.3992 19.8739C29.4247 20.0121 29.4 20.1881 29.3814 20.3202L30.5512 20.6192C30.9411 20.7189 30.9287 20.8069 30.5202 20.8393L29.2886 20.9803C29.2701 21.1124 29.2453 21.2884 29.2268 21.4205C29.2268 21.4205 29.2268 21.4205 29.2206 21.4645L30.378 21.8515C30.7617 21.9952 30.7493 22.0833 30.347 22.0716L29.134 22.0806C29.1092 22.2567 29.0467 22.3825 29.0219 22.5586L30.1106 23.1155C30.4441 23.297 30.4317 23.3851 30.0356 23.3294L28.8473 23.1624C28.7847 23.2882 28.76 23.4643 28.6974 23.5901L29.7235 24.2729C30.0509 24.4984 29.9945 24.5803 29.6486 24.4868L28.4788 24.1877C28.4162 24.3136 28.3475 24.4834 28.2849 24.6093L29.2044 25.4117C29.4816 25.6751 29.4692 25.7631 29.0855 25.6194L27.9783 25.1945C27.8717 25.3142 27.8029 25.4841 27.6963 25.6037L28.5154 26.4818C28.7926 26.7452 28.73 26.871 28.3525 26.6833L27.2446 25.9442C27.138 26.0638 27.0314 26.1835 26.9248 26.3032L27.6435 27.2569C27.8705 27.5581 27.8141 27.6399 27.4867 27.4144L26.5047 26.7378C26.3981 26.8575 26.2915 26.9771 26.1471 27.0466L26.7654 28.076C26.9422 28.415 26.8858 28.4969 26.5646 28.2273L25.6451 27.4249C25.4946 27.5384 25.3942 27.614 25.2498 27.6835L25.7237 28.7823C25.8942 29.1654 25.8 29.197 25.529 28.8896L24.71 28.0115C24.5655 28.081 24.4211 28.1505 24.2767 28.2199L24.6062 29.3883C24.7328 29.7651 24.6386 29.7968 24.4116 29.4956L23.7431 28.504C23.5987 28.5735 23.4543 28.6429 23.2659 28.7062L23.4572 29.9C23.5397 30.2707 23.4455 30.3023 23.2247 29.9571L22.6566 28.8899C22.5184 28.9153 22.33 28.9786 22.1918 29.0041L22.251 30.1793C22.2833 30.5878 22.1513 30.5692 22.0186 30.2364L21.5763 29.2317C21.4381 29.2572 21.2558 29.2765 21.1176 29.3019L21.0386 30.5026C21.027 30.9049 20.895 30.8863 20.8124 30.5157L20.4829 29.3474C20.3447 29.3728 20.1686 29.3481 19.9864 29.3673L19.7314 30.5433C19.6757 30.9394 19.5437 30.9208 19.5051 30.5564L19.4081 29.3309C19.232 29.3062 19.1 29.2876 18.9177 29.3069L18.5307 30.4643C18.387 30.848 18.299 30.8357 18.3106 30.4334L18.3016 29.2203C18.1255 29.1956 17.9935 29.177 17.8236 29.1083L17.3107 30.2031C17.1732 30.5428 17.0412 30.5243 17.0968 30.1282L17.2198 28.9336C17.05 28.8649 16.9179 28.8463 16.7921 28.7838L16.1093 29.8098C15.9278 30.1434 15.7958 30.1248 15.8954 29.7349L16.1505 28.559C16.0246 28.4964 15.8548 28.4276 15.7289 28.3651L14.9643 29.3348C14.7388 29.6621 14.6129 29.5995 14.7566 29.2158L15.1437 28.0584C15.0178 27.9958 14.8981 27.8893 14.7283 27.8205L13.844 28.6836C13.5806 28.9608 13.4988 28.9044 13.6363 28.5647L14.1932 27.476C14.0736 27.3694 13.9539 27.2629 13.8281 27.2003L12.8681 27.963C12.5669 28.19 12.4851 28.1336 12.7106 27.8062L13.3934 26.7802C13.2738 26.6736 13.1541 26.567 13.0846 26.4226L12.0676 26.9529C11.7224 27.1736 11.6467 27.0732 11.9101 26.7961L12.6747 25.8264C12.5551 25.7198 12.4856 25.5754 12.4099 25.475L11.3049 25.9929C10.9659 26.1697 10.8902 26.0693 11.1536 25.7921L12.0379 24.929C11.9684 24.7846 11.8927 24.6842 11.8233 24.5398L10.6487 24.9133C10.2719 25.0399 10.2403 24.9457 10.5414 24.7187L11.5454 23.9622C11.4759 23.8178 11.4065 23.6734 11.381 23.5352L10.181 23.7705C9.81037 23.853 9.77873 23.7588 10.1239 23.538L11.1973 22.9259C11.1279 22.7815 11.1024 22.6433 11.077 22.5051L9.76351 22.5897C9.35503 22.6221 9.32339 22.5279 9.70641 22.3573L10.8493 21.8896C10.8238 21.7514 10.8046 21.5691 10.7791 21.4309L9.52822 21.3898C9.12593 21.3781 9.1383 21.2901 9.51514 21.1635L10.6897 20.79C10.6642 20.6518 10.6889 20.4757 10.6635 20.3375L9.43734 20.1203C9.04124 20.0646 9.05979 19.9326 9.42426 19.8941L10.6683 19.665C10.6868 19.5329 10.6675 19.3507 10.6861 19.2187L9.4785 18.8694C9.08858 18.7697 9.10714 18.6377 9.50943 18.6494L10.7727 18.6025C10.7912 18.4705 10.816 18.2944 10.8345 18.1624L9.68952 17.6873C9.3498 17.5498 9.36835 17.4177 9.76446 17.4734L11.0092 17.5586C11.0277 17.4266 11.0965 17.2567 11.159 17.1308L10.0766 16.5299C9.74305 16.3484 9.75542 16.2604 10.1515 16.316L11.3777 16.5332C11.4402 16.4074 11.509 16.2375 11.5716 16.1117L10.5517 15.3849C10.2243 15.1593 10.2807 15.0775 10.6706 15.1772L11.872 15.5704C11.9346 15.4446 12.0412 15.3249 12.1038 15.1991L11.1904 14.3526C10.9133 14.0893 10.9697 14.0074 11.3094 14.1449L12.4482 14.664C12.5548 14.5444 12.6174 14.4185 12.724 14.2988L11.9172 13.3327C11.6463 13.0254 11.7467 12.9497 12.074 13.1752L13.1503 13.8202C13.2569 13.7005 13.3573 13.6249 13.4638 13.5052L12.7637 12.4194C12.5429 12.0742 12.6371 12.0426 12.9205 12.2619L13.9342 13.0327C14.0408 12.9131 14.1852 12.8436 14.2917 12.7239L13.7484 11.4807C13.5716 11.1416 13.672 11.066 13.9492 11.3294L14.8563 12.2198C14.9567 12.1442 15.1011 12.0747 15.2455 12.0052L14.828 10.8245C14.7014 10.4477 14.7956 10.416 15.0226 10.7172L15.8231 11.7274C15.9675 11.6579 16.1119 11.5884 16.2123 11.5128L15.9392 10.2626C15.8567 9.89195 15.9509 9.86031 16.1778 10.1615L16.834 11.2411C16.9784 11.1716 17.1166 11.1462 17.2548 11.1207L17.1199 9.84508C17.0876 9.4366 17.1818 9.40496 17.3524 9.78798L17.8641 10.9371C18.0023 10.9116 18.1405 10.8861 18.2787 10.8607L18.3199 9.6098C18.3316 9.2075 18.4196 9.21987 18.5461 9.59671L18.9135 10.8152C19.0517 10.7898 19.2339 10.7705 19.366 10.7891L19.5453 9.51273C19.601 9.11662 19.689 9.129 19.7716 9.49965L20.0447 10.7498C20.1767 10.7684 20.359 10.7491 20.491 10.7677L20.7962 9.55389C20.8959 9.16397 20.9839 9.17634 21.0163 9.58482L21.1635 10.7724ZM18.9327 27.6035C23.1139 28.1912 26.9791 25.2785 27.5667 21.0974C28.1543 16.9163 25.2417 13.0511 21.0605 12.4634C16.8794 11.8758 12.9764 14.7383 12.3888 18.9194C11.8011 23.1005 14.7516 27.0159 18.9327 27.6035Z" fill="#B4B4B9"/>
<path d="M35.5967 20.7975C36.1745 20.7086 36.1745 20.5753 35.5967 20.442L33.9523 20.1308C33.9523 20.0864 33.9523 20.042 33.9523 19.9975C33.9523 19.7753 33.9523 19.5531 33.9523 19.3309L35.5523 18.9309C36.1301 18.7975 36.0856 18.6197 35.5078 18.5753L33.8634 18.442C33.819 18.1753 33.819 17.9531 33.7745 17.6864L35.3301 17.1086C35.8634 16.8864 35.8634 16.7531 35.2856 16.7531L33.6412 16.7975C33.5967 16.5309 33.5078 16.3086 33.4634 16.042L34.9301 15.2864C35.4634 15.0197 35.3745 14.8864 34.8412 14.9753L33.1967 15.242C33.1078 15.0197 33.019 14.7531 32.9301 14.5309L34.3078 13.5975C34.7967 13.242 34.7078 13.1086 34.1745 13.2864L32.5745 13.7309C32.4412 13.5086 32.3523 13.2864 32.219 13.0642L33.4634 11.9531C33.9078 11.5531 33.819 11.4197 33.2856 11.642L31.7745 12.2642C31.6412 12.042 31.4634 11.8197 31.3301 11.642L32.4412 10.3975C32.8412 9.95307 32.7523 9.86418 32.219 10.1309L30.6634 10.9309C30.4856 10.7531 30.3523 10.5308 30.1745 10.3531L31.1523 8.9753C31.5078 8.48641 31.3745 8.39752 30.8856 8.70863L29.5523 9.68641C29.3745 9.50863 29.1967 9.33085 28.9745 9.19752L29.7745 7.73085C30.0412 7.19752 29.9078 7.10863 29.5078 7.50863L28.3078 8.61974C28.0856 8.48641 27.9078 8.30863 27.6856 8.17529L28.3078 6.61974C28.5301 6.08641 28.3967 5.99752 27.9967 6.44196L26.9301 7.68641C26.7078 7.55307 26.4856 7.46418 26.2634 7.33085L26.6634 5.73085C26.7967 5.15307 26.6634 5.10863 26.3523 5.59752L25.4634 6.97529C25.2412 6.88641 24.9745 6.79752 24.7523 6.70863L24.9745 5.06418C25.0634 4.48641 24.9301 4.44196 24.6634 4.97529L23.9078 6.44196C23.6856 6.35307 23.419 6.30863 23.1523 6.26418L23.1967 4.61974C23.1967 4.04196 23.0634 3.99752 22.8412 4.57529L22.2634 6.13085C21.9967 6.08641 21.7745 6.04196 21.5078 6.04196L21.2412 4.44196C21.1967 3.86418 21.019 3.86418 20.8856 4.39752L20.4856 5.99752C20.3078 5.99752 20.1301 5.99752 19.9523 5.99752C19.8634 5.99752 19.7745 5.99752 19.7301 5.99752L19.3745 4.35307C19.2412 3.77529 19.1078 3.77529 19.019 4.35307L18.8412 5.99752C18.5745 5.99752 18.3523 6.04196 18.0856 6.08641L17.5078 4.53085C17.3301 3.99752 17.1523 3.99752 17.1523 4.57529L17.1967 6.21974C16.9301 6.26418 16.7078 6.30863 16.4412 6.39752L15.7301 4.88641C15.4634 4.35307 15.3301 4.39752 15.3745 4.97529L15.5523 6.61974C15.3301 6.70863 15.0634 6.79752 14.8412 6.88641L13.9523 5.50863C13.6412 5.01974 13.5078 5.06418 13.6412 5.64196L14.0412 7.24196C13.819 7.33085 13.5967 7.46418 13.3745 7.59752L12.3078 6.30863C11.9523 5.86418 11.819 5.95307 11.9967 6.48641L12.5745 8.04196C12.3523 8.17529 12.1301 8.30863 11.9523 8.44196L10.7523 7.28641C10.3078 6.88641 10.219 6.97529 10.4856 7.50863L11.2412 8.9753C11.0634 9.15307 10.8412 9.28641 10.6634 9.46418L9.33007 8.48641C8.84118 8.13085 8.75229 8.26418 9.0634 8.70863L9.99673 10.0864C9.81896 10.2642 9.64118 10.442 9.4634 10.6642L8.04118 9.81974C7.55229 9.50863 7.41896 9.64196 7.81896 10.0864L8.88562 11.3309C8.75229 11.5086 8.57451 11.7308 8.44118 11.9531L6.93007 11.2864C6.39673 11.0642 6.30785 11.1975 6.75229 11.5975L7.99673 12.7086C7.8634 12.9308 7.73007 13.1531 7.64118 13.3753L6.04118 12.9308C5.4634 12.7531 5.41896 12.9309 5.90784 13.242L7.24118 14.1753C7.15229 14.3975 7.01896 14.6197 6.93007 14.8864L5.28562 14.6197C4.70784 14.5309 4.6634 14.6642 5.15229 14.9309L6.61896 15.7309C6.53007 15.9531 6.48562 16.2197 6.39673 16.442L4.75229 16.3975C4.17451 16.3975 4.13007 16.5309 4.6634 16.7531L6.21896 17.3309C6.17451 17.5975 6.13007 17.8197 6.08562 18.0864L4.44118 18.3086C3.8634 18.3531 3.8634 18.4864 4.39673 18.6642L5.99673 19.1086C5.99673 19.3753 5.95229 19.5975 5.95229 19.8642L4.30785 20.1753C3.73007 20.2642 3.73007 20.442 4.30785 20.5309L5.95229 20.7531C5.95229 21.0197 5.99673 21.242 5.99673 21.5086L4.39673 21.9975C3.81896 22.1753 3.8634 22.3086 4.44118 22.3531L6.08562 22.3975C6.13007 22.6642 6.17451 22.8864 6.21896 23.1531L4.70785 23.8642C4.17451 24.1309 4.21896 24.2642 4.79673 24.2197L6.44118 24.042C6.53007 24.3086 6.57451 24.5309 6.6634 24.7975L5.24118 25.642C4.75229 25.9531 4.79673 26.0864 5.37451 25.9531L7.01896 25.5975C7.10784 25.8197 7.24118 26.042 7.33007 26.3086L6.04118 27.3309C5.59673 27.6864 5.64118 27.8197 6.21896 27.642L7.77451 27.1086C7.90785 27.3309 8.04118 27.5531 8.17451 27.7753L7.10785 28.842C6.70785 29.242 6.79673 29.3753 7.28562 29.1086L8.79673 28.3975C8.93007 28.6197 9.10785 28.7975 9.28562 28.9753L8.2634 30.2642C7.90785 30.7086 7.99673 30.842 8.48562 30.5308L9.8634 29.642C10.0412 29.8197 10.219 29.9975 10.3967 30.1753L9.55229 31.5975C9.24118 32.0864 9.37451 32.1753 9.81896 31.8197L11.1078 30.7531C11.2856 30.9309 11.5078 31.0642 11.7301 31.242L11.019 32.7531C10.7523 33.2864 10.8856 33.3753 11.2856 32.9309L12.4412 31.7309C12.6634 31.8642 12.8856 31.9975 13.1078 32.1309L12.5745 33.6864C12.3967 34.2197 12.5301 34.3086 12.8856 33.8642L13.9078 32.5309C14.1301 32.6197 14.3523 32.7531 14.619 32.842L14.3078 34.4864C14.1745 35.0642 14.3523 35.1086 14.619 34.6197L15.4634 33.1975C15.6856 33.2864 15.9523 33.3753 16.1745 33.4197L15.9967 35.1086C15.9523 35.6864 16.0856 35.7309 16.3523 35.1975L17.019 33.6864C17.2856 33.7309 17.5078 33.7753 17.7745 33.8197L17.8634 35.4642C17.9078 36.042 18.0412 36.042 18.219 35.5086L18.6634 33.9086C18.9301 33.9531 19.1967 33.9531 19.419 33.9531L19.6856 35.5975C19.7745 36.1753 19.9078 36.1753 20.0412 35.5975L20.3523 33.9531C20.619 33.9531 20.8412 33.9531 21.1078 33.9086L21.5523 35.5086C21.7301 36.0864 21.8634 36.042 21.9078 35.4642L21.9967 33.8197C22.2634 33.7753 22.4856 33.7309 22.7523 33.6864L23.3745 35.1975C23.5967 35.7309 23.7301 35.6864 23.7301 35.1086L23.5523 33.5531C23.819 33.5086 24.0412 33.4197 24.2634 33.3309L25.1078 34.7531C25.419 35.242 25.5523 35.1975 25.419 34.6197L25.1078 32.9753C25.3301 32.8864 25.5967 32.7975 25.819 32.6642L26.7967 33.9975C27.1523 34.4864 27.2856 34.3975 27.1078 33.8197L26.6634 32.3086C26.8856 32.1753 27.1078 32.042 27.3301 31.9086L28.4412 33.1086C28.8412 33.5531 28.9745 33.4642 28.7523 32.9309L28.0856 31.4197C28.3078 31.2864 28.4856 31.1086 28.7078 30.9753L29.9967 32.042C30.4412 32.3975 30.5745 32.3086 30.2634 31.8197L29.419 30.3975C29.5967 30.2197 29.7745 30.042 29.9523 29.8642L31.3301 30.7531C31.819 31.0642 31.9078 30.9753 31.5523 30.4864L30.5301 29.1975C30.7078 29.0197 30.8412 28.7975 31.019 28.6197L32.5301 29.3753C33.0634 29.642 33.1523 29.5086 32.7523 29.1086L31.5523 27.9086C31.6856 27.6864 31.819 27.5086 31.9523 27.2864L33.5078 27.8197C34.0412 27.9975 34.1301 27.8642 33.6856 27.5086L32.3967 26.4864C32.5301 26.2642 32.619 26.042 32.7523 25.7753L34.3523 26.1309C34.9301 26.2642 34.9745 26.1308 34.4856 25.8197L33.0634 24.9309C33.1523 24.7086 33.2412 24.442 33.3301 24.2197L34.9745 24.3975C35.5523 24.442 35.5967 24.3086 35.0634 24.042L33.5523 23.3309C33.5967 23.0642 33.6856 22.842 33.7301 22.5753L35.3745 22.5309C35.9523 22.5309 35.9967 22.3531 35.419 22.1753L33.8634 21.7753C33.9078 21.5086 33.9078 21.2864 33.9523 21.0197L35.5967 20.7975ZM14.1745 28.6197C13.7301 29.4197 12.5745 29.5086 11.8634 29.1086C11.3745 28.842 10.219 27.7309 9.15229 25.9975C8.17451 24.2197 7.64118 22.2197 7.64118 20.042C7.64118 16.3975 9.19673 13.1531 11.7301 10.8864C12.5301 10.442 13.6412 10.5308 14.0856 11.2864L18.4856 18.842C18.8412 19.4642 18.8412 20.6642 18.4412 21.2864L14.1745 28.6197ZM29.5078 27.8197C28.0856 29.5086 26.2634 30.842 24.1301 31.5975C21.3745 32.3975 17.7745 32.442 16.3967 31.6864C15.4634 31.242 15.1078 30.2642 15.5523 29.4642L19.9078 21.9086C20.2634 21.2864 21.1967 20.7531 21.9078 20.7531H30.3967C31.3301 20.7531 31.9523 21.5531 31.9523 22.3531C31.9523 23.0642 31.3745 25.5086 29.5078 27.8197ZM19.3301 19.9975C19.3301 19.642 19.6412 19.3309 19.9967 19.3309C20.3523 19.3309 20.6634 19.642 20.6634 19.9975C20.6634 20.3531 20.3523 20.6642 19.9967 20.6642C19.6412 20.6642 19.3301 20.3531 19.3301 19.9975ZM30.5745 19.1975H21.6856C20.9301 19.1531 20.0412 18.5309 19.6856 17.8642L15.4634 10.5309C15.019 9.73085 15.5078 8.84196 16.219 8.44196C16.7078 8.17529 18.2634 7.68641 20.3078 7.68641C26.1301 7.81974 30.9301 12.042 32.0412 17.5531C32.1745 18.4864 31.3745 19.1975 30.5745 19.1975Z" fill="url(#paint1_linear_5718_12108)"/>
</g>
<defs>
<linearGradient id="paint0_linear_5718_12108" x1="20" y1="0" x2="20" y2="40" gradientUnits="userSpaceOnUse">
<stop stop-color="#E5E4EB"/>
<stop offset="1" stop-color="#8F8E92"/>
</linearGradient>
<linearGradient id="paint1_linear_5718_12108" x1="19.988" y1="3.97363" x2="19.988" y2="36.0658" gradientUnits="userSpaceOnUse">
<stop stop-color="#DCDCE1"/>
<stop offset="1" stop-color="#97979C"/>
</linearGradient>
<clipPath id="clip0_5718_12108">
<rect width="40" height="40" rx="8" fill="white"/>
</clipPath>
</defs>
</svg>
